<svg class="svg-icon" style="width: 1em;height: 1em;vertical-align: middle;fill: currentColor;overflow: hidden;" viewBox="0 0 1024 1024" version="1.1" xmlns="http://www.w3.org/2000/svg"><path d="M464.09 310.86h59.19c13.86 0 25.29-11.21 25.29-25.161V2.71c-3.914-0.256-7.79-0.75-11.667-1.005a455.13 455.13 0 0 0-41.27-1.701h-1.976c-13.293 0-26.66 0.457-39.533 1.7-5.12 0.494-10.167 0.732-15.269 1.463V285.7a25.234 25.234 0 0 0 25.235 25.16zM623.906 18.29v308.698a22.546 22.546 0 0 1-20.407 20.297h-59.154c-12.617 0-22.893 10.222-22.893 22.491v158.372c0-11.794 9.325-21.76 21.138-22.51h113.499a5.029 5.029 0 0 0 1.993 0.238c0.768 0 1.518 0 1.975-0.237 7.863-0.768 14.372-5.248 17.938-11.776 0.274-0.256 0.274-0.256 0.274-0.494 0.476-1.006 1.024-2.011 1.207-2.98 0.256-0.787 0.512-1.28 0.768-2.012 0-0.512 0.238-1.006 0.238-1.518a15.067 15.067 0 0 0 0.256-3.492V159.619c134.4 63.543 227.272 199.643 227.272 357.265 0 199.13-148.242 363.994-340.99 391.55V686.52h93.037a22.674 22.674 0 0 0 20.7-22.546v-158.61c0 12.526-10.094 22.784-22.675 22.784H544.345a22.674 22.674 0 0 0-22.893 22.528v135.588h-22.675V550.676c0-12.507-10.02-22.528-22.857-22.528H362.165c-12.342 0-22.674-10.258-22.674-22.784v158.61a22.674 22.674 0 0 0 20.626 22.546h93.13v221.915c-192.768-27.557-340.991-192.42-340.991-391.55 0-157.623 92.89-293.723 227.235-357.247v323.71c0 1.244 0.311 2.506 0.512 3.493 0 0.53 0.256 1.024 0.256 1.536 0.256 0.731 0.256 1.225 0.512 2.011 0.256 0.97 1.024 1.975 1.518 2.963v0.512c3.53 6.528 10.039 11.008 17.828 11.757a6.766 6.766 0 0 0 2.048 0.238c0.732 0 1.536 0 2.231-0.238H477.64a22.674 22.674 0 0 1 21.138 22.528v-158.39c0-12.251-10.02-22.491-22.857-22.491h-59.154a22.473 22.473 0 0 1-20.37-20.28V19.26C169.362 71.318 0 273.466 0 515.11 0 795.576 228.278 1023.013 510.078 1024h2.048c282.568 0 511.87-227.949 511.87-508.89 0-242.888-171.117-445.803-400.09-496.82z" fill="#3E9C8D" /></svg>