<svg class="svg-icon" style="width: 1em;height: 1em;vertical-align: middle;fill: currentColor;overflow: hidden;" viewBox="0 0 1024 1024" version="1.1" xmlns="http://www.w3.org/2000/svg"><path d="M210.59 692.735h169.058a77.654 77.654 0 0 1-41.158-68.565V69.497A470.772 470.772 0 0 0 39.526 594.525c32.814 60.594 98.35 98.21 171.063 98.21z m229.14-343.151h167.8a77.141 77.141 0 0 1 35.704 8.902h177.122a202.013 202.013 0 0 1 145.333 60.268 470.772 470.772 0 0 0-525.96-374.52z" fill="#D9241F" /><path d="M674.556 663.043a77.56 77.56 0 0 1-67.213 38.827H210.59a204.064 204.064 0 0 1-165.796-81.942 471.006 471.006 0 0 0 683.692 304.884c-50.62-61.387-55.513-190.36-53.929-261.769z" fill="#D9241F" /><path d="M820.076 367.622H657.217a77.56 77.56 0 0 1 27.967 59.802V624.17a70.43 70.43 0 0 1-0.373 7.038h0.233c0 3.775-0.373 7.83-0.56 12.072-2.144 49.641-4.195 210.403 52.345 277.15h0.326c86.883 98.443 237.344 53.743 237.344 53.743V511.138a475.434 475.434 0 0 0-6.013-75.184 191.758 191.758 0 0 0-148.41-68.332z" fill="#D9241F" /></svg>