<svg class="svg-icon" style="width: 1em;height: 1em;vertical-align: middle;fill: currentColor;overflow: hidden;" viewBox="0 0 1024 1024" version="1.1" xmlns="http://www.w3.org/2000/svg"><path d="M691.712 783.872c80.896-44.032 131.584-112.64 158.72-199.68 11.264-35.328 16.896-71.168 14.336-108.032-0.512-6.144 0.512-15.36-8.192-16.384-8.192-1.024-8.704 7.68-10.24 13.312-5.632 25.6-18.432 48.128-29.184 72.192-18.432 28.16-37.376 55.296-60.928 79.36-84.992 87.04-190.464 129.024-309.248 141.824-47.616 5.12-93.696-2.048-139.776-12.8-5.632-4.096-11.776-5.632-18.432-7.168-18.944-5.632-36.864-13.824-51.712-26.624-2.56-2.048-5.12-3.584-7.68-4.608-3.584-1.536-7.68-1.536-10.24 1.536-3.584 3.584-1.024 6.656 1.024 9.728 2.56 3.584 5.12 7.168 8.192 10.752 6.144 8.192 13.312 15.872 22.016 21.504 17.408 11.264 30.72 27.648 49.152 37.888 82.944 48.64 172.032 56.32 264.704 36.864 27.136-9.216 55.296-16.896 82.432-26.112" fill="#0080CE" /><path d="M660.992 593.408c-4.096-7.168-16.896-7.168-16.896-7.168l-194.048 51.712c-9.216 2.56-18.432-2.048-22.528-10.752l-88.064-193.536c-5.12-10.752 1.024-23.04 12.288-26.624l202.24-56.32c9.216-2.56 18.432 2.048 22.528 10.24l90.624 195.584c1.024 1.536 1.536 3.584 1.536 5.12l5.632 13.824s10.24 11.264 19.456 2.048c88.064-88.064 122.368-202.24 76.288-289.792-61.952-116.736-244.224-141.824-407.04-56.32C199.68 317.44 117.76 482.304 179.712 599.552s244.224 142.848 407.04 56.832c26.112-13.824 49.664-29.184 71.168-46.592 0.512-0.512 6.656-9.728 3.072-16.384z" fill="#EE5A28" /></svg>