<svg class="svg-icon" style="width: 1em;height: 1em;vertical-align: middle;fill: currentColor;overflow: hidden;" viewBox="0 0 1024 1024" version="1.1" xmlns="http://www.w3.org/2000/svg"><path d="M212.48 564.224c-9.216-89.088 26.624-156.672 70.144-220.16C344.576 254.464 428.032 192 532.48 158.72c31.232-10.24 62.976-10.752 95.232-8.192 32.256 2.56 58.368 33.28 58.88 68.096 0.512 38.4 3.072 75.776 16.384 112.64 8.192 22.528 18.944 41.472 37.888 56.832 26.112 20.48 44.544 47.616 57.344 78.336 9.728 23.552 2.048 38.912-22.528 44.032-30.72 6.144-61.952 7.68-93.184 9.728-13.312 1.024-20.992-3.584-26.624-16.384-28.672-67.584-108.544-106.496-176.128-91.648-105.472 23.04-150.528 135.168-101.888 225.28 32.256 59.904 90.112 86.528 157.696 77.312 57.344-7.68 110.592-56.32 125.44-117.248 4.608-18.944 12.8-26.624 32.256-25.088 31.744 2.048 64-3.072 95.232 7.68 14.848 5.12 23.04 12.8 24.064 28.672 3.584 41.984-11.264 79.36-33.28 113.664-71.68 112.64-224.768 170.496-353.28 132.608-119.808-35.328-189.952-117.248-213.504-239.104-3.072-19.456 0-39.424 0-51.712z" fill="#005BAC" /><path d="M510.976 486.4c18.432 0 36.864 0.512 55.296 0 15.36-0.512 22.528 6.144 22.528 21.504a4243.733 4243.733 0 0 0 0 114.176c0 13.824-5.632 19.456-19.456 19.968-37.888 0.512-75.776-6.144-114.176-0.512-10.752 1.536-17.92-3.584-19.456-15.36-5.12-41.472-2.56-82.944-1.536-124.416 0.512-11.776 9.216-15.872 19.968-15.872 18.432 0.512 37.888 0.512 56.832 0.512z" fill="#F39801" /></svg>