<svg class="svg-icon" style="width: 1em;height: 1em;vertical-align: middle;fill: currentColor;overflow: hidden;" viewBox="0 0 1024 1024" version="1.1" xmlns="http://www.w3.org/2000/svg"><path d="M731.52 352c-12.33 30.037-45.27 138.24-2.688 328.405a272.085 272.085 0 0 0 56.192-165.973A272.043 272.043 0 0 0 731.52 352m-375.85-61.995c2.005 4.864 6.4 16.214 11.69 32.896h288.683a443.733 443.733 0 0 1 11.69-32.896 272.043 272.043 0 0 0-156.032-48.938c-58.026 0-111.786 18.09-156.032 48.938m-61.312 390.102c42.454-189.867 9.814-298.112-2.474-328.15a272.043 272.043 0 0 0-53.504 162.39c0 62.336 20.906 119.808 55.978 165.76m356.694 22.058H372.309c-3.754 12.288-8.533 26.411-13.312 38.912a272.085 272.085 0 0 0 152.704 46.635c56.747 0 109.44-17.323 153.131-46.933a601.472 601.472 0 0 1-13.781-38.614m-259.542-84.309h240.384c-12.117-80.128-6.485-153.515 3.627-210.688H387.883c10.112 57.173 15.701 130.56 3.626 210.688m120.192 234.837a338.347 338.347 0 0 1 0-676.65 338.347 338.347 0 0 1 0 676.65z m-62.293-286.122h129.664V455.253H449.365v111.36z" fill="#BD2227" /></svg>