<svg class="svg-icon" style="width: 1em;height: 1em;vertical-align: middle;fill: currentColor;overflow: hidden;" viewBox="0 0 1024 1024" version="1.1" xmlns="http://www.w3.org/2000/svg"><path d="M852.125 282.875c-65.906 0-119.25 53.438-119.25 119.25s53.344 119.25 119.25 119.25c65.813 0 119.156-53.344 119.156-119.25 0-65.813-53.343-119.25-119.156-119.25z" fill="#F6A819" /><path d="M811.3 394.8c0-35.2 28.3-63.5 63.5-63.5 35.1 0 63.5 28.3 63.5 63.5 0 35.1-28.3 63.6-63.5 63.6-35.2-0.1-63.5-28.5-63.5-63.6z" fill="#FFFFFF" /><path d="M136.531 494.938c-2.625 0-16.219 0.093-21.75 0.28v-86.156L52.72 430.25v255.281c0 47.157 46.594 55.594 83.906 55.594 71.063 0 147.281-41.063 147.281-123.094-0.093-81.937-76.218-123.094-147.375-123.093m496.688 0c-2.532 0-16.219 0.093-21.75 0.28v-86.156l-62.063 21.188v255.281c0 47.157 46.5 55.594 83.813 55.594 71.156 0 147.281-41.063 147.281-123.094 0-81.937-76.219-123.094-147.281-123.093" fill="#551402" /><path d="M126 716.7c-16 0-37.7-2.1-37.7-26.7V547.3L61.8 536s29.8-2.7 48.3-2.4c88.3 1.7 84.2 91.4 84.2 91.6 0 0.1 3.2 91.5-68.3 91.5" fill="#FFFFFF" /><path d="M428.938 596.75c-43.407-12.281-54.563-18.75-54.563-37.125 0-13.969 8.25-28.594 45.844-28.594 30.375 0 53.156 6.75 65.156 11.344l13.969-34.969c-16.875-6.281-42.469-12-77.719-12-70.969 0-115.313 29.344-115.313 68.531 0 34.22 34.313 57.094 88.313 71.25 41.063 10.97 49.688 19.5 49.688 37.5 0 19.407-13.5 32.438-51.094 32.438-30.375 0-59.907-6.938-78.657-15.094l-13.593 36.094c17.906 8.063 53.531 15.094 88.312 15.094 83.438 0 123.094-33.188 123.094-71.625 0-34.313-27-57.188-83.438-72.844" fill="#551402" /><path d="M655.8 716.7c-15.9 0-37.7-2.1-37.7-26.7V547.3L591.6 536s29.7-2.7 48.3-2.4c88.3 1.7 84.3 91.4 84.2 91.6 0.1 0.1 3.2 91.5-68.3 91.5" fill="#FFFFFF" /></svg>