<svg class="svg-icon" style="width: 1em;height: 1em;vertical-align: middle;fill: currentColor;overflow: hidden;" viewBox="0 0 1024 1024" version="1.1" xmlns="http://www.w3.org/2000/svg"><path d="M535.722 202.164s184.344 82.587 276.605 312.971h176.998s-4.837-191.867-252.24-312.971H535.722z m-46.04 264.422s-87.246 189.18 101.935 278.933c0 0 164.995 38.875 220.71-155.32h176.998s-26.693 268.9-300.79 324.794c0 0-105.697 17.198-219.097-60.552 0 0-202.975-116.446-186.135-368.686 0.18 0.358 60.731-169.474 206.378-19.169z" fill="#D81E06" /><path d="M547.904 515.135S479.828 255.55 254.46 425.382c0 0-30.992 36.904-41.92 89.753-10.929 52.67-12.72 96.382 34.575 160.158s36.367 29.022 70.943 80.08c34.575 50.877 129.165 143.497 163.74 159.979 0 0-201.899 18.273-260.122-36.188S28.913 773.646 28.913 487.904c0 0 1.791-113.042 96.919-201.9 59.298-55.356 138.84-83.84 219.994-83.84h69.33c54.46 0 106.772 20.602 146.364 57.864 66.284 62.344 158.008 164.637 160.337 255.107H547.904z" fill="#D81E06" /><path d="M549.158 582.495s2.509 29.022-13.256 41.92-3.046 52.67 29.738 65.568c32.784 12.72 110.893 39.95 156.396-29.2 0 0 10.928-27.231 9.137-78.11H549.158z" fill="#D81E06" /></svg>