<svg class="svg-icon" style="width: 1em;height: 1em;vertical-align: middle;fill: currentColor;overflow: hidden;" viewBox="0 0 1024 1024" version="1.1" xmlns="http://www.w3.org/2000/svg"><path d="M594.074 511.18c-85.658-88.268-170.343-177.56-257.69-264.14-25.088-24.883-31.232-39.424-2.15-66.15 55.09-50.637 107.315-104.5 158.668-158.976 15.616-16.64 23.245-14.9 37.632-0.308C688.538 181.3 846.848 340.685 1006.08 499.098c11.622 11.52 12.34 12.902 12.34 12.902s-50.433 1.126-68.353 1.024c-118.681-0.768-237.26-1.28-355.993-1.843" fill="#026394" /><path d="M594.074 511.18c118.681 0.564 237.312 1.076 355.993 1.895 17.92 0.103 68.352-1.024 68.352-1.024s-198.86 193.69-289.638 288.154C666.624 864.87 601.702 926.822 539.699 991.59c-20.992 21.914-33.945 22.682-55.091-0.102a2545.306 2545.306 0 0 0-143.923-144.947c-30.157-27.75-30.771-46.131-0.768-75.623 86.374-84.838 169.677-172.902 254.157-259.737" fill="#89ADCD" /><path d="M235.418 511.744c-29.748-31.027-58.47-63.232-89.703-92.774-19.097-18.125-24.525-30.772-2.406-51.508 41.216-38.553 79.82-79.923 119.603-120.012 10.24-10.343 18.995-24.116 35.942-6.81 86.068 87.757 172.75 174.95 258.765 262.656 1.69 1.74-1.485 8.294-2.406 12.544l-319.795-4.096" fill="#026394" /><path d="M235.418 511.744l319.846 4.147s-168.55 175.77-254.874 261.581c-8.55 8.5-17.817 7.987-26.163 0.102-47.462-44.902-95.437-89.19-141.568-135.475-13.773-13.773 2.97-21.862 12.135-31.13 31.385-31.846 90.624-99.225 90.624-99.225" fill="#89ADCD" /><path d="M0.051 514.97l96.87-98.458c8.193-10.496 17.767-1.485 24.525 5.888 27.597 30.003 83.15 89.6 83.15 89.6-63.233 1.024-141.313 1.997-204.545 2.97" fill="#026394" /><path d="M0.051 514.97c63.232-0.973 141.312-1.946 204.544-2.97 0 0-53.811 56.371-79.155 85.965-9.062 10.496-22.426 14.49-28.877 3.686L0.051 514.97z" fill="#89ADCD" /></svg>