<svg class="svg-icon" style="width: 2.4326171875em;height: 1em;vertical-align: middle;fill: currentColor;overflow: hidden;" viewBox="0 0 2491 1024" version="1.1" xmlns="http://www.w3.org/2000/svg"><path d="M1170.169727 887.462209V722.11566c-93.776177-24.207787-245.857842-15.027868-236.834921 89.572214 11.857896 137.305795 168.53652 77.276322 236.834921 75.772335z m0-282.054524c0.586995-16.425856 3.913966-52.285541-0.776993-79.837299-16.00086-93.339181-220.895061-45.331602-313.391249 21.356812V390.550571c69.075394-34.607696 172.176488-52.36454 260.86471-49.507565 127.287883 4.170963 202.75322 43.849615 202.75322 184.353381v471.439861c-114.595994-5.065956-272.588607 49.059569-370.826745 16.872852-92.791185-30.430733-146.194717-107.876053-146.194716-207.080182 3.666968-203.116217 213.789123-239.104901 367.571773-201.221233z m358.79385-111.817018v518.681446H1382.057867V367.152777c127.398882-1.207989 280.595537-52.39754 401.296476-5.232954 103.146094 40.326646 100.904114 133.045832 100.904115 331.707087v318.645203h-149.991684V609.091653c-0.006-147.313707-19.450829-138.93878-205.303197-115.500986z m691.546928 146.446714l270.989621 372.246732h-175.123462L2101.351552 729.646594v282.635519H1949.342886V141.974754h152.009666v418.057329l208.501169-212.464134h178.924429z" fill="#641E7B" /><path d="M499.740613 0H0v1012.283113h499.975611c45.106604 0 84.33726-10.974904 121.918929-30.408733v-0.172999h-99.891123v-30.827729H669.534122c11.3769-9.196919 21.703809-19.719827 31.414724-30.649731H522.003417v-30.637731h202.836219c6.406944-9.621916 12.215893-20.344821 17.342848-30.659731H155.381636v-30.72773h599.727735a293.794421 293.794421 0 0 0 8.894922-30.565732H155.381636v-30.71573h613.245616c0.916992-9.247919 1.330988-18.366839 1.330988-27.803756v-2.957974H155.381636l-0.117999-30.598731h612.726621a282.53452 282.53452 0 0 0-5.534952-30.704731H155.263637l0.117999-30.889729 597.563754 0.183999a270.223628 270.223628 0 0 0-13.585881-30.642731l-584.094872 0.083999 0.116999-30.671731h565.365036a264.140681 264.140681 0 0 0-24.956781-30.828729H477.20381V521.405422l184.252383 0.206999a265.722667 265.722667 0 0 0-51.24555-30.81673H477.20381v-30.671731h71.400374c26.629766-5.942948 50.955553-16.402856 73.486354-30.609731H155.051639v-30.559732l505.577561-0.133998c9.609916-9.470917 17.934843-19.813826 25.812774-30.693731H155.051639v-30.576731h550.008171c4.947957-10.018912 9.447917-20.261822 12.802888-30.917729l-562.817059 0.122999v-30.699731l570.64999 0.179999a235.710931 235.710931 0 0 0 3.728967-30.80073H155.057639v-30.67173H729.0436a223.858035 223.858035 0 0 0-4.321963-30.682731l-569.659998 0.094999v-30.609731l560.502079-0.117999c-3.644968-10.504908-8.039929-21.076815-13.373883-30.676731h-180.188418V91.986192h160.274593A227.213005 227.213005 0 0 0 654.294256 61.393461H522.003417V30.894729h84.539258C581.074899 11.3659 536.908286 0 499.740613 0z" fill="#DDA116" /></svg>