<svg class="svg-icon" style="width: 1em;height: 1em;vertical-align: middle;fill: currentColor;overflow: hidden;" viewBox="0 0 1024 1024" version="1.1" xmlns="http://www.w3.org/2000/svg"><path d="M842.795 555.69s-4.822-108.415-89.814-192.127c0 0-6.272-2.774-3.498 1.365 0 0 60.416 82.347-1.366 229.205 0 0-28.842 56.918-74.154 87.126-45.227 30.122-82.219 60.373-82.219 100.224 0 39.808 26.624 59.648 54.059 65.109 27.477 5.547 100.266-7.51 153.045-96.768 0 0 51.499-64.427 43.947-194.133M441.387 219.477s-43.392-68.437-123.179-43.264c0 0-71.04 27.776-68.95 94.635 0 0-2.474 32.981 26.24 66.987 0 0 43.265-89.6 165.889-118.443m101.12 368.47c-40.064-26.027-75.008-15.745-102.827 6.229-27.776 21.93-21.248 74.112 5.888 82.346 26.923 8.235 46.55-2.432 47.957-5.845 1.366-3.413 4.48-3.413 4.48-3.413s7.851 34.304-37.12 43.221c-44.8 8.875-77.226-3.84-77.226-3.84-70.614-29.44-124.758-88.448-141.995-184.533-17.11-96.086 19.925-160.555 19.925-160.555-107.776 119.339-108.074 278.357-42.24 382.379 65.878 103.936 177.536 101.376 177.536 101.376 126.208 11.349 169.43-79.232 169.43-79.232 36.992-76.203 16.469-152.022-23.766-178.134M322.773 424.79c-24.661 32.427-25.173 117.846 39.254 108.075 73.088-11.093 94.122-74.112 99.285-90.581 5.12-16.47 11.264-84.395-47.872-82.304-59.179 2.005-90.667 64.81-90.667 64.81m413.867-84.906s63.83-73.558-1.11-137.899c0 0-35.54-43.776-107.05-26.24-41.301 10.112-57.6 43.221-57.6 43.221s104.49 16.982 165.717 120.918M620.245 523.136c72.107 27.733 81.92-24.747 81.92-24.747 12.288-41.685-14.464-101.418-60.757-125.568-46.293-24.192-76.63-0.512-76.63-0.512-22.229 18.56-17.066 48.342-17.066 48.342 3.072 67.968 72.533 102.485 72.533 102.485" fill="#231916" /></svg>