<svg class="svg-icon" style="width: 1.5830078125em;height: 1em;vertical-align: middle;fill: currentColor;overflow: hidden;" viewBox="0 0 1621 1024" version="1.1" xmlns="http://www.w3.org/2000/svg"><path d="M1621.177 503.494c0-204.808-281.004-373.735-629.233-373.735-279.49 0-514.13 109.16-597.35 256.362a109.483 109.483 0 0 0-12.753 44.853c0 36.206 23.453 70.359 59.768 91.65L761.52 706.357a128.29 128.29 0 0 0 57.606 14.915 105.485 105.485 0 0 0 57.605-14.915l300.783-172.925c19.13-12.753 34.044-29.83 34.044-49.068s-12.753-36.206-32.423-49.067l-112.618-64.09-249.553 142.987-190.11-108.835c72.52-66.144 209.024-108.835 364.765-108.835 232.477 0 422.262 98.135 422.262 219.723-6.376 187.733-281.004 330.612-618.533 322.182S191.623 667.773 198.108 481.77C200.486 234.703 526.882 36.38 925.8 43.296c36.206 0 70.36 2.054 104.512 4.215A883.758 883.758 0 0 0 733.745 0.065a876.949 876.949 0 0 0-245.23 32.423C202.647 108.9 0 294.47 0 508.033 0 791.415 362.603 1024 810.588 1024c447.986-4.323 812.75-234.638 810.589-520.506z" fill="#004187" /></svg>