<svg class="svg-icon" style="width: 1em;height: 1em;vertical-align: middle;fill: currentColor;overflow: hidden;" viewBox="0 0 1024 1024" version="1.1" xmlns="http://www.w3.org/2000/svg"><path d="M358.4 216.064c58.368 20.48 114.176 78.848 114.176 144.896v508.416c12.8 0 28.16 2.56 40.448 2.56s28.16 0 40.448-2.56V360.96c0-66.048 55.808-124.416 109.056-144.896 7.68-2.56 10.24-7.68 10.24-12.8 0-7.68-2.56-12.8-10.24-17.92-45.568-20.48-96.768-33.28-150.016-33.28-55.808 0-107.008 12.8-150.016 33.28-7.68 2.56-10.24 7.68-10.24 17.92-4.096 7.68-1.536 10.24 6.144 12.8z" fill="#D7000F" /><path d="M416.768 859.136V391.168c0-50.688-28.16-91.648-68.608-109.056v548.864c19.968 12.8 43.008 20.48 68.608 28.16z m256.512-28.16V282.112c-40.448 17.92-68.608 60.928-68.608 109.056v467.456c23.04-7.168 48.128-14.848 68.608-27.648z m-447.488-384c2.56 0 7.68 2.56 7.68 7.68 7.68 20.48 23.04 37.888 45.568 37.888 7.68 0 12.8-2.56 17.92-7.68V228.352C207.872 294.4 152.064 396.288 152.064 513.024s55.808 218.624 139.776 284.672V541.184c-2.56-2.56-10.24-7.68-17.92-7.68-20.48 0-37.888 17.92-45.568 37.888 0 2.56-2.56 7.68-7.68 7.68s-2.56-2.56-7.68-2.56c-12.8-17.92-20.48-37.888-20.48-60.928s7.68-45.568 20.48-60.928c8.192-5.12 10.24-7.68 12.8-7.68z m617.984 83.968c-20.48 0-37.888 17.92-45.568 37.888 0 2.56-2.56 7.68-7.68 7.68s-2.56-2.56-7.68-2.56c-10.24-17.92-17.92-37.888-17.92-60.928s7.68-45.568 20.48-60.928c0 0 2.56-2.56 7.68-2.56 2.56 0 7.68 2.56 7.68 7.68 7.68 20.48 23.04 37.888 45.568 37.888 10.24 0 20.48-7.68 23.04-17.92-10.24-99.328-60.928-185.344-137.216-244.224v566.784c71.168-55.808 119.296-137.216 134.656-228.864v-12.8c-5.12-19.456-12.8-27.136-23.04-27.136z" fill="#D7000F" /></svg>