<svg class="svg-icon" style="width: 1.2763671875em;height: 1em;vertical-align: middle;fill: currentColor;overflow: hidden;" viewBox="0 0 1307 1024" version="1.1" xmlns="http://www.w3.org/2000/svg"><path d="M536.729 694.751l111.42-66.08 8.235 4.096v-72.181l-28.868-12.376S193.994 564.703 231.14 263.408C276.61 141.617 466.486 69.327 656.384 65.253V5.338C421.082 11.504 92.901 75.449 30.96 288.093c-2.092 8.279-4.14 14.401-4.14 20.697v28.847c12.375 121.812 191.99 262.122 487.163 262.122l-158.938 94.992 282.754 144.45 18.585-8.192v-74.382l-4.118 2.092L536.73 694.75z m119.655-629.52V5.338h4.14c214.713-6.253 641.96 72.225 639.89 315.784h-198.198C1073.392 137.477 862.818 58.956 656.384 65.231z m0 567.557l119.786 61.963-119.786 61.876v74.382l299.313-146.585-299.313-123.86v72.203z" fill="#00A45C" /><path d="M646.057 950.642v59.915h-4.118C427.335 1014.675 0 938.29 0 694.73h200.225c28.911 181.64 237.372 260.03 445.832 255.89z m0-565.53l-119.743-61.877 119.743-64.054v-72.16l-299.291 144.45 299.29 125.93v-72.268z m119.72-61.877l-111.42 63.902-8.278-2.026v72.268l26.842 10.262s433.457-14.445 398.38 284.89c-47.497 121.747-235.303 194.037-425.244 198.111v59.915c235.39-8.235 563.527-70.155 625.446-282.798 2.07-6.166 4.161-12.375 4.161-20.676v-26.755c-12.375-123.947-194.08-262.21-487.162-264.279l156.89-92.814-280.707-146.628-18.628 10.371v72.203l4.14-2.07 115.58 66.08z" fill="#0098D6" /></svg>