<svg class="svg-icon" style="width: 1em;height: 1em;vertical-align: middle;fill: currentColor;overflow: hidden;" viewBox="0 0 1024 1024" version="1.1" xmlns="http://www.w3.org/2000/svg"><path d="M473.088 268.288l-68.608-68.096c-55.296 55.808-55.296 143.872 0 202.24l68.096-68.096c10.24-20.48 10.24-45.568 0.512-66.048z m9.728 70.656L414.72 407.04c55.296 55.296 143.872 55.296 201.728 0l-68.096-68.096c-27.648-5.12-45.056-5.12-65.536 0z m68.096-5.12l68.608 68.608c55.296-55.296 55.296-143.872 0-201.728L551.424 268.8c-5.12 19.968-5.12 45.056-0.512 65.024zM412.16 195.072l68.096 68.096c19.968 5.12 40.448 5.12 60.416 0l68.608-68.096c-53.248-55.296-141.312-55.296-197.12 0z m272.896 282.624L616.96 412.16c-55.296 55.296-55.296 143.872 0 201.728l68.096-68.096c5.12-25.088 5.12-45.056 0-68.096z m5.12 73.216l-68.096 68.096c55.296 55.296 143.872 55.296 201.728 0l-68.096-68.096c-20.48-9.728-45.568-9.728-65.536 0z m70.656-5.12l68.096 68.096c55.296-55.296 55.296-143.872 0-201.728l-68.096 68.096c-5.12 20.48-5.12 40.448 0 65.536z m-139.264-143.36l68.096 68.096c19.968 5.12 40.448 5.12 60.416 0l68.096-68.096c-55.296-48.128-138.24-48.128-196.608 0z m-358.4 75.264l-68.096-65.536c-55.296 55.296-55.296 143.872 0 201.728l68.096-68.096c5.12-25.088 5.12-45.056 0-68.096z m5.12 73.216l-68.096 68.096c55.296 55.296 143.872 55.296 201.728 0l-68.096-68.096c-19.968-9.728-45.056-9.728-65.536 0z m75.776-5.12L412.16 614.4c55.296-55.296 55.296-143.872 0-201.728l-68.096 67.584c-10.24 20.48-10.24 40.448 0 65.536z m-143.872-143.36l68.096 68.096c19.968 5.12 40.448 5.12 60.416 0l68.096-68.096c-47.616-48.128-138.24-48.128-196.608 0z m272.896 287.232l-68.608-68.096c-55.296 55.296-55.296 143.872 0 201.728l68.096-68.096c10.24-19.968 10.24-45.056 0.512-65.536z m9.728 68.608l-68.096 68.096c55.296 55.296 143.872 55.296 201.728 0l-68.096-68.096c-27.648-5.12-45.056-5.12-65.536 0z m68.096-5.12l68.096 68.096c55.296-55.296 55.296-143.872 0-201.728l-68.096 68.096c-4.608 22.528-4.608 42.496 0 65.536zM412.16 616.96l68.096 68.096c19.968 5.12 40.448 5.12 60.416 0l68.096-68.096c-52.736-55.808-140.8-55.808-196.608 0z" fill="#9E0B0F" /></svg>