<svg class="svg-icon" style="width: 1em;height: 1em;vertical-align: middle;fill: currentColor;overflow: hidden;" viewBox="0 0 1024 1024" version="1.1" xmlns="http://www.w3.org/2000/svg"><path d="M408.064 364.544h-171.52c-30.208 0-54.272 24.576-54.272 54.272v362.496c0 41.472 33.792 75.264 75.264 75.264h150.528V364.544z" fill="#B90001" /><path d="M674.304 169.472c0-14.848-12.288-27.136-27.136-27.136H427.52s-44.032-3.072-93.696 46.08c-56.832 57.344-125.44 125.44-125.44 125.44s-26.112 18.944-26.112 91.136c0 0 15.872-37.888 47.104-37.888h444.416l0.512-197.632z" fill="#FE0008" /><path d="M864.768 633.856c18.944 0 33.792-15.36 33.792-33.792v-212.48s3.072-44.032-46.08-93.696c-56.832-57.344-125.44-125.952-125.44-125.952s-18.944-26.112-91.136-26.112c0 0 37.888 15.872 37.888 47.104v444.416l190.976 0.512z" fill="#B90001" /><path d="M407.04 856.576h246.784s44.032 3.072 93.696-46.08l125.952-125.952s26.112-18.944 26.112-91.136c0 0-15.872 37.888-47.104 37.888H408.064l-1.024 225.28z" fill="#FE0008" /></svg>