<svg class="svg-icon" style="width: 1em;height: 1em;vertical-align: middle;fill: currentColor;overflow: hidden;" viewBox="0 0 1024 1024" version="1.1" xmlns="http://www.w3.org/2000/svg"><path d="M569.1 561.5l348.7 0.2 41-39.9-41-39.9-430.6-0.3 81.9 79.9z m127.4-295.7l-82-80-82 79.9 164 0.1z m101 413h-207l-79.6 77.6 2.4 2.3h202.2l82-79.9zM513.4 284.4l-81.9 79.9 366.1 0.2-81.9-80-202.3-0.1z m74.8 295.8l51.6 50.3-30.3 29.5h207l82.1-79.8H588.2z m-55.8 197l81.9 80 82.1-79.9-164-0.1zM412.3 383l-13.2 12.6 68.9 67.2h430.6l-81.9-79.9-404.4 0.1z m0 0" fill="#A98349" /><path d="M382.3 412.4l129-125.8-103.5-100.9L63.3 521.3l344.4 336L623 647.5 382.3 412.4z m0 0" fill="#003E75" /></svg>