<svg class="svg-icon" style="width: 1em;height: 1em;vertical-align: middle;fill: currentColor;overflow: hidden;" viewBox="0 0 1024 1024" version="1.1" xmlns="http://www.w3.org/2000/svg"><path d="M865.28 154.112c-29.184-2.048-58.368-3.072-87.552 0.512-8.704 1.024-19.456 0-27.136 7.168l0.512 0.512h-0.512c-12.288 1.024-24.064 3.584-35.328 8.704-43.52 11.776-81.92 33.792-117.248 61.952-6.144 5.12-11.776 11.776-19.456 14.848-1.024 0.512-1.536 1.536-2.56 2.048-8.192 8.192-18.944 14.336-23.04 26.112-9.216 2.048-11.776 10.24-15.872 17.408-2.048 2.56-6.144 4.096-4.608 8.192-9.216 4.608-11.264 14.848-17.408 22.528 0.512 2.56-1.536 4.096-3.072 6.144-6.656 11.776-16.896 22.016-17.92 36.352-2.048 0.512-3.072 2.048-3.584 4.096-3.072 10.752-9.216 19.456-12.288 30.208-7.168 25.6-23.552 45.056-38.912 65.024-4.096 5.12-12.288 5.12-13.824 12.8-13.824 6.656-26.112 16.896-40.96 22.016-3.584 1.536-7.68 3.072-8.704 8.192h1.024l0.512 0.512c2.048 1.536 3.584 3.584 6.144 4.096 22.016 8.704 39.936 22.016 54.784 40.96 2.048 2.56 4.608 5.632 8.704 4.608 0 0.512 0 1.024 0.512 1.536l1.536 1.536c2.56 4.608 5.632 9.216 5.12 14.848-1.024 1.024-2.048 2.048-3.072 2.56-5.12 8.192-6.144 18.432-10.24 27.136-9.216 19.968-20.48 38.912-34.304 56.32-18.432 23.04-40.448 41.984-65.536 57.856-12.288 7.68-27.136 11.776-38.912 20.48-4.608 3.584-10.24 4.096-15.36 6.656-7.68 0.512-15.36 5.632-23.552 2.56-0.512-0.512-0.512-1.536-0.512-2.048s-0.512-1.536-0.512-2.048c3.584-10.752 1.024-22.016 1.024-33.28 0-2.56 0.512-5.12 0.512-7.68v-409.6c0-2.56-0.512-5.12-0.512-7.68-1.024-0.512-1.024-1.024-1.536-2.048 0.512 0.512 1.024 1.024 1.536 2.048 0-2.048 0.512-4.096 0.512-6.656 0.512-11.264 1.536-12.8 12.8-9.728 7.168 1.536 13.824 4.096 20.48 6.144 19.456 5.632 36.352 16.896 54.272 25.6 0.512 0.512 1.024 1.024 1.024 1.536 2.56 2.56 5.632 4.608 8.704 6.144l3.072 1.536c-0.512 2.56 1.536 4.608 3.072 5.632 14.336 10.752 25.6 24.064 38.4 36.352 9.728 14.848 17.408 30.72 30.208 43.52 0 0.512 0.512 0.512 0.512 1.024l1.024 0.512c5.632-6.144 8.192-13.824 10.752-20.992 10.24-31.232 22.528-61.44 40.448-89.088 4.096-4.608 3.584-8.704 0-13.312-13.312-16.384-28.16-30.72-45.568-43.008-4.096-6.656-11.264-9.728-17.408-14.336-16.896-12.8-34.816-23.552-54.784-31.744l-23.04-9.216c-5.12-3.072-10.752-6.144-16.384-6.144-1.024-0.512-2.56-1.536-4.096-2.048-4.096-1.536-8.192-2.56-12.8-3.072h-2.048c-5.12-4.096-12.288-3.072-17.92-5.12-2.048-0.512-4.608-0.512-6.656-1.024-1.024-0.512-2.56-1.536-3.584-2.048-40.96-7.68-81.408-9.216-122.88-2.048v14.848c0 3.072-0.512 6.656-0.512 9.728v664.576c0 4.608 0 9.216 0.512 14.336v2.56c0 0.512-0.512 1.024 0 1.536 18.944 6.656 38.912 5.632 58.88 5.632 30.208 0 59.904-3.584 89.088-11.776 18.944-5.12 37.376-10.24 54.272-19.968 5.632-2.048 12.8-2.048 17.408-6.656 7.168-1.536 14.336-3.584 19.456-8.704l2.048-2.048c6.656-3.584 14.336-5.12 19.456-11.264 5.632-5.12 12.288-8.704 17.408-14.848 2.048-1.024 2.048-2.56 1.024-4.096 8.192-1.536 12.288-9.216 18.944-13.312 16.384-10.752 26.624-27.136 39.424-41.984 4.096-6.144 7.68-12.288 11.776-17.92 3.584-2.048 5.12-5.632 7.168-9.216 23.04-34.304 36.352-72.704 49.152-111.616l6.144-9.216c2.56-2.56 4.608-5.632 6.144-8.704 7.168-13.824 16.384-25.6 27.136-36.864 13.312-13.824 28.672-24.576 46.592-31.744 3.072-3.584 3.072-7.168 0-10.24-5.632-0.512-9.728-6.656-15.872-6.144-0.512-0.512-1.024-1.024-1.024-1.536-11.776-8.192-23.552-15.36-34.304-24.576-14.848-12.8-18.432-22.016-12.288-36.352 13.824-31.232 28.672-61.44 52.736-86.528 7.68-11.264 19.456-18.944 29.696-27.648 5.12-4.608 10.24-8.704 17.408-10.752 2.048-1.024 4.096-2.048 5.632-4.096 18.944-13.824 40.96-21.504 62.976-27.648 12.288-3.584 13.312-2.56 13.312 10.24v450.56c0 11.776-1.024 12.8-12.288 9.728-25.088-6.144-48.128-17.408-70.144-30.72-22.016-13.824-40.96-31.744-57.856-51.2-7.68-9.216-12.8-19.968-19.968-29.184-7.168-5.12-7.168-14.336-12.8-19.968-1.024-2.048-2.048-4.096-3.072-5.632-7.168 7.168-10.24 15.872-12.8 25.088-8.704 31.744-22.528 61.952-38.912 90.112-4.608 8.192-3.584 13.312 2.048 19.968 13.312 15.36 28.672 28.672 42.496 43.008 18.944 16.384 37.376 33.28 61.44 42.496 11.776 4.096 22.016 12.288 34.816 14.336 18.432 5.632 36.352 13.824 55.808 15.872 41.472 11.776 83.456 11.776 125.952 7.168 9.216-1.024 11.776-4.608 11.776-13.824-0.512-215.04-0.512-430.08-0.512-645.632 0-3.584 0.512-7.168 0.512-10.752 3.072-9.216 0.512-18.432 2.048-27.648 0.512-8.704-4.096-13.824-14.336-14.336z" fill="#FE0300" /></svg>