<svg class="svg-icon" style="width: 1em;height: 1em;vertical-align: middle;fill: currentColor;overflow: hidden;" viewBox="0 0 1024 1024" version="1.1" xmlns="http://www.w3.org/2000/svg"><path d="M325.12 177.152C244.736 198.656 203.776 239.104 182.272 320c-31.744 128.512-31.744 250.88 0 379.392 3.072 10.752 6.144 20.992 9.728 30.72 19.456 36.864 169.984-63.488 221.696-162.816 33.28-64-3.072-160.768-79.36-183.296 46.08-36.352 77.824-26.112 164.864 17.92 81.92 41.472 195.072-90.624 221.184-136.192 12.8-22.016 31.744-67.584 17.408-76.8-11.264-4.608-22.528-8.192-34.304-11.264-61.952-15.36-125.44-23.552-189.44-24.064-61.952 0-124.928 7.68-188.928 23.552m471.04 110.592C721.92 325.12 612.864 439.296 608.256 481.28c-7.68 70.656 59.904 153.088 115.2 164.352-67.584 26.112-111.616 5.12-150.528-16.384-28.672-15.36-54.272-31.232-84.48-28.16-41.984 4.096-155.648 113.664-193.536 187.904-9.728 18.944-12.8 36.864-1.024 46.08 10.752 4.608 22.528 8.192 35.328 11.776 128 31.744 250.88 31.744 379.392 0 80.384-21.504 121.344-61.952 142.336-142.336 31.744-128.512 31.744-250.88 0-379.392-3.072-12.8-7.68-25.088-12.8-37.376-3.584-5.632-9.216-7.68-15.872-7.68-6.656-0.512-16.384 2.56-26.112 7.68" fill="#005BAC" /></svg>