<svg class="svg-icon" style="width: 1em;height: 1em;vertical-align: middle;fill: currentColor;overflow: hidden;" viewBox="0 0 1024 1024" version="1.1" xmlns="http://www.w3.org/2000/svg"><path d="M869.376 562.688c2.56-9.216 5.12-18.432 5.632-28.16 1.024-2.048 0.512-4.096 0.512-6.144 3.584-17.408 2.048-34.304 2.048-51.712 0-9.216-2.048-17.92-4.096-26.624-3.072-13.312-7.168-26.112-11.264-39.424 0.512-2.56-0.512-4.608-1.536-7.168-1.024-4.096-4.608-6.656-4.608-11.264-3.072-4.096-3.072-9.728-6.656-13.824-2.048-8.704-6.656-16.384-10.24-24.576-2.56-5.632-6.656-10.24-8.192-15.872-6.656-8.192-11.264-17.92-18.432-26.112-0.512-3.584-3.584-5.12-5.632-7.68l-0.512 0.512h0.512c-3.584-5.632-7.68-10.24-12.8-14.848l-18.432-16.896-4.608-6.144c-2.048-2.048-6.144-3.072-3.584-7.168 7.168-3.072 13.312-7.168 18.944-11.776 6.656-5.632 12.288-11.776 15.36-19.968 2.048-3.072 3.072-6.656 4.096-10.24 3.072-12.8-0.512-25.088-5.12-36.864-9.216-15.36-21.504-26.624-37.888-32.768-21.504-7.68-43.52-8.192-66.048-7.168-4.096 0-8.192 1.024-11.776 2.048-6.144 1.536-6.656 4.608-2.048 8.704 5.12 4.608 10.752 8.704 15.36 14.336 5.12 5.632 6.656 14.336 2.56 18.432-6.656 7.68-14.336 11.776-25.088 12.288-12.288 0.512-23.04-2.56-34.304-6.144-48.64-16.384-98.816-23.552-150.016-18.944-19.456 1.536-39.424 4.608-58.368 10.24-14.336 4.608-28.16 9.728-42.496 14.336-7.68 3.584-15.36 6.656-22.528 10.752-8.192 4.608-17.408 9.216-22.016 18.432-4.608 5.12-5.632 11.776-6.656 18.432-9.216 3.584-17.408 10.24-27.136 13.824-19.968 7.68-40.448 12.8-62.464 11.264-8.704-0.512-17.92-2.048-26.624 1.024-5.12 5.12-9.216 10.752-9.728 18.944-1.024 12.288 2.048 23.552 5.12 35.328l0.512 0.512s0.512 0 0.512-0.512c2.56 4.608 4.096 9.728 6.144 14.848 0.512 1.024 1.024 2.56 1.024 3.584 3.072 3.072 4.096 7.168 6.144 11.264 4.608 10.24 11.264 17.408 22.528 19.968 27.136 5.632 53.76 2.56 80.896-1.024 11.264-1.536 22.528-4.096 34.304-6.656 4.096-1.024 8.704 0 12.288-3.584 2.048-1.024 4.096-1.536 6.144-2.56 5.12 0.512 9.728-1.536 13.824-5.12 3.584-1.536 8.192-1.024 11.264-5.12 4.608-3.072 10.752-3.072 14.336-7.168 6.144-1.536 11.264-4.096 16.384-8.704 3.072 0 5.12-2.048 7.168-3.584 6.144-1.024 10.752-5.632 16.384-7.68 25.6-10.24 52.736-14.848 79.872-15.36 18.432 0 37.376 1.536 55.808 6.656 15.872 4.608 32.256 7.68 45.056 18.944 5.12 4.608 10.24 9.728 14.848 14.336 3.072 4.096 4.608 8.704 8.704 12.288 1.536 4.608 3.584 8.192 7.168 10.752s4.096 6.656 6.144 9.728c0.512 1.024 0.512 2.048 1.024 3.584 3.584 10.752 8.704 21.504 10.24 32.768 1.536 4.608 2.048 9.728 2.048 14.336 0 17.408-2.56 33.792-8.192 50.176-1.024 2.56-2.56 5.12-1.536 8.192-2.56 3.584-4.608 8.192-8.704 10.752-11.776 7.68-24.576 13.312-38.4 15.36-7.68 1.024-14.848-1.024-20.48-5.632-4.096-3.072-4.096-6.144-1.024-9.728 3.072-3.072 6.144-6.144 9.728-8.192 9.216-5.12 18.944-9.728 29.184-12.8 3.584-1.024 7.168-2.56 11.264-3.584 1.536-0.512 3.072-1.024 3.584-3.072s-1.024-3.072-2.56-3.584c-10.24-5.12-17.408-13.824-24.064-22.528 0.512-1.536-0.512-3.072-1.536-4.608-1.536-2.048-3.072-3.584-4.096-5.632v-0.512c0-2.56-1.024-4.608-2.048-7.168-6.656-14.848-10.752-30.208-13.824-46.08-1.024-5.12-1.536-10.24-3.584-15.36-0.512-2.56-1.024-5.632-1.536-8.192-0.512-1.536 0.512-4.096-1.536-4.608-2.048-1.024-3.584 0.512-5.12 2.048-6.656 5.12-12.8 11.264-20.48 14.848-2.048 1.536-4.096 2.56-6.144 4.096-9.728 5.632-19.456 11.264-29.696 16.896-32.256 17.408-66.56 28.672-101.888 36.864-1.536 0-3.584-0.512-4.096 1.024-0.512 2.048 1.536 2.56 3.072 3.072 2.048 0.512 3.584 2.048 6.144 2.048 1.024 1.024 2.56 1.536 3.584 2.56 2.56 0 3.584 2.048 5.12 3.072 9.216 8.192 14.336 19.456 20.992 29.696 0 1.024 0 2.56 0.512 3.584 3.584 5.632 1.024 8.704-4.096 10.752-6.144 2.048-12.288 4.608-17.92 7.68-7.168 3.584-14.848 5.12-21.504 10.24-0.512 0.512-1.536 1.024-2.048 1.536-2.048-0.512-4.096 0-5.12-2.56-5.632-14.848-17.408-25.088-30.208-34.304-2.56-2.048-4.608-5.632-8.704-5.12-18.432-5.632-36.864-4.608-55.808-2.048-26.624 3.584-51.712 12.288-76.8 21.504-6.656 2.56-13.824 4.608-19.968 9.216-10.24 4.608-20.48 10.24-31.744 13.312-10.24 3.072-19.456 0-26.112-8.704-5.12-6.144-6.656-13.312-8.704-20.48-1.024-4.096-0.512-8.192-3.072-12.288-1.024 1.024-1.536 2.048-2.048 3.072s-1.536 2.048-2.048 3.072c-9.728 16.896-13.824 35.84-14.848 55.296-1.024 22.016 1.024 43.52 7.68 65.024 0 7.168 5.632 11.264 8.704 17.408 5.632 4.608 11.264 10.24 18.432 12.8 16.896 6.656 33.792 5.12 50.688 0.512 15.872-4.608 31.232-11.264 46.08-18.944 13.824-7.68 28.16-14.848 40.96-24.576 1.536-1.536 3.584-3.072 6.656-2.56-0.512 3.584-3.072 5.632-5.12 7.68l-64 64c-1.536 1.536-2.56 3.584-5.632 3.584-2.048 2.56-3.584 5.12-5.632 7.168-9.216 8.704-19.456 16.384-27.648 25.6-3.584 5.632-6.144 10.752-7.68 17.408-1.536 7.68-0.512 14.848 0 22.016 1.536 5.12 3.584 9.728 5.12 14.848 2.048 3.072 2.048 7.68 6.144 9.728 6.144 11.264 15.872 11.264 26.624 8.192 14.848-4.096 27.648-11.776 40.448-19.968 6.144-4.096 11.776-8.192 17.92-12.288 1.024 1.536 0.512 2.048 0 3.072-7.168 16.384-9.728 33.28-9.728 50.688 0 14.336 2.56 28.16 4.608 41.984 0.512 5.12 3.072 8.704 7.168 11.776 12.288 9.216 26.112 16.896 39.936 23.04 13.312 6.144 27.136 11.776 40.96 17.408 3.584 4.096 8.704 3.584 12.8 4.608 8.704 2.56 16.896 6.144 25.6 8.192 1.536 0.512 3.584 1.024 4.608-0.512 1.024-2.048-0.512-3.072-1.536-4.096-6.144-6.144-10.752-13.312-14.848-20.48-8.704-16.384-17.408-32.768-22.016-50.688-2.048-6.656-4.096-13.312-5.632-19.968-4.608-20.48-7.168-41.472-7.68-62.464-1.024-2.56-1.024-5.12-1.024-7.68 0-23.552 1.536-47.104 4.608-70.656 2.048-18.432 7.168-35.84 18.944-50.688 1.024-1.536 2.048-3.072 2.56-4.608 0.512-1.024 1.024-2.56 1.536-3.584 6.144-6.144 10.752-13.312 16.384-19.456 19.456-21.504 39.936-41.472 61.44-60.416 5.12-4.608 6.144-4.608 8.192 2.56 3.584 12.288 3.584 25.088 4.096 38.4 0 1.536-0.512 3.584 1.536 4.096s3.072-1.024 4.096-2.048c9.216-8.704 18.944-15.872 29.696-22.528 12.288-7.168 25.088-13.824 39.424-12.8 1.024 0.512 2.56 1.024 3.584 1.536 7.68 8.704 7.68 15.872 2.048 26.112-4.608 8.192-12.288 13.824-19.456 18.944-18.944 13.824-39.936 23.552-61.952 32.256-1.536 0.512-3.072 1.536-4.608 2.048-3.584 0.512-6.656 1.024-10.24 1.536-6.144 0.512-10.752 0-13.312-2.048-1.536-1.536-2.048-4.096-2.048-7.168 0.512-2.048 1.024-4.096 2.048-6.656 2.048-4.608 0-6.144-4.608-4.608-5.12 2.048-10.24 4.608-13.824 8.704-1.024 0.512-2.048 1.536-3.584 2.048-5.12 2.56-7.168 7.68-11.264 11.264-13.312 14.336-23.04 30.208-27.136 49.664-2.048 10.752-3.584 21.504-5.632 32.256-2.048 24.064 1.536 47.104 7.168 70.144l1.536 4.608c1.024 3.072 1.024 6.656 3.072 9.216 0 0.512 0.512 1.024 0.512 2.048 6.656 17.92 15.872 34.816 25.6 50.688 8.704 12.8 18.432 25.088 29.696 35.328h1.024c7.68 3.072 11.776 2.56 14.848-2.048 2.048-3.072 3.584-6.656 4.096-10.752 2.56-12.8 1.024-25.6-0.512-37.888-2.048-15.872-2.048-31.232 1.536-46.592 1.024-14.848 6.144-29.184 11.776-43.008 0-0.512 0.512-1.024 1.024-2.048 1.536-1.024 2.048-2.048 3.072-3.584 2.048-5.12 4.608-9.728 7.68-14.336 0.512-0.512 0.512-1.024 1.024-1.024 6.656-9.728 15.36-17.92 23.552-26.624 0.512-1.536 2.048-2.56 3.584-2.56 3.584-0.512 5.632-3.584 7.68-6.144 2.048-4.096 6.144-6.656 9.728-8.704 9.728-7.68 19.968-14.336 30.72-19.968 2.56-1.536 5.632-2.56 7.68-4.608l3.072-1.536c9.216-3.584 17.408-8.704 26.624-12.288 18.432-6.656 36.352-13.312 55.296-17.92s37.888-9.216 57.344-8.192c20.992 0.512 37.376 14.336 41.472 34.816 2.56 14.336 2.048 29.184 0 44.032v3.584c0 0.512-0.512 0.512-0.512 1.024 0 4.096-1.536 8.192-2.56 11.776s-2.56 7.168-3.584 10.752c-1.536 3.072-3.072 6.144-4.096 9.216-4.608 7.168-7.68 14.848-12.288 21.504-14.848 24.064-34.816 44.032-54.784 62.976-3.072 3.072-6.144 6.144-10.24 7.68-5.632 4.096-11.264 8.192-16.384 12.8-12.288 9.728-26.112 16.384-41.472 15.36-20.48-1.024-34.304-11.776-43.52-30.208-8.704-15.36-7.68-31.232-0.512-46.592 7.168-15.872 19.456-27.648 33.792-36.864 9.728-6.144 19.456-10.752 30.72-12.8 16.896-2.56 33.28 0 49.664 4.608 2.048 0.512 5.12 2.048 6.656-0.512 1.536-2.048 0.512-4.096-0.512-6.144-0.512-1.024-0.512-1.536-1.024-2.048-1.024-1.536-1.536-3.072-2.56-4.096-1.024-2.56-2.56-4.608-4.608-6.656-0.512-1.024-1.024-1.536-1.536-2.56-1.024-1.536-2.56-3.072-4.096-4.096-0.512-0.512-1.536-1.024-2.048-1.024-1.024-1.536-2.56-2.56-4.096-3.072-1.024-0.512-1.536-1.536-2.56-2.048-2.048-1.024-3.584-2.048-5.632-3.072-2.048-0.512-3.584-1.536-5.632-2.048-5.12-2.048-10.24-3.072-15.36-4.096-7.168-1.024-14.848-1.536-22.016-1.536-2.56 0-5.12 0.512-7.68 0.512s-4.608 0.512-7.168 0.512c-4.608 0.512-9.216-1.024-13.824 1.536-4.608 0-9.216-0.512-12.288 3.584l-0.512 0.512c-2.048 0.512-4.096 1.536-6.144 2.048-1.536 0.512-2.56 1.024-4.096 1.536h-0.512c-0.512 0-1.024 0.512-1.536 1.024-1.536 0.512-3.584 1.536-5.12 2.56-4.096 1.024-8.704 2.56-11.776 5.632-0.512 0.512-1.536 0.512-2.048 1.024l-3.072 1.536c-10.24 6.144-18.944 14.336-26.624 23.04-10.24 10.752-17.408 23.552-22.016 37.888-0.512 0.512-0.512 1.536-1.024 2.048-1.024 1.024-1.024 2.56-1.024 4.096-3.584 5.632-4.608 11.776-4.608 18.432v1.024c-2.56 6.144-0.512 13.312-1.536 19.456 1.024 3.072-1.024 6.656 1.536 9.728-0.512 2.048-1.024 4.096 0 6.144-0.512 7.68 1.024 14.336 4.608 20.992 4.608 12.288 10.752 24.064 17.408 35.84 7.168 10.752 16.896 18.944 26.112 27.136 3.072 3.072 6.656 4.096 11.264 4.096 23.04 0 44.544-8.192 65.536-15.36 18.432-6.656 35.328-15.36 52.736-24.064 11.776-7.68 24.064-15.36 35.84-23.04 3.584-4.608 9.216-6.144 12.288-10.752l6.144-4.608c16.896-13.824 31.232-30.208 46.08-45.568 11.264-15.872 22.528-31.232 33.28-48.128 9.728-20.992 20.48-40.96 29.696-62.464 2.048-9.216 5.12-18.432 6.656-27.648 2.048-15.36 3.584-31.232-3.584-45.568-0.512-7.168-1.024-11.264 0.512-15.36z m-374.272-82.432v-1.024 1.024z m55.808-179.2c0 0.512-0.512 0.512 0 0z" fill="#D7000F" /></svg>