<svg class="svg-icon" style="width: 1em;height: 1em;vertical-align: middle;fill: currentColor;overflow: hidden;" viewBox="0 0 1024 1024" version="1.1" xmlns="http://www.w3.org/2000/svg"><path d="M512 153.6c-198.144 0-358.4 160.256-358.4 358.4S313.856 870.4 512 870.4 870.4 710.144 870.4 512 710.144 153.6 512 153.6z m0 628.224c-148.992 0-269.824-120.832-269.824-269.824S363.008 242.176 512 242.176c121.856 0 224.768 80.896 258.56 192h-82.432c-29.696-66.56-96.768-113.152-174.592-113.152-105.984 0-191.488 85.504-191.488 191.488S407.552 704 513.536 704c96.768 0 176.64-71.68 189.44-164.864H609.28c-1.024 1.536-2.56 3.072-3.584 4.608l-61.952 60.416c-16.896 16.896-45.056 16.896-61.952 0l-60.928-61.44c-16.896-16.896-16.896-45.056 0-61.952l60.928-60.928c16.896-16.896 45.056-16.896 61.952 0l60.928 61.44c1.536 1.536 2.56 3.072 3.584 4.608h172.032c1.024 8.704 1.536 17.408 1.536 26.624 0 148.48-120.832 269.312-269.824 269.312z" fill="#D7000F" /></svg>