<svg class="svg-icon" style="width: 1.1552734375em;height: 1em;vertical-align: middle;fill: currentColor;overflow: hidden;" viewBox="0 0 1183 1024" version="1.1" xmlns="http://www.w3.org/2000/svg"><path d="M590.53 407.82a2574.88 2574.88 0 0 1-159.124 274.845C280.836 691.748 133.751 714.34 0 750.872 191.123 542.042 349.272 269.924 432.688 0h0.311c36.255 133.751 90.341 272.652 157.531 407.82z" fill="#B21E23" /><path d="M431.359 682.665a2571.434 2571.434 0 0 1 318.149 0.705c84.08 126.632 178.172 243.175 277.59 340.63-276.89-62.258-593.117-63.821-870.031-1.246l-0.277-0.4 4.65-4.603 4.569-4.615 4.58-4.615 4.532-4.692 4.58-4.697 4.532-4.926 4.503-4.615 4.568-4.774 4.539-4.932 4.491-4.768 4.51-4.856 4.491-4.927 4.503-4.844 4.498-4.932 4.468-5.08 4.491-4.926 4.468-5.009 4.456-5.08 4.415-5.008 4.427-5.009 4.456-5.168 4.38-5.079 4.456-5.168 4.386-5.085c58.525-69.053 114.486-143.898 166.62-222.281z" fill="#6E1318" /><path d="M749.508 683.37A2579.888 2579.888 0 0 1 590.53 407.896C657.797 272.74 711.571 134.063 746.68 0c85.885 271.024 243.81 545.086 437.232 752.277l-0.159 0.388c-134.527-36.279-282.663-59.512-434.245-69.295z" fill="#D71723" /><path d="M749.508 683.37c151.582 9.783 299.718 33.016 434.245 69.3L1027.098 1024c-99.424-97.455-193.516-213.998-277.59-340.63z" fill="#B21E23" /><path d="M431.4 682.665c-83.463 125.538-176.737 241.617-274.615 339.689L0 750.872c133.751-36.532 280.835-59.124 431.4-68.207z" fill="#D71723" /><path d="M746.68 0c-35.115 134.063-88.842 272.74-156.155 407.82C523.34 272.652 469.255 133.75 432.999 0H746.68z" fill="#6E1318" /></svg>