<svg class="svg-icon" style="width: 1em;height: 1em;vertical-align: middle;fill: currentColor;overflow: hidden;" viewBox="0 0 1024 1024" version="1.1" xmlns="http://www.w3.org/2000/svg"><path d="M513.536 333.824l-107.52 107.52-131.072-130.56 25.6-25.6c12.288-12.288 28.672-18.944 46.08-18.944H453.12c7.168 0 13.824 3.072 18.944 7.68l40.96 40.96c5.632 5.12 5.632 13.824 0.512 18.944z m280.576-23.04l-11.264-11.264-14.336-14.336c-4.096-4.096-10.752-9.728-20.992-14.336-7.68-3.072-16.384-5.12-25.088-5.12H615.936c-7.168 0-13.824 3.072-18.944 7.68l-34.304 34.304-2.56 2.56-4.096 4.096-0.512 0.512-47.616 47.616c-3.072 3.072-1.024 7.68 3.072 7.68h80.896l70.656 70.656 131.584-130.048z" fill="#FD8800" /><path d="M877.056 393.728l-82.944-82.944-12.288-12.288s6.144 18.432-0.512 25.088L534.528 570.368 285.696 321.536c-7.168-7.168 0-21.504 0-21.504l-10.752 10.752-2.56 2.56L192 393.728c-20.992 20.992-20.992 55.296 0 76.288L413.184 691.2l83.456 83.456c10.752 10.752 24.576 15.872 38.4 15.872s27.648-5.12 38.4-15.872l82.944-82.944 221.184-221.184c20.992-21.504 20.992-55.808-0.512-76.8z" fill="#E44100" /></svg>