<svg class="svg-icon" style="width: 1em;height: 1em;vertical-align: middle;fill: currentColor;overflow: hidden;" viewBox="0 0 1024 1024" version="1.1" xmlns="http://www.w3.org/2000/svg"><path d="M512 304.128c-19.456 0-35.328-15.872-35.328-35.328V163.328C476.672 143.872 492.544 128 512 128c19.456 0 35.328 15.872 35.328 35.328v105.984c0 18.944-15.872 34.816-35.328 34.816z m-48.64 37.888c-9.728 16.896-31.232 22.528-48.128 12.8l-91.648-52.736c-16.896-9.728-22.528-31.232-12.8-48.128 9.728-16.896 31.232-22.528 48.128-12.8l91.648 52.736c16.384 9.728 22.528 31.232 12.8 48.128z m97.28 0c-9.728-16.896-4.096-38.4 12.8-48.128l91.648-52.736c16.896-9.728 38.4-4.096 48.128 12.8 9.728 16.896 4.096 38.4-12.8 48.128l-91.648 52.736c-16.384 9.728-38.4 4.096-48.128-12.8z m0 51.712c9.728-16.896 31.232-22.528 48.128-12.8l91.648 52.736c16.896 9.728 22.528 31.232 12.8 48.128-9.728 16.896-31.232 22.528-48.128 12.8l-91.648-52.736c-16.384-9.728-22.528-31.232-12.8-48.128z m-97.28 0c9.728 16.896 4.096 38.4-12.8 48.128l-91.648 53.248c-16.896 9.728-38.4 4.096-48.128-12.8-9.728-16.896-4.096-38.4 12.8-48.128l91.648-52.736c16.384-10.24 38.4-4.608 48.128 12.288zM512 719.872c-19.456 0-35.328 15.872-35.328 35.328v105.984c0 19.456 15.872 35.328 35.328 35.328 19.456 0 35.328-15.872 35.328-35.328V755.2c0-19.456-15.872-35.328-35.328-35.328z m-48.64-37.888c-9.728-16.896-31.232-22.528-48.128-12.8l-91.648 52.736c-16.896 9.728-22.528 31.232-12.8 48.128 9.728 16.896 31.232 22.528 48.128 12.8l91.648-52.736c16.384-9.728 22.528-31.232 12.8-48.128z m97.28 0c-9.728 16.896-4.096 38.4 12.8 48.128l91.648 52.736c16.896 9.728 38.4 4.096 48.128-12.8 9.728-16.896 4.096-38.4-12.8-48.128l-91.648-52.736c-16.384-9.728-38.4-4.096-48.128 12.8z m0-51.712c9.728 16.896 31.232 22.528 48.128 12.8l91.648-52.736c16.896-9.728 22.528-31.232 12.8-48.128-9.728-16.896-31.232-22.528-48.128-12.8l-91.648 52.736c-16.384 9.728-22.528 31.232-12.8 48.128z m-97.28 0c9.728-16.896 4.096-38.4-12.8-48.128l-91.648-52.736c-16.896-9.728-38.4-4.096-48.128 12.8-9.728 16.896-4.096 38.4 12.8 48.128l91.648 52.736c16.384 9.728 38.4 4.096 48.128-12.8z" fill="#FFCE00" /></svg>