<svg class="svg-icon" style="width: 1em;height: 1em;vertical-align: middle;fill: currentColor;overflow: hidden;" viewBox="0 0 1024 1024" version="1.1" xmlns="http://www.w3.org/2000/svg"><path d="M812.032 306.688c-19.456-28.16-57.344-65.024-92.16-87.04-30.72-22.528-74.752-43.52-111.104-53.248-24.576-7.68-56.32-12.8-90.624-12.8-31.232 0-60.416 4.096-83.456 10.752-59.392 14.336-103.424 68.096-103.424 131.584h389.12s66.048 2.56 97.28 34.304c-0.512 0 13.824 4.096-5.632-23.552z m-94.208 505.344c28.16-19.456 65.024-57.344 87.04-92.16 22.528-30.72 43.52-74.752 53.248-111.104 7.68-24.576 12.8-56.32 12.8-90.624 0-31.232-4.096-60.416-10.752-83.456-14.336-59.392-68.096-103.424-131.584-103.424v389.12s-2.56 66.048-34.304 97.28c-0.512-0.512-4.608 13.824 23.552-5.632z m-505.856-94.72c19.456 28.16 57.344 65.024 92.16 87.04 30.72 22.528 74.752 43.52 111.104 53.248 24.576 7.68 56.32 12.8 90.624 12.8 31.232 0 60.416-4.096 83.456-10.752 59.392-14.336 103.424-68.096 103.424-131.584h-389.12s-66.048-2.56-97.28-34.304c0.512 0-13.824-4.096 5.632 23.552z" fill="#D7000F" /><path d="M306.176 217.6c-28.16 19.456-65.024 57.344-87.04 92.16-22.528 30.72-43.52 74.752-53.248 111.104-7.68 24.576-12.8 56.32-12.8 90.624 0 31.232 4.096 60.416 10.752 83.456 14.336 59.392 68.096 103.424 131.584 103.424v-389.12s2.56-66.048 34.304-97.28c0.512 0.512 4.608-13.824-23.552 5.632z" fill="#D7000F" /></svg>