<svg class="svg-icon" style="width: 1em;height: 1em;vertical-align: middle;fill: currentColor;overflow: hidden;" viewBox="0 0 1024 1024" version="1.1" xmlns="http://www.w3.org/2000/svg"><path d="M550.656 601.6c35.456-43.179 152.448-175.232 173.141-199.765 11.392-13.568 22.358-26.283 25.302-44.459 3.84-22.016-5.035-38.528-18.987-55.467-18.987-22.826-119.51-144.725-119.51-144.725s-5.887-5.504 2.56-13.141l34.177-30.464L802.73 296.02l83.626 98.176c12.246 14.379 27.862 29.611 38.016 46.123 33.792 56.32-1.706 110.037-38.016 152.79-29.568 34.73-141.482 155.349-124.586 165.93 1.706 10.581 106.837 122.325 131.328 148.139H697.173c-19.413 0-19.413-3.798-32.085-19.883L548.096 743.381c-33.323-41.472-29.952-101.589 2.56-141.781z m-76.032 141.781l-116.95 143.915c-13.098 15.659-12.671 19.883-32.085 19.883H129.664c24.49-26.24 129.195-137.984 131.328-148.139 17.28-10.581-95.019-131.627-124.587-165.93-36.309-42.753-72.192-96.47-38.016-152.363 9.728-16.512 25.344-31.744 38.016-46.123l83.627-98.219L374.997 113.58l34.176 30.464c8.448 7.637 2.56 13.141 2.56 13.141S310.784 279.083 291.797 302.336c-13.525 16.939-22.784 33.45-18.986 55.467 2.944 17.749 13.482 30.89 25.301 44.416 21.12 24.149 138.112 156.202 173.141 199.808 33.366 39.765 36.736 99.882 3.371 141.354z" fill="#008236" /><path d="M584.448 355.243l-71.381 71.552-84.438-84.651 84.438-84.65 70.954 71.082h86.998c-8.491-83.584-81.152-145.621-164.822-140.715-83.669 4.907-148.608 75.008-147.285 159.019 1.323 84.01 68.48 152.021 152.235 154.283 83.797 2.261 154.453-62.08 160.256-145.92h-86.955z" fill="#C70026" /></svg>