<svg class="svg-icon" style="width: 1em;height: 1em;vertical-align: middle;fill: currentColor;overflow: hidden;" viewBox="0 0 1024 1024" version="1.1" xmlns="http://www.w3.org/2000/svg"><path d="M458.752 354.304l44.544 38.912-75.776 51.712s204.288 99.84 204.288 216.576c0 0 6.656 104.448-116.224 109.568 0 0-182.784 7.68-301.056-123.904-53.248-65.536-63.488-156.672-25.088-231.936 0 0 66.048-135.68 268.288-156.672l-21.504 34.816S251.392 325.12 240.64 474.624c0 0-8.704 97.792 123.904 158.72 0 0 95.744 54.272 144.384 8.704 0 0 26.112-31.744-43.52-94.72 0 0-95.744-81.408-154.624-101.888l147.968-91.136z" fill="#074995" /><path d="M607.232 539.136l-60.416-45.056 72.704-47.104s-112.64-55.808-152.576-123.392c0 0-36.352-55.808 48.128-69.632 0 0 147.456-5.632 247.296 65.024 0 0 123.904 78.336 120.832 210.944 0 0-6.656 180.224-267.264 237.056 0 0 60.416-30.72 46.592-123.904 0 0 172.032-54.272 144.384-192.512 0 0-17.408-125.952-223.744-163.328 0 0-54.272-10.752-54.272 12.288 0 0 12.288 67.584 208.896 144.384l-130.56 95.232z" fill="#074995" /></svg>