<svg class="svg-icon" style="width: 1em;height: 1em;vertical-align: middle;fill: currentColor;overflow: hidden;" viewBox="0 0 1024 1024" version="1.1" xmlns="http://www.w3.org/2000/svg"><path d="M712 931.2v-60.8c32 12.8 62.4 30.4 89.6 49.6l-60.8 28.8c-8-6.4-17.6-11.2-28.8-17.6z m0-188.8V664c6.4-6.4 11.2-12.8 17.6-20.8 1.6-1.6 4.8-1.6 6.4-3.2 12.8-4.8 25.6-9.6 38.4-16l22.4-11.2 16-9.6c-19.2 56-54.4 102.4-100.8 139.2z m0-118.4c54.4-20.8 91.2-51.2 104-86.4v-52.8c-14.4-35.2-51.2-65.6-104-88v62.4c16 8 28.8 17.6 40 28.8 16 19.2 14.4 32-3.2 49.6-6.4 6.4-14.4 11.2-22.4 17.6-4.8 1.6-9.6 4.8-14.4 8V624z m0-267.2V280c46.4 35.2 81.6 83.2 99.2 137.6l-16-9.6c-11.2-6.4-22.4-12.8-35.2-17.6l-24-9.6c-1.6 0-4.8-1.6-6.4-1.6-6.4-8-11.2-14.4-17.6-22.4z m0-204.8V91.2c11.2-4.8 20.8-9.6 28.8-16l60.8 27.2C774.4 123.2 744 139.2 712 152zM512 417.6c32 0 62.4 3.2 91.2 8 9.6 57.6 9.6 115.2-1.6 172.8-30.4 4.8-60.8 6.4-89.6 6.4v56c27.2 0 52.8-1.6 76.8-4.8-11.2 32-25.6 64-52.8 86.4-9.6 6.4-16 9.6-24 9.6v198.4h30.4v-65.6c62.4 4.8 120 20.8 171.2 48V872c-52.8-24-110.4-38.4-171.2-43.2v-17.6c65.6-6.4 123.2-30.4 171.2-68.8V664c-27.2 32-62.4 57.6-100.8 73.6 16-25.6 30.4-57.6 40-92.8C675.2 640 696 632 715.2 624v-60.8c-16 8-32 14.4-49.6 20.8 3.2-24 4.8-48 4.8-73.6 0-24-1.6-49.6-4.8-72 17.6 4.8 33.6 11.2 49.6 20.8v-62.4c-19.2-8-40-14.4-62.4-19.2-9.6-36.8-24-68.8-40-94.4 40 16 75.2 41.6 100.8 73.6V280c-48-38.4-105.6-64-171.2-68.8V192c60.8-3.2 118.4-17.6 171.2-41.6V91.2c-51.2 27.2-108.8 44.8-171.2 49.6V75.2H512v198.4c3.2 0 6.4 0 9.6 1.6 28.8 11.2 46.4 46.4 59.2 72 3.2 6.4 4.8 14.4 8 20.8-24-1.6-49.6-3.2-76.8-3.2v52.8zM412.8 512c0-28.8 3.2-57.6 8-86.4 30.4-4.8 60.8-8 91.2-8v-54.4c-25.6 0-51.2 1.6-76.8 3.2 8-17.6 16-36.8 27.2-54.4 9.6-14.4 28.8-40 49.6-40V75.2h-28.8v65.6c-62.4-4.8-120-22.4-172.8-49.6v62.4c52.8 24 110.4 38.4 172.8 41.6v19.2c-65.6 4.8-124.8 30.4-172.8 68.8V360c27.2-32 62.4-57.6 100.8-73.6-16 27.2-30.4 59.2-40 94.4-22.4 4.8-43.2 11.2-62.4 19.2v62.4c9.6-4.8 19.2-9.6 27.2-12.8 8-3.2 16-4.8 24-8-3.2 24-4.8 48-4.8 72 0 25.6 1.6 49.6 4.8 73.6-17.6-6.4-35.2-12.8-51.2-20.8V624c19.2 8 40 16 62.4 20.8 9.6 36.8 24 68.8 40 92.8-40-16-75.2-41.6-100.8-73.6v78.4c48 38.4 107.2 62.4 172.8 68.8v17.6c-62.4 4.8-120 19.2-172.8 43.2v60.8c52.8-27.2 110.4-43.2 172.8-48v65.6H512v-200c-8 0-17.6-4.8-27.2-12.8-8-6.4-12.8-14.4-19.2-20.8-12.8-19.2-22.4-40-30.4-62.4 25.6 3.2 51.2 4.8 76.8 4.8v-56c-30.4 0-60.8-1.6-91.2-6.4-4.8-27.2-8-57.6-8-84.8zM310.4 91.2v62.4c-32-14.4-60.8-30.4-88-51.2l59.2-27.2c9.6 6.4 19.2 11.2 28.8 16z m0 190.4v76.8c-6.4 8-11.2 14.4-16 22.4-11.2 3.2-22.4 8-33.6 12.8l-24 11.2L216 416l-6.4 3.2c19.2-56 54.4-102.4 100.8-137.6z m0 116.8c-52.8 22.4-89.6 51.2-102.4 84.8v57.6c14.4 33.6 51.2 64 102.4 84.8v-60.8c-1.6-1.6-4.8-3.2-6.4-4.8-19.2-11.2-51.2-32-41.6-56 8-19.2 27.2-33.6 48-43.2v-62.4z m0 267.2V744c-46.4-36.8-81.6-84.8-99.2-137.6l16 9.6 22.4 11.2c12.8 6.4 25.6 11.2 38.4 16l8 3.2c3.2 4.8 8 12.8 14.4 19.2z m0 206.4v60.8c-9.6 6.4-19.2 11.2-28.8 17.6l-59.2-28.8c27.2-20.8 56-38.4 88-49.6z" fill="#EB2227" /></svg>