<svg class="svg-icon" style="width: 1em;height: 1em;vertical-align: middle;fill: currentColor;overflow: hidden;" viewBox="0 0 1024 1024" version="1.1" xmlns="http://www.w3.org/2000/svg"><path d="M36.46 405.586L371.03 69.612l36.92 30.986-160.9 175.288c-39.25 42.752-25.12 74.107 2.078 107.776l192.942 238.986c46.48 57.554 50.191 109.302 0 170.071L312.709 949.33H47.432L179.18 828.837c29.88-27.356 25.671-72.745-11.869-118.477L39.481 554.624C-0.17 506.342-10.932 453.171 36.46 405.586z" fill="#00A550" /><path d="M513.792 162.924c88.95 0 162.77 66.785 173.942 152.78h-96.6l-62.5-62.51a15.068 15.068 0 0 0-21.222 0l-71.09 71.06a15.084 15.084 0 0 0 0 21.228l71.09 71.06a15.032 15.032 0 0 0 21.223 0l61.522-61.511h98.222c-8.438 88.822-83.61 158.694-174.582 158.694-96.61 0-175.39-78.786-175.39-175.385-0.006-96.615 78.77-175.416 175.385-175.416z" fill="#BF1027" /><path d="M987.55 410.65L652.98 74.67l-36.88 30.991 160.88 175.284c39.22 42.752 25.099 74.101-2.078 107.77L581.96 627.703c-46.47 57.58-50.222 109.307 0 170.096L711.3 954.383H976.59L844.85 833.89c-29.88-27.35-25.671-72.745 11.848-118.471L984.55 559.683c39.619-48.277 50.391-101.453 3-149.033z" fill="#00A550" /></svg>