<svg class="svg-icon" style="width: 1em;height: 1em;vertical-align: middle;fill: currentColor;overflow: hidden;" viewBox="0 0 1024 1024" version="1.1" xmlns="http://www.w3.org/2000/svg"><path d="M512.508 62a450.026 450.026 0 0 1 449.119 424.43h-90.768a360.166 360.166 0 0 0-313.33-331.665v154.85H668.81a22.692 22.692 0 0 1 23.055 22.147v132.52a22.692 22.692 0 0 1-23.055 22.148H356.206a22.692 22.692 0 0 1-23.055-22.147V331.762a22.692 22.692 0 0 1 23.055-22.148h111.281V64.178Q489.635 62 512.508 62z m-10.892 278.475c-2.541 0-4.72 3.087-4.72 6.717v101.66c0 3.63 1.997 6.717 4.72 6.717h21.603c2.541 0 4.72-3.086 4.72-6.717v-101.66c0-3.63-1.997-6.717-4.72-6.717zM356.388 537.623a22.692 22.692 0 0 0-23.055 22.147v132.521a22.692 22.692 0 0 0 23.055 22.147h111.281v154.85a359.985 359.985 0 0 1-134.7-669.503V99.215a450.026 450.026 0 1 0 628.658 438.408h-90.768a360.166 360.166 0 0 1-314.056 331.665V714.257H668.81a22.692 22.692 0 0 0 23.055-22.147V559.589a22.692 22.692 0 0 0-23.055-21.966z m145.228 30.86h21.603c2.541 0 4.72 3.087 4.72 6.718v101.66c0 3.63-1.997 6.716-4.72 6.716h-21.603c-2.541 0-4.72-3.086-4.72-6.716V575.2c0.182-3.812 2.179-6.899 4.72-6.899z" fill="#E7211A" /></svg>