<svg class="svg-icon" style="width: 1em;height: 1em;vertical-align: middle;fill: currentColor;overflow: hidden;" viewBox="0 0 1024 1024" version="1.1" xmlns="http://www.w3.org/2000/svg"><path d="M870.4 511.488c0 199.168-158.72 357.888-358.4 357.888-196.096 0-358.912-157.184-358.4-358.4 0.512-203.264 165.376-357.888 359.424-357.376C711.168 154.624 870.4 313.344 870.4 511.488zM225.28 512c0 159.232 127.488 286.72 286.72 287.232 159.232 0 287.744-127.488 287.744-286.208 0-159.744-128-287.744-287.744-287.744-159.232 0-286.72 127.488-286.72 286.72z" fill="#D7000F" /><path d="M502.784 711.68H337.408c-20.48 0-24.064-4.096-24.576-24.576v-17.92c0-22.528 4.608-27.648 27.648-28.16h276.48c11.264-0.512 18.944-6.144 18.944-17.92 0.512-36.864 0.512-74.24 0-111.104 0-13.824-10.24-17.92-23.04-17.92H460.288c-25.088 0-29.696-4.608-29.696-30.208v-19.456c0-23.04 5.12-28.672 28.672-28.672 49.152 0 98.304-0.512 146.944 0 22.528 0 45.568-1.536 68.096 1.536 22.016 3.072 36.864 17.92 36.864 39.424 0.512 71.68 0.512 143.36 0 215.04-0.512 23.552-17.92 38.912-41.984 38.912-55.808 1.024-111.104 1.024-166.4 1.024z" fill="#D7000F" /><path d="M521.728 310.272h159.744c23.552 0 29.696 6.144 30.208 29.696 0.512 38.912-1.536 40.96-39.936 40.96H418.816c-26.624 0-34.304 7.168-33.792 33.792 0 30.208-1.536 60.416 1.536 90.112 2.048 18.432 8.192 24.576 26.624 24.576H565.76c22.016 0 27.136 5.12 27.136 26.624v29.184c0 12.8-6.656 20.48-19.456 20.48-74.752 0-148.992 0.512-223.744 0-20.992 0-36.352-16.384-36.352-37.888-0.512-72.704 0-145.408 0-218.112 0-18.944 11.264-32.256 29.696-36.864 7.68-2.048 15.36-2.56 23.552-2.56h155.136z" fill="#D7000F" /></svg>