<svg class="svg-icon" style="width: 1em;height: 1em;vertical-align: middle;fill: currentColor;overflow: hidden;" viewBox="0 0 1024 1024" version="1.1" xmlns="http://www.w3.org/2000/svg"><path d="M512 153.6c-198.144 0-358.4 160.256-358.4 358.4S313.856 870.4 512 870.4 870.4 710.144 870.4 512 710.144 153.6 512 153.6z m35.328 632.832v-66.048c0-21.504 0.512-43.008 0-65.024 0-6.144 3.584-9.216 16.384-8.704 21.504 0.512 43.008 1.024 64.512 1.024 9.728 0 14.336 2.048 15.872 7.168 7.68 27.648 15.872 55.296 29.184 82.432-37.376 26.112-79.872 43.52-125.952 49.152zM235.008 512c0-71.168 26.624-135.68 70.656-184.832 3.584 10.24 6.656 20.48 9.728 30.72 15.872 57.856 19.968 115.712 15.36 173.568-3.072 35.328-2.048 70.656-11.264 105.984-4.608 16.896-10.24 33.28-15.36 50.176-1.536 1.024-2.048 2.56-2.56 3.584-41.472-48.128-66.56-110.592-66.56-179.2z m116.736 225.792c14.336-27.136 22.528-54.784 26.624-82.944 1.024-6.144 4.608-8.192 15.872-7.68 24.064 0.512 48.128 0.512 71.68 0 12.8 0 16.384 2.048 16.384 8.192-0.512 35.328-1.024 70.656-1.024 105.984-5.12 7.68-1.536 15.36-2.048 23.04v2.048c-47.616-5.12-90.624-22.528-127.488-48.64z m363.52-47.104c-13.824-42.496-23.04-85.504-27.136-129.024-6.656-65.536-2.56-130.56 12.8-196.096 3.072-14.336 7.68-28.16 11.776-42.496h2.56c45.568 49.152 73.728 115.2 73.728 187.904 0 70.656-26.624 135.168-70.144 184.32-3.072-0.512-3.072-2.56-3.584-4.608z m-43.008-404.48c-0.512 4.096-4.608 8.704-5.632 12.8-12.288 38.4-28.16 76.8-31.232 115.712-0.512 4.608-4.096 5.632-12.288 5.632h-61.44c-11.264 0-14.848-2.048-14.848-7.68 0.512-11.264-1.024-22.528-0.512-33.792 0-6.656-3.072-10.24-17.92-9.216-11.776 1.024-24.064 1.024-35.84 0.512-9.728-0.512-12.288 2.048-12.288 6.144-0.512 11.264-1.536 23.04-1.536 34.304 0 7.168-3.584 10.24-17.92 9.216a942.144 942.144 0 0 0-53.76-1.536c-13.312 0-16.896-2.56-17.92-8.704-6.144-43.008-10.752-86.016-32.768-128 44.032-30.208 97.792-47.616 155.136-47.616 60.416 1.024 115.712 19.968 160.768 52.224z" fill="#EDAD2E" /></svg>