<svg class="svg-icon" style="width: 1em;height: 1em;vertical-align: middle;fill: currentColor;overflow: hidden;" viewBox="0 0 1024 1024" version="1.1" xmlns="http://www.w3.org/2000/svg"><path d="M313.856 227.84c-7.68 2.56-12.8 7.68-12.8 7.68 10.24 0 12.8-7.68 12.8-7.68z" fill="#05A6E0" /><path d="M295.936 256c10.24-5.12 5.12-12.8 5.12-12.8 7.68 7.68 12.8 2.56 12.8 2.56-2.56-7.68-10.24-7.68-12.8-10.24 5.12-10.24 0-17.92 0-12.8-7.68 5.12-2.56 15.36-2.56 15.36-7.68-7.68-12.8-2.56-12.8-2.56 0 5.12 10.24 5.12 10.24 5.12-12.8 5.12-12.8 10.24-12.8 10.24 5.12 0 12.8-7.68 12.8-7.68-5.12 10.24 0 12.8 0 12.8z m459.776 42.496c0-2.56-5.12-2.56-12.8-2.56 7.68 7.68 12.8 5.12 12.8 2.56z m-15.36-2.56c-7.68 5.12-7.68 7.68-5.12 10.24 2.56 0 5.12 0 7.68-10.24 0-5.12-2.56-10.24-2.56-12.8-5.12 2.56-2.56 7.68 0 10.24-5.12-2.56-10.24-2.56-10.24 0s2.56 5.12 10.24 2.56z" fill="#05A6E0" /><path d="M748.032 308.736c2.56 0 2.56-5.12-5.12-12.8 0 10.24 2.56 12.8 5.12 12.8z m2.56-20.48c-2.56 0-5.12 2.56-7.68 7.68 7.68 0 10.24-5.12 7.68-7.68zM856.576 412.16c7.68 0 17.92-2.56 12.8-7.68-2.048-4.096-8.192-3.072-12.8 0.512 4.608-4.608 2.048-10.752-2.56-13.312-7.68 0-7.68 7.68-5.12 12.8-5.12-5.12-12.8-7.68-15.36-5.12s2.56 7.68 12.8 10.24c-12.8 0-15.36 2.56-12.8 7.68 2.56 2.56 10.24 2.56 15.36-5.12-5.12 7.68-2.56 15.36 2.56 15.36 5.12 2.56 7.68-5.12 2.56-12.8 5.12 10.24 12.8 12.8 15.36 7.68s-5.12-10.24-12.8-10.24z m-48.128-42.496c2.56 2.56 7.68-2.56 10.24-12.8-12.288 4.608-12.288 9.728-10.24 12.8z m15.36 2.56c5.12 0 2.56-7.68-5.12-15.36-2.56 12.288 0 17.408 5.12 15.36z m10.24-12.8c0-5.12-5.12-5.12-15.36-2.56 7.68 7.168 15.36 7.168 15.36 2.56z" fill="#05A6E0" /><path d="M828.928 346.624c-2.048 0-6.144 2.048-9.216 7.168 3.072-7.68-1.024-10.24-1.024-14.848-7.68 2.56-2.56 10.24 0 12.8-7.68-2.56-15.36-2.56-15.36 2.56 0 2.56 5.12 5.12 15.36 2.56 12.8-2.56 15.36-7.68 10.24-10.24z m-156.672-68.608c-10.24-2.048-10.24 12.8-7.68 17.92-7.168-7.68-14.848-12.8-19.968-7.68-2.048 5.12 5.12 10.24 17.92 12.8-17.92 0-23.04 7.68-17.92 12.8 2.048 2.56 12.288 2.56 19.968-7.68-7.68 9.728-7.68 19.968 0 19.968 5.12 0 10.24-9.728 5.12-19.968 7.168 10.24 15.36 12.8 19.968 7.68 4.608-5.12-5.12-10.24-15.36-12.8 10.24 0 23.04-2.56 17.92-10.24-4.608-5.12-14.848-2.56-22.528 5.12 7.68-10.24 5.12-17.408 2.56-17.92z m-148.992-75.264c-10.24 5.12-10.24 7.68-5.12 10.24 2.56 2.56 10.24 0 10.24-7.68 0 7.68 2.56 10.24 7.68 10.24s2.56-5.12-2.56-10.24c7.68 5.12 12.8 2.56 12.8 0s-5.12-5.12-15.36-5.12c0-7.68-2.56-12.8-7.68-10.24s-2.56 7.68 2.56 10.24c-7.68-2.56-15.36-2.56-15.36 0s5.12 5.12 12.8 2.56z" fill="#05A6E0" /><path d="M541.184 192.512c-2.56-2.56-7.68 2.56-10.24 7.68 10.24 0 15.36-7.68 10.24-7.68zM414.72 252.928c0 2.56-5.12 5.12-2.048 5.12 5.12 0 10.24 2.56 12.8 7.68 0 0-2.56-5.12 0-7.68 7.68-2.56 22.528 2.56 30.208 15.36-2.56-12.8-7.68-17.92-7.68-17.92-4.608-5.12-19.968 0-19.968-5.12v-7.68s-2.56 5.12-5.12 5.12c-5.12 2.56-7.68-10.24-15.36-12.8 0 0-5.12-2.56-17.92 2.56 9.728 0 25.088 10.24 25.088 15.36z m35.328 62.976c0 5.12 7.168 7.68 22.528 2.56-17.92 7.68-20.48 15.36-12.8 17.92 5.12 2.56 15.36-2.56 17.92-15.36-2.56 12.8 2.56 20.48 10.24 17.92 5.12-2.048 5.12-12.288-5.12-19.968 12.288 5.12 22.528 5.12 22.528-2.56s-12.288-7.68-22.528-5.12c10.24-5.12 20.48-12.8 12.8-17.92-5.12-2.56-15.36 5.12-17.92 15.36 5.12-12.8-2.56-20.48-7.68-13.312-7.68 2.56-5.12 15.36 2.56 17.92-9.728-5.12-22.528-2.56-22.528 2.56z m-93.696-19.968c-2.56 5.12 2.56 7.68 10.24 5.12-5.12-7.68-9.728-7.68-10.24-5.12z m10.24-5.12c-2.56 0-2.56 5.12 0 10.24 5.12-5.12 5.12-10.24 0-10.24z" fill="#05A6E0" /><path d="M353.792 311.296c0 2.56 5.12 0 10.24-5.12-5.12 7.68-2.56 10.24 2.56 10.24 2.048 0 4.096-3.584 2.048-7.68 3.072 3.584 5.632 4.608 7.68 4.096 0 1.024 0 2.56 0.512 3.584 2.56 5.12 10.24 2.56 15.36-5.12-7.68 12.8-2.56 17.92 2.56 17.92 2.56 0 7.68-7.68 2.56-15.36 5.12 10.24 12.8 12.8 15.36 7.68s-2.56-10.24-12.8-12.8c10.24 0 15.36-5.12 12.8-10.24s-10.24-2.56-15.36 5.12c5.12-7.68 5.12-15.36 0-15.36-7.68-2.56-10.24 2.56-5.12 12.8-5.12-10.24-10.24-10.24-12.8-7.68-0.512 0.512-1.024 1.024-1.024 2.048-2.56-1.024-7.168 1.536-11.776 5.632-9.728 2.56-12.288 5.12-12.8 10.24z m26.112-11.264c2.56 2.56 7.168 5.12 9.728 6.144-4.096 0-7.168 1.024-9.728 2.048-0.512-3.072-4.608-4.608-10.752-4.608 6.144 0 9.216-2.048 10.752-3.584z m-129.536 26.112c-7.68 5.12-7.68 7.68-5.12 10.24s7.68 0 7.68-7.68c0 7.68 2.56 10.24 5.12 10.24s2.56-5.12-2.56-10.24c5.12 5.12 10.24 2.56 10.24 0 0-5.12-5.12-5.12-12.8-5.12 0-7.168-5.12-9.728-5.12-10.24-2.56 0 0 7.68 2.56 10.24-5.12-2.56-10.24-2.56-10.24 0s5.12 5.12 10.24 2.56z" fill="#05A6E0" /><path d="M260.608 315.904c-2.56-2.56-7.68 2.56-7.68 7.68 7.68-2.048 10.24-4.608 7.68-7.68z m-75.776 23.04c-10.24 7.68-10.24 10.24-5.12 12.8 2.56 0 7.68-2.56 7.68-10.24 0 7.68 5.12 12.8 7.68 10.24 2.56 0 2.56-5.12-5.12-10.24 7.68 2.56 12.8 2.56 12.8-2.56s-7.68-5.12-12.8-2.56c5.12-2.56 10.24-7.68 5.12-10.24-2.56 0-7.68 2.56-7.68 10.24 0-7.68-5.12-10.24-7.68-7.68-4.096 0-1.536 5.12 2.56 7.168-6.144-1.024-10.24 1.024-10.24 3.072 0 2.56 5.12 2.56 12.8 0z m68.096 32.768c-17.92 5.12-17.92 10.24-12.8 15.36 2.56 2.56 12.8-2.56 15.36-12.8-2.56 12.8 0 17.92 7.68 17.92 5.12 0 5.12-10.24-2.56-17.92 9.728 10.24 17.408 7.68 19.968 2.56 0-7.68-9.728-10.24-19.968-7.68 10.24-2.56 20.48-10.24 12.8-15.36-5.12-5.12-12.8 0-17.92 10.24-9.728-4.608-22.528-5.12-22.528 0s7.168 10.24 19.968 7.68z" fill="#05A6E0" /><path d="M252.928 348.672c-7.68 2.56-5.12 12.8 2.56 15.36 2.56-14.848-2.56-19.968-2.56-15.36z m-75.264 68.608l-7.68-2.56s2.56 4.608 2.56 7.168-15.36 5.12-17.92 12.8c0 0-2.56 5.12 2.56 15.36 2.048-9.728 14.848-22.528 19.968-22.528 2.56 0 5.12 9.728 7.68 9.728 2.56-5.12 5.12-10.24 10.24-12.8 0 0-5.12 0-7.68-2.56-2.048-7.68 5.12-22.528 17.92-27.648-14.848 0-19.968 5.12-19.968 5.12-7.68 2.56-2.56 17.92-7.68 17.92z m624.128-98.816c0 2.56-12.8 5.12-12.8 5.12l7.68 2.56c7.168-5.12 12.288 2.56 25.088-2.56 5.12-2.56 7.68-5.12 12.8-5.12-7.68-10.24-20.48 0-17.92-7.68 4.608-9.728 2.56-12.288-15.36-22.528 0 2.048 7.68 12.288 7.68 19.968-10.24-9.728-17.408-2.048-32.768-19.968 0 28.16 27.648 28.16 25.6 30.208z m-206.336 36.864c2.048 1.024 4.608 1.536 8.192 1.536-2.56-1.024-5.632-1.536-8.192-1.536z" fill="#05A6E0" /><path d="M811.52 442.88c0-2.56-2.56-2.56-5.12-2.56l-5.12-5.12s0 2.56-5.12 7.68c-10.24 2.56-22.528 5.12-19.968-2.56 0-7.68 2.56-7.68 10.24-7.68 2.048 0 5.632 0 9.728-1.024 1.024 1.536 6.144 2.56 7.68 5.632 0-1.536 0-3.584 0.512-6.144 1.024 0.512 3.072 0 5.12-1.024 5.12-2.56 5.12-7.68 2.56-15.36 2.56 5.12 12.8 12.8 15.36 10.24s-2.56-10.24-10.24-15.36c0 0 15.36 0 15.36-7.68s-15.36-2.56-17.92 0c2.56-5.12 2.56-15.36-2.56-15.36s-7.68 10.24-5.12 15.36c-1.536-6.656-6.656-11.264-10.24-11.776-8.704-8.192-25.088-0.512-20.48-10.24 7.68-12.8 5.12-17.92-17.92-35.328 2.56 2.56 10.24 17.92 7.68 27.648-10.24-17.92-22.528-7.68-43.008-35.328 0 40.448 35.328 40.448 32.768 45.568 0 2.56-7.68 5.12-12.8 5.12v-2.56c0-2.56-5.12-12.8-15.36-15.36-7.68-2.56-15.36 2.56-19.968 7.68-7.68 10.24-32.768 7.68-27.648-2.56 2.56-2.56 7.68 0 10.24-2.56-2.56 0 0-2.56-5.12-5.12 2.56 0 5.12-2.56 5.12-2.56-2.56 0-5.12 0-5.12-2.56 0 0 5.12 0 5.12-2.56 0-5.12-10.24-2.56-7.68-5.12 5.12-2.56 0-7.68-2.56-7.68-5.12 2.56-10.24 5.12-15.36 5.12 0 0 10.24-5.12 15.36-15.36-7.68 0-5.12-7.68-2.56-7.68-10.24 0-17.92 17.92-22.528 17.92 5.12-10.24 5.12-17.92 5.12-22.528-5.12 2.56-10.24 12.8-12.8 17.92 0 5.12-5.12 5.12-5.12 0-2.56-10.24-7.68-15.36-10.24-15.36-2.56 2.56-2.56 7.68-2.56 15.36-2.56-7.68-5.12-10.24-7.68-12.8-10.24 10.24-10.24 22.528-10.24 22.528 2.56-5.12 7.68-5.12 10.24-5.12 5.12 2.56 0 10.24-10.24 12.8 7.68-2.56 17.92-2.56 17.92 2.56s-7.68 7.68-17.92 0c7.68 5.12 7.68 12.8 2.56 15.36s-10.24-2.56-7.68-12.8c-2.56 10.24-10.24 12.8-12.8 12.8-5.12-2.56-5.12-7.68 10.24-15.36-10.24 2.56-17.92 0-17.92-2.56 0-3.584 4.608-4.608 9.728-4.096-5.12-2.56-5.12-6.656-1.536-8.704-5.12-7.68-12.8-15.36-22.528-12.8-2.56 0-5.12 2.56-7.68 5.12 0-2.56-7.68-7.68-19.968-2.56 5.12-5.12 10.24-17.92 2.56-19.968-5.12-2.56-10.24 7.68-12.8 17.92-2.56-10.24-10.24-17.92-15.36-15.36s-2.56 12.8 5.12 17.92c-10.24 0-15.36 0-19.968 5.12 0 2.56-2.56 5.12 2.56 7.68-5.12 0-7.68 0-10.24 2.56-2.56 0-7.68 0-7.68 7.68s-5.12 5.12-5.12 2.56c2.56-7.68 2.56-17.92 2.56-17.92-7.68 2.56-12.8 15.36-12.8 25.088 0 2.56-2.56 2.56-2.56 0 2.56-12.8-2.56-19.968-7.68-25.088 0 2.56 0 2.56-2.56 5.12 0-2.56-2.56-5.12-5.12-5.12 2.56 12.288-2.048 15.36 2.048 26.624-0.512 0-1.024 0-1.536 0.512-7.68-3.584-4.096-14.848-13.824-19.456 0 5.12-7.68 7.68-10.24 5.12 2.56 0 7.68-2.56 7.68-5.12-2.56-2.56-5.12-2.56-10.24-2.56 2.56 0 5.12-2.56 7.68-5.12-5.12 0-5.12-5.12-2.56-7.68h-5.12v-5.12s-2.56 0-2.56 2.56v-5.12c-2.56 0-2.56 2.56-5.12 5.12v-5.12c-5.12 2.56-5.12 7.68-7.68 10.24 0-2.56-2.56-5.12-2.56-5.12s-1.024 2.048-1.024 7.168c0 0 0-5.12-2.56-5.12-2.56 5.12-2.56 10.24 2.56 17.92 2.56 2.56 5.12 2.56 5.12 5.12 2.56 10.24-15.36 12.8-15.36 12.8 5.12-5.12 10.24-12.8 7.68-17.92-5.12 0-7.68 5.12-10.24 7.68 0-2.56 2.56-10.24 2.56-15.36-5.12 2.56-7.68 7.68-7.68 10.24 0-5.12 0-5.12-2.56-7.68-5.12-5.12-17.92-7.68-22.528 7.68 0-2.56-7.68-5.12-7.68-5.12 0 3.584 1.024 7.168 3.072 9.728-4.096-5.12-8.192-7.168-10.752-7.168 0 5.12 5.12 10.24 7.68 15.36-10.24-10.24-17.92-2.56-17.92 2.56 0-10.24-7.68-15.36-7.68-15.36-10.24 12.8-5.12 22.528-2.56 25.088-2.56 10.24-15.36 5.12-10.24-2.56 2.56-2.56-2.56-10.24-12.8-2.56 12.8-10.24-7.68-17.92-7.68-2.56-2.56-15.36-22.528-2.56-7.68 5.12-15.36-5.12-17.92 12.8 0 7.68-1.024 1.024-2.56 3.072-2.56 4.608h-1.024c-4.608 2.56-5.12 7.168-5.12 9.728h-0.512c-2.048-2.56-2.048-4.608-4.608-7.168-5.12-2.56-10.24 0-2.56 10.24-4.096 0-3.584 3.072-1.536 6.144-4.096 5.632-10.24 9.216-15.36 4.608-2.56-2.56 2.56-7.68 2.56-7.68 9.216-8.192-15.872-12.8-15.872-3.072-2.56 0-7.68-2.56-10.24 0 5.12-2.56 7.68-12.8 5.12-12.8-5.12-2.56-10.24 5.12-10.24 10.24 0-7.68-5.12-15.36-10.24-12.8s-2.56 10.24 2.56 15.36c-7.68-2.56-15.36-5.12-15.36 0-2.56 5.12 10.24 7.68 15.36 5.12-5.12 5.12-7.68 15.36-2.56 15.36 5.12 2.56 10.24-2.56 10.24-10.24 0 2.56 0 5.12 2.56 7.68-2.56 2.56-5.12 7.68-10.24 10.24-10.24 5.12-15.36 2.56-15.36 10.24 0 5.12 10.24 5.12 17.92-2.56 5.632-5.632 10.752-2.56 12.288 2.048-1.536 1.024-2.56 2.048-4.608 2.56 1.024 1.024 3.072 1.536 4.608 1.024 0 2.56-1.536 5.632-4.608 7.168-2.56 2.56-7.68 0-10.24-2.56-12.8-2.56-12.8 7.68 0 15.36L510.464 665.6l270.336-192c2.56-2.56 5.12-5.12 10.24-7.68l17.92 2.56s-5.12-5.12-2.56-10.24 12.8-10.24 35.328-5.12c-7.68-10.24-10.24-12.8-10.24-12.8-7.68-2.56-12.8 2.56-19.968 2.56z m-512.512-31.744c4.096-0.512 5.12 0 6.656-0.512-2.048 1.536-4.096 1.536-6.656 0.512z m8.704-11.264c1.024 4.608 0 7.68-1.024 9.728-2.56-5.12-12.8-5.12-12.8-5.12v-6.656c4.096 0.512 6.144-5.632 6.144-8.192 2.56 5.12 7.68 7.68 12.8 5.12 2.56-2.56 5.12 0 5.12 2.56s-2.56 5.12-10.24 2.56z m440.832-2.048c-2.048 1.536-5.12 2.048-7.168 2.048 2.56-1.024 5.12-2.048 7.168-2.048z m-10.24-2.56l2.56 5.12h-2.56c-10.24 5.12-10.24 12.8-12.8 2.56-2.56-7.68 7.68-7.68 12.8-7.68z m40.96 6.656c-2.56-5.12-12.8-2.56-15.36 7.68 0-7.68-5.12-10.24-7.68-7.68s0 7.68-2.56 10.24h2.56c7.68 0 2.56 10.24-5.12 17.92 7.68-7.68 19.968-10.24 19.968-5.12 2.56 5.12-7.68 12.8-19.968 10.24 10.24 2.56 15.36 10.24 10.24 15.36s-12.8 0-15.36-10.24c2.56 10.24-5.12 17.92-10.24 17.92-7.68 0-10.24-5.12 5.12-19.968-10.24 10.24-19.968 10.24-19.968 5.12s7.68-10.24 19.968-10.24c-7.68 0-15.36-7.68-7.68-15.36 5.12-2.56 12.8-2.56 12.8 10.24 0-5.12 0-10.24 2.56-12.8 4.096-5.632 4.608-12.8 4.096-16.896 6.656 1.024 13.312 4.608 26.112-0.512 6.144-1.536 9.216-3.584 12.288-5.12-1.024 5.12 5.632 11.776 10.752 14.336-12.8 2.56-15.36 12.8-27.648 10.24 7.68-5.12 10.24-12.8 5.12-15.36zM496.128 266.24c0.512 0 1.536-0.512 2.048-0.512-1.024 0-2.048 0-2.048 0.512z m34.816 14.848c2.56 5.12-7.68 10.24-7.68 10.24l17.92 7.68s0-7.68 2.56-10.24c5.12-7.68 22.528 2.56 37.888 12.8-5.12-12.8-10.24-22.528-10.24-22.528s-0.512-0.512-1.024-0.512c5.12-2.048 9.728-3.584 11.264-2.56 5.12 2.56 0 7.68 1.024 7.68l12.8-5.12s-5.12-2.56-5.12-5.12c0-5.12 12.288-10.24 22.528-10.24-7.68 0-15.36-5.12-15.36-5.12-5.12 0-10.24 7.68-12.8 7.68l-5.12-2.56v5.12c-2.56 2.56-10.24 0-15.36 2.56 0 0-0.512 2.048-1.536 4.608-7.168-0.512-14.336 2.56-16.384 1.024v-7.68s-5.12 5.12-7.68 5.12c-5.12-2.56-12.8-15.36-22.528-15.36 0 0-8.704 4.096-17.92 7.168 7.168 0 28.672 6.656 32.768 15.36z m123.392-28.16c-5.12 2.56-5.12 7.68-2.56 10.24 5.12 0 7.68-2.56 7.68-10.24 2.56 7.68 7.68 10.24 10.24 7.68 5.12-2.56 0-7.68-5.12-12.8 7.68 5.12 12.8 5.12 12.8 0 0-2.048-5.12-2.56-10.24-1.024 4.608-2.56 3.584-6.144-2.56-6.656-5.12-2.56-7.68 2.56-7.68 7.68-2.56-5.12-7.68-10.24-10.24-7.68-2.048 2.048-0.512 6.144 4.096 8.704-7.168-3.072-9.216-0.512-9.216 4.096 0 2.56 5.12 2.56 12.8 0z m-340.48 80.896c0 5.12-12.8 10.24-12.8 10.24l5.12 5.12c5.12-10.24 15.36-2.56 27.648-12.8 5.12-5.12 7.68-10.24 12.8-10.24-10.24-7.68-22.528 5.12-19.968-2.56 2.56-12.8 0-15.36-22.528-19.968 2.56 2.56 12.8 10.24 15.36 17.92-15.872-7.68-20.992 4.608-43.52-10.24 12.8 30.208 37.888 19.968 37.888 22.528z" fill="#05A6E0" /><path d="M523.264 783.36c0 19.968-10.24 40.448-30.208 40.448-25.088 0-32.768-19.968-32.768-40.448 0-19.968 7.68-40.448 32.768-40.448 22.528 2.56 30.208 23.04 30.208 40.448z m-73.216 48.128h10.24V814.08c5.12 12.8 17.92 19.968 32.768 19.968 27.648 0 40.448-22.528 40.448-50.688 0-27.648-12.8-50.688-40.448-50.688-12.8 0-27.648 7.68-32.768 19.968v-53.248h-12.8v131.584l2.56 0.512zM614.4 793.6c0 15.36-12.8 27.648-32.768 27.648-10.24 0-19.968-7.68-19.968-17.92 0-22.528 17.92-22.528 35.328-27.648 7.68 0 15.36-5.12 15.36-5.12l2.048 23.04z m-60.928-43.008s15.36-5.12 32.768-5.12c12.8 0 22.528 2.56 22.528 12.8 0 7.68-7.68 10.24-27.648 12.8s-35.328 12.8-35.328 32.768c0 17.92 15.36 30.208 32.768 30.208s27.648-7.68 32.768-17.92v15.36h10.24v-65.536c0-25.088-17.92-30.208-35.328-30.208-22.528 0-35.328 7.68-35.328 7.68l2.56 7.168zM245.76 831.488h19.968V775.68c0-12.8 10.24-25.088 22.528-25.088 12.8 0 17.92 5.12 17.92 19.968v57.856h19.968V765.44c0-19.968-12.8-30.208-32.768-30.208-12.8 0-22.528 5.12-27.648 12.8v-43.008H245.76v126.464z m103.424-78.336h50.176l-53.248 62.976v15.36h83.968V814.08h-55.808l53.248-60.416v-15.36h-78.336v14.848z m292.864 78.336h12.8V775.68c0-17.92 12.8-32.768 27.648-32.768 17.92 0 22.528 12.8 22.528 27.648v57.856h12.8V770.56c0-22.528-7.68-35.328-32.768-35.328-12.8 0-25.088 7.68-30.208 17.92v-15.36h-12.8v93.696z m93.696 0h12.8V796.16l15.36-15.36 37.888 50.688h15.36l-43.008-60.416 40.448-32.768h-15.36l-50.688 45.568v-80.896h-12.8v128.512z" fill="#717071" /><path d="M515.584 392.192c2.56-2.56 0-2.56 0-5.12l-2.56-5.12 2.56-2.56 5.12 2.56s0 2.56 2.56 2.56h2.56s0-2.56-2.56-2.56h-2.56l-7.68-2.56v-5.12l5.12-2.56h2.56s2.56 0 2.56-2.56c0 0-2.56-2.56-2.56 0 0 0 0 2.56-2.56 2.56l-5.12 2.56c0-2.56-2.56-2.56-2.56-2.56l2.56-5.12s2.56 0 2.56-2.56v-2.56h-2.56v2.56l-2.56 5.12s-2.56-2.56-5.12-2.56v-5.12l2.56-2.56s0-2.56-2.56-2.56c0 0-2.56 0-2.56 2.56l2.56 2.56v5.12c-2.56 0-2.56 0-5.12 2.56l-2.56-5.12v-2.56h-2.56v2.56s2.56 0 2.56 2.56l2.56 5.12-2.56 2.56-5.12-2.56s0-2.56-2.56-2.56h-2.56s0 2.56 2.56 2.56h2.56l5.12 2.56v5.12l-5.12 2.56h-2.56s-2.56 0-2.56 2.56c0 0 2.56 2.56 2.56 0 0 0 0-2.56 2.56-2.56l5.12-2.56c0 2.56 2.56 2.56 2.56 2.56l-2.56 5.12h-2.56v2.56h2.56v-2.56l2.56-5.12s2.56 2.56 5.12 2.56v5.12l-2.56 2.56s0 2.56 2.56 2.56c0 0 2.56 0 2.56-2.56l-2.56-2.56v-5.12h5.12l2.56 5.12c2.56 0 0 0 2.56 2.56z m45.568-48.128c-5.12 0-10.24 0-17.92-2.56 5.12 2.56 10.24 10.24 7.68 12.8 5.12-2.56 10.24-7.68 10.24-10.24z" fill="#FFFFFF" /></svg>