<svg class="svg-icon" style="width: 1em;height: 1em;vertical-align: middle;fill: currentColor;overflow: hidden;" viewBox="0 0 1024 1024" version="1.1" xmlns="http://www.w3.org/2000/svg"><path d="M866.66 428.171l-134.126-116.07h82.539c-64.484-98.015-177.975-165.078-301.783-165.078-203.769 0-366.267 165.078-366.267 366.267 0 30.952 5.158 56.745 7.738 85.118l152.181 116.07h-98.015c64.484 95.436 177.975 159.92 301.783 159.92 203.769 0 366.267-165.078 366.267-366.267 2.58-25.793 0-54.166-10.317-79.96z m-353.37 353.37c-147.023 0-268.252-121.229-268.252-268.251S366.267 245.038 513.29 245.038 781.542 366.267 781.542 513.29c-5.16 147.022-121.23 268.252-268.252 268.252z" fill="#E60012" /><path d="M629.36 366.267H397.22c-18.056 0-30.953 12.897-30.953 30.952V629.36c0 18.056 12.897 30.952 30.952 30.952H629.36c18.056 0 30.952-12.896 30.952-30.952V397.22c0-18.056-12.896-30.953-30.952-30.953z m-33.531 234.72h-56.746v-69.642H477.18v69.642h-51.587V428.171h51.587v59.325h61.904v-59.325h56.746v172.816z" fill="#E60012" /></svg>