<svg class="svg-icon" style="width: 1em; height: 1em;vertical-align: middle;fill: currentColor;overflow: hidden;" viewBox="0 0 1024 1024" version="1.1" xmlns="http://www.w3.org/2000/svg"><path d="M764.7 545v199.2H544.19v-64.4h150.09v-73.51H544.19v-199h150.09v-67.5H544.19v-64.43H764.7v199H614.61v67.47H764.7V545z m-505.58 0v199.2H479.6v-64.4H329.51v-73.51H479.6v-199H329.51v-67.5H479.6v-64.43H259.12v199h150.09v67.47H259.12V545z" fill="#E60012" /><path d="M512 63.87c-248 0-449 201-449 449s201 449 449 449 449-201 449-449-201-449-449-449z m0 808.95c-198.8 0-359.94-161.15-359.94-359.94s161.15-360 359.94-360 359.94 161.16 359.94 360S710.79 872.81 512 872.81z" fill="#E60012" /></svg>