<svg class="svg-icon" style="width: 1.0244140625em;height: 1em;vertical-align: middle;fill: currentColor;overflow: hidden;" viewBox="0 0 1049 1024" version="1.1" xmlns="http://www.w3.org/2000/svg"><path d="M1022.221 699.077c11.671-11.594 11.671-23.47 11.671-31.558v-271.61c0-5.963-3.89-7.243-11.67-3.813-111.926 123.545-197.95 215.353-258.07 275.423-42.257 42.205-57.435 58.458-104.299 84.616-21.397 11.952-77.346 34.296-120.601 34.296-62.45 0-94.88-8.958-129.739-27.104-32.352-16.842-62.502-39.109-95.289-76.938-68.081-78.575-62.066-223.03-62.066-232.321 0-9.291-16.944-16.97-24.264 22.19-7.294 39.16-7.294 88.557-7.294 121.42 0 68.543 18.376 142.178 31.558 179.93 30.918 88.558 122.777 175.784 226.128 218.68 50.14 20.809 163.088 20.809 212 0 63.218-26.874 94.904-63.295 114.407-83.182 31.916-32.684 205.831-198.46 217.528-210.029z" fill="#074086" /><path d="M548.62 392.07l78.703 78.73a25.595 25.595 0 0 1 0 36.19l-78.704 78.703a25.595 25.595 0 0 1-36.19 0l-78.73-78.703a25.595 25.595 0 0 1 0-36.19l78.73-78.73a25.595 25.595 0 0 1 36.19 0z" fill="#E99F0C" /><path d="M37.266 309.067c-11.671 11.569-11.671 23.445-11.671 31.533v271.61c0 5.963 3.89 7.242 11.67 3.813C149.217 492.478 235.215 400.67 295.362 340.625c42.231-42.23 57.409-58.483 104.272-84.641 21.423-11.927 77.347-34.297 120.602-34.297 62.45 0 94.88 8.958 129.739 27.13 32.351 16.816 62.502 39.109 95.288 76.912 68.082 78.575 62.067 223.031 62.067 232.322 0 9.316 16.944 16.97 24.264-22.165 7.294-39.16 7.294-88.583 7.294-121.446 0-68.542-18.377-142.178-31.558-179.93-30.918-88.557-122.777-175.783-226.128-218.68-50.114-20.808-163.088-20.808-212 0-63.192 26.875-94.904 63.296-114.382 83.183-31.942 32.684-205.857 198.46-217.553 210.054z" fill="#E99F0C" /></svg>