<svg class="svg-icon" style="width: 1em;height: 1em;vertical-align: middle;fill: currentColor;overflow: hidden;" viewBox="0 0 1024 1024" version="1.1" xmlns="http://www.w3.org/2000/svg"><path d="M744.96 528.384s3.072 56.32-33.28 115.2c-32.768 52.736-96.256 108.544-200.192 110.08-103.936-1.536-167.424-56.832-200.192-110.08-36.352-58.88-33.28-115.2-33.28-115.2-2.048-107.008-38.4-161.28-38.4-161.28 174.08 30.72 164.352 135.68 164.352 135.68v67.072c0 60.928 62.976 56.832 62.976 56.832h88.064s62.976 4.096 62.976-56.832v-67.072s-9.216-104.96 164.352-135.68c1.536 0-35.328 54.784-37.376 161.28z m97.28-216.576s-72.192-1.536-140.8 24.576c-61.952 23.552-121.344 69.12-132.608 153.6v85.504H455.168v-85.504c-11.264-84.48-70.144-130.56-132.608-153.6-69.12-26.112-140.8-24.576-140.8-24.576-24.064 0.512-30.208 17.408-27.648 29.696 1.536 6.144 4.608 11.264 9.728 14.848 68.096 55.808 59.392 133.632 66.56 196.608 9.728 80.896 47.104 125.952 47.104 125.952C361.472 801.28 491.52 804.352 512 803.84c20.48 0.512 151.04-2.56 233.984-124.928 0 0 37.376-45.056 47.104-125.952 7.68-62.464-1.536-140.8 67.072-196.096 0 0 7.68-5.632 9.728-14.848 2.56-12.8-3.584-29.696-27.648-30.208zM512.512 466.432h24.576v-48.128c9.216-74.24 60.416-115.712 110.08-134.656 49.664-18.944 98.304-14.848 98.304-14.848v25.6h52.224l-1.536-74.24h-68.096c-160.256 0-215.552 117.248-215.552 117.248H512S456.704 220.16 296.448 220.16H227.84l-1.024 74.752h52.224v-25.6s48.64-4.096 98.304 14.848 100.864 60.416 110.08 134.656v48.128h25.088v-0.512z" fill="#00693E" /></svg>