<svg class="svg-icon" style="width: 1em;height: 1em;vertical-align: middle;fill: currentColor;overflow: hidden;" viewBox="0 0 1024 1024" version="1.1" xmlns="http://www.w3.org/2000/svg"><path d="M0 377.6h76.8v76.8H0z" fill="#E74225" /><path d="M0 473.6h76.8v76.8H0z" fill="#E096A5" /><path d="M0 569.6h76.8v76.8H0z" fill="#E74225" /><path d="M96 377.6h76.8v76.8H96z" fill="#E73E23" /><path d="M96 473.6h76.8v76.8H96z" fill="#E73C22" /><path d="M96 569.6h76.8v76.8H96z" fill="#E73E23" /><path d="M185.6 377.6h76.8v76.8h-76.8z" fill="#F9C053" /><path d="M185.6 473.6h76.8v76.8h-76.8z" fill="#E73E23" /><path d="M185.6 569.6h76.8v76.8h-76.8z" fill="#B50080" /><path d="M281.6 377.6h76.8v76.8h-76.8z" fill="#E73E23" /><path d="M281.6 473.6h76.8v76.8h-76.8z" fill="#E096A5" /><path d="M281.6 569.6h76.8v76.8h-76.8z" fill="#E84426" /><path d="M659.2 377.6H736v76.8h-76.8z" fill="#E73C22" /><path d="M659.2 473.6H736v76.8h-76.8v-76.8z m0 96H736v76.8h-76.8v-76.8z" fill="#E74225" /><path d="M755.2 377.6h83.2v76.8h-83.2z" fill="#E84A2A" /><path d="M755.2 473.6h83.2v76.8h-83.2z" fill="#E74225" /><path d="M755.2 569.6h83.2v76.8h-83.2z" fill="#B50080" /><path d="M844.8 377.6H928v76.8h-83.2z" fill="#F9C053" /><path d="M844.8 473.6H928v76.8h-83.2z" fill="#E73820" /><path d="M844.8 569.6H928v76.8h-83.2z" fill="#B50080" /><path d="M947.2 377.6h76.8v76.8h-76.8z" fill="#900000" /><path d="M947.2 473.6h76.8v76.8h-76.8z" fill="#E096A5" /><path d="M947.2 569.6h76.8v76.8h-76.8z" fill="#E7351F" /><path d="M377.6 940.8h76.8v83.2h-76.8v-83.2z m96 0h76.8v83.2h-76.8v-83.2z" fill="#E73E23" /><path d="M563.2 940.8h83.2v83.2h-83.2z" fill="#009F46" /><path d="M377.6 851.2h76.8V928h-76.8z" fill="#E73E23" /><path d="M473.6 851.2h76.8V928h-76.8z" fill="#E096A5" /><path d="M563.2 851.2H640V928h-76.8v-76.8z m-185.6-89.6h76.8v76.8h-76.8v-76.8z" fill="#E73E23" /><path d="M473.6 761.6h76.8v76.8h-76.8z" fill="#E7351F" /><path d="M563.2 761.6h83.2v76.8h-83.2z" fill="#B50080" /><path d="M377.6 659.2h76.8v83.2h-76.8z" fill="#E84D2C" /><path d="M473.6 659.2h76.8v83.2h-76.8z" fill="#900000" /><path d="M563.2 659.2h83.2v83.2h-83.2z" fill="#E84A2A" /><path d="M659.2 851.2H736V928h-76.8v-76.8z m96 0H832V928h-76.8v-76.8z" fill="#E84426" /><path d="M659.2 761.6H736v76.8h-76.8z" fill="#E096A5" /><path d="M755.2 761.6h83.2v76.8h-83.2z" fill="#E84A2A" /><path d="M844.8 761.6H928v76.8h-83.2z" fill="#F29600" /><path d="M659.2 659.2H736v83.2h-76.8z" fill="#E74225" /><path d="M755.2 659.2h83.2v83.2h-83.2z" fill="#E73C22" /><path d="M844.8 659.2H928v83.2h-83.2z" fill="#E73E23" /><path d="M377.6 281.6h76.8v83.2h-76.8z" fill="#900000" /><path d="M473.6 281.6h76.8v83.2h-76.8z" fill="#E096A5" /><path d="M563.2 281.6h83.2v83.2h-83.2z" fill="#E73E23" /><path d="M377.6 185.6h76.8v76.8h-76.8z" fill="#E84A2A" /><path d="M473.6 185.6h76.8v76.8h-76.8z" fill="#900000" /><path d="M563.2 185.6h83.2v76.8h-83.2z" fill="#E84426" /><path d="M377.6 96h76.8v76.8h-76.8z" fill="#E096A5" /><path d="M473.6 96h76.8v76.8h-76.8z" fill="#E73E23" /><path d="M563.2 96h83.2v76.8h-83.2z" fill="#B50080" /><path d="M96 281.6h76.8v83.2H96z" fill="#E84426" /><path d="M185.6 281.6h76.8v83.2h-76.8z" fill="#E74225" /><path d="M281.6 281.6h76.8v83.2h-76.8z" fill="#E73820" /><path d="M96 185.6h76.8v76.8H96z" fill="#E74225" /><path d="M185.6 185.6h76.8v76.8h-76.8z" fill="#E73E23" /><path d="M281.6 185.6h76.8v76.8h-76.8z" fill="#B50080" /><path d="M185.6 96h76.8v76.8h-76.8z" fill="#E84426" /><path d="M281.6 96h76.8v76.8h-76.8V96z m563.2 185.6h76.8v76.8h-76.8v-76.8z" fill="#E73C22" /><path d="M844.8 185.6H928v76.8h-83.2z" fill="#E84A2A" /><path d="M755.2 281.6h83.2v83.2h-83.2z" fill="#E73E23" /><path d="M755.2 185.6h83.2v76.8h-83.2z" fill="#B50080" /><path d="M755.2 96h83.2v76.8h-83.2z" fill="#E73C22" /><path d="M659.2 281.6H736v83.2h-76.8z" fill="#E096A5" /><path d="M659.2 185.6H736v76.8h-76.8z" fill="#E73E23" /><path d="M659.2 96H736v76.8h-76.8z" fill="#E84426" /><path d="M281.6 851.2h76.8V928h-76.8z" fill="#E84A2A" /><path d="M281.6 761.6h76.8v76.8h-76.8z" fill="#F29600" /><path d="M281.6 659.2h76.8v83.2h-76.8z" fill="#E74225" /><path d="M185.6 851.2h76.8V928h-76.8z" fill="#E84A2A" /><path d="M185.6 761.6h76.8v76.8h-76.8z" fill="#900000" /><path d="M185.6 659.2h76.8v83.2h-76.8z" fill="#E7351F" /><path d="M96 761.6h76.8v76.8H96z" fill="#E84729" /><path d="M96 659.2h76.8v83.2H96z" fill="#E73C22" /><path d="M377.6 0h76.8v83.2h-76.8z" fill="#E84426" /><path d="M473.6 0h76.8v83.2h-76.8z" fill="#E84A2A" /><path d="M563.2 0h83.2v83.2h-83.2z" fill="#E73820" /></svg>