<svg class="svg-icon" style="width: 1em;height: 1em;vertical-align: middle;fill: currentColor;overflow: hidden;" viewBox="0 0 1024 1024" version="1.1" xmlns="http://www.w3.org/2000/svg"><path d="M462.848 462.848h101.376v101.376H462.848V462.848z" fill="#0095DA" /><path d="M153.6 559.104V412.16c43.008 2.56 109.056 5.12 134.144-32.768C404.48 194.56 533.504 189.44 659.968 283.136v230.4c-5.12-98.816-83.456-141.824-139.264-146.944-66.048-5.12-121.344 40.448-144.384 88.576-43.008 93.696-111.104 96.256-222.72 103.936z" fill="#0095DA" /><path d="M870.4 464.896V611.84c-40.448-2.56-109.056-5.12-134.144 32.768C619.52 829.44 490.496 834.56 364.032 740.864v-227.84c5.12 98.816 83.456 141.824 139.264 146.944 66.048 5.12 121.344-40.448 144.384-88.576 40.448-98.816 111.104-101.376 222.72-106.496z" fill="#51A283" /></svg>