<svg class="svg-icon" style="width: 1em;height: 1em;vertical-align: middle;fill: currentColor;overflow: hidden;" viewBox="0 0 1024 1024" version="1.1" xmlns="http://www.w3.org/2000/svg"><path d="M627.2 581.12c-31.232-9.216-62.976-16.896-93.696-27.136-18.432-6.144-34.816-2.048-51.712 3.072-27.136 8.192-53.76 15.872-80.896 23.552-27.136 7.68-54.784 15.36-81.92 23.04-27.648 7.68-84.48 27.648-112.128 35.328 3.072 9.728 4.096 20.48 3.072 31.744-1.024 14.848 0.512 30.208 1.536 45.568 1.024 13.312 6.144 25.088 15.872 34.304 15.872 15.36 36.352 20.992 56.832 27.648 19.456 6.144 38.4 13.824 51.712 30.208 7.68 8.704 13.824 18.432 20.992 27.648 7.68 10.24 15.36 20.992 25.6 29.184 15.872 12.8 33.792 14.336 53.248 10.752 18.944-3.584 36.352-10.752 55.296-14.848 15.36-3.072 30.208-4.096 46.08 0 19.968 5.12 38.4 13.824 58.368 16.896 20.48 3.072 37.888-1.536 52.224-16.384 9.728-9.728 18.432-20.992 26.112-32.256 15.36-22.016 34.304-38.912 60.928-47.104 14.848-4.608 29.696-8.192 44.032-15.36 24.576-11.776 35.84-31.232 36.352-57.856 0-15.36-1.024-30.208 0.512-45.568 0.512-8.192 1.024-16.384 2.56-24.576C765.952 624.64 678.4 595.968 627.2 581.12z" fill="#B02127" /><path d="M860.672 500.736c-7.168-13.312-16.384-25.088-25.088-37.888-6.656-9.216-14.848-18.432-16.896-28.672-3.584-15.872-6.656-32.256-4.608-49.152 0-6.144 0.512-12.288 0-18.432-3.072-36.352-10.752-54.272-48.128-68.096-13.312-5.12-26.624-9.216-39.936-13.824-8.704-3.072-19.456-5.12-25.6-11.264-17.408-17.408-31.232-37.888-46.592-56.832-15.872-19.456-35.328-29.184-61.44-24.064-17.408 3.072-34.304 9.728-51.2 14.336-15.872 4.096-31.232 8.192-47.616 3.072-18.432-5.632-36.864-11.776-55.808-16.384-23.04-5.632-44.032-1.024-60.928 16.896-10.752 11.776-20.992 23.552-29.184 37.376-6.656 10.752-20.48 15.872-22.016 29.696 0 1.536-2.048 0.512-3.072 0.512-3.072-1.024-5.632 0-8.192 1.536-19.968 8.704-41.472 14.848-61.952 22.528-23.04 8.704-35.84 25.088-39.424 49.152-2.56 16.896-1.536 33.28-2.048 50.176-0.512 19.968-4.608 38.912-16.384 55.296-10.24 13.824-20.48 28.16-29.696 43.008-10.752 17.408-15.36 36.352-7.168 56.32 6.144 14.848 14.848 27.648 24.576 40.448 9.216 11.776 17.408 23.552 22.016 36.864 16.384-6.656 54.272-20.48 70.144-26.112 31.232-11.264 60.928-24.576 91.648-36.352 23.552-9.216 46.592-18.432 70.144-27.648 7.168-2.56 13.312-6.656 12.288-15.36-1.024-8.192-6.144-12.8-14.848-15.36-25.6-7.68-51.2-16.384-76.288-25.088l-113.664-38.4c-3.072-1.024-5.632-2.56-8.192-5.632l41.472 9.216c48.64 12.288 97.792 24.576 146.432 36.864l16.896 4.608c6.656 2.048 13.312 2.56 18.432-4.096 5.12-6.144 3.072-12.288-0.512-17.92-7.68-12.288-15.872-24.064-24.064-36.352-31.744-45.568-63.488-91.648-95.744-137.216-0.512-0.512-0.512-1.024 0.512-3.072 5.632 6.144 11.264 12.288 16.384 18.944 33.792 40.96 67.584 81.408 100.864 122.368 6.144 7.168 11.776 14.336 17.408 22.016 4.608 6.144 10.24 8.704 17.408 7.168 7.168-1.536 8.704-7.68 9.728-13.824 1.024-7.168 1.536-14.336 1.536-20.992l6.144-204.288c0-1.536 0.512-3.584 2.56-5.12 1.024 15.36 2.048 30.208 2.56 45.568 2.56 56.32 2.56 112.64 7.68 168.96a37.824 37.824 0 0 1 0 10.752c-1.024 7.68 0.512 14.848 7.68 17.92 7.68 3.584 13.824-0.512 18.432-6.656 15.36-17.92 30.208-35.84 45.568-54.272 25.6-31.232 51.2-62.464 76.8-93.184 3.072-4.096 6.656-7.68 10.752-11.264-7.68 15.872-17.92 29.696-28.16 44.032-28.672 41.472-57.344 82.432-86.016 123.904-2.56 3.584-5.12 7.168-5.632 12.288 0 9.216 7.68 15.36 16.896 13.312 36.864-8.704 73.728-18.432 111.104-27.136 31.744-7.68 63.488-15.36 95.232-22.528 1.536-0.512 3.072 0 5.12 2.048-14.336 4.608-28.16 9.728-42.496 14.336-36.864 12.288-74.24 24.576-111.104 37.376-14.848 5.12-29.696 10.24-45.056 15.36-7.168 2.56-14.336 5.12-14.336 14.336 0 9.728 6.656 13.312 14.336 16.384 47.104 18.944 94.208 37.376 141.312 56.32 23.04 9.216 62.976 24.064 84.992 35.328 1.536-4.096 3.072-8.192 6.144-12.288 9.728-13.824 18.944-27.648 28.672-40.96 20.48-25.088 25.6-51.712 9.216-80.896z" fill="#F7BB1E" /></svg>