<svg class="svg-icon" style="width: 1em;height: 1em;vertical-align: middle;fill: currentColor;overflow: hidden;" viewBox="0 0 1024 1024" version="1.1" xmlns="http://www.w3.org/2000/svg"><path d="M732.672 587.264c4.608 2.56 8.704 5.12 13.312 8.192 19.456 12.288 36.864 26.112 50.688 44.544 25.6 33.792 20.992 76.8-10.24 105.472-10.24 9.216-22.016 16.384-35.328 21.504-30.208 11.776-55.808 31.232-76.288 56.832-15.36 19.456-35.84 31.232-60.928 34.304-2.048 0.512-4.608 0-7.68 0 1.024-1.536 1.024-3.072 2.048-4.096 25.6-41.984 34.304-87.04 30.208-135.68-3.584-39.936-12.8-77.824-32.256-113.152-22.016-38.4-53.76-65.536-96.256-77.824-30.208-8.704-60.928-6.144-91.136 4.096-0.512 0-0.512 0.512-2.048 1.536 8.704 0 15.872-0.512 23.04 0 29.184 3.584 50.688 18.944 65.536 43.52 25.088 41.984 30.72 87.552 18.432 134.656-9.216 36.864-23.552 71.68-47.616 101.376-11.776 14.848-25.088 27.648-41.984 36.352-16.896 8.704-33.792 9.216-51.2 0-13.824-7.168-25.088-16.384-34.816-28.672-20.48-25.088-46.08-44.032-76.8-54.784-35.84-12.288-61.44-48.64-59.392-84.992 1.024-17.408 9.216-32.256 19.968-45.568 15.36-18.432 34.304-32.768 55.296-45.056 1.536-1.024 3.072-2.048 4.608-4.096-4.608 0.512-9.216 0.512-13.824 1.024-20.48 1.536-40.448 0.512-60.416-3.584-57.344-12.288-69.632-61.952-60.928-98.304 3.072-11.264 7.68-21.504 13.824-31.744 17.92-28.16 28.16-58.88 29.184-92.672 1.024-34.816 25.088-71.168 61.952-80.896 14.336-3.584 28.672-2.048 42.496 2.56 22.528 7.168 41.472 19.968 59.392 34.816 3.584 3.072 7.68 6.656 11.776 9.216-3.072-8.192-6.656-15.872-9.728-24.064-6.144-17.408-10.24-35.328-10.752-53.76-0.512-45.056 28.672-76.8 73.728-80.896 12.288-1.024 24.576 0 36.864 3.584 20.992 6.144 43.008 7.168 65.024 4.608 11.776-1.536 23.04-4.096 34.816-6.656 39.936-9.216 83.968 9.728 98.304 46.08 6.656 16.896 6.144 33.792 3.584 51.2-3.072 19.456-9.216 37.376-16.896 55.296-0.512 1.536-1.024 3.072-0.512 5.12 2.048-1.536 3.584-3.072 5.632-4.608 15.872-14.336 33.792-26.624 53.76-35.328 47.104-20.48 90.624-2.56 109.568 45.056 4.096 10.24 6.144 20.992 6.656 31.744 1.536 33.28 11.776 64.512 30.72 92.16 20.992 30.72 20.992 79.872-7.68 107.008-14.336 13.824-32.256 19.456-51.712 22.528-21.504 4.096-42.496 3.584-64 2.048z m-278.016-80.896c8.192-2.56 14.848-5.12 21.504-6.656 24.064-5.632 47.616-1.024 71.168 5.632 13.824 4.096 27.648 4.608 41.472 2.56 20.48-3.072 34.816-14.336 41.472-34.304 0.512-1.024 0.512-2.56 0.512-4.608-3.072 1.536-5.12 3.072-6.656 4.096-7.168 5.632-15.36 7.68-24.576 9.216-12.288 2.048-24.576 0.512-36.864-2.048-23.04-4.608-46.08-5.12-69.12 0.512-15.36 4.096-26.624 14.336-38.912 25.6z m7.168-15.36c2.048-1.024 2.048-1.024 2.56-1.024 17.408-15.872 35.84-29.184 61.44-25.6 5.12 0.512 10.752-5.632 10.752-10.752 0-4.608-4.608-9.216-10.24-9.728-3.072 0-7.168 0-9.728 1.536-9.728 4.608-19.456 9.728-28.16 15.36-11.264 7.168-18.944 17.408-26.624 30.208z" fill="#DB0000" /></svg>