<svg class="svg-icon" style="width: 1em;height: 1em;vertical-align: middle;fill: currentColor;overflow: hidden;" viewBox="0 0 1024 1024" version="1.1" xmlns="http://www.w3.org/2000/svg"><path d="M510.464 155.136c-197.12 0-358.4 156.672-358.4 358.4 0 199.168 161.28 358.4 358.4 358.4 199.168 0 358.4-161.28 358.4-358.4s-156.16-358.4-358.4-358.4z m0 655.872c-166.4 0-300.544-133.632-300.544-300.544S343.552 209.92 510.464 209.92s300.544 133.632 300.544 300.544c0 43.008-7.68 80.896-22.528 118.784 0 5.12-5.12 7.68-5.12 7.68l5.12 19.968s-5.12-5.12-12.8-7.68C636.928 546.304 414.72 546.304 414.72 546.304c30.208-53.248 30.208-126.464 30.208-126.464 73.216-57.856 184.32-43.008 184.32-43.008L601.6 495.616l86.016-156.672c-148.992-19.968-317.952 45.568-317.952 45.568C404.992 510.464 268.8 639.488 268.8 639.488c292.864-68.096 449.024 0 499.712 27.648-53.248 86.016-144.384 143.872-258.048 143.872z" fill="#A40000" /></svg>