<svg class="svg-icon" style="width: 1em;height: 1em;vertical-align: middle;fill: currentColor;overflow: hidden;" viewBox="0 0 1024 1024" version="1.1" xmlns="http://www.w3.org/2000/svg"><path d="M576.512 778.24c-19.968 0-35.328 0-55.296-5.12-19.968 0-35.328-5.12-55.296-10.24s-35.328-15.36-55.296-19.968c-166.4-78.336-242.176-252.416-197.12-439.296-35.328 57.856-57.856 128.512-57.856 192v25.088c5.12 123.904 73.216 237.056 186.88 300.544 40.448 25.088 83.456 40.448 128.512 45.568 19.968 0 35.328 5.12 55.296 5.12 19.968 0 35.328 0 55.296-5.12 123.904-19.968 237.056-93.184 290.304-232.448-86.016 88.576-186.88 143.872-295.424 143.872z" fill="#ED1C24" /><path d="M465.408 250.88c19.968-5.12 35.328-5.12 55.296-5.12 19.968 0 35.328 0 55.296 5.12 138.752 30.208 247.296 166.4 201.728 340.48 68.096-73.216 103.424-295.424-78.336-403.968-40.448-25.088-83.456-35.328-123.904-35.328-19.968 0-35.328 0-55.296 5.12-19.968 5.12-35.328 10.24-55.296 19.968-83.456 40.448-148.992 118.784-163.84 171.52 50.688-54.784 111.104-87.552 164.352-97.792z" fill="#ED1C24" /><path d="M518.144 417.28l-53.248 15.36-53.248 19.968 53.76 156.672 53.248-12.8 57.856-19.968 50.688-15.36-50.688-163.84-58.368 19.968z" fill="#ED1C24" /></svg>