<svg class="svg-icon" style="width: 1em;height: 1em;vertical-align: middle;fill: currentColor;overflow: hidden;" viewBox="0 0 1024 1024" version="1.1" xmlns="http://www.w3.org/2000/svg"><path d="M169.5 627.9c-34.8-11.1-67.9-27.1-98.1-47.7 11.2 70.6 39.3 137.5 81.9 194.9 0-1.4-0.1-2.9-0.1-4.3-0.1-48.1 5.4-96.1 16.3-142.9z m252.1-8.6C364 641.8 301.8 650 240.3 643c-16.5 70.4-19.2 143.2-7.9 214.6 64.5 52 142.2 84.9 224.4 95.1-62.8-99.6-75.8-222.8-35.2-333.4zM260.6 419c-67.9-7.6-123.9-56.7-140.4-123-33 60.4-51.4 127.6-54 196.3 34.4 33.2 75.9 58.1 121.4 72.8 17.8-51.7 42.4-100.8 73-146.1z m59.2-74.9c14.5-15.7 29.7-30.6 45.7-44.7 20.8-42.2 8.2-93.4-30-121-38.2-27.6-90.7-23.7-124.3 9.2-33.7 33-38.6 85.4-11.8 124.1 26.9 38.7 77.8 52.4 120.4 32.4z m546 438.3c15-43.3-2.5-91.1-41.8-114.6s-89.7-16.2-120.7 17.5-34.1 84.5-7.5 121.7 75.7 50.7 117.6 32.2c19.1-17.4 36.6-36.4 52.4-56.8z m0 0" fill="#F2943A" /><path d="M765 141.5C717.9 109.1 664.9 86 609.1 73.7c15.4 26 27.7 53.7 36.5 82.5 39.3-8.6 79.2-13.6 119.4-14.7z m-105 85.7c6 57.6-1.3 115.9-21.2 170.3 100.5-39.3 213-34 309.4 14.7-16-71.9-49.7-138.8-97.9-194.5-63.6-7.7-127.9-4.5-190.3 9.5zM958.5 495c-120.2-85.7-284-75.8-392.9 23.9-7.7 8.6-15.8 16.9-24.2 24.7-103.3 117.6-103.7 293.5-1 411.6 62.8-3.9 124.1-21 179.8-50.4-63.7-22.3-109.4-82.8-109.4-154.1 0-77.1 53.9-143.7 129.2-159.8 75.4-16.1 151.8 22.7 183.2 93.1 23.4-55.2 35.4-114.5 35.4-174.4 0.2-4.8 0.1-9.7-0.1-14.6z m-439.6-21.9c50.2-57.1 77.8-130.6 77.7-206.6 0-7-0.2-14-0.7-20.8-72.4 25.8-138.7 66.3-194.7 119-5.2 5.9-10.8 11.4-16.8 16.5-55.2 56.4-97.8 123.8-125 197.9 7.8 0.6 15.7 0.9 23.7 0.9 78.3 0.1 153.7-29.2 211.4-82.1 7.8-8.6 15.9-16.9 24.4-24.8z m-77.4-231.4c44-28.4 91.4-51.2 141.1-67.9-12.7-40.6-33.4-78.2-61.1-110.5-3.1-0.1-6.1-0.1-9.2-0.1-62.6-0.1-124.5 13-181.7 38.5 60.3 20.2 105 74.4 110.9 140z m0 0" fill="#F2943A" /><path d="M541.5 543.7c8.4-7.8 16.4-16.1 24.2-24.7 108.9-99.7 272.6-109.7 392.8-24-0.9-27.8-4.3-55.5-10.4-82.7-96.3-48.7-208.8-54.1-309.4-14.8 20-54.4 27.2-112.7 21.2-170.3 62.4-14 126.7-17.2 190.2-9.4-25-28.9-53.6-54.6-85.2-76.2-40.2 1.1-80.1 6-119.4 14.7-8.8-28.9-21.1-56.6-36.5-82.5-28.8-6.3-58.2-9.8-87.7-10.4 27.6 32.3 48.4 69.9 61.1 110.5-49.7 16.6-97.1 39.5-141.1 67.9-5.9-65.5-50.6-119.8-110.9-140-89.5 40-163.5 108.3-210.5 194.3 16.5 66.3 72.5 115.3 140.4 122.9-30.6 45.3-55.1 94.4-73 146.1-45.5-14.7-87-39.6-121.4-72.8-0.2 5.7-0.3 11.5-0.3 17.3 0 23.6 1.8 47.2 5.5 70.5 30.2 20.5 63.3 36.6 98.1 47.7-10.9 46.9-16.3 94.8-16.3 142.9 0 1.4 0 2.9 0.1 4.3 22.8 30.8 49.4 58.5 79.2 82.5a557.73 557.73 0 0 1 7.9-214.6c61.4 7 123.7-1.1 181.2-23.6C381 729.9 394 853.1 456.9 952.7c18.4 2.3 36.9 3.4 55.4 3.4 9.5 0 18.8-0.3 28.1-0.9-102.7-118.1-102.3-293.9 1.1-411.5zM182 256.5c0-39.9 24.5-75.7 61.7-90.1 37.2-14.4 79.4-4.6 106.3 24.8 26.9 29.4 33.1 72.3 15.4 108.1-16 14.1-31.2 29.1-45.7 44.8-30 14-65 11.8-92.9-5.9-27.8-17.8-44.7-48.6-44.8-81.7zM283.2 580c-8 0-15.9-0.3-23.7-0.9 27.2-74.1 69.8-141.5 125-197.9 6-5.1 11.6-10.6 16.8-16.5 56-52.7 122.3-93.2 194.7-119 0.5 6.9 0.7 13.8 0.7 20.8 0.1 76-27.6 149.4-77.8 206.5-8.5 7.9-16.6 16.2-24.3 24.9-57.7 52.9-133.2 82.2-211.4 82.1z m0 0" fill="#FED966" /><path d="M774.4 587.4c-43.4 0-84.9 17.2-115.6 47.8-30.7 30.6-47.9 72.2-47.9 115.6 0 71.3 45.7 131.7 109.4 154.1 33.7-17.8 65-39.8 93.2-65.6-41.9 18.5-90.9 5-117.5-32.2-26.6-37.2-23.5-88 7.5-121.6 31-33.6 81.3-40.9 120.6-17.5 39.3 23.5 56.7 71.2 41.8 114.5 23.3-30.2 42.7-63.2 57.6-98.3-26.3-58.9-84.7-96.8-149.1-96.8z m0 0" fill="#FED966" /></svg>