<svg class="svg-icon" style="width: 1em;height: 1em;vertical-align: middle;fill: currentColor;overflow: hidden;" viewBox="0 0 1024 1024" version="1.1" xmlns="http://www.w3.org/2000/svg"><path d="M117.76 510.464c0 74.24 60.416 134.144 134.144 134.144s134.144-60.416 134.144-134.144S326.144 376.32 251.904 376.32 117.76 436.736 117.76 510.464z" fill="#E59628" /><path d="M414.208 487.936c15.36 5.12 27.648 15.36 27.648 27.648s-10.24 23.04-27.648 27.648v-55.296z m-141.824-30.72c-15.36-37.888 27.648-53.248 30.208-30.208 2.56-20.48 48.128-7.68 30.208 30.208l-30.208 55.808-30.208-55.808z m0 116.736c-15.36 37.888 27.648 53.248 30.208 30.208 2.56 20.48 48.128 7.68 30.208-30.208l-30.208-55.808-30.208 55.808z m109.056-91.136c5.12 0 10.24 0 17.92 2.56v66.048c-5.12 0-10.24 2.56-17.92 2.56v-71.168z m-12.8 68.608c-5.12 0-10.24-2.56-15.36-2.56v-63.488c5.12-2.56 10.24-2.56 15.36-2.56v68.608z m-25.088-7.68v-53.248c-12.8 5.12-20.48 15.36-20.48 25.6s7.68 22.528 20.48 27.648z m-78.848-50.688c-7.68 0-15.36 5.12-20.48 15.36-17.92-5.12-45.568-35.328-45.568-35.328h-2.56c-2.56 0 10.24 12.8 25.6 25.6 7.68 5.12 17.92 12.8 23.04 15.36v7.68c-5.12 2.56-12.8 7.68-23.04 15.36-15.36 12.8-27.648 25.6-25.6 25.6h2.56s27.648-30.208 45.568-35.328c2.56 7.68 10.24 12.8 17.92 12.8 10.24 0 20.48-10.24 20.48-23.04 2.56-13.824-5.12-24.064-17.92-24.064z" fill="#FFFFFF" /><path d="M573.952 561.664c0 12.8-7.68 17.92-23.04 17.92-10.24 0-12.8-5.12-15.36-12.8 0-5.12 2.56-10.24 5.12-10.24 2.56-2.56 5.12-2.56 12.8-2.56 10.24-2.56 17.92-2.56 17.92-7.68v15.36h2.56z m48.128-55.808c0-25.6-23.04-37.888-66.048-37.888-35.328 2.56-58.368 12.8-60.928 32.768 0 10.24 5.12 17.92 15.36 17.92 5.12 0 10.24-2.56 17.92-7.68 7.68-7.68 15.36-10.24 23.04-10.24 12.8 0 17.92 5.12 17.92 12.8s-7.68 12.8-25.6 12.8c-40.448 2.56-63.488 17.92-63.488 40.448 0 25.6 15.36 37.888 45.568 37.888 20.48 0 35.328-5.12 43.008-17.92 2.56 12.8 10.24 17.92 23.04 17.92 15.36 0 23.04-5.12 23.04-15.36v-23.04c7.168 2.56 7.168-60.416 7.168-60.416z m91.648 78.336c0 15.36 7.68 23.04 23.04 23.04s23.04-7.68 23.04-23.04v-66.048c0-32.768-15.36-53.248-43.008-53.248-17.92 0-30.208 7.68-37.888 25.6-2.56-17.92-7.68-25.6-20.48-25.6-15.36 0-20.48 7.68-20.48 25.6v91.136c0 15.36 7.68 23.04 23.04 23.04s23.04-7.68 23.04-23.04v-45.568c0-17.92 5.12-25.6 15.36-25.6s17.92 7.68 17.92 23.04v48.128h-2.56v2.56z m121.344-68.608v-73.216c0-17.92-7.68-27.648-20.48-27.648-15.36 0-23.04 10.24-23.04 27.648v139.264c0 15.36 7.68 23.04 23.04 23.04s20.48-7.68 20.48-23.04v-12.8l10.24-10.24 12.8 25.6c5.12 10.24 10.24 15.36 12.8 17.92s7.68 2.56 12.8 2.56c15.36 0 23.04-7.68 23.04-20.48 0-5.12-2.56-12.8-7.68-23.04l-23.04-35.328 15.36-17.92c5.12-5.12 7.68-10.24 7.68-17.92 0-12.8-7.68-20.48-20.48-23.04-7.68 0-12.8 2.56-17.92 10.24l-25.6 38.4z m-359.936 50.688c0-25.6-10.24-43.008-27.648-48.128 15.36-5.12 27.648-27.648 27.648-48.128 0-48.128-45.568-45.568-53.248-45.568h-78.336V611.84H422.4c4.608-4.608 52.736 3.072 52.736-45.568z m-60.928-78.336c15.36 5.12 27.648 15.36 27.648 27.648 0 12.8-10.24 23.04-27.648 27.648v-55.296z m-32.768-5.12c5.12 0 10.24 0 17.92 2.56v66.048c-5.12 0-10.24 2.56-17.92 2.56v-71.168z m-12.8 68.608c-5.12 0-10.24-2.56-15.36-2.56v-63.488c5.12-2.56 10.24-2.56 15.36-2.56v68.608z" fill="#009844" /></svg>