<svg class="svg-icon" style="width: 1em;height: 1em;vertical-align: middle;fill: currentColor;overflow: hidden;" viewBox="0 0 1024 1024" version="1.1" xmlns="http://www.w3.org/2000/svg"><path d="M174.592 554.496c69.12-59.392 141.824-99.328 230.4-98.816 100.864 0.512 151.04 75.776 125.952 171.52-21.504 82.432-75.264 142.336-141.312 192-4.096 3.072-9.728 5.632-14.336 6.144-26.624 0.512-53.76 0.512-87.552 0.512 47.104-34.816 86.016-69.632 117.76-111.104 30.72-39.424 55.296-81.408 64-131.072 11.776-66.56-29.696-110.592-96.768-105.984-66.56 4.096-123.392 32.256-177.664 68.608-5.12 2.56-8.704 7.68-20.48 8.192z" fill="#005893" /><path d="M670.208 479.744c1.536-9.216 5.632-12.8 10.24-14.848 37.376-17.408 119.808-1.536 150.528 27.648 34.816 32.768 45.056 74.24 35.84 118.272-20.48 93.696-82.432 157.696-159.744 209.408-3.584 2.56-8.704 4.096-12.8 4.096-27.136 0.512-53.76 0-86.528 0 40.448-27.648 74.24-54.272 104.96-84.992 39.936-40.448 72.704-84.48 88.576-140.288 20.992-73.216-22.528-126.976-98.816-121.856-10.24 1.024-20.48 1.536-32.256 2.56zM344.576 298.496c61.952-57.856 132.096-99.84 220.16-100.352 91.648-0.512 145.92 64 129.536 154.624-14.848 83.456-63.488 144.896-127.488 199.168-6.144-18.944-10.24-36.352-18.944-52.224-6.144-10.752 3.584-16.384 8.704-23.552 35.328-45.056 64-93.696 73.728-151.04 10.752-64.512-28.672-110.08-94.208-107.52-47.104 2.048-90.112 18.944-130.56 41.984-19.968 12.288-41.472 23.552-60.928 38.912z" fill="#009B97" /><path d="M153.6 728.576c0.512-10.24 9.216-14.336 14.848-18.944 38.4-32.768 66.048-72.192 81.92-119.808 3.072-9.216 4.608-18.432 17.92-12.8 37.376 15.872 73.728 10.752 110.08-3.072 3.584-1.536 7.168-2.048 12.8 2.048-29.184 32.256-53.248 67.072-70.656 107.008-6.144 14.336-12.288 29.184-17.92 44.032-3.584 9.216-9.216 14.848-18.944 10.752-40.96-16.896-82.432-16.896-124.416-6.656-1.024 0-3.584-1.536-5.632-2.56z" fill="#005893" /><path d="M702.976 552.448c-23.04 43.52-36.352 87.552-38.912 135.168-0.512 11.776-7.68 14.848-16.384 13.824-43.52-5.632-82.944 7.68-125.952 23.552 9.728-24.064 24.064-41.984 31.744-64 8.192-23.04 14.848-46.08 16.896-70.144 1.024-10.24 3.072-18.944 15.36-17.408 40.96 5.12 79.36-2.56 117.248-20.992zM545.28 326.144c-27.136 32.256-41.984 70.656-47.104 112.128-1.024 6.144-5.12 9.728-11.264 7.168-39.424-16.896-80.384-16.384-124.416-10.24 5.12-16.384 17.92-24.064 24.064-35.84 12.8-23.04 27.136-45.568 32.256-72.192 1.024-6.144 2.048-17.408 13.824-13.312 35.328 12.8 71.168 10.24 107.52 7.68 0.512 0.512 2.048 2.048 5.12 4.608z" fill="#009B97" /></svg>