<svg class="svg-icon" style="width: 1em;height: 1em;vertical-align: middle;fill: currentColor;overflow: hidden;" viewBox="0 0 1024 1024" version="1.1" xmlns="http://www.w3.org/2000/svg"><path d="M513.024 346.624c27.648 0 55.808 5.12 78.336 17.92 2.56 0 5.12 2.56 5.12 5.12v138.752c0 12.8-7.68 15.36-15.36 5.12l-60.416-60.416c-2.56-2.56-2.56-2.56-7.68 0-52.736 52.736-103.424 100.352-156.16 151.04-2.56 2.56-12.8 2.56-15.36-2.56-7.68-22.528-15.36-45.568-15.36-73.216-5.12-100.864 83.456-181.76 186.88-181.76z m146.944-93.696c-22.528-55.808-83.456-91.136-151.552-91.136-93.696 0-169.472 73.728-169.472 161.792 0 7.68 0 19.968 2.56 27.648 2.56 12.8 5.12 12.8 15.36 5.12 40.448-37.888 96.256-60.416 154.112-60.416 17.92 0 37.888 2.56 55.808 5.12 7.68 2.56 7.68 2.56 15.36-2.56 22.528-15.36 45.568-25.088 73.216-35.328 4.608 5.12 9.728-2.56 4.608-10.24z m-364.032 48.128c-60.416 5.12-113.664 53.248-134.144 116.224-27.648 91.136 17.92 181.76 103.424 212.48 7.68 2.56 17.92 5.12 25.088 5.12 12.8 0 15.36-2.56 7.68-12.8-19.968-53.248-27.648-111.104-7.68-164.352 5.12-17.92 15.36-35.328 22.528-50.688 5.12-7.68 5.12-5.12 2.56-15.36-5.12-25.088-7.68-53.248-12.8-80.896 3.584-4.608 1.024-9.728-6.656-9.728zM227.84 665.088c-15.36 57.856 15.36 121.344 70.656 161.792 75.776 55.808 179.2 40.448 232.448-32.768 5.12-7.68 12.8-15.36 15.36-22.528 2.56-12.8 2.56-15.36-7.68-12.8-55.808 5.12-113.664-7.68-159.232-43.008-15.36-12.8-27.648-22.528-40.448-37.888-5.12-5.12-5.12-5.12-15.36-7.68-25.088-2.56-53.248-7.68-78.336-15.36-7.168-2.56-12.288 0-17.408 10.24z m325.632 174.08c53.248 32.768 121.344 22.528 174.08-15.36C803.328 768 821.248 664.576 768 591.36c-5.12-7.68-12.8-15.36-17.92-19.968-7.68-5.12-12.8-5.12-15.36 2.56-12.8 55.808-40.448 103.424-91.136 138.752-15.36 12.8-32.768 19.968-50.688 25.088-7.68 2.56-7.68 2.56-12.8 12.8-7.68 22.528-22.528 45.568-37.888 73.216 4.096 5.12 4.096 12.8 11.264 15.36zM821.76 584.192c45.568-40.448 60.416-105.984 40.448-172.032-27.648-91.136-121.344-138.752-209.92-111.104-7.68 2.56-17.92 5.12-25.088 12.8-7.68 5.12-12.8 7.68-2.56 15.36 45.568 27.648 86.016 73.216 103.424 126.464 5.12 17.92 7.68 35.328 12.8 55.808 0 7.68 0 7.68 5.12 15.36 19.968 17.92 37.888 37.888 55.808 57.856 7.168 4.096 12.288 6.656 19.968-0.512z" fill="#CA1A1D" /><path d="M508.416 715.264c-27.648 0-55.808-5.12-78.336-17.92-2.56 0-5.12-2.56-5.12-5.12V553.472c0-12.8 7.68-15.36 15.36-5.12l60.416 60.928c2.56 2.56 2.56 2.56 7.68 0 53.248-50.688 103.424-100.864 156.672-151.552 2.56-2.56 12.8-2.56 15.36 2.56 7.68 22.528 15.36 45.568 15.36 73.216-0.512 100.864-86.528 181.76-187.392 181.76z" fill="#CA1A1D" /></svg>