<svg class="svg-icon" style="width: 1em;height: 1em;vertical-align: middle;fill: currentColor;overflow: hidden;" viewBox="0 0 1024 1024" version="1.1" xmlns="http://www.w3.org/2000/svg"><path d="M606.72 487.936c3.072-5.632 2.048-9.216 2.048-13.312V338.432c0-17.92 4.608-22.528 22.528-22.528h224.768c11.776 0 13.824 2.048 13.824 14.336v55.296c0 10.24-4.096 14.336-13.824 15.872h-1.024c-27.136 2.56-22.528 0.512-22.528 25.6v246.784c0 29.184-4.608 33.792-33.28 33.792-86.016 0-172.032-0.512-257.536 0.512-19.968 0-33.792-7.68-45.568-22.528-30.208-37.376-61.44-73.728-91.648-110.592-8.192-9.728-15.872-19.456-25.088-30.72-3.072 12.288-2.56 23.04-2.56 33.28V686.08c0 16.896-4.608 21.504-22.016 21.504H182.272c-22.016 0-28.672-6.656-28.672-28.672V348.16c0-24.576 7.68-32.256 31.744-32.256h258.56c12.8 0 22.528 4.096 30.72 14.336 34.304 41.984 69.632 83.968 104.448 125.44 9.216 10.752 17.92 20.992 27.648 32.256z" fill="#D7000F" /></svg>