<svg class="svg-icon" style="width: 1em;height: 1em;vertical-align: middle;fill: currentColor;overflow: hidden;" viewBox="0 0 1024 1024" version="1.1" xmlns="http://www.w3.org/2000/svg"><path d="M215.467 593.067c-2.134-4.267-2.134-6.4-4.267-8.534-4.267-10.666-6.4-25.6-14.933-27.733-8.534-4.267-25.6 0-29.867 6.4-6.4 8.533-10.667 25.6-8.533 36.267 4.266 21.333 23.466 29.866 44.8 32 27.733 2.133 49.066-8.534 64-32 29.866-51.2 2.133-110.934-55.467-121.6-72.533-14.934-134.4 38.4-140.8 119.466-4.267 59.734 12.8 115.2 40.533 166.4C164.267 861.867 243.2 934.4 341.333 985.6c8.534 4.267 17.067 10.667 23.467 21.333-23.467-8.533-46.933-14.933-68.267-25.6-128-59.733-217.6-155.733-268.8-283.733-38.4-91.733-34.133-183.467 21.334-270.933C96 356.267 196.267 320 277.333 347.733 337.067 366.933 377.6 403.2 401.067 460.8c38.4 91.733-25.6 217.6-123.734 236.8-70.4 14.933-121.6-4.267-151.466-55.467-19.2-29.866-19.2-61.866-2.134-91.733 12.8-23.467 34.134-36.267 61.867-36.267 21.333 0 40.533 10.667 46.933 29.867 4.267 12.8-4.266 29.867-6.4 42.667-2.133 2.133-6.4 4.266-10.666 6.4zM802.133 435.2c12.8 14.933 19.2 29.867 27.734 34.133 8.533 2.134 23.466-6.4 32-14.933 12.8-14.933 4.266-29.867-4.267-42.667-23.467-29.866-83.2-21.333-102.4 17.067-27.733 51.2 4.267 110.933 61.867 121.6 83.2 14.933 130.133-59.733 134.4-115.2 6.4-96-32-179.2-91.734-251.733C802.133 115.2 733.867 64 650.667 21.333c8.533 0 12.8-2.133 17.066-2.133C795.733 64 896 145.067 964.267 262.4c36.266 64 61.866 132.267 53.333 209.067-8.533 83.2-40.533 153.6-119.467 194.133C791.467 721.067 659.2 669.867 620.8 556.8c-23.467-66.133-6.4-130.133 42.667-181.333C710.4 326.4 768 309.333 836.267 328.533c72.533 23.467 100.266 115.2 51.2 162.134-17.067 17.066-40.534 23.466-66.134 14.933-19.2-6.4-34.133-19.2-34.133-42.667 0-14.933 6.4-25.6 14.933-27.733z" fill="#C00522" /><path d="M1009.067 657.067c-12.8 32-25.6 64-42.667 96-64 121.6-164.267 206.933-296.533 249.6-98.134 32-192 19.2-270.934-51.2-106.666-98.134-70.4-279.467 66.134-328.534C576 580.267 710.4 676.267 706.133 795.733 704 851.2 667.733 896 618.667 910.933 576 923.733 533.333 900.267 518.4 857.6c-10.667-34.133 12.8-70.4 46.933-68.267 10.667 0 19.2 8.534 34.134 14.934-10.667 4.266-10.667 6.4-12.8 6.4-8.534 4.266-23.467 8.533-27.734 14.933-4.266 8.533 0 25.6 6.4 29.867 8.534 6.4 25.6 10.666 36.267 6.4 34.133-10.667 42.667-61.867 17.067-91.734-21.334-25.6-46.934-34.133-78.934-25.6-34.133 8.534-55.466 29.867-61.866 66.134-10.667 68.266 36.266 128 110.933 136.533 78.933 8.533 149.333-19.2 213.333-59.733 89.6-57.6 153.6-140.8 200.534-234.667 2.133 2.133 4.266 2.133 6.4 4.267zM435.2 217.6c12.8-4.267 27.733-6.4 29.867-14.933 4.266-8.534 4.266-23.467-2.134-32-8.533-12.8-23.466-17.067-38.4-10.667-27.733 10.667-40.533 51.2-23.466 81.067 14.933 27.733 44.8 42.666 74.666 40.533 36.267-4.267 64-25.6 72.534-59.733C569.6 147.2 512 76.8 428.8 74.667c-85.333-4.267-157.867 25.6-224 74.666-78.933 57.6-136.533 132.267-179.2 217.6 0 2.134-2.133 4.267-4.267 4.267-2.133-2.133-4.266-2.133-6.4-4.267C32 328.533 49.067 288 70.4 249.6 134.4 136.533 232.533 61.867 352 19.2c89.6-32 179.2-21.333 258.133 36.267 66.134 49.066 87.467 119.466 74.667 198.4C672 326.4 627.2 377.6 556.8 398.933c-66.133 19.2-125.867 6.4-177.067-42.666-49.066-44.8-66.133-102.4-51.2-166.4 17.067-72.534 108.8-106.667 160-59.734 25.6 23.467 29.867 57.6 10.667 85.334-19.2 27.733-53.333 27.733-64 2.133z" fill="#C00522" /></svg>