<svg class="svg-icon" style="width: 1em;height: 1em;vertical-align: middle;fill: currentColor;overflow: hidden;" viewBox="0 0 1024 1024" version="1.1" xmlns="http://www.w3.org/2000/svg"><path d="M1023.994 512.015c0-10.006-0.397-20.338-1.12-30.633-4.913-66.936-25.503-121.628-58.05-159.919 24.563-11.054 10.042-44.468 1.95-63.18C931.988 177.8 830.48 73.475 748.95 46.816c-17.448-4.515-39.447-10.114-45.625 11.56C664.818 22.108 603.37 5.382 531.558 0.83 524.948 0.397 518.445 0.144 512.015 0c-6.466 0.144-12.968 0.397-19.579 0.795C420.66 5.346 359.176 22.072 320.67 58.34c-6.14-21.674-28.177-16.075-45.589-11.56C193.55 73.44 92.042 177.764 57.22 258.248c-8.092 18.712-22.577 52.162 2.023 63.18-32.62 38.327-53.21 92.983-58.123 159.92C0.397 491.677 0 501.972 0 512.015v0.035c0 10.043 0.397 20.266 1.084 30.597 4.949 66.936 25.54 121.628 58.123 159.955-24.6 11.018-10.08 44.504-2.023 63.144C92.006 846.23 193.513 950.59 275.044 977.25c17.412 4.515 39.447 10.15 45.625-11.56 38.507 36.232 99.99 52.958 171.767 57.545 6.61 0.398 13.077 0.65 19.58 0.759 6.393-0.072 12.93-0.361 19.506-0.759 71.813-4.551 133.26-21.313 171.767-57.545 6.177 21.747 28.177 16.075 45.625 11.56 81.494-26.696 183-131.056 217.824-211.504 8.092-18.64 22.577-52.126-1.95-63.144 32.583-38.327 53.173-93.019 58.05-159.955 0.723-10.331 1.12-20.554 1.12-30.597v-0.036h0.036zM815.597 120.11c4.588-1.01 9.717-3.07 9.934-8.597 0.108-3.07-1.77-6.394-3.793-8.67 28.9 23.047 66.287 61.736 95.909 99.34-15.642-9.68-15.823 12.427-15.1 25.07 0.36 6.25 1.48 13.258 2.384 18.424-25.864-53.86-73.403-98.474-125.674-125.928 8.2 1.41 25.72 2.746 36.34 0.361z m-80.7 27.021c24.89 36.268 76.004 92.946 120.58 127.155 3.36 2.6 10.26 8.742 20.013 15.57-30.452 7.766-50.68 27.814-66.865 49.994-16.292 22.397-28.935 49.598-37.243 79.545-30.632-78.389-84.204-133.947-162.159-165.121 57.365-20.265 108.588-46.672 125.675-107.143z m-50.501 364.884v0.036c-74.45 25.287-128.528 73.476-159.991 141.026-4.552 9.862-7.984 20.338-12.39 30.778-4.48-10.44-7.876-20.88-12.428-30.778-31.463-67.55-85.54-115.74-159.991-141.026v-0.036c74.45-25.323 128.528-73.512 159.991-141.062 4.552-9.79 7.984-20.266 12.427-30.705 4.407 10.44 7.803 20.88 12.39 30.705 31.464 67.55 85.541 115.74 159.992 141.062zM425.572 31.175c25.502 3.179 56.063 4.55 86.479 4.407 30.344 0.144 60.905-1.228 86.407-4.407-9.933 9.03-16.146 21.674-14.81 39.953 2.24 31.462 21.565 53.39 34.787 73.583-28.537-13.763-64.155-23.408-106.059-24.42h-0.686c-41.904 1.012-77.522 10.657-106.095 24.42 13.258-20.23 32.583-42.12 34.787-73.583 1.336-18.315-4.877-30.922-14.81-39.953zM289.06 147.13c17.123 60.47 68.346 86.878 125.71 107.107-77.99 31.174-131.526 86.696-162.194 165.12-8.272-29.946-20.952-57.147-37.243-79.544-16.148-22.18-36.413-42.192-66.865-49.995 9.753-6.828 16.653-12.969 20.012-15.57 44.613-34.172 95.727-90.85 120.58-127.118z m-86.804-44.288c-2.023 2.276-3.865 5.563-3.757 8.67 0.18 5.527 5.31 7.586 9.934 8.597 10.62 2.35 28.104 1.012 36.377-0.36-52.271 27.452-99.81 72.1-125.71 125.926 0.94-5.166 2.022-12.138 2.42-18.423 0.686-12.644 0.505-34.715-15.1-25.07 29.55-37.57 66.901-76.294 95.836-99.34zM35.148 599.397c2.782-24.743 4.37-55.701 4.444-87.309v-0.037c-0.073-31.68-1.662-62.53-4.444-87.42 7.08 8.707 19.616 15.498 34.462 15.21 24.13-0.507 53.101-15.895 74.487-33.234-13.15 28.356-22.83 64.227-22.83 105.444v0.036c0 41.18 9.717 77.088 22.83 105.445-21.386-17.376-50.357-32.728-74.487-33.27-14.846-0.29-27.381 6.503-34.462 15.135z m173.285 304.488c-4.588 0.975-9.753 3.106-9.934 8.705-0.108 2.999 1.77 6.286 3.757 8.634-28.935-23.083-66.287-61.772-95.873-99.377 15.606 9.682 15.787-12.462 15.1-25.07-0.397-6.285-1.48-13.257-2.42-18.423 25.9 53.897 73.44 98.474 125.71 125.964-8.236-1.41-25.756-2.745-36.34-0.433z m80.627-26.913c-24.853-36.376-75.967-93.018-120.579-127.227-3.36-2.6-10.26-8.705-20.013-15.533 30.452-7.84 50.717-27.815 66.865-49.995 16.29-22.397 28.97-49.562 37.243-79.545 30.67 78.389 84.204 133.875 162.195 165.085-57.365 20.302-108.588 46.744-125.71 107.215z m309.362 115.957c-25.502-3.215-56.063-4.624-86.407-4.48-30.38-0.144-60.977 1.265-86.48 4.48 9.934-9.104 16.147-21.71 14.81-39.953-2.24-31.535-21.564-53.426-34.786-73.62 28.573 13.728 64.191 23.373 106.095 24.42h0.686c41.904-1.011 77.522-10.656 106.06-24.42-13.223 20.194-32.548 42.12-34.788 73.62-1.336 18.278 4.877 30.85 14.81 39.953z m136.476-115.957c-17.087-60.507-68.347-86.913-125.675-107.179 77.955-31.21 131.527-86.696 162.16-165.084 8.307 29.982 20.95 57.147 37.242 79.544 16.184 22.18 36.413 42.157 66.865 49.995-9.753 6.828-16.653 12.933-20.012 15.534-44.577 34.172-95.655 90.814-120.58 127.19z m86.84 44.252c2.023-2.312 3.901-5.6 3.793-8.634-0.217-5.6-5.31-7.694-9.934-8.705-10.62-2.35-28.14-1.012-36.377 0.433 52.272-27.49 99.81-72.103 125.675-125.964-0.903 5.166-2.023 12.138-2.384 18.424-0.687 12.607-0.542 34.75 15.1 25.07-29.586 37.604-66.974 76.293-95.873 99.376z m167.108-321.828c-7.08-8.596-19.58-15.423-34.462-15.171-24.094 0.578-53.101 15.894-74.451 33.27 13.113-28.357 22.83-64.264 22.83-105.445v-0.036c0-41.217-9.717-77.088-22.83-105.444 21.35 17.34 50.357 32.727 74.451 33.233 14.883 0.253 27.381-6.539 34.462-15.207-2.746 24.852-4.37 55.701-4.444 87.419v0.035c0.073 31.645 1.698 62.603 4.444 87.346z" fill="#AD232B" /></svg>