<svg class="svg-icon" style="width: 1.0712890625em;height: 1em;vertical-align: middle;fill: currentColor;overflow: hidden;" viewBox="0 0 1097 1024" version="1.1" xmlns="http://www.w3.org/2000/svg"><path d="M98.746 568.67l-5.486 31.16h159.092l7.351-31.16z m404.093 31.16l5.485-31.16H327.29l-7.241 31.16z m102.476-149.985l-23.809 120.69-7.35 31.05-23.7 120.69H299.86l-5.486 29.295h292.618l38.402-179.17 23.809-122.555h352.853L976.492 572.4H694.845L630.88 874.125H265.189l-5.486 29.185h407.713l38.401-177.305 25.674-122.555h237.65l-23.7 122.555H779L742.463 903.31 715.033 1024h-548.59l63.965-299.86H0l25.564-122.555 5.486-31.05 25.674-122.556h228.543l63.966-299.86h250.596L632.745 0h464.437l-25.564 120.69H676.632l-5.486 31.05-23.809 122.556H394.986l-7.352 29.294h296.24l5.485-29.294 25.675-120.69h352.853l-25.564 120.69H760.676l-32.915 148.12H363.935l-7.35 29.294h181.034z" fill="#007E3E" /></svg>