<svg class="svg-icon" style="width: 1em;height: 1em;vertical-align: middle;fill: currentColor;overflow: hidden;" viewBox="0 0 1024 1024" version="1.1" xmlns="http://www.w3.org/2000/svg"><path d="M424.96 394.24l3.072-9.728s-119.808 5.12-192.512 29.184c-12.288 3.584-23.04 7.68-33.28 12.288-30.72 14.336-49.152 31.744-49.152 51.2 0 5.632 1.536 11.264 4.608 16.384 0 0 24.064 57.344 203.776 89.6l4.608-14.336 58.88-174.592z" fill="#FEBB52" /><path d="M586.752 165.376s-27.648-19.968-69.632-19.968c-3.072 0-6.656 0-9.728 0.512-36.864 3.584-61.952 25.6-61.952 25.6L171.008 446.464s64.512-45.568 256.512-58.368c24.576-1.536 51.2-2.56 79.872-3.072 201.216-2.56 363.52 59.904 363.52 59.904l-284.16-279.552z" fill="#FEBB52" /><path d="M445.952 171.008L171.008 446.464s64.512-45.568 256.512-58.368l80.384-242.176c-36.864 3.072-61.952 25.088-61.952 25.088z" fill="#F36B1F" /><path d="M599.04 629.76l-3.072 9.728s119.808-5.12 192.512-29.184c12.288-3.584 23.04-7.68 33.28-12.288 30.72-14.336 49.152-31.744 49.152-51.2 0-5.632-1.536-11.264-4.608-16.384 0 0-24.064-57.344-203.776-89.6l-4.608 14.336-58.88 174.592z" fill="#02A1E3" /><path d="M437.248 858.624s27.648 19.968 69.632 19.968c3.072 0 6.656 0 9.728-0.512 36.864-3.584 61.952-25.6 61.952-25.6l274.944-275.456s-64.512 45.568-256.512 58.368c-24.576 1.536-51.2 2.56-79.872 3.072-201.216 2.56-363.52-59.904-363.52-59.904l283.648 280.064z" fill="#02A1E3" /><path d="M578.048 852.992l274.944-275.456s-64.512 45.568-256.512 58.368L516.096 878.08c36.864-3.072 61.952-25.088 61.952-25.088z" fill="#065FAE" /></svg>