<svg class="svg-icon" style="width: 1em;height: 1em;vertical-align: middle;fill: currentColor;overflow: hidden;" viewBox="0 0 1024 1024" version="1.1" xmlns="http://www.w3.org/2000/svg"><path d="M870.4 508.416c-7.168 148.48-72.192 262.144-208.384 327.168-104.448 50.176-210.944 46.08-315.392-5.12-5.12-2.56-12.8-3.584-11.776-10.752 1.024-6.656 8.192-4.608 12.8-6.144 64.512-16.384 116.736-51.2 154.624-105.984 6.656-9.216 13.824-13.312 25.6-14.848 101.888-12.8 178.176-102.912 162.816-208.896-9.216-65.024-46.08-110.592-103.936-139.776-13.824-7.168-14.848-12.8-2.048-26.112 33.792-33.792 74.24-52.736 122.368-57.856 50.688-5.632 83.456 13.312 108.032 57.344 33.28 59.904 55.808 121.856 55.296 190.976z" fill="#008BD6" /><path d="M523.776 152.576c44.032-1.536 94.72 13.824 144.384 35.84 4.608 2.048 10.752 4.096 10.752 9.728-0.512 7.168-7.68 5.632-12.288 6.656-58.88 14.848-109.056 44.032-143.872 94.72-10.24 14.848-22.016 23.04-39.936 25.6-69.12 10.24-117.248 50.176-144.384 113.152C314.88 492.544 320 547.84 348.672 600.064c19.456 35.328 46.592 62.464 84.48 77.824 9.216 3.584 10.752 9.728 3.584 16.896-33.792 35.84-74.752 58.88-124.416 59.904-68.608 1.536-61.44 6.144-99.84-50.688-33.792-49.664-52.224-103.936-56.832-164.352-4.096-51.2 1.024-100.352 17.92-147.968 24.064-67.072 63.488-123.904 120.832-166.912 64-48.128 137.216-72.192 229.376-72.192z" fill="#A2DCF5" /></svg>