<svg class="svg-icon" style="width: 1em;height: 1em;vertical-align: middle;fill: currentColor;overflow: hidden;" viewBox="0 0 1024 1024" version="1.1" xmlns="http://www.w3.org/2000/svg"><path d="M393.728 276.48c43.52 13.824 82.432 31.744 115.712 60.416 21.504 18.944 41.984 39.424 64 57.856 24.576 20.992 49.152 40.448 82.944 46.592 35.328 6.656 65.024-5.632 93.184-23.04 23.552-14.848 46.08-30.208 65.024-51.2 18.432-20.48 28.16-17.408 36.864 8.192 7.168 22.016 16.896 43.008 18.944 66.56 1.024 13.312-3.072 23.04-13.312 32.256-38.4 34.304-80.896 60.928-130.56 76.8-54.784 17.408-104.96 10.752-153.6-19.456-47.104-29.184-88.064-67.072-132.608-99.84-41.984-30.208-88.576-52.736-141.312-48.64-38.912 3.072-76.8 14.848-111.616 34.304-6.144 3.584-12.8 12.288-20.48 6.144-8.192-6.656-5.12-16.384-2.048-25.088C207.36 279.04 288.256 199.68 408.576 161.792c42.496-13.312 87.04-20.48 131.584-15.36 59.904 6.144 116.224 25.088 168.96 56.32 30.72 18.432 54.272 43.008 78.848 67.584 9.728 9.728 13.824 21.504 4.096 32.768-20.992 25.088-45.056 45.568-77.824 54.272-46.08 12.288-84.48-7.168-122.88-27.648-42.496-22.528-82.944-49.664-131.072-60.416-22.016-4.096-43.52-6.144-66.56 7.168z" fill="#19308F" /><path d="M634.88 747.008c-55.808-9.728-97.28-42.496-137.728-78.336-28.672-25.6-55.808-52.736-89.6-72.704-38.4-22.528-75.264-20.992-113.664-2.56-32.768 15.872-59.904 39.936-87.04 64-16.384 14.848-25.088 13.824-32.256-6.656-9.216-24.576-20.48-48.64-19.968-75.776 0-8.704 2.048-16.384 8.704-22.528 46.08-44.544 99.84-72.192 162.816-86.528 50.176-11.776 91.136 5.12 131.072 29.184 43.008 25.6 79.872 58.88 118.784 89.6 50.688 40.448 108.032 60.416 172.544 52.224 30.72-4.096 59.392-15.872 87.04-30.208 7.168-4.096 15.872-9.728 23.552-4.096 9.216 6.656 3.072 16.896 0.512 25.088-38.4 111.104-114.176 188.416-223.232 228.352-122.368 45.056-238.08 23.04-343.552-53.248-22.528-16.384-42.496-35.328-59.392-57.344-7.168-8.704-6.144-15.872 0-24.064 39.936-49.664 94.208-72.704 160.768-46.592 46.08 17.92 86.528 48.128 132.608 67.072 34.304 13.824 70.656 16.384 108.032 5.12z" fill="#19308F" /></svg>