<svg class="svg-icon" style="width: 1em;height: 1em;vertical-align: middle;fill: currentColor;overflow: hidden;" viewBox="0 0 1024 1024" version="1.1" xmlns="http://www.w3.org/2000/svg"><path d="M697.28 662.9a34.38 34.38 0 0 1-34.406 34.367H538.022V1024H920.87a103.168 103.168 0 0 0 103.117-103.117V538.086H697.28V662.9z m-34.406-336.193a34.406 34.406 0 0 1 34.406 34.407V485.99h326.707V103.091A103.13 103.13 0 0 0 920.87 0H538.022v326.707h124.852zM326.72 361.114a34.42 34.42 0 0 1 34.406-34.407H485.94V0H103.13A103.117 103.117 0 0 0 0.014 103.091v382.9H326.72V361.113z m34.406 336.153A34.38 34.38 0 0 1 326.72 662.9V538.086H0.013v382.797A103.142 103.142 0 0 0 103.13 1024h382.81V697.267H361.125z" fill="#E51F1F" /></svg>