<svg class="svg-icon" style="width: 1em;height: 1em;vertical-align: middle;fill: currentColor;overflow: hidden;" viewBox="0 0 1024 1024" version="1.1" xmlns="http://www.w3.org/2000/svg"><path d="M794.112 408.064h95.744c2.048 0 3.584-1.536 3.584-3.584v-14.336c0-2.048-1.536-3.584-3.584-3.584h-95.744c-2.048 0-3.584 1.536-3.584 3.584v14.336c0 2.048 1.536 3.584 3.584 3.584z m101.376 24.576H788.48c-2.048 0-3.584 2.048-3.584 3.584v14.336c0 2.048 1.536 3.584 3.584 3.584h62.464v55.296H811.52c-2.048 0-3.584 1.536-3.584 3.584v12.8c0 2.048 1.536 3.584 3.584 3.584h51.712c7.68 0 13.312-6.144 13.312-13.312v-61.44h18.944c2.048 0 3.584-1.536 3.584-3.584v-14.336c0.512-2.56-1.024-4.096-3.584-4.096z m-132.096 92.672v-61.44H752.64l23.552-29.696c0.512-0.512 0.512-1.024 0.512-1.536 0-1.024-1.024-2.048-2.048-2.048h-22.528c-2.048 0-2.56 0.512-4.608 3.072l-28.672 35.84c-0.512 0.512-0.512 1.024-0.512 1.024 0 1.024 1.024 1.536 2.56 1.536h16.896v52.224c0 2.048 2.048 3.584 4.096 3.584h18.432c1.536 1.024 3.072-1.024 3.072-2.56z m-43.008-98.304l22.528-0.512c2.048 0 3.072-0.512 4.096-1.536l29.696-36.864c0.512-0.512 0.512-1.024 0.512-2.048s-1.024-1.536-2.048-1.536H752.64c-2.048 0-2.56 0.512-4.608 3.072l-29.184 36.352-0.512 1.024c-0.512 1.536 0.512 2.048 2.048 2.048z m-23.04 102.4c2.048 0 3.584-2.048 3.584-3.584v-9.728c0-2.048-2.048-3.584-3.584-3.584h-9.216c-4.608 0-5.12 0-6.656-1.536-1.024-1.024-1.024-1.536-4.096-6.144l-1.536-3.072 22.528-26.112c1.024-1.024 2.048-2.048 2.048-2.56 0-1.024-1.024-1.536-3.072-1.536h-17.408c-2.048 0-2.56 0.512-4.608 3.072l-8.704 10.752-6.144-9.728c-2.048-3.072-2.56-3.584-5.12-3.584h-18.432c-1.536 0-2.048 0.512-2.048 1.536 0 0.512 0.512 1.024 1.024 2.048l25.088 42.496c4.608 7.68 11.264 10.752 23.04 10.752h13.312z" fill="#EC681B" /><path d="M614.4 529.408h26.112c2.048 0 4.096-2.048 4.096-3.584v-9.728c0-2.048-2.048-3.584-4.096-3.584h-17.92v-47.616h61.44c7.68 0 13.312-6.144 13.312-13.312v-50.688c0-7.68-6.144-13.312-13.312-13.312H614.4c-7.68 0-13.312 6.144-13.312 13.312v115.712c0 6.656 6.144 12.8 13.312 12.8z m8.704-124.928h52.736v12.8h-52.224v-12.8z m0 30.208h52.224v12.8h-52.224v-12.8z m-35.328 30.72H565.76v-15.872h21.504c2.048 0 4.096-1.536 4.096-3.584v-12.288c0-2.048-2.048-3.584-4.096-3.584h-61.44c-2.048 0-3.584 1.536-3.584 3.584v12.288c0 2.048 1.536 3.584 3.584 3.584h17.408v15.872h-17.408c-2.048 0-3.584 1.536-3.584 3.584v12.288c0 2.048 1.536 3.584 3.584 3.584h17.408v30.72c0 7.68 6.144 13.312 13.312 13.312h26.624c2.048 0 3.584-2.048 3.584-3.584v-9.728c0-2.048-2.048-3.584-3.584-3.584h-16.896v-27.136h21.504c2.048 0 4.096-1.536 4.096-3.584v-12.288c0-2.048-2.048-3.584-4.096-3.584z m-66.048-40.96h18.432c3.072 0 3.584-0.512 5.12-3.072l2.56-4.608h39.936c2.048 0 4.096-2.048 4.096-3.584v-12.288c0-2.048-2.048-3.584-4.096-3.584v-0.512h-28.672l5.12-8.704c0.512-1.024 0.512-1.536 0.512-2.048 0-1.024-0.512-1.024-2.56-1.024h-19.968c-2.048 0-2.56 0.512-4.096 3.072l-17.92 32.768-1.024 2.048c-0.512 1.024 0 1.536 2.56 1.536z m-193.536-3.072h13.312c2.048 0 3.584-1.536 3.584-3.584v-9.216h134.144v9.216c0 2.048 1.536 3.584 3.584 3.584h13.312c2.048 0 3.584-1.536 3.584-3.584v-10.24c0-9.216-7.68-16.896-16.384-16.896h-57.344v-7.168c0-2.56-1.536-4.096-3.584-4.096h-20.48c-2.048 0-3.584 2.048-3.584 4.096v7.168h-56.832c-9.216 0-17.408 7.68-17.408 16.896v10.24c0 2.048 2.048 3.584 4.096 3.584z" fill="#EC681B" /><path d="M497.152 435.712h-26.624v-11.776c0-2.56-1.536-4.096-3.584-4.096h-17.92c-2.56 0-4.096 2.048-4.096 4.096v11.776h-65.024v-12.288c0-2.048-2.048-3.584-4.096-3.584h-17.92c-2.048 0-3.584 1.536-3.584 3.584v12.288h-27.648c-2.56 0-4.096 1.536-4.096 3.584v12.8c0 2.048 2.048 3.584 4.096 3.584h27.648v7.168c0.512 16.896 4.608 21.504 26.112 31.744l8.704 4.096-1.536 0.512c-9.216 4.096-19.456 6.656-28.16 6.656h-28.16c-2.048 0-3.584 2.048-3.584 4.096v12.8c0 2.048 1.536 3.584 3.584 3.584h28.16c15.36-0.512 20.992-2.048 38.4-9.728l14.848-6.656 14.848 6.656c16.384 7.68 24.064 9.216 38.4 9.728h28.16c2.048 0 3.584-1.536 3.584-3.584v-12.8c0-2.048-1.536-4.096-3.584-4.096h-28.16c-9.216 0-17.408-2.048-28.16-6.656l-1.536-0.512 8.704-4.096c20.992-9.216 26.112-14.848 26.112-31.744v-7.168h26.624c2.048 0 3.584-1.536 3.584-3.584v-12.8c-0.512-2.048-2.048-3.584-4.096-3.584z m-52.224 26.624c0 9.728-0.512 10.752-11.776 15.872l-20.992 9.728-20.992-9.728c-11.264-5.632-11.776-6.144-11.776-15.872v-7.168h65.536v7.168z m-174.08-43.52c-4.096 0-5.632 1.024-6.144 3.072l-20.992 39.936c-1.024 2.048-1.024 2.56-1.024 2.56 0 1.024 1.024 2.048 2.56 2.048h19.968c4.096 0 5.12-0.512 6.656-3.072l20.48-39.936a21.527 21.527 0 0 1 1.024-2.56c0-1.024-0.512-2.048-2.56-2.048h-19.968z m-97.28 48.128h19.968c1.536 0 2.56-0.512 2.56-2.048 0-0.512 0-1.024-1.024-2.56L174.08 422.4c-1.536-2.56-2.56-3.072-6.656-3.072h-19.968c-1.536 0-2.56 0.512-2.56 2.048 0 0.512 0.512 2.048 1.024 2.56l20.992 39.936c1.536 2.56 2.56 3.072 6.656 3.072z" fill="#EC681B" /><path d="M205.824 499.712v27.136c0 2.048 1.536 3.584 3.584 3.584h19.968c2.048 0 4.096-1.536 4.096-3.584v-27.136h70.656c2.56 0 4.096-2.048 4.096-4.096v-12.8c0-2.048-2.048-4.096-4.096-4.096h-70.656v-70.656h64.512c2.048 0 3.584-2.048 3.584-4.096V391.68c0-2.048-1.536-3.584-3.584-3.584H140.8c-2.048 0-3.584 1.536-3.584 3.584v11.776c0 2.048 1.536 4.096 3.584 4.096h64.512v71.168h-70.144c-2.56 0-4.096 2.048-4.096 4.096v12.8c0 2.56 2.048 4.096 4.096 4.096h0.512v0.512h70.144z m438.784 109.056c5.12-2.56 9.728-7.168 9.728-14.848v-0.512c0-4.608-1.536-8.192-4.608-11.264-4.096-4.096-9.728-6.144-17.92-6.144h-24.576c-3.072 0-6.144 2.56-6.144 6.144v55.296c0 3.072 2.56 6.144 6.144 6.144h25.088c14.848 0 25.088-6.144 25.088-18.432v-0.512c0.512-8.704-5.12-13.312-12.8-15.872z m-31.744-22.016h17.408c7.68 0 11.776 3.072 11.776 8.192v0.512c0 6.144-5.12 9.216-12.8 9.216h-16.384v-17.92z m32.768 37.376c0 6.144-4.608 9.216-12.8 9.216v-0.512h-19.968V614.4h18.944c9.216 0 13.824 3.072 13.824 9.216v0.512z m60.928-43.52c-1.024-3.072-3.584-4.608-7.168-4.608h-0.512c-3.584 0-6.144 2.048-7.168 4.608l-25.088 55.808c-0.512 0.512-0.512 1.536-1.024 2.56 0 3.072 2.56 5.632 5.632 5.632 2.56 0 4.608-1.024 5.632-3.584l5.632-12.8h32.768l5.632 12.8c1.024 2.56 3.072 4.096 5.632 4.096 3.072 0 5.632-2.56 5.632-5.632 0-0.512 0-1.536-0.512-2.56l-25.088-56.32z m-18.944 36.352l11.776-27.136 11.776 27.136h-23.552z m110.08-40.448c-3.072 0-5.632 2.56-5.632 5.632v41.472l-33.792-43.52c-1.536-2.048-3.072-3.584-6.144-3.584h-1.024c-3.072 0-6.144 2.56-6.144 6.144v56.32c0 3.072 2.56 5.632 6.144 5.632 3.072 0 5.632-2.56 5.632-5.632V596.48l34.816 45.056c1.536 2.048 3.072 3.584 6.144 3.584h0.512c3.072 0 5.632-2.56 5.632-6.144v-56.32c0-3.584-2.56-6.144-6.144-6.144z m54.272 29.184l20.992-19.968c1.024-1.024 2.048-2.56 2.048-4.608 0-2.56-2.048-5.632-5.632-5.632-2.048 0-3.584 0.512-4.608 2.048l-31.744 32.256V581.12c0-3.072-2.56-6.144-5.632-6.144s-6.144 2.56-6.144 6.144h-0.512v56.832c0 3.072 2.56 6.144 6.144 6.144 3.072 0 5.632-2.56 5.632-6.144v-13.824l10.752-10.752 21.504 27.648c1.024 1.536 2.56 2.56 5.12 2.56 3.072 0 6.144-2.56 6.144-5.632 0-2.048-0.512-3.072-1.536-4.096l-22.528-28.16z m-535.04-30.208h-10.24c-1.024 0-1.536 0.512-1.536 1.536v46.592c-5.632-6.144-40.448-46.08-41.472-47.104-1.024-1.024-2.048-1.024-3.072-1.024h-9.728c-1.024 0-1.536 0.512-1.536 1.536v64.512c0 1.024 0.512 1.536 1.536 1.536h10.24c1.024 0 1.536-0.512 1.536-1.536v-47.104c4.096 4.096 40.96 46.592 41.984 47.104 1.024 1.024 2.048 1.024 3.072 1.024h9.728c1.024 0 1.536-0.512 1.536-1.536v-64c-0.512-1.024-1.536-1.536-2.048-1.536z m58.88-1.024h-23.552c-12.8 0-23.04 9.216-23.04 20.48v28.16c0 11.264 10.24 20.48 23.04 20.48h23.552c12.8 0 23.04-9.216 23.04-20.48v-17.92H363.52v9.728c0 1.024 0.512 1.536 1.536 1.536H384v12.8c0 1.024-0.512 1.536-1.536 1.536h-37.376c-1.024 0-1.536-0.512-1.536-1.536V588.8c0-1.024 0.512-1.536 1.536-1.536h37.376c1.024 0 1.536 0.512 1.536 1.536v7.68c0 1.024 0.512 1.536 1.536 1.536H396.8c1.024 0 1.536-0.512 1.536-1.536v-1.536c0.512-11.264-9.728-20.48-22.528-20.48z m194.56 1.024h-10.24c-1.024 0-1.536 0.512-1.536 1.536v46.592c-5.632-6.144-40.448-46.08-41.472-47.104-1.024-1.024-2.048-1.024-3.072-1.024h-9.728c-1.024 0-1.536 0.512-1.536 1.536v64.512c0 1.024 0.512 1.536 1.536 1.536h10.24c1.024 0 1.536-0.512 1.536-1.536v-47.104c4.096 4.096 40.96 46.592 41.984 47.104 1.024 1.024 2.048 1.024 3.072 1.024h9.728c1.024 0 1.536-0.512 1.536-1.536v-64c-0.512-1.024-1.024-1.536-2.048-1.536z m-106.496 2.048c-0.512-1.024-2.048-2.048-3.072-2.048h-10.24c-1.024 0-2.56 0.512-3.072 2.048L416.256 640c-1.024 2.048-0.512 3.072 2.048 3.072h9.728c1.536 0 2.048-0.512 2.56-2.048l25.088-50.176 25.088 50.176c0.512 1.536 1.024 2.048 2.56 2.048h9.728c2.048 0 2.56-1.024 2.048-3.072l-31.232-62.464z m-274.944-2.048h-41.472c-1.024 0-1.536 0.512-1.536 1.536v64c0 1.024 0.512 1.536 1.536 1.536h11.264c1.024 0 1.536-0.512 1.536-1.536V622.08h28.16c12.8 0 23.04-7.68 23.04-18.944v-7.168c0-11.264-9.728-20.48-22.528-20.48z m7.68 33.792c0 1.024-0.512 1.536-1.536 1.536h-34.304v-23.552h34.304c1.024 0 1.536 0.512 1.536 1.536v20.48z m37.888-33.792h-11.264c-1.024 0-1.536 0.512-1.536 1.536v64c0 1.024 0.512 1.536 1.536 1.536h11.264c1.024 0 1.536-0.512 1.536-1.536v-64c0.512-1.024 0-1.536-1.536-1.536z" fill="#EC681B" /><path d="M463.36 624.128h-15.872c-1.024 0-1.536 0.512-1.536 1.536v15.36c0 1.024 0.512 1.536 1.536 1.536h15.872c1.024 0 1.536-0.512 1.536-1.536v-15.36c0-1.024-1.024-1.536-1.536-1.536z" fill="#005C3B" /></svg>