<svg class="svg-icon" style="width: 1.1865234375em;height: 1em;vertical-align: middle;fill: currentColor;overflow: hidden;" viewBox="0 0 1215 1024" version="1.1" xmlns="http://www.w3.org/2000/svg"><path d="M480.586 331.585C366.818 107 78.969 141.277 15.794 332.366c0 0-8.678 61.96-15.794 126.438v391.637L184.927 1024V546.018s19.96-228.491 295.572-214.433zM209.399 696.06s303.73 41.827 313.97-268.583c-4.86-291.58 369.42-310.845 471.04-101.185 0 0-265.2 3.47-293.056 223.284 0 0 3.471 271.186-205.928 299.042 0 0-226.755 39.398-286.373-152.558z m524.93-3.558c113.769 224.499 396.41 187.53 459.933-3.471 0 0 19.178-43.824 20.914-123.922V173.56L1029.988 0v477.982s-20.133 228.491-295.659 214.52z" fill="#1D2087" /></svg>