<svg class="svg-icon" style="width: 1em;height: 1em;vertical-align: middle;fill: currentColor;overflow: hidden;" viewBox="0 0 1024 1024" version="1.1" xmlns="http://www.w3.org/2000/svg"><path d="M508.928 668.672h-40.96c-28.16-0.512-37.376-9.728-37.376-38.4 0-11.264 0.512-22.528 0-33.792-0.512-12.288-4.608-14.848-15.872-8.704-20.992 11.264-41.984 22.528-62.976 34.304-15.872 8.704-17.92 19.456-7.68 36.864 22.016 37.376 54.784 61.952 96.256 73.728 44.544 12.8 39.936 5.632 40.448 53.248 0 13.824-0.512 27.136 0 40.96 0.512 11.776-3.584 17.408-15.872 19.968-71.168 13.824-138.24 4.608-201.216-33.28-40.96-24.576-73.728-56.832-98.304-97.792-3.072-5.632-5.632-11.264-8.704-16.896-6.144-10.752-2.56-17.92 8.192-23.552 29.184-14.848 57.344-30.72 86.016-46.592 13.824-7.68 14.336-11.264 0.512-19.456-33.792-19.456-58.368-47.616-72.192-83.456-29.696-77.312 0.512-166.4 75.776-207.36 66.048-35.328 132.096-72.192 198.144-108.544 3.584-2.048 7.68-4.096 11.776-6.144 8.704-3.584 13.312-1.536 14.336 8.704 2.048 18.432 1.024 36.864 1.536 55.296 0 7.68-3.584 12.8-11.264 15.36-11.776 3.584-23.552 6.656-34.816 10.752-39.424 12.8-69.632 36.864-90.624 73.216-19.456 34.304-12.8 86.528 15.872 117.248 37.888 40.448 83.456 62.464 139.776 61.44a803.093 803.093 0 0 1 49.664 0c31.232 1.024 43.008 13.312 43.008 44.032v44.032c-0.512 22.016-14.336 35.328-36.352 35.328-7.68 0-15.36 0-23.552-0.512h-23.552z" fill="#DE412E" /><path d="M510.464 352.768c17.92 0 31.744-0.512 45.056 0 26.624 1.024 38.912 14.336 39.424 40.448v37.888c0 5.12 0 10.752 8.192 6.656 24.576-12.8 48.64-26.112 73.728-38.4 11.264-5.632 12.8-12.8 8.704-23.552-15.36-38.912-45.056-62.464-82.432-77.824-13.824-5.632-27.648-12.288-43.008-13.824-8.704-1.024-14.336-6.144-14.848-15.36 0-26.624 0-53.76 0.512-80.384 0-7.168 6.144-10.752 12.8-11.776 75.776-13.824 146.944-3.584 212.48 39.424 40.96 26.624 69.632 62.976 94.72 103.424 7.168 12.288 6.144 19.456-6.144 27.648-23.552 14.848-49.152 25.6-72.704 39.936-4.096 2.56-8.704 4.608-12.8 7.168-13.312 8.192-13.312 9.728-0.512 18.432 32.768 20.992 59.904 47.616 71.68 85.504 19.456 60.928 13.824 117.76-29.184 168.448-16.896 19.968-37.888 33.28-59.904 45.568-39.936 22.016-80.384 44.032-120.832 65.536-24.576 13.312-48.64 26.624-73.216 39.424-11.264 5.632-16.896 2.56-17.408-9.728-0.512-17.408 0-35.328 0-52.736 0-13.312 8.704-15.872 18.944-17.92 26.624-4.608 50.176-15.36 71.68-30.72 27.648-19.968 49.664-44.032 54.784-79.36 6.656-47.104-14.336-82.432-50.176-111.104-32.768-25.6-69.12-38.4-110.592-37.376-20.992 0.512-41.984 1.536-62.976-1.536-23.552-3.584-37.376-18.944-36.864-43.52 0.512-14.336 1.024-28.16 1.536-42.496 0.512-19.456 10.24-31.744 29.696-35.84 17.92-4.608 35.84-1.024 49.664-2.048z" fill="#ED9B14" /></svg>