<svg class="svg-icon" style="width: 1em;height: 1em;vertical-align: middle;fill: currentColor;overflow: hidden;" viewBox="0 0 1024 1024" version="1.1" xmlns="http://www.w3.org/2000/svg"><path d="M188.975697 896.470798c186.580832 173.224916 483.922971 164.861968 678.097755-19.882875 3.284979-3.114981 35.11478-36.991768 53.247667-67.967575 75.775526-129.535189 57.343641-259.924373-13.311917-335.613899-17.919888-19.24288-33.407791-28.031825-33.40779-28.031824 29.354816 40.233748 29.866813 97.705388 20.607871 147.071079-15.9569 78.761507-53.759663 152.873043-130.559183 228.862567C648.834818 934.52856 489.603815 974.592309 348.079701 951.893451a513.020789 513.020789 0 0 1-159.146004-55.423653m640.080994-771.963167C642.434859-48.718285 345.09272-40.356337 150.917935 144.389506c-3.284979 3.15698-35.11478 36.991768-53.247666 67.967575-75.818525 129.578189-57.343641 259.923373 13.311916 335.613899 17.962888 19.284879 33.407791 28.074824 33.407791 28.074824-29.354816-40.234748-29.866813-97.749388-20.607871-147.114079 15.9569-78.719507 53.759663-152.916043 130.559183-228.862567C369.199569 86.448869 528.387572 46.427119 669.911687 69.082978a512.84679 512.84679 0 0 1 159.146003 55.466652" fill="#EC952D" /><path d="M905.431212 496.558302c93.694413 93.652414 77.865513 262.739355-33.024793 385.447587 198.228759-197.502764 203.561726-508.796815 4.394972-687.099699C719.362377 53.979072 462.680984 76.890929 280.368125 259.161788l254.974404 254.974404c113.108292-102.953356 275.880273-111.7853 370.087683-17.57789m-787.237072 29.097818C24.539726 431.918706 40.369627 262.874764 151.258933 140.165533c-198.227759 197.459764-203.603725 508.796815-4.393972 687.056699 157.439014 140.970118 414.119408 118.058261 596.433266-64.255598L488.323823 508.03523c-113.151292 102.954356-275.881273 111.743301-370.130683 17.53589" fill="#0B4A8E" /></svg>