<svg class="svg-icon" style="width: 1em;height: 1em;vertical-align: middle;fill: currentColor;overflow: hidden;" viewBox="0 0 1024 1024" version="1.1" xmlns="http://www.w3.org/2000/svg"><path d="M399.798 319.839c10.318 20.635 20.635 38.69 30.953 54.166 20.634 33.532 41.27 61.904 64.483 90.277-25.793-7.738-46.428-18.055-64.483-28.373-49.008-28.372-72.222-64.483-64.484-108.332-92.856 25.793-180.554 74.8-255.355 147.022l90.277 72.222c56.746-36.11 136.705-59.325 232.141-61.904h69.642c-23.214 5.159-46.428 10.317-69.642 18.055-77.38 20.635-147.023 41.27-208.927 64.484l141.864 116.07c-10.317-61.904 7.738-61.904 25.793-90.277 7.738-15.476 20.635-25.793 41.27-41.27 20.635-12.896 43.849-25.793 72.222-41.269-25.794 36.111-49.008 74.801-72.222 113.492-10.317 18.055-20.635 36.11-28.373 54.166 90.277-38.69 172.816-30.952 247.617 12.896L918.247 474.6C771.224 332.736 577.773 281.15 399.798 319.84z m278.57 77.38c-10.318 23.214-49.008 49.008-108.333 61.904 36.111-41.27 85.119-90.277 82.54-118.65 18.055-2.579 36.11 36.111 25.793 56.746z m-113.491-51.587c2.579 5.159 5.158 10.318 5.158 15.476v18.056c-2.58 25.793-20.634 51.587-18.055 74.8 0 5.16-105.753-74.8 12.897-108.332z m67.063 309.522c-38.69-36.111-36.111-87.698-61.905-116.07-10.317-10.318-20.634-18.056-41.27-20.636 12.897-5.158 28.374-7.738 41.27-7.738 64.484 0 113.491 56.746 61.905 144.444z m180.554-110.912c-5.159-7.738-20.635-30.952-64.484-43.85-36.11-10.316-90.277-15.475-175.395-12.896 0 0-5.16 0 0-2.58h2.579c49.008-10.317 221.824-41.269 239.879 25.794v25.794c-2.58 2.58-2.58 5.158-2.58 7.738z" fill="#04017C" /><path d="M500.393 487.496H430.75c-136.706 5.159-237.3 46.428-294.046 116.07 82.54-36.11 180.554-69.642 294.046-98.014 20.634-5.16 46.428-10.318 69.642-18.056zM389.48 595.83c-23.214 38.69-43.849 28.373-15.476 147.022 18.055-41.27 36.11-79.96 56.746-113.49 23.214-41.27 46.428-79.96 72.221-113.492-28.373 15.476-54.166 28.373-72.221 41.27-18.056 10.317-30.953 23.214-41.27 38.69z m38.69-157.34c18.056 10.317 41.27 20.634 64.484 28.372-23.214-28.372-43.849-56.745-64.484-90.277-18.055-30.952-36.11-61.904-49.007-95.435-33.532 67.063-18.056 118.65 49.007 157.34z m141.864 18.055c61.905-10.317 98.015-36.11 108.333-59.325 10.317-20.635-10.318-56.745-28.373-59.325 5.159 28.373-43.849 77.38-79.96 118.65z m2.58 25.794h-2.58c-5.158 2.579 0 2.579 0 2.579 85.119 0 139.285 2.58 175.396 12.897 46.428 12.896 61.904 36.11 64.483 43.848 0-2.579 0-5.158 2.58-7.738v-25.793c-18.056-67.063-188.292-36.11-239.88-25.793z m-2.58 28.372c-12.896 0-28.373 2.58-41.27 7.738 20.636 2.58 30.953 10.318 41.27 20.635 25.794 28.373 23.214 82.54 61.905 116.07 51.586-87.697 2.579-144.443-61.905-144.443z m-18.055-54.166c-5.159-23.214 12.897-49.007 18.055-74.8v-18.056c0-5.159-2.58-10.318-5.158-15.476-118.65 30.952-12.897 110.911-12.897 108.332z" fill="#FFF100" /></svg>