<svg class="svg-icon" style="width: 1em;height: 1em;vertical-align: middle;fill: currentColor;overflow: hidden;" viewBox="0 0 1024 1024" version="1.1" xmlns="http://www.w3.org/2000/svg"><path d="M464.896 153.6c72.704 0.512 164.352-1.536 256 3.584 24.064 1.024 47.616-4.096 72.192-0.512 48.64 7.68 75.264 32.768 76.288 81.408 1.536 82.944 0.512 166.4 0.512 249.344 0 6.144 1.024 13.312-5.632 16.896-8.192 4.096-12.8-3.072-17.408-7.68-16.896-16.384-32.768-33.28-49.664-49.152-19.456-17.92-36.352-17.408-55.296 0.512-15.36 14.336-29.696 29.696-44.544 44.544-8.704 8.704-15.36 9.216-25.088-0.512-45.056-45.056-88.064-92.16-135.168-134.656-18.432-16.384-32.768-16.896-50.688 0.512-48.128 47.616-96.256 94.72-143.36 143.36-14.336 14.848-23.552 14.336-37.888 0.512-56.32-55.808-56.832-55.296-112.128 0-9.216 9.216-17.92 29.184-31.232 23.552-13.312-5.632-5.632-25.088-5.632-38.4-0.512-78.336-0.512-157.184 0-235.52 0.512-27.648 0.512-56.32 26.624-75.776 19.968-15.36 43.008-21.504 67.584-21.504 65.024-0.512 130.048-0.512 214.528-0.512z" fill="#D7000F" /><path d="M724.48 867.84c-38.912 10.752-69.632-13.312-101.376-46.592-77.824-82.432-159.744-161.28-240.64-240.64-13.312-13.312-13.312-22.016-1.024-34.304 37.888-37.888 76.288-75.776 113.664-114.176 12.288-12.8 20.992-10.752 32.768 1.024 88.576 89.088 177.664 178.176 266.752 267.264 15.36 15.36 30.72 30.72 47.104 45.056 17.92 15.36 33.28 30.72 26.112 57.344-7.68 28.16-22.016 49.152-50.688 58.88-27.648 8.192-55.808 5.632-92.672 6.144z m-331.264-0.512H246.272c-60.928-0.512-90.112-29.184-90.624-90.112-0.512-43.52 0-87.04-0.512-130.56 0-16.896 5.12-29.696 17.92-40.96 20.48-18.944 40.448-38.912 59.392-58.88 11.776-12.8 21.504-11.776 33.28 0l208.896 208.896c29.696 29.696 59.392 58.88 89.088 88.576 4.608 4.608 12.288 9.216 9.216 17.408-3.072 7.68-11.776 6.144-18.944 6.144-53.248-0.512-107.008-0.512-160.768-0.512z m476.672-225.792c-2.048 9.728 5.632 25.6-6.144 30.72-13.312 5.632-19.968-10.24-28.672-18.432-30.72-30.72-60.928-61.44-92.16-91.648-10.24-9.728-12.8-15.872-2.048-28.16 27.136-30.72 28.16-31.232 56.832-2.56l46.08 46.08c26.112 25.6 26.112 25.6 26.112 64z" fill="#D7000F" /></svg>