<svg class="svg-icon" style="width: 1em;height: 1em;vertical-align: middle;fill: currentColor;overflow: hidden;" viewBox="0 0 1024 1024" version="1.1" xmlns="http://www.w3.org/2000/svg"><path d="M139.5 98.2h570.1c-53.8 28-166.7 95.3-222.4 191.4-147.7-1.8-193 2.6-193 2.6l-15.4 414.2c56.3-34.2 99.9-81.7 128.1-124.7 34.2-52.3 36.1-102.1 57.3-158.3 78.6-207.6 258.4-308.6 378.2-325.1h42.1c22.8 0.1 41.3 18.5 41.4 41.4v744.9c0 22.8-18.6 41.4-41.4 41.4H307.1c55.5-29.5 163.4-95.6 217.3-188.7 147.7 1.8 193-2.6 193-2.6l15.4-414.2c-56.3 34.2-99.9 81.7-128.1 124.7-34.2 52.3-36 102.1-57.3 158.3C472.3 802 304.6 903 185.4 925.9h-45.9c-22.8-0.1-41.3-18.6-41.4-41.4v-745c0.1-22.8 18.6-41.3 41.4-41.3z m0 0" fill="#005BAB" /></svg>