<svg class="svg-icon" style="width: 1em;height: 1em;vertical-align: middle;fill: currentColor;overflow: hidden;" viewBox="0 0 1024 1024" version="1.1" xmlns="http://www.w3.org/2000/svg"><path d="M509.952 869.376c-195.584 2.56-366.08-168.96-355.84-372.736 9.216-185.856 157.184-342.016 358.4-342.016 198.144 0 362.496 158.208 357.888 367.616-4.096 187.904-160.768 349.184-360.448 347.136z m259.072-176.64c-6.144 0-7.168 4.096-9.216 6.656-63.488 80.384-172.032 100.352-260.608 48.64-67.584-39.424-109.568-98.304-135.168-169.984-10.752-30.72-14.336-62.976-2.56-95.232 4.096-10.752 9.728-15.872 20.992-15.872 6.656 0 7.168 4.608 6.144 9.216-1.536 6.144-5.12 5.12-8.704 2.048s-7.168-5.12-10.24-1.024c-3.072 3.584-2.56 9.216 0 12.8 6.144 10.24 14.848 8.192 23.552 2.56 18.944-12.288 28.16-31.232 31.744-52.224 4.608-25.088-7.168-45.056-27.136-59.904-17.92-13.312-37.376-15.36-57.344-5.12-3.584 1.536-6.656 6.144-10.752 4.096-24.064-10.752-44.032 0.512-66.048 9.216-25.088 10.24-40.96 26.112-46.592 51.712-2.048 9.728-6.144 13.824-15.872 16.896-26.112 7.68-36.864 28.672-40.448 53.76-2.56 20.48 5.632 36.864 23.552 47.104 7.68 4.608 7.68 8.192 5.632 15.872-6.144 20.48 4.608 34.304 24.064 32.768-13.312 55.808 101.376 180.224 194.56 213.504 140.8 49.152 312.32-35.328 360.448-127.488z m-522.24-349.184c9.728-4.096 12.288-9.728 15.36-13.824 16.384-23.04 37.888-41.472 62.464-54.272 81.92-43.52 173.056-23.552 239.616 31.744 39.936 33.28 68.608 75.264 89.088 122.368 15.36 35.84 23.04 72.192 9.216 110.592-3.584 10.24-9.728 14.848-19.968 13.824-4.608-0.512-7.68-3.584-6.656-8.192 1.024-5.632 4.608-5.632 8.704-2.56 3.584 2.56 8.192 6.656 10.752-0.512 2.048-6.144 2.048-12.288-5.12-16.384-5.632-3.072-11.264-1.536-16.384 1.536-10.24 5.632-17.408 14.336-22.528 24.576-23.552 45.056-3.584 94.72 43.52 97.792 27.136 1.536 55.808-5.632 83.968-7.68 7.168-0.512 13.824-10.752 21.504-12.288 29.184-7.168 43.008-27.648 48.64-54.784 1.536-7.68 5.12-11.264 12.288-13.824 49.152-18.432 57.856-70.144 17.408-102.4-5.12-4.096-8.192-6.656-5.632-14.848 5.12-14.336 0-26.624-14.848-33.792-3.584-1.536-7.168-2.048-8.704-7.168-11.776-44.032-36.864-80.896-67.584-114.176-54.272-58.88-120.832-91.648-201.216-97.28-61.952-4.096-119.296 11.776-173.056 39.424-48.64 25.088-90.112 59.392-120.832 112.128zM513.536 599.04c2.048-1.536 5.12-3.072 7.168-5.12 24.576-24.576 48.64-49.152 73.216-73.216 6.656-6.656 5.12-10.752-1.024-16.896-24.576-24.064-49.664-48.128-73.728-73.216-7.68-7.68-11.264-5.12-17.408 1.024a2399.502 2399.502 0 0 1-72.192 72.192c-7.68 7.168-6.656 11.264 0 17.92a4935.688 4935.688 0 0 1 73.216 73.216c3.584 2.048 6.144 4.608 10.752 4.096z" fill="#2C4E94" /></svg>