<svg class="svg-icon" style="width: 1em;height: 1em;vertical-align: middle;fill: currentColor;overflow: hidden;" viewBox="0 0 1024 1024" version="1.1" xmlns="http://www.w3.org/2000/svg"><path d="M407.04 870.4C267.776 877.568 153.6 769.024 153.6 632.32h166.912l70.656 70.656 73.216-70.656h166.912C629.76 769.024 515.584 862.72 407.04 870.4zM153.6 409.6c7.68 113.664 101.376 222.72 240.64 222.72V465.408l-73.216-73.728 73.216-73.216V151.04C252.416 156.16 146.432 270.336 153.6 409.6z m463.36-253.44c139.264-7.68 253.44 101.376 253.44 238.08H703.488l-73.728-70.656-71.168 70.656H391.68c2.56-139.264 111.616-230.4 225.28-238.08z m250.88 460.8c-7.68-113.664-101.376-222.72-240.64-222.72v166.912l70.656 73.216-70.656 70.656v166.912C766.464 870.4 872.96 756.224 867.84 616.96z" fill="#7ECEF4" /><path d="M472.064 440.832h77.312c20.48 0 33.28 17.92 33.28 33.28v77.312c0 17.92-12.8 33.28-33.28 33.28h-77.312c-17.92 0-33.28-17.92-33.28-33.28v-76.8c-0.512-17.92 12.8-33.792 33.28-33.792z" fill="#FDD000" /></svg>