<svg class="svg-icon" style="width: 1em;height: 1em;vertical-align: middle;fill: currentColor;overflow: hidden;" viewBox="0 0 1024 1024" version="1.1" xmlns="http://www.w3.org/2000/svg"><path d="M622.08 437.248l75.776 58.368 172.032-224.768H748.544l-126.464 166.4z" fill="#FAA61A" /><path d="M576.512 505.856L485.376 619.52l-126.464-98.304 209.92-272.896 43.008-58.368H349.184L215.04 366.592c-86.016 111.104-83.456 260.096 10.24 369.152 86.016 98.304 229.888 123.904 340.992 70.656 15.36-10.24 30.208-15.36 45.568-27.648 10.24-5.12 17.92-15.36 27.648-22.528 5.12-5.12 27.648-30.208 30.208-32.768l58.368-73.216 108.544-141.312H576.512v-3.072z" fill="#FAA61A" /><path d="M520.704 358.912l75.776 60.928 111.104-148.992H591.36l-70.656 88.064z" fill="#FAA61A" /></svg>