<svg class="svg-icon" style="width: 1em;height: 1em;vertical-align: middle;fill: currentColor;overflow: hidden;" viewBox="0 0 1024 1024" version="1.1" xmlns="http://www.w3.org/2000/svg"><path d="M870.4 429.568h-18.432c-60.416 0-120.32-0.512-180.736 0.512-13.824 0-24.064-4.096-33.28-14.336-34.304-36.864-69.632-72.704-104.96-108.544-15.872-16.384-15.872-15.872-32.256 0.512C438.272 371.2 375.808 434.688 312.32 497.664c-11.776 11.776-10.752 17.408 0.512 28.672A11253.856 11253.856 0 0 1 504.32 717.824c10.24 10.24 15.872 8.704 25.088-0.512 34.304-35.328 69.632-69.632 103.936-104.96 9.728-9.728 19.456-13.824 33.792-13.824 61.952 0.512 123.904 0.512 185.856 0.512h15.36c-17.92 118.784-144.384 267.776-330.24 277.504-202.24 10.752-368.128-139.776-383.488-331.264-16.384-208.384 130.56-382.464 338.432-397.312 188.928-13.312 344.064 119.808 377.344 281.6z" fill="#3A52A8" /><path d="M520.192 689.664c-30.208-29.696-56.832-56.32-83.968-82.944 27.136-26.624 54.272-53.248 83.968-82.432 23.04 24.064 47.616 49.664 71.68 75.264 2.56 2.56 3.584 10.752 1.536 13.312-24.064 26.112-49.152 51.712-73.216 76.8z m-80.384-275.968c23.552-23.552 50.176-50.176 78.848-78.336 15.872 15.872 33.792 33.28 50.688 50.688 30.72 30.72 30.72 30.72-0.512 61.44-16.896 16.896-33.792 33.28-49.152 48.64-26.624-27.648-53.248-55.296-79.872-82.432z m-101.376 94.208c23.552-23.04 48.64-47.616 74.752-71.168 2.56-2.56 11.264-2.048 14.336 0.512 25.6 24.064 50.176 49.152 75.264 73.216-28.672 28.16-55.296 54.784-82.432 81.92-25.6-26.624-52.224-53.76-81.92-84.48z m267.776 84.48c-22.016-22.528-46.592-47.104-69.632-72.704-2.56-2.56-2.56-12.288 0-15.36 21.504-23.04 44.544-45.056 66.56-68.096 6.656-6.656 11.776-5.632 17.408 0.512 24.064 24.064 48.128 48.128 70.656 70.144-27.648 28.672-54.784 55.296-84.992 85.504z" fill="#D7000F" /></svg>