<svg class="svg-icon" style="width: 1em;height: 1em;vertical-align: middle;fill: currentColor;overflow: hidden;" viewBox="0 0 1024 1024" version="1.1" xmlns="http://www.w3.org/2000/svg"><path d="M439.879 353.28a58.982 58.982 0 0 0 2.048-17.05c-28.723-81.203-31.13-169.625-76.8-242.38-26.931-43.623-69.07-69.07-124.467-37.53-49.87 28.058-60.724 75.52-35.84 116.787a564.531 564.531 0 0 0 179.2 180.787h55.859z m-86.58 49.562c-28.364-69.325-91.34-102.708-133.99-151.04-30.208-34.356-72.55-43.674-115.865-26.522-33.536 13.414-47.668 40.96-45.773 77.926 2.56 50.893 35.84 75.879 77.568 88.423 67.584 20.48 136.755 35.84 218.265 56.576v-45.568z m0 96.512c-83.353-30.106-167.833-56.781-257.126-64.87C38.42 429.363-1.004 457.215 0.02 517.938c1.075 65.741 46.796 96.461 105.267 85.146 83.968-16.538 165.478-44.544 248.064-68.455z m0 81.92a18.688 18.688 0 0 0-15.36-0.666c-83.097 25.958-173.414 29.747-249.087 78.285-35.84 22.886-39.066 59.699-28.058 95.488 11.878 38.707 43.52 54.374 83.405 53.504 41.984-1.383 174.08-117.504 208.998-176.999v-49.561z m45.825 89.446c-69.325 33.382-103.732 95.13-152.218 138.24a91.085 91.085 0 0 0-23.757 108.544c13.927 32 41.267 50.227 78.95 47.309 45.057-3.635 73.78-30.464 86.017-70.503 21.145-69.683 38.195-140.544 59.852-223.641z m126.924 0h-28.876c-32.87 91.853-54.682 171.162-63.796 252.672-6.195 55.04 21.146 98.714 83.968 97.894 66.56-0.87 98.048-46.08 85.3-105.625-16.538-78.797-32.359-159.283-76.8-244.941zM795.77 833.126c-40.602-65.024-92.16-120.934-171.674-162.406h-49.05c25.294 89.088 43.52 164.096 70.503 235.52 17.203 45.773 57.805 74.291 111.309 50.227 56.986-25.549 67.482-77.824 38.912-123.392z m168.96-109.21c-4.66-48.076-37.99-76.134-80.384-89.036-65.894-19.763-133.12-35.84-213.658-56.32v52.736c32 65.69 89.6 100.608 133.479 145.715 31.488 32.359 72.397 45.415 116.429 26.829 33.894-14.643 47.667-44.749 44.185-79.974z m43.52-261.12c-22.17-34.764-60.211-41.778-95.488-32.87-81.51 20.48-161.69 46.08-242.38 70.196v36.812c80.332 20.48 160.511 42.138 241.356 60.877 36.966 8.602 72.09-1.024 95.13-34.253s22.17-68.096 1.382-100.812z m-50.893-189.44c-23.04-53.145-72.755-72.089-120.73-39.372C774.113 276.07 712.16 321.69 670.74 399.36v51.2c88.576-22.374 161.177-37.837 231.168-61.44 52.275-17.203 79.308-61.44 55.552-116.122zM764.794 70.35c-56.32-32.666-104.243-2.919-125.9 52.48a980.48 980.48 0 0 0-59.342 230.4h51.2c65.69-38.349 108.032-94.618 151.194-147.763 37.58-46.03 38.758-102.605-17.152-135.117zM497.479 353.28h27.545c33.895-82.74 46.439-157.235 62.618-230.4 8.602-39.373 5.837-78.797-33.382-104.755-26.88-17.613-54.324-21.76-82.535-4.045-41.625 26.163-51.865 66.253-43.213 110.95 13.927 73.626 32.308 146.33 68.967 228.25z" fill="#892020" /></svg>