<svg class="svg-icon" style="width: 1em;height: 1em;vertical-align: middle;fill: currentColor;overflow: hidden;" viewBox="0 0 1024 1024" version="1.1" xmlns="http://www.w3.org/2000/svg"><path d="M0 512V83.2C0 27.733 27.733 0 83.2 0h851.2c61.867 0 89.6 27.733 89.6 87.467v849.066c0 59.734-27.733 87.467-87.467 87.467H81.067C27.733 1024 0 994.133 0 940.8V512z m637.867-294.4c0 8.533 2.133 10.667 2.133 14.933v578.134c0 17.066-6.4 21.333-23.467 21.333h-134.4c-19.2 0-25.6 6.4-25.6 25.6 0 19.2 2.134 40.533 0 61.867s6.4 29.866 29.867 29.866c78.933 0 157.867-2.133 236.8 0 25.6 0 34.133-8.533 32-34.133V456.533h93.867v462.934c0 21.333 6.4 29.866 27.733 27.733 17.067-2.133 34.133 0 51.2 0 36.267 0 36.267 0 36.267-36.267V371.2c0-32 0-34.133-34.134-34.133H759.467V219.733H921.6c42.667 0 42.667 0 42.667-44.8v-38.4c0-34.133 0-34.133-34.134-34.133h-537.6c0-6.4-2.133-8.533-2.133-12.8 4.267-23.467-8.533-29.867-29.867-29.867-25.6 2.134-53.333 2.134-78.933 0-17.067 0-23.467 6.4-23.467 21.334 0 6.4-2.133 10.666-2.133 19.2H91.733c-23.466 0-32 6.4-29.866 27.733 2.133 19.2 0 36.267 0 55.467 0 32 2.133 34.133 34.133 34.133h541.867zM219.733 420.267c-2.133 2.133-2.133 4.266-4.266 6.4H89.6c-17.067 0-25.6 6.4-23.467 23.466V499.2c0 42.667 0 42.667 44.8 42.667h149.334V627.2H91.733c-19.2 0-25.6 6.4-25.6 25.6 0 21.333 2.134 42.667 0 64s8.534 27.733 27.734 27.733h138.666c8.534 0 17.067 2.134 27.734 2.134v170.666c0 19.2 6.4 29.867 27.733 27.734 21.333-2.134 44.8 0 66.133 0 17.067 0 23.467-6.4 23.467-23.467V744.533h177.067c19.2 0 25.6-6.4 25.6-25.6 0-19.2-2.134-40.533 0-61.866s-6.4-29.867-29.867-29.867c-40.533 2.133-78.933 0-119.467 0h-51.2v-85.333H544c36.267 0 36.267 0 36.267-34.134v-51.2c2.133-21.333-6.4-29.866-29.867-29.866-36.267 2.133-70.4 0-106.667 0-6.4 0-12.8-2.134-25.6-4.267 21.334-21.333 40.534-38.4 57.6-55.467 51.2-51.2 51.2-51.2 0-104.533-29.866-29.867-29.866-29.867-59.733 0-32 32-61.867 64-93.867 96L217.6 253.867c-14.933-17.067-27.733-19.2-44.8 0C160 268.8 147.2 281.6 132.267 294.4c-14.934 12.8-14.934 25.6 0 38.4 29.866 32 57.6 59.733 87.466 87.467z m-98.133 524.8c64 0 59.733 8.533 59.733-53.334 0-74.666 6.4-61.866-61.866-64-64 0-55.467-4.266-55.467 57.6 0 68.267-10.667 57.6 57.6 59.734z" fill="#D2050C" /></svg>