<svg class="svg-icon" style="width: 1em;height: 1em;vertical-align: middle;fill: currentColor;overflow: hidden;" viewBox="0 0 1024 1024" version="1.1" xmlns="http://www.w3.org/2000/svg"><path d="M151.552 510.976C153.6 310.784 313.856 153.6 514.048 155.136c198.144 2.048 356.352 163.328 354.304 362.496C866.304 713.728 704 870.912 506.88 868.864c-198.144-1.536-357.376-162.816-355.328-357.888z m356.352 160.256c17.92 31.744 17.92 48.64-2.048 66.56-22.528 20.992-67.072 27.648-95.232 13.824-26.624-13.824-33.792-44.544-13.824-66.56 9.728-10.752 24.576-19.968 38.4-25.6 51.712-20.992 105.984-23.552 160.256-22.528 46.592 0 93.184 1.024 139.776-2.048 25.6-1.024 48.64-13.824 64.512-35.84 17.92-24.576 26.624-52.224 27.648-86.016-7.168 4.096-11.776 6.144-15.872 7.68-40.448 15.872-79.36 34.816-120.832 46.592-70.144 20.992-141.824 35.84-211.968 54.272-34.816 9.728-68.096 23.552-96.256 47.616-37.376 32.768-31.744 84.992 11.776 108.032 17.92 8.704 39.424 14.848 59.392 15.872 53.248 2.048 97.792-16.896 126.976-65.536 10.752-19.968 7.68-38.4-8.704-49.664-19.456-13.824-39.936-14.848-64-6.656z m-94.208-390.144h-5.12c-2.048 4.096-4.096 8.704-6.144 12.8-9.728 22.528-17.92 46.592-31.744 66.56-26.624 40.448-56.32 78.336-84.992 116.736-27.648 37.376-47.616 79.36-43.52 127.488 5.12 63.488 31.744 116.736 75.264 161.28 4.096 4.096 8.704 6.144 13.824 9.728-4.096-22.528-10.752-42.496-15.872-63.488-14.848-65.536 1.024-125.952 27.648-185.344 17.92-38.4 37.376-75.264 55.296-113.664 15.872-33.792 24.576-68.096 19.968-105.984 0.512-7.168-2.56-17.408-4.608-26.112z m-33.28 356.352c1.024 1.024 3.072 2.048 4.096 3.072 3.072-2.048 6.144-3.072 8.704-5.12 40.448-28.672 86.016-49.664 133.632-64.512 48.64-14.848 97.792-28.672 146.432-43.52 31.744-9.728 62.464-22.016 88.064-44.544 36.864-31.744 29.696-101.888 7.168-126.976-19.968 60.416-72.192 82.944-123.904 105.984-28.672 12.8-58.368 24.576-86.016 37.376-58.368 27.648-112.64 62.464-157.184 111.104-9.216 10.24-15.36 19.456-20.992 27.136z m286.72-377.344c-11.776 44.544-41.472 77.312-75.264 107.008-29.696 25.6-60.416 48.64-91.136 72.192-52.224 39.424-95.232 88.064-124.928 146.432-4.096 7.168-6.144 14.848-9.728 25.6 5.12-2.048 6.144-2.048 7.168-3.072l16.896-16.896c44.544-49.664 94.208-92.16 154.624-120.832 25.6-11.776 50.688-25.6 74.24-39.424 31.744-17.92 61.44-40.448 81.92-71.168 22.016-31.232 4.096-86.528-33.792-99.84zM415.744 455.168c4.096 0 5.12 1.024 6.144 0 38.4-31.744 78.336-62.464 115.712-94.208 15.872-13.824 23.552-31.744 15.872-52.224-8.704-23.552-26.624-38.4-53.248-47.616 2.048 79.36-46.592 133.632-84.48 194.048z" fill="#DA2519" /></svg>