<svg class="svg-icon" style="width: 1em;height: 1em;vertical-align: middle;fill: currentColor;overflow: hidden;" viewBox="0 0 1024 1024" version="1.1" xmlns="http://www.w3.org/2000/svg"><path d="M870.4 512.512c0.512-198.144-162.304-365.056-369.152-359.424-187.904 4.608-348.16 159.232-347.648 360.448 0.512 199.168 161.792 357.888 358.912 357.888C711.68 870.912 870.4 709.12 870.4 512.512z" fill="#004D9D" /><path d="M819.712 512.512c0.512-169.984-139.264-313.344-316.416-308.736-161.28 4.096-299.008 137.216-298.496 309.248 0.512 171.008 138.752 307.2 308.224 306.688 169.984 0.512 306.176-138.752 306.688-307.2z" fill="#D6171F" /><path d="M632.832 614.4c-2.048 5.632-4.096 10.752-6.144 15.872-4.608 9.728-10.752 17.92-17.92 26.112-9.728 10.752-21.504 18.944-34.304 26.624-10.752 6.144-22.528 11.264-34.816 14.336-10.24 2.56-20.992 5.12-31.232 7.168-15.872 3.072-32.256 4.608-48.64 4.608-14.848 0-30.208 0-45.056-1.024-11.776-1.024-23.04-3.072-34.304-7.168-8.192-3.072-16.384-7.168-21.504-14.848-2.048-3.072-3.584-7.168-5.12-11.264-0.512-1.024-1.024-2.048-1.536-3.584-19.968 20.992-42.496 37.888-69.12 51.2 69.632-140.288 69.632-279.552 0-418.816 2.048 1.024 4.096 1.536 5.632 2.56 10.752 6.656 22.016 13.312 32.768 20.992 11.776 8.704 23.04 18.432 32.256 30.208 7.68 9.216 15.36 18.432 22.016 28.16 5.12 7.168 8.704 15.36 12.8 23.04 3.072 5.632 5.12 11.264 8.192 16.896l1.536 1.536 2.048-2.048c1.024-3.072 1.024-6.144 2.048-8.704 4.096-14.336 11.776-27.136 21.504-38.4 10.752-12.288 23.552-22.528 37.888-30.72a239.958 239.958 0 0 1 36.864-16.896c6.144-2.048 12.288-4.608 18.944-6.656 7.68-2.048 14.848-3.584 22.528-5.12 5.632-1.024 11.264-2.56 16.896-3.072 3.584-0.512 6.656-0.512 10.24-1.024 15.872-1.024 31.744-2.56 48.128-3.072 8.192 0 16.896 2.048 25.088 3.072s15.36 4.608 21.504 9.216c7.68 5.632 11.776 12.8 12.8 22.016 0 1.024 1.024 2.048 1.536 3.072l3.072-1.536c9.216-7.68 17.92-15.872 27.648-23.04 6.656-5.12 13.824-9.728 20.992-13.824 3.584-2.56 7.68-4.608 11.776-6.656h2.048c-0.512 1.536-0.512 2.56-1.024 3.584-5.632 11.264-11.264 22.016-16.384 33.792-4.608 10.752-8.704 22.016-12.288 33.28-3.072 9.216-6.144 18.944-8.704 28.672-1.536 6.144-3.072 12.288-4.096 18.432-2.56 15.872-5.632 31.744-7.68 47.616-2.048 18.944-3.072 37.888-2.048 57.344 1.024 15.872 2.048 31.744 4.096 47.104 1.536 11.776 4.096 24.064 6.656 35.84 2.56 11.264 5.12 22.528 8.192 33.28 5.12 15.36 10.752 30.208 16.896 45.056 4.608 10.752 10.24 20.992 14.848 31.232 0.512 0.512 0 1.536 0 2.56h-2.56c-9.216-5.632-18.432-10.752-27.648-16.896-9.216-6.656-18.432-13.824-26.624-21.504-9.728-9.216-18.432-19.968-27.136-30.208-8.704-10.24-15.36-22.016-20.992-33.792-0.512-2.56-1.536-3.072-2.56-4.608z m-241.152-1.536l1.024 1.024c1.536-0.512 3.584-1.536 5.12-2.048 4.096-1.024 7.68-1.536 11.776-2.56 0.512 0 1.536 0.512 2.56 1.024-0.512 0.512-1.024 1.536-1.536 2.048-2.56 1.536-5.632 2.56-7.68 4.096s-4.096 3.072-5.12 5.12c-1.536 4.096 1.024 7.168 6.144 8.192 13.824 3.072 27.648 3.072 41.472 3.584 9.216 0.512 18.432-1.024 27.648-1.024 19.968-0.512 40.448-2.048 59.904-7.68 10.752-3.072 22.016-6.656 32.256-10.752 8.704-3.584 17.408-7.68 23.552-14.848 4.096-4.608 7.168-9.728 6.144-16.384-1.024-5.632-3.584-10.752-7.68-14.336-4.608-4.096-9.728-9.216-14.848-12.288-8.192-5.12-16.896-9.728-25.6-13.312-8.192-3.584-16.896-6.144-25.6-8.704-10.24-3.072-20.992-6.144-31.232-8.704-11.264-2.56-23.04-5.12-33.792-10.24-7.68-3.584-15.36-7.68-22.528-12.8-6.144-4.608-11.264-10.24-16.896-15.872-0.512-0.512-2.048-1.024-2.56-1.536 0 1.024-0.512 2.048-0.512 3.584 0 1.024 0.512 2.56 0.512 3.584 1.024 26.624 0.512 52.736-7.168 78.336-3.072 10.752-7.168 21.504-10.752 32.256-2.048 4.096-3.584 7.168-4.608 10.24z m220.672-61.44v-5.632c-1.024-11.776-2.56-24.064-2.56-35.84 0-17.92 1.536-36.352 6.656-53.76 2.56-9.216 5.632-18.432 8.704-27.648 2.048-6.144 5.12-12.288 8.192-18.432 0.512-1.024 0-2.048 0-3.072-1.024 0-2.048 0-2.56 0.512l-18.432 12.288c-6.656 5.12-12.288 11.264-20.48 14.848-1.024 0.512-3.584 0.512-4.096 0-1.024-1.024-1.536-3.072-1.536-4.096 0.512-1.536 1.536-3.584 2.56-4.608 7.168-6.656 13.824-13.312 20.992-20.48 4.608-4.096 8.704-8.704 12.8-13.312 3.072-3.584 2.048-7.168-2.56-8.704-2.56-1.024-5.12-1.024-7.168-1.024-16.384-0.512-32.768 1.024-48.64 3.584-10.24 1.536-20.992 4.096-31.232 5.632-9.728 1.536-18.944 4.096-28.16 7.68-11.776 4.608-23.552 8.704-34.304 15.36-9.728 6.144-18.944 12.8-25.6 23.04-4.608 8.704-4.608 19.968 3.584 28.16s19.456 11.776 30.208 15.872c6.144 2.048 12.8 4.096 18.944 6.656 5.632 2.048 11.264 4.608 16.896 6.656 7.68 3.072 15.872 5.12 23.552 8.192 13.312 5.632 26.624 11.264 38.912 19.456 8.704 6.144 16.896 12.288 25.088 18.944 3.072 2.56 6.144 6.144 10.24 9.728z" fill="#FFF102" /></svg>