<svg class="svg-icon" style="width: 1em;height: 1em;vertical-align: middle;fill: currentColor;overflow: hidden;" viewBox="0 0 1024 1024" version="1.1" xmlns="http://www.w3.org/2000/svg"><path d="M180.736 857.6c-1.024 0-1.536 0-2.56 0.512-7.168 1.536-13.312-2.048-16.896-6.144-4.096-4.608-7.68-10.24-7.68-17.92 0.512-59.904 0-119.296 0.512-179.2 0-9.216 0.512-18.432 0.512-27.648 0-136.192 0-271.872 0.512-408.064 0-10.752-0.512-21.504 0.512-31.744 1.024-9.728 6.144-16.384 14.336-21.504 2.048-1.024 4.608-1.024 6.656-1.024h302.08c12.288 0 22.528 10.24 23.552 22.528 1.024 13.824 0.512 27.648 0.512 40.96-1.024 81.92-0.512 163.84-0.512 245.248 0 5.632 0 5.632 5.632 5.632h10.752c2.56 0 3.584-1.024 3.584-3.584-0.512-10.24 0.512-20.48 0.512-30.72V195.072c0-7.68 1.024-15.872 6.656-22.016 5.12-6.144 11.776-9.728 19.968-8.704h4.608c63.488 0 126.976-0.512 190.464 0.512 31.744 0.512 64 0 95.744 0.512 3.584 0 7.68 0.512 11.264 1.024 6.656 1.024 11.776 5.12 14.848 10.752 2.56 4.096 4.096 8.704 4.096 13.824v179.2c0 14.848 0.512 30.208 0 45.056-1.536 95.232 0 190.464-1.024 285.696-0.512 45.056 0 89.6-0.512 134.656 0 10.24-7.168 19.456-15.872 22.528-1.536 0.512-3.584 0.512-5.632 0.512-18.944 0-37.376 0.512-56.32 0-47.616-1.024-95.232 0-142.848-0.512-33.792-0.512-67.584-0.512-101.376-0.512-15.36 0-24.064-11.264-25.088-23.04-0.512-9.728 0-19.968 0-29.696v-31.232c0-3.072-1.024-4.608-4.096-4.608h-13.824c-2.56 0-4.096 0.512-3.072 3.584 1.024 4.608-0.512 9.216-0.512 13.824 0 15.36-0.512 31.232 0 46.592 0.512 10.752-9.728 25.088-25.088 25.088-37.888-0.512-75.776 0-113.664 0-28.672 0-57.344-0.512-86.016-0.512m51.712-660.992h-122.88c-8.192 0-14.336 3.584-18.432 11.264-2.56 5.632-3.584 11.264-3.584 17.408-0.512 70.656 0.512 141.312-0.512 211.456 0 4.608 1.024 8.704 0.512 13.312-1.024 8.192 0 16.896-0.512 25.088-0.512 11.264 0 22.016 0 33.28-0.512 79.872 0.512 159.744-0.512 239.616-0.512 16.384 0 33.28 0 49.664 0 5.632 1.024 11.264 3.584 15.872 4.096 7.68 10.752 10.752 19.456 10.752H417.28c11.264 0 22.528-0.512 33.792 0 3.072 0 5.632-0.512 8.192-2.048 8.704-4.608 12.8-11.776 12.8-21.504v-28.672c0-3.072-1.024-4.096-4.096-4.096h-28.672c-4.608 0-5.632-0.512-6.656-5.632-2.048-9.728-4.608-19.456-6.656-29.696-2.56-12.288-5.632-24.064-8.704-36.352l-4.608-19.968c-0.512-3.072-2.048-4.096-5.12-4.096-6.144 0.512-12.8 1.024-18.944 0.512-8.704-0.512-17.408-0.512-25.6-0.512h-39.936c-3.072 0-4.608-1.024-5.12-4.608-0.512-6.656-1.024-13.312-2.048-19.456-1.536-12.8-2.56-26.112-4.096-38.912-1.024-10.752-2.56-22.016-3.584-32.768-1.536-15.36-3.072-31.232-4.608-46.592-1.024-11.776-2.56-23.552-3.584-35.328-1.024-11.264-2.048-22.016-3.072-33.28-1.024-9.216-2.048-17.92-3.072-27.136-1.024-11.776-2.048-24.064-3.584-35.84-1.024-8.704-1.536-17.408-2.56-26.112-1.536-12.8-2.56-25.088-4.096-37.888-1.024-10.752-2.56-20.992-3.584-31.744l-4.608-46.08c-0.512-4.096 0.512-5.12 4.608-5.12h25.6c32.768 0.512 65.536 0 98.304 0h26.112c4.608 0 6.144 1.536 6.144 6.144 0.512 3.584 0.512 7.68 1.024 11.264 1.024 10.752 2.048 20.992 3.072 31.744 1.024 9.728 1.536 19.456 2.56 28.672 1.024 12.8 2.56 25.088 3.584 37.888 1.024 13.312 2.56 26.112 3.584 39.424 1.024 10.752 2.048 20.992 3.072 31.744 1.024 12.288 2.56 24.576 3.584 36.864 0 2.048 1.024 3.072 3.072 2.56 3.072-0.512 6.144-0.512 8.704 0s3.584-0.512 3.584-3.072c0-7.68 0.512-15.36 0.512-23.04V346.112c0-17.408 0-34.816 0.512-52.224 0.512-9.216 0-17.92 0-27.136-0.512-14.336 0.512-28.672 0.512-43.008 0-3.584 0-7.168-1.024-10.752-3.072-11.776-11.264-17.92-23.552-17.92-40.448 1.536-80.896 1.536-121.856 1.536z m224.256 178.688v32.256c0 23.04 0.512 46.592-0.512 69.632 0 2.048 1.024 2.56 2.56 2.56h10.752c2.56 0 3.072-1.536 3.072-3.584 1.536-15.36 2.56-30.72 4.096-46.08 2.048-22.016 4.608-44.032 6.656-66.048 1.536-12.8 2.56-25.6 4.096-38.4 1.024-11.776 2.56-24.064 3.584-35.84l3.072-30.72c0.512-5.632 1.024-5.632 6.656-5.632h146.432c6.144 0 7.68 1.536 7.168 7.68-0.512 6.144-1.536 11.776-2.048 17.92-1.536 13.312-2.56 26.112-4.096 39.424-1.536 12.8-2.56 25.088-4.096 37.888-1.024 9.728-2.048 19.456-3.584 29.184-1.024 10.752-2.048 22.016-3.072 32.768l-3.072 27.648c-1.536 12.8-2.56 25.088-4.096 37.888l-3.072 24.576c-1.024 11.264-2.048 23.04-3.584 34.304-1.024 9.216-2.56 18.432-3.072 28.16-1.024 16.896-3.584 33.792-5.12 50.688-1.536 16.384-3.072 32.256-5.12 48.64-0.512 5.632-1.536 6.144-7.168 6.656-27.136 0.512-54.784-0.512-81.92-0.512-3.584 0-5.12 1.024-6.144 4.608l-6.144 26.112-10.752 46.08c-1.024 4.608-2.048 9.728-3.584 14.336-0.512 2.56-2.56 3.584-5.12 3.584-10.24-0.512-20.48-0.512-30.72-0.512-3.072 0-4.096 1.024-4.096 4.096v27.648c0 6.656 2.048 12.288 6.656 17.408 4.608 5.632 11.776 7.168 18.944 7.168 26.624 0 52.736 0 79.36 0.512 30.72 0.512 61.44 0 92.16 0.512 24.576 0.512 48.64 0 73.216 0 6.144 0 10.752-3.072 14.848-7.168 4.608-5.12 6.144-11.776 6.144-18.432 0-50.688 0.512-100.864 0.512-151.552 0.512-101.376-0.512-202.24 0.512-303.616 0.512-40.448 0-80.896 0-121.344 0-5.12-0.512-9.728-3.072-14.336-3.584-6.656-8.704-11.776-16.384-12.288-12.8-0.512-25.6-0.512-38.4-0.512-53.248-0.512-105.984 0.512-159.232-0.512-16.896-0.512-33.792 0-50.688 0-14.336 0-22.528 9.216-23.04 23.04-0.512 18.944-0.512 37.888-0.512 57.344 0.512 31.744 1.024 64 1.024 96.768z" fill="#D7000F" /></svg>