<svg class="svg-icon" style="width: 1em;height: 1em;vertical-align: middle;fill: currentColor;overflow: hidden;" viewBox="0 0 1024 1024" version="1.1" xmlns="http://www.w3.org/2000/svg"><path d="M258.048 500.736c56.32 1.024 112.128 0 168.448 0.512 17.92 0 24.576-8.192 24.064-24.576-0.512-12.8-2.56-25.6-1.024-38.912 1.536-14.848 8.704-19.968 22.528-19.456 26.624 0.512 53.248 1.024 79.872 0 19.456-1.024 26.624 6.144 26.112 26.112-1.536 54.272-5.12 52.736 56.832 52.224 14.336 0 21.504-6.144 21.504-20.992 0-37.888-0.512-75.264 0-113.152 0-17.408-8.192-23.04-24.064-22.528-24.576 0.512-49.152 0-73.728 0-54.272 0-108.032 0.512-162.304 0-17.408 0-25.088 6.656-24.064 24.576 0.512 12.8-0.512 26.112 0 38.912 0.512 15.36-5.12 23.04-21.504 22.528a2212.07 2212.07 0 0 0-82.432 0c-18.944 0.512-20.48-7.68-14.336-23.04 16.896-37.376 38.912-70.144 68.608-97.28 71.68-64.512 155.136-89.088 248.832-69.12 117.248 25.088 207.36 125.952 219.136 245.248 2.048 21.504 10.24 27.648 30.72 27.648 52.736-1.024 53.76 0 44.544-52.736-27.136-150.528-115.2-248.32-261.12-291.328-75.264-22.528-150.016-16.384-223.232 13.312-132.096 52.736-206.336 153.088-224.768 291.328-1.536 13.312-2.56 26.112-3.072 38.912h81.92c3.584-6.144 10.752-8.704 22.528-8.192z" fill="#DB212F" /><path d="M238.592 743.936c95.744 110.592 219.136 151.04 360.96 116.736C750.592 823.808 849.92 704 869.376 546.304c1.536-14.336-2.048-22.016-18.432-22.016-84.992 0.512-169.984 0-254.976 0-14.336 0-19.456 7.168-18.944 20.48 0.512 15.872-0.512 31.744 0 47.104 0.512 13.312-5.12 18.432-18.432 18.432-29.696-0.512-58.88 0-88.576 0-27.136 0-27.136 0-27.136-27.648 0-52.224 0-51.712-53.248-50.688-15.872 0.512-22.016 5.632-22.016 21.504a3871.68 3871.68 0 0 1 0 109.056c-0.512 16.896 6.144 23.04 23.04 23.04 39.936-0.512 79.36 0 119.296 0 40.448 0 80.896-0.512 121.344 0 14.848 0 21.504-6.144 20.992-20.992-0.512-14.848 0.512-30.208 0-45.056-0.512-13.312 4.096-20.48 18.944-19.968a2673.6 2673.6 0 0 0 90.624 0c16.896 0 17.92 6.144 11.776 20.48-20.992 50.176-52.736 91.136-96.768 122.368-78.848 56.32-164.864 68.096-257.536 37.888-105.472-34.304-187.392-144.896-186.88-254.976 0-6.656 1.024-11.776 3.072-15.872H153.6c-2.048 86.016 26.624 166.912 84.992 234.496z" fill="#055393" /></svg>