<svg class="svg-icon" style="width: 1em;height: 1em;vertical-align: middle;fill: currentColor;overflow: hidden;" viewBox="0 0 1024 1024" version="1.1" xmlns="http://www.w3.org/2000/svg"><path d="M925.422 787.713c-353.66-51.233-688.279-126.374-678.572-211.59 7.549-64.928 251.798-69.371 240.124-103.036-12.417-35.996-361.912-43.713-378.305-104.903-15.518-57.894 208.472-67.605 222.13-98.163 10.914-25.063-136.847-39.478-218.329-44.892-58.745 81.447-93.517 181.275-93.517 289.108 0 273.36 221.461 494.57 494.481 494.57 160.254 0.001 327.514-84.692 411.988-221.094" fill="#009944" /><path d="M488.16 560.966c-27.649 6.644-25.632 23.91 5.522 31.737 56.749 16.307 283.34 52.063 493.811 62.338 13.257-44.667 20.501-91.596 20.501-140.804C1007.993 241.41 786.522 20 513.434 20c-158.361 0-299.19 74.557-389.663 190.23 118.914 2.356 333.079 12.415 349.033 53.703 22.219 56.959-225.176 55.027-214.441 90.034 12.018 39.524 411.404 40.452 430.162 115.408 11.248 44.641-83.956 63.705-200.365 91.591" fill="#004EA2" /></svg>