<svg class="svg-icon" style="width: 1em;height: 1em;vertical-align: middle;fill: currentColor;overflow: hidden;" viewBox="0 0 1024 1024" version="1.1" xmlns="http://www.w3.org/2000/svg"><path d="M524.8 142.336c180.736-2.56 293.376 95.232 346.112 221.184 18.432 43.52 42.496 126.976 18.432 183.296-37.888 87.04-174.592 146.432-285.184 162.304 65.536-95.744 91.648-228.864 35.84-355.84-8.192-18.432-19.968-52.224-36.864-61.952-19.456-8.704-45.568-6.656-69.12-10.24-59.392-9.728-142.336-12.288-204.8-2.56-26.624 4.096-52.736 7.68-79.36 11.264 0.512-1.024 1.024-2.56 1.024-3.584 17.408-18.432 34.304-37.376 51.712-56.32 29.184-23.04 60.928-45.056 97.792-60.928 24.064-10.24 51.712-17.408 79.36-23.04 15.36-0.512 30.208-2.048 45.056-3.584z" fill="#E46214" /><path d="M474.112 289.792h3.584c-65.536 95.744-91.648 228.864-35.84 355.84 8.192 18.432 19.968 52.224 36.864 61.952l58.88 9.216c83.456 14.336 219.648 13.312 294.4-9.216-5.12 12.288-16.384 19.968-24.064 29.696-56.832 70.144-190.976 144.384-332.288 113.152-65.024-14.336-116.736-39.936-161.28-74.24-77.312-60.416-189.952-247.296-95.232-365.056 41.472-51.712 117.76-83.456 188.416-105.472 22.016-5.12 44.544-10.24 66.56-15.872z" fill="#E46214" /></svg>