<svg class="svg-icon" style="width: 1em;height: 1em;vertical-align: middle;fill: currentColor;overflow: hidden;" viewBox="0 0 1024 1024" version="1.1" xmlns="http://www.w3.org/2000/svg"><path d="M690 659c-13.5 1.1-26.8 1.7-39.3 2-34.6 0.8-67.6 14.9-92.1 39.4L525.9 733c-6.9 6.9-18.1 6.9-25 0L295.5 527.6c-6.9-6.9-6.9-18.1 0-25L501 297.1c6.9-6.9 18.1-6.9 25 0l110.3 110.3c7.8 7.8 19.1 10.9 29.7 8.1 144.4-37.8 207.2-86.1 232.9-113.6C824.3 166.6 680.3 75 515 75 273.1 75 77.2 270.8 77 512.7 76.8 754.7 273 951 515 951c223.3 0 407.6-167.1 434.6-383.1-81.4 93-203.7 86.7-259.6 91.1z" fill="#D52018" /><path d="M915.7 336S883 386.4 769 415.4 591 535.5 595 631.5h19.4c11.3 0 22.5-2.2 33.1-6.1 10.4-3.8 35-7.3 93.5-3.4 77.1 8.7 211.6-26.4 199.8-203.4-2-29-10.6-57.3-25.1-82.6z" fill="#9FC90F" /></svg>