<svg class="svg-icon" style="width: 1em;height: 1em;vertical-align: middle;fill: currentColor;overflow: hidden;" viewBox="0 0 1024 1024" version="1.1" xmlns="http://www.w3.org/2000/svg"><path d="M854.528 192.512c-17.408 0-34.816 1.536-52.224-0.512-24.576-2.56-44.032 5.632-58.88 24.064-10.24 12.8-23.04 15.872-38.912 15.872-125.44-0.512-250.88-0.512-376.32 0-16.384 0-29.184-3.584-39.936-16.384-6.144-7.168-14.336-11.776-20.992-18.432-3.072-3.072-7.168-4.608-11.776-4.608-29.696-0.512-59.392-1.024-89.6 0-10.752 0.512-14.848 6.656-12.288 17.408 10.24 41.472 18.944 82.944 27.136 124.416 4.096 19.456 14.848 27.648 34.304 28.16 7.168 0.512 14.848 0 22.016 0H665.6c23.04 0 27.136 5.12 23.552 28.16-0.512 2.048-1.024 4.608-1.024 6.656-8.192 51.712-14.336 103.424-18.432 155.136-1.024 15.36-2.048 30.72-4.096 46.08-2.048 12.288-6.144 16.384-18.944 17.408H390.144c-4.096 0-7.68 0-11.776-0.512-5.632-1.024-9.728-4.096-10.24-9.728-0.512-12.8-3.584-25.088-3.072-37.888 0.512-7.68 4.608-11.776 12.288-12.288 4.608-0.512 9.216 0 13.824 0h178.688c24.576 0 30.72-5.632 33.792-29.696 3.072-23.552 5.12-47.616 8.192-71.168 3.072-25.6-0.512-30.208-26.112-30.208H345.6c-38.4 0-76.8-0.512-114.688 0.512-20.48 0.512-31.232 12.8-29.184 33.28 1.536 14.336 3.072 28.672 4.608 42.496 9.728 78.336 14.336 157.184 15.36 236.032 0.512 25.088 0 50.176 0 75.264 0.512 16.896 3.072 19.968 19.456 19.968 33.28 0.512 66.56 0.512 99.84 0 14.336 0 17.92-3.072 20.992-17.92 3.072-15.36 5.12-31.232 8.192-47.104 3.072-16.896 5.12-18.432 22.016-18.944h248.32c16.384 0 18.432 1.536 20.992 17.92 2.56 15.36 5.632 30.208 8.192 45.568 2.56 16.384 6.144 18.944 23.04 19.456h23.04c26.112 0 51.712 0.512 77.824-0.512 12.288-0.512 15.872-3.584 16.384-15.872 0-2.56 0.512-5.632 0-8.192-0.512-70.656 1.024-141.312 6.656-211.968 3.584-43.52 8.192-87.04 13.312-130.048 5.632-47.104 13.824-93.184 22.528-139.776 6.144-31.232 12.288-61.952 17.408-93.184v-34.816c-3.584-4.096-9.728-4.096-15.36-4.096z" fill="#E94609" /></svg>