<svg class="svg-icon" style="width: 1em;height: 1em;vertical-align: middle;fill: currentColor;overflow: hidden;" viewBox="0 0 1024 1024" version="1.1" xmlns="http://www.w3.org/2000/svg"><path d="M673.28 485.888c-1.024 18.432 1.536 43.008-1.536 67.584-8.192 66.048-53.76 101.888-112.64 112.64-71.68 12.8-125.952-18.944-169.472-72.704-18.432-23.04-33.792-48.64-47.616-74.752-22.016-41.984-55.296-68.096-100.352-79.36-2.048-0.512-4.096-1.024-6.144-2.048-2.56-1.024-6.144-1.536-6.144-5.632 0.512-3.584 3.584-4.096 6.656-4.608 28.672-7.168 57.344-12.8 86.528-6.656 9.728 2.048 13.312-1.024 16.384-10.24 33.28-105.472 105.472-168.96 214.528-184.832 76.288-11.264 148.48 6.656 210.944 54.784 62.976 48.64 95.232 113.664 103.424 190.976 8.192 79.36-9.728 153.088-59.392 216.576-57.856 73.728-134.144 111.616-228.352 114.176-71.68 2.048-135.68-19.456-192.512-61.44-32.256-24.064-56.832-55.296-79.36-88.576-27.136-39.424-45.568-84.48-71.68-124.416-16.384-25.088-37.888-44.544-67.072-54.272-4.096-1.536-8.192-2.56-11.776-4.096-2.56-1.024-5.12-2.048-5.12-5.12s3.584-3.072 5.632-4.096c40.448-12.288 92.672 4.608 119.808 36.864 25.088 29.696 40.448 65.536 61.44 97.792 35.84 55.808 80.896 99.84 144.896 121.344 96.256 32.768 193.024-10.752 243.712-80.896 39.936-54.784 54.272-116.224 41.984-181.76-10.752-55.808-44.544-96.768-95.232-121.344-59.904-29.184-118.784-25.088-176.128 8.192-56.832 32.768-88.576 107.008-67.584 164.864 26.112 71.168 88.576 104.96 165.888 74.24 12.8-5.12 23.552-13.312 32.256-24.064 2.048-2.56 6.656-5.12 4.096-9.728-2.048-3.584-6.144-2.56-9.216-2.56-27.648 0-55.296 0-82.944 0.512-13.824 0-16.384-1.536-16.896-15.36-0.512-35.84-0.512-72.192-0.512-108.032 0-14.336 2.56-15.872 16.384-15.36 36.864 1.024 73.728 1.536 110.592-0.512 16.384-1.024 20.48 2.56 20.48 18.944 2.048 18.432 2.048 37.376 2.048 62.976z" fill="#C82621" /></svg>