<svg class="svg-icon" style="width: 1em;height: 1em;vertical-align: middle;fill: currentColor;overflow: hidden;" viewBox="0 0 1024 1024" version="1.1" xmlns="http://www.w3.org/2000/svg"><path d="M869.376 385.536V332.8L707.072 228.864s-28.16-23.552-28.16 11.264v78.848l190.464 66.56z" fill="#B1282E" /><path d="M869.376 402.432L679.424 335.36v121.856h189.952V407.04" fill="#D9651A" /><path d="M435.712 284.16v167.424l243.712 5.632V335.36L481.28 269.312s-45.568-17.92-45.568 14.848z" fill="#CD291F" /><path d="M869.376 473.088H678.912v184.32l176.64-44.544c5.632-4.608 10.24-10.24 13.312-16.896 3.072-7.68 0.512-122.88 0.512-122.88z" fill="#448C69" /><path d="M435.712 472.576v252.928l243.712-64v-189.44H435.712z" fill="#055B74" /><path d="M153.6 531.968v270.848l282.112-77.824V473.088H209.408c-31.232 0.512-56.32 26.112-55.808 57.856v1.024z" fill="#03456C" /></svg>