<svg class="svg-icon" style="width: 1em;height: 1em;vertical-align: middle;fill: currentColor;overflow: hidden;" viewBox="0 0 1024 1024" version="1.1" xmlns="http://www.w3.org/2000/svg"><path d="M508.416 156.16c-197.632 0-354.816 159.744-354.816 354.304 0 197.632 159.744 354.816 354.816 354.816 93.696 0 157.184-32.768 184.832-50.688 68.608-43.008 106.496-101.376 96.256-159.744-7.68-50.688-55.808-88.576-114.176-106.496-5.12 0-12.8-5.12-17.92-5.12 30.208-17.92 45.568-37.888 50.688-68.608 7.68-63.488-63.488-126.464-159.744-139.264-88.576-12.8-159.744-5.12-184.832-5.12v114.176c50.688-7.68 119.296-7.68 172.032 0 45.568 7.68 75.776 25.088 80.896 45.568 0 5.12 0 12.8-5.12 17.92-12.8 17.92-32.768 17.92-50.688 12.8-58.368-7.68-126.464-7.68-195.072 0V634.88c63.488-7.68 169.472-7.68 220.16 0 45.568 7.68 75.776 30.208 80.896 55.808 0 12.8-5.12 20.48-12.8 32.768-17.92 20.48-68.608 43.008-139.264 43.008-144.384 0-261.12-119.296-261.12-261.12 0-144.384 119.296-261.12 261.12-261.12s261.12 119.296 261.12 261.12v30.208c17.92 7.68 45.568 30.208 80.896 68.608 7.68-30.208 12.8-63.488 12.8-96.256-4.096-194.56-163.84-351.744-360.96-351.744z" fill="#E50012" /></svg>