<svg class="svg-icon" style="width: 1.013671875em;height: 1em;vertical-align: middle;fill: currentColor;overflow: hidden;" viewBox="0 0 1038 1024" version="1.1" xmlns="http://www.w3.org/2000/svg"><path d="M518.146631 0.02073h14.838989a503.382641 503.382641 0 0 1 423.701698 235.259832 523.339627 523.339627 0 0 1 81.980942 279.697801v3.634997a515.549632 515.549632 0 0 1-27.524981 164.925883h-0.666999a503.679641 503.679641 0 0 1-412.129707 338.086759 479.567658 479.567658 0 0 1-49.335964 2.225998h-1.929999a525.269626 525.269626 0 0 1-215.670846-47.556966A432.827691 432.827691 0 0 1 98.44993 616.174291c-0.445-8.902994-0.594-17.805987-0.52-26.708981 0-5.489996 0-10.905992 0.446-16.395989v-3.263997c0.37-7.419995 0.889999-14.16999 1.631999-21.292985a436.166689 436.166689 0 0 1 60.168957-181.76687l0.444999-0.593a335.267761 335.267761 0 0 1 21.737985-32.272977l2.595998-3.635997A425.186697 425.186697 0 0 1 320.949771 213.467578a280.4398 280.4398 0 0 1 29.675979-12.463991 75.970946 75.970946 0 0 1 14.39299-3.412998c0.668 0 2.892998 0 2.076998 1.409999a368.652737 368.652737 0 0 0 103.866926 615.114562 328.886766 328.886766 0 0 0 153.203891 25.965981 356.782746 356.782746 0 0 0 78.567944-12.834991 35.165975 35.165975 0 0 0 3.709997-1.111999q10.756992-3.115998 21.365985-6.899995a365.38874 365.38874 0 0 0 238.81983-308.85578v-3.189998a367.169738 367.169738 0 0 0-29.379979-180.727871 477.26766 477.26766 0 0 0-438.465688-316.199774q-52.378963-0.446-104.609925 3.262997A532.68862 532.68862 0 0 1 518.147631 0.02173z m-66.102953 316.349774a153.129891 153.129891 0 0 1 148.899894-122.339912 151.348892 151.348892 0 0 1 31.827977 3.411997c165.741882 35.982974 270.943807 200.982857 235.257832 368.504738A306.703781 306.703781 0 0 1 542.481613 809.960153a3.189998 3.189998 0 0 1 0-2.819998 153.72289 153.72289 0 0 0 144.449897-122.561913 155.280889 155.280889 0 0 0-117.740916-184.289869A154.76189 154.76189 0 0 1 452.043678 316.370504z m-232.809834-134.507904a191.337864 191.337864 0 0 1 72.409948-16.099988 111.285921 111.285921 0 0 1 61.429956 17.360987 443.807684 443.807684 0 0 0-210.47985 137.400903c-22.256984 26.411981-45.923967 42.36297-70.999949 48.446965A138.513901 138.513901 0 0 1 0 365.26047c47.481966-14.837989 77.825945-51.413963 107.353923-87.618938s60.909957-74.783947 111.953921-95.779932z" fill="#C9151E" /></svg>