<svg class="svg-icon" style="width: 1em;height: 1em;vertical-align: middle;fill: currentColor;overflow: hidden;" viewBox="0 0 1024 1024" version="1.1" xmlns="http://www.w3.org/2000/svg"><path d="M710.656 436.736H552.96v174.08h157.696c9.216 0 16.384-7.168 16.384-16.384V453.12c0-9.216-7.68-16.384-16.384-16.384zM661.504 545.28h-43.52v-43.52h43.52v43.52z" fill="#B80117" /><path d="M647.168 762.368c-129.024 0-233.984-104.448-233.984-233.984S517.632 294.4 647.168 294.4c99.84 0 184.832 62.464 218.624 150.528-37.376-157.696-179.2-275.456-348.672-275.456-198.144 0-358.4 160.256-358.4 358.4s160.256 358.4 358.4 358.4c169.472 0 311.296-117.248 348.672-275.456C832 699.904 747.008 762.368 647.168 762.368z" fill="#B80117" /></svg>