<svg class="svg-icon" style="width: 1em;height: 1em;vertical-align: middle;fill: currentColor;overflow: hidden;" viewBox="0 0 1024 1024" version="1.1" xmlns="http://www.w3.org/2000/svg"><path d="M849.408 382.976C804.352 265.728 701.952 180.224 578.56 157.184c-12.288-2.56-25.088-4.096-37.888-5.12h-1.536l-6.656-0.512-5.632-0.512c-10.752-0.512-20.48 0-28.672 0-5.632 0.512-10.752 0.512-16.384 1.024-9.728 0.512-15.36 1.536-15.36 1.536-197.632 25.6-337.408 206.336-312.32 403.968C175.104 722.944 307.2 852.48 473.088 870.4h0.512l9.728 1.024h3.584l10.24 0.512h1.024c14.848 0.512 29.696 0.512 44.032-1.024 199.168-16.896 346.624-191.488 329.728-390.656-3.072-32.768-10.752-66.048-22.528-97.28z m-66.56 139.264c-36.352-89.088-120.832-148.992-217.088-154.624v90.624c87.552 7.68 152.064 84.48 144.384 172.032-5.12 58.88-42.496 110.08-97.28 133.12l-4.096 1.536c-23.04 8.704-47.104 14.336-71.168 16.896h-6.144a234.027 234.027 0 0 1-37.888 0c-145.92-9.728-257.536-133.632-252.416-280.064 36.352 89.088 120.832 148.992 217.088 154.624V565.76c-87.552-7.68-152.064-84.48-144.384-172.032 5.12-58.88 42.496-109.568 96.768-132.608l4.608-1.536c26.112-10.24 53.76-15.872 81.92-17.92a277.44 277.44 0 0 1 29.184 0c147.968 8.192 262.144 132.608 256.512 280.576z" fill="#DF0011" /><path d="M458.24 565.76h107.52V458.24H458.24v107.52z" fill="#DF0011" /></svg>