<svg class="svg-icon" style="width: 1em;height: 1em;vertical-align: middle;fill: currentColor;overflow: hidden;" viewBox="0 0 1024 1024" version="1.1" xmlns="http://www.w3.org/2000/svg"><path d="M479.232 868.864c-54.784-7.68-102.912-25.088-147.968-50.688-99.84-57.344-148.992-146.432-172.032-257.024C122.368 381.44 264.192 194.048 435.2 161.28c44.032-8.704 39.936-10.24 40.448 32.768 0 42.496-0.512 41.472-41.984 52.224-91.648 24.576-152.064 83.456-179.2 173.568-27.648 90.624-12.288 175.104 44.032 250.88 23.04 31.232 53.248 55.296 93.696 78.336V660.48c0.512-87.04 1.536-174.592 2.56-261.632 0.512-24.576 3.584-27.648 27.648-27.648 31.232 0 62.464 0.512 93.696 0.512 27.136 0 27.136 0 26.624-27.648V178.176c0-23.552 1.536-25.088 25.088-22.016C717.312 173.056 842.24 295.424 865.28 444.416c17.408 111.616-11.264 210.944-79.872 297.984-55.808 70.656-134.144 107.008-221.184 125.44-11.776 2.56-16.384-2.56-16.384-14.336 0-13.824 0-28.16 0.512-41.984 0.512-34.816-5.632-29.696 31.232-40.448 44.032-13.312 86.528-29.184 122.368-59.904 43.52-37.888 66.56-87.552 77.824-142.848 19.968-98.304-4.608-183.808-74.24-256-11.264-11.776-25.6-20.992-39.936-29.184-20.992-12.288-25.088-9.216-25.6 14.336V614.4c0 25.088-4.608 30.208-29.696 30.72-34.816 0-70.144 1.024-104.96 0-16.384-0.512-24.064 3.584-24.064 22.016 0.512 57.856 0 115.712-0.512 173.568 0 8.704-0.512 16.896-1.536 28.16z m33.28-317.44c49.664-0.512 44.544 8.704 44.544-41.984 0-48.128 7.68-42.496-43.52-43.008-42.496 0-41.984 0-43.008 41.984-1.024 49.664-3.584 42.496 41.984 43.008z" fill="#D7000F" /></svg>