<svg class="svg-icon" style="width: 1em;height: 1em;vertical-align: middle;fill: currentColor;overflow: hidden;" viewBox="0 0 1024 1024" version="1.1" xmlns="http://www.w3.org/2000/svg"><path d="M996.886 447.094L784.588 234.219c-161.53 272.584-27.979 449.69-27.979 449.69l-277.63-152.156-267.824 185.184C470.757 363.3 312.11 212.874 312.11 212.874l254.555 132.254 198.596-129.802-187.49-187.49a92.592 92.592 0 0 0-130.956 0L27.125 447.093a92.592 92.592 0 0 0 0 130.955l419.98 418.826a92.592 92.592 0 0 0 130.955 0l418.826-419.98a92.592 92.592 0 0 0 0-129.801z" fill="#9C2952" /></svg>