<svg class="svg-icon" style="width: 1em;height: 1em;vertical-align: middle;fill: currentColor;overflow: hidden;" viewBox="0 0 1024 1024" version="1.1" xmlns="http://www.w3.org/2000/svg"><path d="M715.776 313.856C586.752 409.6 444.416 404.48 304.64 309.76c97.28 127.488 100.352 260.608 9.728 398.848 68.096-45.568 135.168-68.096 201.216-68.096 66.56 0 131.584 23.552 195.584 71.168-91.648-137.728-90.112-270.336 4.608-397.824z m6.144-5.12c199.168 67.584 198.144 342.016-5.632 408.064-66.56 199.68-340.48 202.24-407.552 0.512C205.312 684.032 153.6 597.504 153.6 510.976v-0.512c0-84.992 50.176-169.984 150.016-202.752l1.024 1.024c32.768-102.4 119.296-152.576 206.848-152.576H512c88.064 0.512 176.64 51.712 209.92 152.576z" fill="#629130" /></svg>