<svg class="svg-icon" style="width: 1em;height: 1em;vertical-align: middle;fill: currentColor;overflow: hidden;" viewBox="0 0 1024 1024" version="1.1" xmlns="http://www.w3.org/2000/svg"><path d="M250.368 481.792c0 25.6-1.024 49.664 0.512 73.728 2.048 32.256 7.68 63.488 23.552 92.672 23.04 42.496 69.632 65.536 117.76 59.392 69.12-9.216 122.88-46.592 172.032-91.648 96.768-89.088 162.816-198.144 202.752-323.072 14.336-45.056 22.528-91.648 29.696-139.264 8.192 1.536 8.192 8.192 9.216 12.8 12.8 50.176 12.8 100.352 4.608 151.04-20.992 132.096-74.24 250.368-154.112 356.864-48.64 64.512-104.96 120.832-175.616 161.28-36.352 20.992-75.776 34.816-117.248 34.816-52.736-0.512-96.256-24.064-122.88-71.168-33.28-58.368-36.352-121.856-27.136-186.88 5.632-38.4 14.336-75.264 26.624-111.616 1.536-6.656 2.048-13.824 10.24-18.944z" fill="#004998" /><path d="M786.432 157.696c1.024 29.184-8.192 55.808-19.968 80.896-52.736 117.248-140.288 198.656-259.584 245.76-40.96 16.384-83.968 23.04-127.488 14.848-40.96-7.68-74.24-43.52-73.216-88.576 1.024-64.512 30.72-114.176 72.704-158.72 0.512-0.512 2.048-0.512 4.608-0.512 1.024 10.24-3.584 18.944-6.144 27.136-5.632 16.384-6.656 33.28-5.632 50.176 1.536 36.352 29.184 62.976 65.024 65.024 55.808 3.072 105.472-17.408 152.576-43.52 64.512-34.816 118.272-82.944 161.792-141.824 9.216-12.8 16.384-27.136 24.576-40.448 2.56-3.584 3.072-9.728 10.752-10.24z" fill="#F8A101" /></svg>