<svg class="svg-icon" style="width: 1em;height: 1em;vertical-align: middle;fill: currentColor;overflow: hidden;" viewBox="0 0 1024 1024" version="1.1" xmlns="http://www.w3.org/2000/svg"><path d="M510.464 868.352c-195.584 0-357.376-161.792-356.864-356.864 0.512-194.56 163.328-356.352 358.4-356.352 197.12 0 359.424 162.816 358.4 359.424-1.024 195.072-162.816 354.304-359.936 353.792z m18.944-355.84h215.04c-0.512-6.144 0.512-9.728-0.512-10.752-71.168-71.68-141.824-143.872-214.016-214.016-5.632-5.632-28.672-2.048-36.352 5.12-46.592 43.52-91.136 89.6-136.192 134.656-8.192 8.192-15.872 17.92-30.72 35.328 64 0 117.248 1.024 170.496-0.512 33.28-1.024 55.808 4.608 32.256 50.176zM273.92 514.56c80.896 81.408 153.088 154.624 226.816 226.816 5.12 5.12 26.624 1.536 33.792-5.12 38.4-35.328 75.264-72.704 112.128-109.568 17.408-17.408 33.28-35.328 57.856-61.44-69.632 0-126.464-1.024-183.808 0.512-34.816 0.512-63.488-1.024-48.128-50.176-65.024-1.024-126.464-1.024-198.656-1.024z" fill="#CC1519" /></svg>