<svg class="svg-icon" style="width: 1em;height: 1em;vertical-align: middle;fill: currentColor;overflow: hidden;" viewBox="0 0 1024 1024" version="1.1" xmlns="http://www.w3.org/2000/svg"><path d="M488.79 543.19c20.223-10.88 36.522-22.827 54.783-28.843 42.752-14.08 54.614-42.752 48.683-84.694-2.987-21.248-0.512-43.221-0.512-66.858-7.339 1.749-11.947 2.005-15.659 3.925-26.41 13.653-52.906 27.136-78.677 41.941-5.419 3.158-10.837 11.52-11.008 17.664-1.067 33.707-0.555 67.414-0.384 101.12 0 4.224 1.408 8.363 2.773 15.787M376.32 605.653c17.323-10.112 29.568-18.517 42.88-24.704 13.227-6.101 17.493-14.762 17.152-29.098a1808.64 1808.64 0 0 1 0.427-99.712c0.426-14.08-4.608-22.699-16.214-30.55-34.688-23.466-33.877-24.106 3.542-42.837 62.293-31.19 123.989-63.659 185.984-95.488 5.248-2.73 10.837-4.821 19.712-8.704v22.87c-0.086 54.613 0.426 109.311-0.555 163.925-0.299 16.853 4.65 27.904 20.139 34.73 7.466 3.286 14.08 8.406 24.362 14.72-11.818 6.699-20.48 12.416-29.781 16.726-10.624 4.906-14.592 12.117-14.336 23.893 0.683 31.488 0.213 62.976 0.213 96.64-32.768-21.461-45.056-49.664-36.693-87.296-6.101 0.512-9.685-0.17-12.245 1.152-27.435 14.293-54.955 28.33-81.664 43.819-6.102 3.541-13.483 13.184-12.672 18.901 6.741 47.36-14.464 86.4-35.2 125.696-9.984 18.944-8.363 21.803 12.97 26.027 70.571 13.781 139.776 7.978 204.8-21.76 59.392-27.136 105.216-72.363 144.342-124.288 6.613-8.79 13.824-17.152 20.736-25.728l4.437 2.432c-6.272 15.018-11.733 30.378-18.901 44.928-38.912 78.805-97.28 139.69-177.067 176.042-56.619 25.814-117.888 30.592-180.181 20.139-77.44-13.013-142.166-48.597-193.494-107.264-66.901-76.587-93.909-165.973-80.341-267.179 8.448-62.805 29.61-120.917 65.707-173.141 46.848-67.712 111.274-108.501 192.085-122.965 42.923-7.68 86.144-10.326 129.28-1.024 2.56 0.512 4.992 1.45 11.947 3.498-26.112 3.371-47.616 5.974-69.035 8.918-122.837 17.066-202.965 90.154-249.77 199.808C218.111 507.819 248.703 633.6 345.6 720.64c19.627 17.621 45.099 29.312 69.12 41.387 15.104 7.637 20.224 2.901 20.352-13.952 0.256-32.128-0.299-64.256 0.64-96.342 0.427-12.842-4.693-19.541-15.915-24.405-13.141-5.632-25.728-12.715-43.477-21.675" fill="#183062" /></svg>