<svg class="svg-icon" style="width: 1em;height: 1em;vertical-align: middle;fill: currentColor;overflow: hidden;" viewBox="0 0 1024 1024" version="1.1" xmlns="http://www.w3.org/2000/svg"><path d="M975.276 540.492H787.901s-13.586-0.364-19.19 2.221c-3.766 1.683-14.402 10.602-14.402 10.602L523.244 783.339a9.82 9.82 0 0 1-13.777 0L264.12 538.566a9.734 9.734 0 0 1 0-13.759l245.71-245.345a9.803 9.803 0 0 1 13.777 0L739.734 495.83s8.85 10.306 19.381 13.1c9.821 2.55 23.945-10.081 23.945-10.081l99.89-101.366-291.013-289.539C530.34 46.418 462.653 51.988 436.47 56.24 202.68 94.759 33.368 295.009 33.368 533.934c0 268.682 222.737 483.906 483.334 483.906 256.97 0 471.431-206.513 483.508-466.017 0.121-3.054 0.937-5.396-5.292-9.804-6.42-4.58-19.66-1.51-19.66-1.51M668.856 100.173l255.027 253.431 71.417-68.45s6.108-10.81 8.329-21.429c1.145-5.466-9.44-14.523-9.44-14.523L838.307 93.318C691.272-53.68 528.136 16.973 528.136 16.973s68.07 0.52 140.719 83.199" fill="#0066B3" /></svg>