<svg class="svg-icon" style="width: 1em;height: 1em;vertical-align: middle;fill: currentColor;overflow: hidden;" viewBox="0 0 1024 1024" version="1.1" xmlns="http://www.w3.org/2000/svg"><path d="M889.837 376.247c-171.228 170.13-342.236 341.943-513.39 512L270.756 782.19C412.726 647.314 545.7 501.32 690.596 363.886a148.334 148.334 0 0 1 45.275-30.062c57.783-23.845 116.297-2.34 153.6 42.423z" fill="#F6AB00" /><path d="M133.978 647.534c171.228-170.13 342.163-341.943 513.39-512L753.133 241.37c-141.897 134.876-274.944 280.942-419.84 418.304a149.065 149.065 0 0 1-45.276 30.135c-57.783 23.772-116.224 2.268-153.6-42.496z" fill="#E60012" /><path d="M105.526 617.106l512-512L512.273 0C377.033 141.531 231.551 273.408 93.677 417.865a150.016 150.016 0 0 0-30.208 45.202c-23.918 57.71-2.633 116.224 42.057 154.04z" fill="#F6AB00" /><path d="M918.509 406.894l-512 512L511.689 1024C647.001 882.469 792.41 750.592 930.284 606.062a148.846 148.846 0 0 0 30.208-45.13c23.99-57.71 2.706-116.223-41.984-154.038z" fill="#E60012" /></svg>