<svg class="svg-icon" style="width: 1em;height: 1em;vertical-align: middle;fill: currentColor;overflow: hidden;" viewBox="0 0 1024 1024" version="1.1" xmlns="http://www.w3.org/2000/svg"><path d="M867.84 390.656H762.88c69.632 126.976 23.04 286.72-103.936 356.352-126.976 69.632-286.72 23.04-356.352-103.936-69.632-126.976-23.04-286.72 103.936-356.352 51.2-28.16 110.592-38.4 168.448-29.184v132.608H397.824V645.12H655.36V180.224c-185.856-67.584-391.68 28.16-459.264 214.016s27.648 391.68 214.016 459.264c185.856 68.096 391.68-27.648 459.264-214.016 29.184-79.872 28.672-168.448-1.536-248.832zM574.464 565.76H478.72v-94.72h95.744v94.72z" fill="#007542" /></svg>