<svg class="svg-icon" style="width: 1em;height: 1em;vertical-align: middle;fill: currentColor;overflow: hidden;" viewBox="0 0 1024 1024" version="1.1" xmlns="http://www.w3.org/2000/svg"><path d="M804.77 764.742l-173.614 5.585c-37.701 160.582-348.16 116.83-313.716-86.109 17.687-120.087 179.665-172.683 279.273-81.92a164.77 164.77 0 0 1 40.029 99.142l168.029-3.258c2.327-258.327-290.91-389.586-512-264.378-210.851 120.552-186.182 486.4 34.444 579.956v6.05c-120.553-2.326-252.742-95.883-279.273-206.66l-1.397-598.11c97.28-65.164 202.939-143.36 298.822-208.524l11.637 6.051a3207.447 3207.447 0 0 0 2.792 345.833c60.044-58.182 100.073-119.156 203.87-139.636a352.35 352.35 0 0 1 170.821 8.378 343.04 343.04 0 0 1 64.698 629.294c-6.05 0-18.618 11.637-27.927 13.499a169.89 169.89 0 0 1 10.706-19.084l22.807-86.11z m0 0" fill="#1D2088" /></svg>