<svg class="svg-icon" style="width: 1em;height: 1em;vertical-align: middle;fill: currentColor;overflow: hidden;" viewBox="0 0 1024 1024" version="1.1" xmlns="http://www.w3.org/2000/svg"><path d="M606.208 824.32c-32.256 22.528-67.072 35.328-104.448 40.448-78.848 10.752-148.48-11.776-207.872-65.024-5.12-5.12-9.728-7.68-16.896-9.728-118.272-36.352-154.624-178.176-68.096-266.752 5.12-5.12 6.656-9.728 7.68-15.872 11.776-99.328 107.52-170.496 206.848-153.6 4.096 1.024 7.68 2.048 12.8 3.072-93.696 80.896-131.072 179.2-87.552 296.448 41.984 116.736 132.096 168.96 257.536 171.008z" fill="#009F40" /><path d="M821.76 558.592c-6.144-43.52-21.504-81.92-48.128-116.224-75.776-95.744-211.456-117.248-312.832-49.152-3.072 2.048-5.12 5.12-9.728 5.12 4.096-27.648 14.848-52.224 32.256-72.704 41.472-49.152 94.72-68.096 158.72-57.856 6.144 1.024 10.752 0 16.896-3.072 70.656-43.52 153.6-5.12 165.376 78.848 1.024 6.656 5.12 9.728 9.728 13.824 55.296 53.248 59.904 134.656 11.776 194.048l-4.096 4.096c-8.192 1.024-12.288 11.776-19.968 3.072z" fill="#E60013" /><path d="M326.656 319.488c-41.472 29.184-75.776 65.536-103.424 109.056-2.048 3.072-3.072 6.144-6.656 6.144-3.072-1.024-4.096-5.12-5.12-7.68-11.776-43.52-5.12-82.944 21.504-119.296 12.8-16.896 28.672-30.72 47.104-39.424 5.12-2.048 5.12-6.144 6.144-9.728 3.072-41.472 23.552-71.68 59.904-90.624 37.376-17.92 74.752-15.872 109.056 9.728 8.704 6.656 15.872 6.656 25.6 4.096 55.296-19.456 114.176 5.12 135.68 57.344 2.048 4.096 5.12 6.656 2.048 10.752s-6.656 1.024-9.728 0c-76.8-8.704-151.552 1.024-221.696 33.28-6.144 3.072-12.8 6.656-18.944 9.728-6.656 5.12-14.848 6.656-20.48 11.776-7.168 4.608-14.336 8.704-20.992 14.848z" fill="#FBC801" /><path d="M590.336 708.096c-2.048-2.048-4.096-3.072-6.144-5.12L470.016 588.8c-5.12-5.12-5.12-6.656 0-11.776 38.4-37.376 76.8-75.776 114.176-114.176 4.096-4.096 6.656-4.096 10.752 0l115.2 115.2c5.12 5.12 4.096 6.656 0 10.752L594.944 704c-1.536 1.024-2.56 2.048-4.608 4.096z" fill="#072C86" /><path d="M821.76 558.592c7.68 5.12 10.752-5.12 16.896-4.096-1.024 4.096-5.12 6.656-7.68 8.704-2.048 2.048-4.096 6.144-6.656 4.096-4.608-2.048-3.584-5.632-2.56-8.704z" fill="#C62031" /><path d="M347.136 305.664c5.12-6.656 12.8-9.728 20.48-11.776-4.608 5.632-11.776 9.728-20.48 11.776z" fill="#F9E992" /><path d="M326.656 319.488c6.144-6.656 12.8-11.776 21.504-13.824-7.168 5.632-13.824 10.752-21.504 13.824z" fill="#F4DC73" /></svg>