<svg class="svg-icon" style="width: 1em;height: 1em;vertical-align: middle;fill: currentColor;overflow: hidden;" viewBox="0 0 1024 1024" version="1.1" xmlns="http://www.w3.org/2000/svg"><path d="M868.864 531.456c-2.048 1.536-1.536 5.632-5.12 5.12-2.56 0-4.608 1.024-5.632 3.584-1.536 3.072 4.096 1.024 3.584 4.096-2.56 1.536-6.656 0-9.216 4.608 0-2.56 0-3.584 0.512-4.096 1.536-3.072 0-5.12-2.56-6.144s-3.584 1.536-4.608 3.072c-2.56 4.608-6.144 8.704-7.68 13.824-1.536 3.072-5.632 5.12-6.144 9.216-3.584-1.536-0.512-3.072 0-4.096 2.56-4.608-1.536-7.68-3.584-9.728s-5.632 0-7.68 2.56c-1.536 2.048-2.56 3.584-4.096 5.632-4.096 2.048-4.608 6.656-8.192 9.216-3.072 2.048-5.12 5.12-4.608 9.216l0.512 0.512c0 1.024 0 1.536-0.512 2.048-7.68 6.656-12.288 16.384-18.432 24.064-3.072 4.096-6.656 3.584-9.216-1.024-1.024-2.56-3.072-5.12-1.536-8.192 1.024-1.536 3.072-2.048 4.608-2.048 4.096 0.512 6.144-2.048 7.68-5.12 3.072-2.56 3.584-6.656 6.656-9.216-2.048 0-4.608 1.024-4.608-2.048 0-4.608-2.56-6.656-6.656-4.608-7.168 4.096-13.824 9.216-19.456 15.872-2.048 0-5.12 1.024-5.632 2.56-5.632 11.264-22.528 9.216-26.624 22.528 0 0.512-0.512 0.512-1.024 0.512-9.216 5.632-18.944 9.728-27.648 16.896-1.024 0.512-2.048 1.024-3.072 1.024-3.072 0-5.632 1.536-8.192 2.048-5.632 1.536-11.264 5.12-17.408 4.608-11.264-1.024-22.528 1.024-33.792 2.048-8.704 0.512-17.92 4.096-26.624-1.024-5.632-3.072-11.264-3.072-17.408-1.536-3.072 1.024-6.144 1.024-9.216-0.512-6.656-3.072-13.312-3.584-19.968-4.608-15.872-2.56-30.72-9.728-46.592-10.752-2.56-2.56-5.632-3.584-8.704-3.584-4.096 0.512-7.68-1.024-10.752-3.584-3.584-3.072-7.168-4.096-11.776-3.584-6.656 1.024-12.288-1.536-17.92-3.584-5.632-2.56-11.264-5.632-17.408-6.144-7.68 0-15.36-1.024-22.528-3.072-7.68-2.048-14.848 2.048-22.528 0-3.072-1.024-6.144-1.536-9.216-1.024-11.264 1.024-22.528 1.024-33.792 4.608-6.144 2.048-12.8 2.56-19.456 4.096-5.12 1.024-11.776-2.56-15.36 4.608-0.512 1.024-2.048 0-3.072-0.512-2.56-1.536-4.608-3.072-6.656-4.608-1.536-1.024-2.56-2.048-2.048-4.096s1.024-3.584 3.584-4.096c3.072 0 4.096-2.048 4.096-4.608 0-2.048 1.024-3.584 2.56-5.12 4.096-5.632 8.704-10.752 11.264-16.896 1.536 0 3.072-1.024 3.584-2.56 2.56-6.144 5.632-11.264 9.216-16.896 1.536-2.048 3.584-3.072 5.12-5.632 3.584-5.632 7.168-11.264 13.312-13.824 2.56-1.024 4.096-3.072 3.072-6.144s0.512-4.608 2.56-6.144c3.072-2.048 6.656-4.608 5.12-8.704-1.536-4.608 0-4.608 3.584-3.584 6.144 2.048 10.24-1.536 9.216-8.192-0.512-2.56 0-4.608 2.048-6.144 1.536-1.024 2.048-2.048 2.56-3.584 2.56-4.608 3.072-10.752 8.192-14.336 2.048-1.536 2.56-4.608 0.512-6.656-2.56-3.584-2.048-6.656 1.536-9.728 3.072-2.56 6.656-4.608 7.68-8.704 1.024-6.144 6.144-8.704 9.216-12.8 0.512-0.512 1.536-0.512 1.536-1.024 1.024-8.192 7.68-10.24 13.824-13.312 4.096-2.048 7.68-6.144 6.144-12.288-0.512-2.56-1.536-6.656 2.56-7.168 5.12-0.512 6.144-5.12 9.216-7.68 2.048-2.048 9.728-1.536 5.632-8.192 0.512 0 1.024-0.512 1.536-0.512 4.096-1.024 4.096-4.096 2.56-6.656-1.536-2.56 0-3.584 1.024-5.12 2.048-4.096 6.656-7.168 8.192-11.776-0.512 0-0.512 0.512-1.024 0.512a5.556 5.556 0 0 1 4.096-4.096c2.048-0.512 4.608-1.536 5.632-3.072 3.584-7.168 11.776-10.24 16.384-16.384 4.096-5.632 8.192-5.12 13.312-0.512 1.536 1.536 3.072 3.072 4.608 5.12 1.536 2.048 3.072 3.072 5.632 2.56 5.632-1.024 8.192 3.072 9.728 7.168 2.56 6.656 6.656 11.264 12.8 14.336 2.048 1.024 4.096 1.536 5.12 4.096-0.512 0-1.024-0.512-1.536-0.512 2.048 4.608 2.56 10.24 6.144 13.824 4.096 4.608 6.144 11.264 12.288 13.824 0.512 0.512 1.024 1.536 1.536 2.56 0.512 5.12 5.12 9.216 8.192 11.776 6.656 5.632 8.192 14.336 14.848 19.968 1.536 1.536 3.584 3.584 3.584 5.632 0.512 4.608 3.072 5.12 6.144 4.608-0.512 4.096 4.096 4.608 5.632 6.656 3.072 4.608 7.68 7.68 8.704 13.312 1.024 5.632 4.096 6.656 8.704 5.632v3.072c-1.024 0.512-2.56 1.536-2.56 1.536 3.072 1.536 2.048 6.656 4.608 7.168 6.656 1.024 7.68 6.656 10.752 10.752 3.584 4.096 3.584 10.24 9.728 12.288 1.024 0.512 4.096 4.096 1.024 7.168-0.512 0.512-0.512 2.56 0 2.56 4.608-1.024 2.048 2.048 2.048 3.584s0 3.072 1.536 3.584 3.072 1.024 3.584-1.536c1.024-0.512 2.048-1.024 2.56-1.024 5.12 4.608 11.776 6.144 18.432 7.168 6.144 0.512 10.24 7.168 16.384 9.728 3.072 1.024 6.656 0 8.192 2.048 3.072 2.56 6.656 3.072 9.728 2.048 4.096-1.024 8.192-0.512 12.8-0.512 10.752 1.024 20.992 0 30.72-4.608 3.584-1.536 6.656-4.096 10.752-3.584 2.048 0 3.072-2.048 3.584-4.096 5.632-2.56 11.776-1.536 17.408-3.584 8.192-5.12 14.848-13.312 23.552-17.408 0.512 0 0.512-1.024 1.024-1.536 4.608-10.24 9.728-19.968 17.408-28.672 0.512-0.512 0.512-2.048 0.512-2.56-0.512-13.824 8.704-23.552 13.824-34.816 1.024-2.56 2.56-4.608 1.536-7.168-0.512-1.536-1.024-3.072-1.024-4.608 0-8.704 2.56-16.896 0-25.6-2.048-7.168-0.512-14.848-1.536-22.016 0-2.048 0-5.12-2.56-3.584-6.656 3.584-4.096-0.512-3.584-3.584 0.512-1.024 0.512-2.56 0.512-3.584-1.536-11.264-6.656-20.992-12.8-30.208-8.704-17.92-20.48-34.304-32.768-50.176-28.16-35.84-62.464-65.536-101.888-88.576-42.496-24.576-88.576-39.936-137.216-46.08-35.328-4.096-70.656-3.072-105.472 3.072-44.544 7.68-85.504 23.552-123.904 47.104-20.992 12.8-40.96 27.648-58.368 45.056-12.8 12.288-25.088 24.576-35.328 39.424-2.048 1.536-3.584 3.584-5.12 5.632-14.336 18.944-26.624 38.912-36.864 60.416-19.456 39.936-31.232 79.872-35.328 121.856-3.072 30.72-2.048 60.928 2.56 91.136 5.12 33.28 14.848 65.024 28.672 95.744 11.776 26.112 27.136 49.664 44.544 72.192 1.536 4.608 4.608 7.68 8.192 10.24 6.656 7.168 13.312 14.336 19.968 20.992 43.008 43.008 93.696 72.704 152.064 90.112 25.6 7.68 52.224 12.288 78.848 13.824 70.144 3.584 136.192-11.264 197.632-45.568 6.656-2.048 12.8-5.12 17.408-10.752 13.312-8.192 25.6-17.408 37.376-27.648 29.184-25.088 54.272-53.76 74.24-86.528 5.632-8.704 11.264-17.408 14.848-27.648 5.12-8.192 8.704-16.384 11.776-25.6 1.536-1.536 2.048-3.584 3.072-5.632 7.168-17.92 12.288-36.352 16.384-55.296 3.072-15.36 5.12-31.232 6.656-46.592 0.512-2.56 2.048-5.632-0.512-7.68z m-529.408 83.456c-1.024-0.512-2.048-1.024-2.048-2.048 0.512-1.536 2.048-1.024 3.072-1.536 2.048 1.536 0.512 2.56-1.024 3.584z m8.704 0c-0.512-2.56 0.512-4.608 3.584-4.608-0.512 2.56-1.024 4.608-3.584 4.608z m11.776-3.072c-1.536 1.024-3.072 1.536-4.096 0-1.536-2.048 1.024-2.56 1.536-3.584 2.048-1.536 4.608-1.024 7.68-1.024-2.048 2.048-3.584 3.072-5.12 4.608zM384 609.792c-2.56-2.048-7.168 1.536-11.264 0-0.512-1.536-2.048-2.56-4.096-3.072 9.728-4.608 18.944 1.536 28.16 1.024-3.584 1.024-7.168 6.144-12.8 2.048z m29.696 1.536c-1.536 0-3.072-0.512-3.584-2.048 0-1.536 1.024-2.048 2.56-2.56 3.584-1.536 6.656 0 10.24 3.072-3.584 0.512-6.656 1.024-9.216 1.536z m102.4 10.752z m60.416 29.184c-6.656-3.072-14.336-2.56-20.992-4.096-10.752-3.072-22.016-6.144-32.256-11.264-4.096 0-8.192-1.536-11.776-3.584-5.12-2.56-10.752-3.584-16.384-5.12-13.312-4.096-27.648-5.632-40.96-10.752 1.024-2.56 4.096-2.048 5.12-4.096 4.096 0.512 8.704 0.512 13.312 2.048 2.048 1.024 5.12 1.024 5.632 3.584 1.536 4.608 4.608 5.12 8.192 3.072 4.096-1.536 7.68 0.512 11.264 1.536 6.656 3.072 13.824 5.12 21.504 5.12 4.096 0 8.192 1.024 11.776 4.096l9.216 1.536c2.56 0.512 5.632 0 7.168 1.024 9.728 8.192 22.016 4.096 32.768 7.68 5.12 2.048 8.704 4.096 10.752 9.216-5.12 2.56-9.728 2.56-14.336 0z m51.2 8.704c-5.632 0.512-10.752 0.512-15.872-2.048-2.048-1.024-5.632-1.024-4.608-4.608 1.024-3.072 1.536-6.656 6.144-7.168 6.656-0.512 12.8 2.56 18.944 4.608-2.56 2.56-4.608 5.12-4.608 9.216z m94.208-25.088c-4.608 1.536-8.192 3.584-10.752 7.168-2.048 3.072-5.632 1.536-8.192 2.56-3.584-2.048-4.608 1.024-6.144 3.072-2.56 3.072-5.12 6.656-9.728 3.072-1.536-1.024-3.072-0.512-4.608 0-10.752 2.56-21.504 4.096-31.744 7.168-1.536 0.512-3.584 2.56-4.608-0.512-0.512-2.048 1.024-3.072 2.56-4.096 4.608-2.56 9.728-1.536 14.848-2.048 3.584-0.512 6.656-1.024 8.704-4.608 2.048-3.072 5.12-4.608 8.704-3.584 2.048 0.512 4.096 0.512 5.632-0.512 10.24-5.632 22.016-8.192 33.28-12.8 2.048-1.024 4.096-1.536 5.12 1.024s-1.024 3.584-3.072 4.096z m40.96-25.088c-3.072 3.072-4.608 8.192-10.24 7.68-6.656 1.024-10.752 7.168-16.896 9.728-2.048 0.512-3.584 3.072-5.632 1.024-2.048-2.048 1.024-3.584 2.048-5.12 2.048-3.584 6.144-4.096 8.704-4.608 4.608-0.512 7.68-2.56 11.264-4.608 2.048-2.048 4.608-4.096 6.656-6.656 1.024-1.024 2.048-2.048 3.584-1.024 2.048 1.024 1.536 2.56 0.512 3.584z m64-36.864c0 1.024 0 2.048-0.512 3.072-4.608 0.512-5.12-2.56-4.608-5.632 2.56 0 6.144-3.072 5.12 2.56z" fill="#E60022" /></svg>