<svg class="svg-icon" style="width: 1.875em;height: 1em;vertical-align: middle;fill: currentColor;overflow: hidden;" viewBox="0 0 1920 1024" version="1.1" xmlns="http://www.w3.org/2000/svg"><path d="M1876.928 608.768l-12.8-32-12.8-25.6-19.2-19.2-25.6-19.2-32-19.2-38.4-12.8-44.8-12.8-57.6-12.8-38.4-19.2-12.8-6.4-6.4-12.8-6.4-12.8v-12.8l6.4-19.2v-6.4l12.8-12.8 19.2-6.4 32-6.4 38.4 6.4 38.4 12.8 38.4 12.8 38.4 25.6 70.4-96-51.2-32-51.2-25.6-57.6-12.8h-102.4l-38.4 6.4-38.4 19.2-25.6 19.2-25.6 25.6-19.2 32-12.8 32v76.8l12.8 38.4 12.8 25.6 25.6 19.2 25.6 19.2 32 12.8 83.2 25.6 57.6 19.2 38.4 19.2 12.8 6.4 6.4 12.8v44.8l-12.8 6.4-6.4 6.4-25.6 12.8-38.4 6.4-44.8-6.4-44.8-12.8-44.8-25.6-38.4-32-76.8 96 25.6 19.2 32 19.2 57.6 32 64 12.8 70.4 6.4h44.8l38.4-12.8 38.4-12.8 32-19.2 25.6-25.6 19.2-32 12.8-38.4v-38.4z m-1350.4 0l-6.4-25.6-12.8-19.2-12.8-12.8-19.2-12.8-44.8-25.6 32-19.2 12.8-12.8 12.8-12.8 19.2-32 6.4-19.2v-57.6l-25.6-32-12.8-25.6-25.6-25.6-25.6-12.8-32-19.2-38.4-6.4h-313.6v582.4h320l44.8-12.8 38.4-12.8 32-19.2 25.6-25.6 19.2-25.6 12.8-32v-64l-6.4-19.2z m-358.4-262.4h128l38.4 6.4 25.6 12.8 6.4 6.4 6.4 12.8 6.4 25.6v12.8l-6.4 12.8-12.8 12.8-6.4 6.4-32 12.8h-153.6v-121.6z m236.8 313.6v12.8l-6.4 12.8-12.8 6.4-25.6 12.8h-192v-128h147.2l44.8 6.4 32 12.8 6.4 6.4 6.4 12.8 6.4 25.6-6.4 19.2z" fill="#818282" /><path d="M1384.128 231.168l-38.4-44.8-44.8-38.4-44.8-32-51.2-25.6-57.6-19.2-51.2-19.2-64-6.4-57.6-6.4-64 6.4-57.6 6.4-51.2 19.2-57.6 19.2-51.2 25.6-44.8 32-44.8 38.4-38.4 44.8-6.4 6.4v6.4l6.4 12.8 6.4 6.4 6.4 6.4h19.2l12.8-6.4 32-38.4 38.4-32 44.8-32 44.8-19.2 44.8-19.2 51.2-19.2 57.6-6.4h102.4l51.2 6.4 51.2 19.2 51.2 19.2 44.8 19.2 38.4 32 38.4 32 38.4 38.4 12.8 6.4h19.2l6.4-6.4 6.4-6.4v-19.2z m-6.4 563.2l-6.4-6.4h-19.2l-12.8 6.4-38.4 38.4-38.4 32-38.4 25.6-44.8 25.6-51.2 19.2-51.2 12.8-51.2 12.8h-102.4l-57.6-12.8-51.2-12.8-44.8-19.2-44.8-25.6-44.8-25.6-38.4-32-32-38.4-12.8-6.4h-19.2l-6.4 6.4-6.4 6.4-6.4 6.4v12.8l6.4 6.4 38.4 44.8 44.8 32 44.8 32 51.2 32 57.6 19.2 51.2 19.2 57.6 6.4 64 6.4 57.6-6.4 64-6.4 51.2-19.2 57.6-19.2 51.2-32 44.8-32 44.8-32 38.4-44.8v-25.6z" fill="#ED2024" /><path d="M852.928 467.968l12.8-32 25.6-19.2 19.2-19.2 32-19.2 25.6-6.4 32-6.4 38.4 6.4 38.4 12.8 32 19.2 25.6 32 115.2-89.6-25.6-25.6-19.2-25.6-32-19.2-32-19.2-32-19.2-32-6.4-38.4-6.4-38.4-6.4-32 6.4h-25.6l-57.6 19.2-57.6 32-19.2 12.8-25.6 25.6-19.2 19.2-19.2 25.6-25.6 51.2-19.2 57.6-6.4 32v64l6.4 25.6 19.2 57.6 25.6 57.6 19.2 19.2 19.2 25.6 25.6 19.2 19.2 19.2 57.6 25.6 57.6 19.2 25.6 6.4h70.4l38.4-6.4 38.4-12.8 32-19.2 32-19.2 25.6-19.2 25.6-25.6 25.6-25.6-115.2-89.6-32 25.6-32 25.6-32 12.8-44.8 6.4-32-6.4-32-6.4-25.6-12.8-25.6-19.2-19.2-25.6-12.8-25.6-6.4-32-6.4-32 6.4-32z" fill="#ED2024" /></svg>