<svg class="svg-icon" style="width: 1em;height: 1em;vertical-align: middle;fill: currentColor;overflow: hidden;" viewBox="0 0 1024 1024" version="1.1" xmlns="http://www.w3.org/2000/svg"><path d="M248.832 526.336c13.312-1.024 23.04-3.584 32.768-2.56 14.336 1.024 20.48-3.072 26.112-17.408 27.136-65.024 52.224-131.584 84.992-193.536 32.768-60.928 83.456-107.52 144.896-141.312 8.192-4.608 16.896-7.68 25.6-10.752 48.128-16.384 83.456-3.584 109.568 39.936 29.184 49.152 43.52 103.424 53.76 158.72 16.896 92.672 20.992 185.344-10.24 276.48-7.168 20.992-16.896 41.472-26.112 64.512l24.064 15.36c-50.688 42.496-99.84 85.504-151.04 125.44-34.816 26.624-75.776 35.84-120.832 25.6 1.536-2.048 2.048-4.096 3.072-4.608C581.12 803.84 655.872 698.88 679.936 555.52c19.456-115.2 1.536-226.304-39.424-334.336-12.288-33.28-34.816-41.984-67.584-28.16-34.304 13.824-58.88 40.96-79.872 70.144-77.312 107.52-122.368 226.816-125.952 359.936-0.512 26.624 3.584 52.736 12.8 77.824 13.312 36.864 48.64 46.592 82.432 27.136 30.72-17.408 50.688-45.568 68.608-74.752 52.736-86.528 74.752-181.248 72.704-282.112 0-9.216-3.072-18.432-3.584-27.648-0.512-5.632 0.512-11.264 1.024-16.896l6.656-1.536c3.584 8.192 9.216 16.384 10.24 25.088 4.096 43.52 9.728 87.552 9.216 131.584-0.512 107.52-33.792 204.8-101.376 289.28-22.528 27.648-48.64 51.2-82.944 64-50.688 18.944-102.4 1.024-131.584-45.056-20.992-33.28-27.136-71.168-30.208-109.568-1.536-23.04-2.048-46.08-2.56-69.632-2.56-29.184-7.168-56.832-29.696-84.48" fill="#962146" /></svg>