<svg class="svg-icon" style="width: 1em;height: 1em;vertical-align: middle;fill: currentColor;overflow: hidden;" viewBox="0 0 1024 1024" version="1.1" xmlns="http://www.w3.org/2000/svg"><path d="M16.28 663.954a55.348 55.348 0 1 1 78.295-78.296l341.626 341.625a55.348 55.348 0 1 1-78.296 78.297L16.279 663.954z m0.042-227.693a55.263 55.263 0 0 1 0-78.339 55.22 55.22 0 0 1 78.296 0l199.21 199.253a55.263 55.263 0 0 1 0 78.339 55.22 55.22 0 0 1-78.296-0.043L16.322 436.218zM386.43 806.327a55.263 55.263 0 0 1-0.042-78.34 55.22 55.22 0 0 1 78.338 0.043l199.168 199.253a55.263 55.263 0 0 1 0.043 78.297 55.22 55.22 0 0 1-78.339-0.043L386.43 806.327zM500.277 692.48a55.263 55.263 0 0 1 0-78.339 55.22 55.22 0 0 1 78.296 0l199.21 199.253a55.263 55.263 0 0 1 0 78.339 55.22 55.22 0 0 1-78.338-0.085L500.277 692.48zM130.21 322.329a55.263 55.263 0 0 1-0.042-78.339 55.22 55.22 0 0 1 78.338 0.043l199.168 199.253a55.263 55.263 0 0 1 0.043 78.296 55.22 55.22 0 0 1-78.339-0.043L130.254 322.33z m483.955 256.219a55.263 55.263 0 0 1-0.042-78.339 55.22 55.22 0 0 1 78.338 0.043l199.168 199.21a55.263 55.263 0 0 1 0.043 78.34 55.22 55.22 0 0 1-78.339-0.043L614.166 578.505zM244.058 208.482a55.263 55.263 0 0 1 0-78.339 55.22 55.22 0 0 1 78.339 0.086l199.168 199.167a55.263 55.263 0 0 1 0 78.34 55.22 55.22 0 0 1-78.297 0l-199.21-199.254z m483.998 256.22a55.263 55.263 0 0 1 0-78.34 55.22 55.22 0 0 1 78.296 0.043l199.21 199.253a55.263 55.263 0 0 1 0 78.296 55.22 55.22 0 0 1-78.296 0l-199.21-199.253zM357.947 94.634a55.263 55.263 0 0 1-0.042-78.338 55.22 55.22 0 0 1 78.338 0.042l199.168 199.21a55.263 55.263 0 0 1 0.043 78.34 55.22 55.22 0 0 1-78.339-0.043L357.99 94.55z m227.694-0.042a55.348 55.348 0 1 1 78.296-78.296l341.625 341.625a55.348 55.348 0 1 1-78.296 78.296L585.641 94.593z" fill="#E60012" /></svg>