<svg class="svg-icon" style="width: 1em;height: 1em;vertical-align: middle;fill: currentColor;overflow: hidden;" viewBox="0 0 1024 1024" version="1.1" xmlns="http://www.w3.org/2000/svg"><path d="M794.112 562.176c-16.384-13.824-15.872-30.208 2.048-42.496 66.048-44.032 89.6-115.2 65.024-196.096-20.48-68.608-79.36-109.568-156.672-109.568h-61.44c16.384-22.016 34.816-33.28 50.176-47.104 4.096-4.096 12.8-5.632 9.728-13.312-2.56-6.656-10.752-4.608-16.896-4.608H522.752c-9.728 0-19.968 1.024-27.136 7.68-24.576 21.504-53.248 22.528-83.456 21.504-19.456-1.024-38.4 0-57.856 0-8.704 0-16.384 1.024-23.04 7.168-31.744 31.232-69.632 45.056-114.176 37.888h-4.096c-19.968 0-32.256 8.704-35.84 29.184-4.608 26.624-11.264 52.224-16.384 78.848-5.632 28.16-4.608 29.184 24.064 29.184h518.144c12.8 0 25.6 0 25.088 18.432-0.512 16.896-5.632 27.136-25.088 26.624-37.376-1.024-74.24-0.512-111.616 0-25.088 0-27.648 2.56-27.648 26.624 0 77.824 0.512 155.648-0.512 233.472 0 18.432 5.632 26.112 25.088 25.6 38.4-1.024 77.312 0 115.712-0.512 15.36 0 25.088 3.584 24.576 21.504-0.512 16.384-6.656 23.552-23.552 23.552-160.256-0.512-320.512 0-481.28-0.512-29.696 0-54.784 17.408-64 45.568-8.192 26.112-5.632 53.248-5.632 79.872 0 12.288 7.68 16.384 18.944 16.384H724.48c54.784 0 110.08-37.888 129.024-87.552 34.816-90.112 15.872-163.84-59.392-227.328z" fill="#FBBE01" /><path d="M360.448 561.152c-57.856-0.512-115.712 0.512-173.056-0.512-18.944-0.512-25.6 6.656-25.088 25.088a999.168 999.168 0 0 1 0 78.336c-0.512 18.432 5.632 25.6 24.576 25.6 50.176-1.024 100.352-0.512 150.528-0.512 51.712 0 102.912-0.512 154.624 0 14.848 0 21.504-5.12 20.992-20.48-0.512-81.408 0-162.304 0-243.712 0-14.336-5.632-21.504-20.48-21.504H180.736c-14.848 0-18.944 7.168-18.944 20.48 0.512 24.064 0.512 48.128 0 72.192-0.512 14.848 4.608 19.968 20.48 19.968 59.904-1.024 119.808 0 179.712-0.512 16.896 0 22.528 7.168 23.04 23.552 0.512 18.432-9.216 22.528-24.576 22.016z" fill="#FBBE01" /></svg>