<svg class="svg-icon" style="width: 1em;height: 1em;vertical-align: middle;fill: currentColor;overflow: hidden;" viewBox="0 0 1024 1024" version="1.1" xmlns="http://www.w3.org/2000/svg"><path d="M510.71 147.023c-201.189 0-363.687 159.92-363.687 363.687S312.1 874.398 510.71 874.398s366.267-159.92 366.267-363.688S714.48 147.023 510.71 147.023z m185.713 306.942c7.738 5.158 0 18.055 2.58 25.793 0 5.159-2.58 12.897-7.739 15.476-5.158 2.58-12.896 2.58-18.055 2.58-5.159 7.738-25.793 7.738-20.635 23.214 0 5.158 7.738 15.476 15.476 18.055 7.738 2.58 20.635 0 25.794 2.58 2.58 18.055 2.58 38.69-5.159 54.166-12.897 5.158-18.055 20.634-33.531 18.055-5.159 2.58-15.476 7.738-18.056 15.476 0 15.476 15.476 7.738 23.214 18.056 7.738 0 18.056-5.16 25.794 0 15.476 15.476 2.58 36.11 2.58 54.166l-12.898 15.476c-7.738 2.58-20.634 5.159-33.531 7.738v2.58H626.78c0-5.16-7.738-2.58-12.897-5.16-7.738 5.16-18.055-2.579-25.793-2.579-43.85 5.159-74.801-20.634-118.65-15.476-15.476-12.897-38.69-7.738-59.325-7.738-20.635 15.476-43.849 18.056-69.642 20.635-12.897 2.58-18.056-15.476-25.794-18.055 0-12.897-18.055-20.635-7.738-36.111 12.897-12.897 7.738-30.952 20.635-43.85 0-15.475 2.58-30.951-7.738-38.69 2.58-18.055 2.58-38.69 7.738-56.745 5.159-5.159 12.897-20.635 23.214-12.897 12.897 20.635 51.587-2.579 54.166 25.794 0 23.214-2.58 49.007-23.214 59.325-12.897 18.055-41.27-5.159-43.849 20.634-2.58 12.897 7.738 18.056 18.056 23.215 12.896-5.16 25.793-5.16 36.11-18.056 15.477 0 20.635-18.055 36.111-18.055 12.897 5.158 23.214 5.158 33.532 18.055 5.158 2.58 7.738 5.159 15.476 7.738 15.476 12.897 36.11-7.738 51.587 12.897 7.738 2.58 18.055 2.58 25.793 0 5.159-2.58 12.897-12.897 7.738-18.055 0-5.16 0-7.739-5.158-12.897-5.16-2.58-7.738 0-15.477 0-20.634 2.58-36.11-7.738-54.166-12.897-12.897-7.738-30.952-18.055-33.531-36.11-5.159-5.16-2.58-15.477-7.738-20.636 0-7.738 5.158-12.896 12.896-18.055 15.476-5.159 25.794 7.738 41.27 2.58 7.738-5.16 20.635-2.58 25.793-15.477 5.16-5.158 2.58-18.055-2.579-23.214-2.58-2.58-7.738-2.58-12.897 0-7.738 7.738-23.214 7.738-36.11 5.159-5.16-2.58-15.477-5.159-18.056-12.897 2.58-12.897 0-23.214 12.897-33.531 0-7.738-5.159-15.476-12.897-18.056-15.476 5.159-25.793-30.952-38.69-5.158 0 18.055 5.159 30.952 2.58 49.007-15.477 7.738-33.532 0-49.008 0-15.476-7.738-36.111-18.055-43.85-36.11 2.58-15.477-5.158-25.794 0-41.27-7.737-18.056 7.739-30.952 7.739-43.85 7.738-7.737 18.055-18.054 30.952-12.896 7.738 5.159 18.055 5.159 23.214 18.056 12.897 2.579 23.214 12.896 38.69 7.738 12.897-2.58 15.476-18.056 25.794-18.056 18.055 0 43.849 7.738 56.745-12.896 5.159-2.58 15.476-5.16 18.056-12.897h33.531c2.58 7.738 12.897 15.476 18.056 18.055 33.531 5.159 69.642 12.897 103.173 7.738 5.16 2.58 12.897 2.58 15.477 7.738 0 20.635-2.58 43.85-25.794 56.746-15.476 5.159-43.849-7.738-43.849 15.476 15.476 30.952 49.008 18.055 67.063 28.373z" fill="#C62824" /></svg>