<svg class="svg-icon" style="width: 1em;height: 1em;vertical-align: middle;fill: currentColor;overflow: hidden;" viewBox="0 0 1024 1024" version="1.1" xmlns="http://www.w3.org/2000/svg"><path d="M869.376 305.152c0-0.512-0.512-1.024-0.512-1.024-22.528-22.528-45.056-45.056-67.072-67.584-2.048-2.048-4.608-3.072-7.68-3.072h-240.64c-1.536 0-3.584-0.512-5.12 0.512-1.536 1.536-0.512 3.584-0.512 5.632v178.176c0 4.608 1.536 5.12 5.632 5.12h122.88c5.632 0 5.632 0 5.632 5.632v167.424c0 4.096-1.024 5.12-5.12 5.12H558.08c-3.072 0-6.144-0.512-9.216 0.512-1.536 1.536-0.512 3.584-0.512 5.632v176.64c0 6.144-1.536 6.656 6.656 6.656h232.96c8.192 0 14.336-2.048 18.944-8.704 0-0.512 0.512-0.512 0.512-1.024 5.12-4.608 10.24-9.728 14.848-15.36 0.512 0 1.024-0.512 1.024-0.512l45.056-45.056c1.536-1.536 2.048-3.584 2.048-5.632V309.248c0-1.536 0.512-3.072-1.024-4.096zM471.04 601.088H349.184c-2.048 0-4.096 0-6.144-0.512V428.544c0-5.632 0-5.632 5.632-5.632h119.296c8.704 0 8.704 0 8.704-8.704v-174.08c0-6.144 0-6.656-6.144-6.656H231.936c-1.536 0-3.584-0.512-5.12 0.512-2.048 0.512-3.072 2.048-4.608 3.584-19.456 19.456-39.424 38.912-58.88 58.88-4.096 1.024-6.656 4.096-7.68 7.68-0.512 0.512-0.512 1.024-1.024 1.024-1.536 1.024-0.512 2.56-0.512 3.584v406.016c0 2.56 0.512 4.096 2.56 6.144 10.752 10.24 20.992 20.992 31.744 31.232 6.656 6.656 12.8 13.312 19.968 19.456 4.608 5.632 10.24 10.752 15.872 15.872 0.512 1.024 1.024 1.536 2.048 1.536 1.536 2.048 4.096 1.536 6.144 1.536h239.104c5.632 0 5.632 0 5.632-6.144V606.72c-0.512-5.632-0.512-5.632-6.144-5.632z m-128.512-0.512s0.512 0 0 0c0.512 0 0 0 0 0z" fill="#D7000F" /></svg>