<svg class="svg-icon" style="width: 1em;height: 1em;vertical-align: middle;fill: currentColor;overflow: hidden;" viewBox="0 0 1024 1024" version="1.1" xmlns="http://www.w3.org/2000/svg"><path d="M513.997 1024C229.337 1024 0 794.726 0 513.997 0 229.337 229.338 0 513.997 0 794.727 0 1024 229.338 1024 513.997 1024 794.727 794.726 1024 513.997 1024z m-94.912-913.254c-181.85 43.456-316.263 205.58-316.263 403.25 0 134.44 67.188 257.025 169.984 332.097-43.468-71.155-59.302-217.434-59.302-217.434-7.885-241.19 162.1-316.326 162.1-316.326 86.975-51.38 138.393 3.993 138.393 3.993l35.584 35.533c31.603 35.61 79.104 19.827 79.104 19.827 90.918-43.52 39.526-146.355 39.526-146.355C620.75 106.752 498.19 102.822 419.085 110.746z m166.093 806.502c193.715-31.616 339.993-201.6 339.993-403.251 0-130.445-63.245-249.05-158.131-324.186 90.906 185.818 35.571 343.949 35.571 343.949C751.22 703.808 620.75 727.5 620.75 727.5c-90.944 23.706-122.56-43.468-122.56-43.468-23.731-31.68-59.328-31.68-59.328-31.68-75.11-3.93-86.95 63.283-86.95 63.283 0 7.923-3.969 19.776-3.969 23.706 7.885 75.136 51.38 118.605 51.38 118.605 55.372 55.385 142.323 63.296 185.856 59.302zM403.277 513.997l114.675 114.662 114.65-114.662-114.65-118.605-114.675 118.605z" fill="#A30000" /></svg>