<svg class="svg-icon" style="width: 1.25390625em;height: 1em;vertical-align: middle;fill: currentColor;overflow: hidden;" viewBox="0 0 1284 1024" version="1.1" xmlns="http://www.w3.org/2000/svg"><path d="M0 511.26s124.338-55.446 176.042 0 349.635 395.148 349.635 395.148 129.374 172.345 285.594 99.71S1457.59 466.95 1221.204 189.95c0 0 68.938 203.303-192.029 408.685A1657.843 1657.843 0 0 1 859.787 716.18c-115.236 70.601-145.085 55.446-172.854 37.565-38.166-24.628-295.436-183.435-456.739-302.83 0 0-100.82-82.476-230.194 60.345z" fill="#E60012" /><path d="M306.525 422.593L75.083 279.819s846.988-530.575 1107.77-130.484c0 0-289.106-233.937-876.328 273.258z m425.966-130.484l257.27 167.448-257.27 180.94-270.855-180.94L732.491 292.11z" fill="#EA5504" /></svg>