<svg class="svg-icon" style="width: 1em;height: 1em;vertical-align: middle;fill: currentColor;overflow: hidden;" viewBox="0 0 1024 1024" version="1.1" xmlns="http://www.w3.org/2000/svg"><path d="M352.99455 207.158c13.347-8.297 26.694-15.872 38.96-24.89a236.639 236.639 0 0 0 68.899-68.9 21.644 21.644 0 0 0 2.164-5.05c5.05-10.1 3.968-11.904-6.854-11.904H320.16855a7.215 7.215 0 0 0-7.215 3.968 209.223 209.223 0 0 1-96.314 82.607c-15.873 7.936-32.827 14.79-49.42 21.644s-12.987 5.411-6.494 16.954 15.151 25.612 21.644 38.598a18.758 18.758 0 0 0 19.119 11.544h491.675a123.73 123.73 0 0 1 41.484 5.41 72.146 72.146 0 0 1 16.954 7.937 22.726 22.726 0 0 1 0 42.205 108.219 108.219 0 0 1-57.356 13.347H306.46055a302.652 302.652 0 0 0-123.73 22.726 144.292 144.292 0 0 0-30.301 18.397 62.406 62.406 0 0 0 3.968 108.22 204.173 204.173 0 0 0 88.018 32.826 432.876 432.876 0 0 0 68.538 4.329h381.292a120.123 120.123 0 0 1 46.534 7.575c11.904 4.69 24.169 10.822 24.169 25.612s-12.265 20.2-23.808 24.89a129.863 129.863 0 0 1-49.78 7.936H371.75155a480.492 480.492 0 0 0-104.25 8.297 177.84 177.84 0 0 0-67.818 27.776 68.539 68.539 0 0 0-30.662 59.16v49.78c0 7.576-1.803 10.822-10.1 11.905-48.699 6.854-97.397 15.511-144.292 25.611-12.986 2.886-12.986 2.886-12.986-10.46v-296.16C0.20055 328.724 0.20055 189.482 0.20055 50.241A48.338 48.338 0 0 1 50.34255 0.099h926.354a44.37 44.37 0 0 1 47.256 46.895V766.29c0 9.74-2.164 11.904-11.904 9.74a2231.836 2231.836 0 0 0-277.04-41.845 2371.8 2371.8 0 0 0-365.06-5.411q-31.022 0-61.684 4.328c-6.493 0-9.018 0-8.658-7.575v-29.94a36.073 36.073 0 0 1 31.023-39.32 252.51 252.51 0 0 1 63.85-6.854h345.94a229.063 229.063 0 0 0 121.205-32.466 94.872 94.872 0 0 0 26.333-23.086 54.83 54.83 0 0 0 0-72.146 139.242 139.242 0 0 0-79-45.092 351.712 351.712 0 0 0-93.068-11.182H336.04055a126.977 126.977 0 0 1-53.027-8.297c-11.544-4.69-22.726-11.543-22.726-25.612s11.183-20.561 22.365-25.972a117.959 117.959 0 0 1 49.78-8.658h384.539a303.013 303.013 0 0 0 121.205-21.644 117.598 117.598 0 0 0 47.256-33.187 58.078 58.078 0 0 0 0-79.36 144.292 144.292 0 0 0-74.671-42.567 360.73 360.73 0 0 0-98.48-11.182H365.26055c-4.328 0.721-7.936 2.164-12.265-1.804z" fill="#1781C5" /><path d="M512.07655 1023.85H51.42455a49.78 49.78 0 0 1-40.762-16.232A45.091 45.091 0 0 1 0.20055 979.12V849.618a11.904 11.904 0 0 1 11.182-14.068c48.699-9.74 97.758-18.758 146.817-25.973a13.708 13.708 0 0 1 15.512 6.493 1243.797 1243.797 0 0 0 106.415 131.306c3.607 4.329 8.297 10.461 14.79 6.854s5.05-11.544 5.05-18.037V805.97c0-9.38 2.525-12.986 11.904-13.708a2669.401 2669.401 0 0 1 288.584-6.132c82.247 2.885 163.772 10.1 245.297 20.922 55.552 7.575 110.744 17.315 165.575 28.498a12.626 12.626 0 0 1 11.904 14.429v126.255a44.37 44.37 0 0 1-47.977 47.256z" fill="#FCC006" /></svg>