<svg class="svg-icon" style="width: 1em;height: 1em;vertical-align: middle;fill: currentColor;overflow: hidden;" viewBox="0 0 1024 1024" version="1.1" xmlns="http://www.w3.org/2000/svg"><path d="M604.16 464.384L464.384 604.16c-46.08 46.08-117.76 52.224-168.448 14.848l-77.312-57.856c-80.896-60.416-87.04-180.224-13.312-253.952l102.4-102.4c73.728-73.728 193.536-67.584 253.952 13.312l57.856 77.312c37.376 51.2 30.72 122.88-15.36 168.96z" fill="#881A8A" /><path d="M419.84 464.384L559.616 604.16c46.08 46.08 117.76 52.224 168.448 14.848l77.312-57.856c80.896-60.416 87.04-180.224 13.312-253.952l-102.4-102.4c-73.728-73.728-193.536-67.584-253.952 13.312l-57.344 77.824c-37.888 50.688-31.232 122.368 14.848 168.448z" fill="#881A8A" /><path d="M604.16 559.616L464.384 419.84c-46.08-46.08-117.76-52.224-168.448-14.848l-77.312 57.856c-80.896 60.416-87.04 180.224-13.312 253.952l102.4 102.4c73.728 73.728 193.536 67.584 253.952-13.312l57.856-77.312c37.376-51.2 30.72-122.88-15.36-168.96z" fill="#0051A3" /><path d="M419.84 559.616L559.616 419.84c46.08-46.08 117.76-52.224 168.448-14.848l77.312 57.856c80.896 60.416 87.04 180.224 13.312 253.952l-102.4 102.4c-73.728 73.728-193.536 67.584-253.952-13.312l-57.856-77.312c-37.376-51.2-30.72-122.88 15.36-168.96z" fill="#0051A3" /><path d="M380.416 381.44h261.12v261.12h-261.12z" fill="#FFFFFF" /></svg>