<svg class="svg-icon" style="width: 1.0224609375em;height: 1em;vertical-align: middle;fill: currentColor;overflow: hidden;" viewBox="0 0 1047 1024" version="1.1" xmlns="http://www.w3.org/2000/svg"><path d="M521.315 63.108A448.792 448.792 0 1 0 970.107 511.9 448.792 448.792 0 0 0 521.315 63.108z m0 691.015L279.092 511.9l242.223-242.223L763.538 511.9z" fill="#0C763A" /><path d="M62.051 485.347s216.542 316.024 459.264 30.792c0 0-355.792 153.711-352.925-290.842 0-0.125-109.082 67.07-106.339 260.05z m918.403 53.107s-216.542-315.9-459.139-30.792c0 0 355.668-153.712 352.925 290.842 0 0.125 108.957-67.07 106.214-260.05z" fill="#ECBB1C" /></svg>