<svg class="svg-icon" style="width: 1em;height: 1em;vertical-align: middle;fill: currentColor;overflow: hidden;" viewBox="0 0 1024 1024" version="1.1" xmlns="http://www.w3.org/2000/svg"><path d="M653.824 275.456c-9.728-12.8-18.944-25.6-28.672-38.4-3.072-3.584-3.072-6.144 1.024-9.216 6.144-4.608 12.288-9.216 17.92-14.336 3.584-3.072 5.632-2.048 8.192 1.024 26.624 33.28 52.736 67.072 79.36 100.352 36.864 46.08 73.728 92.16 110.08 138.24 5.632 7.168 11.776 14.336 17.408 22.016 14.848 19.968 14.848 38.912-0.512 58.88-26.112 33.28-52.736 66.048-78.848 98.816-5.12 6.656-10.24 12.8-15.36 19.968-25.088 33.792-25.6 69.632-0.512 103.424 12.8 16.896 26.112 33.28 39.424 50.176 1.024 1.536 3.584 2.56 2.56 4.608-1.024 2.048-3.584 1.024-5.12 1.024H654.336c-3.072 0-5.632 0-7.68-2.56-26.624-34.816-53.248-69.12-79.36-104.448-11.776-15.36-19.456-33.28-21.504-52.224-3.072-27.136 6.656-49.664 24.064-69.632l84.48-95.232 46.08-52.224c20.992-24.576 21.504-66.56 1.024-94.72-13.312-18.432-27.136-36.864-40.96-55.296-2.048-3.072-4.096-7.168-6.656-10.24zM296.448 812.032h-72.192c-2.048 0-4.608 1.024-5.632-1.536-1.024-2.048 1.536-3.072 2.56-4.608 12.8-15.872 26.112-31.744 37.888-48.128 27.648-37.888 26.112-74.752-3.072-110.592-30.208-36.864-59.392-74.24-89.088-111.104-2.56-3.584-5.12-7.68-7.168-11.264-8.704-15.36-8.192-31.232 2.56-45.056 20.48-27.136 41.984-53.248 62.976-79.872 37.376-47.104 74.752-93.696 111.616-140.8 11.776-14.848 24.064-29.696 35.84-45.056 2.048-3.072 4.096-3.584 7.168-1.024 6.144 5.12 12.288 9.728 18.432 14.848 3.584 2.56 4.096 5.12 1.024 8.704-19.968 26.624-39.936 53.76-59.392 80.384-7.68 10.24-16.384 19.968-22.528 31.232-14.848 28.16-15.36 61.952 7.168 88.064 40.96 47.616 82.944 93.696 124.416 140.288 23.552 26.624 36.864 56.32 25.6 92.672-5.12 16.384-13.824 31.232-24.576 45.056l-70.656 92.16c-3.072 4.096-6.144 5.632-11.264 5.632h-71.68z" fill="#457735" /><path d="M625.152 393.216c-16.384 0-32.256 0.512-48.64 0-8.192-0.512-13.824 2.048-19.456 8.192-13.312 13.824-27.136 27.136-40.96 40.96-3.072 2.048-5.12 3.072-8.704-0.512a2920.581 2920.581 0 0 0-56.32-56.32c-1.536-1.536-3.584-3.072-2.56-6.144 0-0.512 0.512-1.024 1.024-2.048 9.216-8.704 17.408-18.432 27.648-25.6 10.24-10.752 20.992-21.504 31.232-32.256h1.024c3.072-0.512 4.608 1.024 6.656 3.072 2.56 3.072 4.608 6.144 8.192 7.68 12.288 11.776 24.064 23.552 36.352 35.328 3.072 3.072 6.144 4.096 10.24 4.096 15.872-0.512 31.744 0 48.128-0.512 13.824 0 13.824 0 10.752-13.312-14.848-67.584-82.944-109.056-150.016-90.624-61.952 17.92-99.84 81.92-84.48 144.384 14.848 60.416 73.216 99.84 134.656 90.624 51.2-7.68 94.72-50.688 101.376-100.352 0.512-5.12-1.024-6.656-6.144-6.656z" fill="#BD2515" /></svg>