<svg class="svg-icon" style="width: 1em;height: 1em;vertical-align: middle;fill: currentColor;overflow: hidden;" viewBox="0 0 1024 1024" version="1.1" xmlns="http://www.w3.org/2000/svg"><path d="M361.472 538.624l-29.696-27.648 29.696-27.648L640 214.016c-71.68-64.512-188.928-64.512-258.048 2.048L206.848 384.512c-71.168 69.12-71.168 181.76 0 250.88l147.456 144.896 126.464-124.416-119.296-117.248z" fill="#C7161E" /><path d="M817.152 384.512L669.696 244.224 543.232 368.64 663.04 485.888l29.696 27.648-29.696 27.648-278.528 269.312c71.168 64.512 186.368 64.512 257.536-2.048l175.104-167.936c71.168-74.24 71.168-184.832 0-256z" fill="#C7161E" /><path d="M630.272 510.976L510.976 393.728 389.12 510.976l124.416 117.248 116.736-117.248z" fill="#BB864F" /></svg>