<svg class="svg-icon" style="width: 1em;height: 1em;vertical-align: middle;fill: currentColor;overflow: hidden;" viewBox="0 0 1024 1024" version="1.1" xmlns="http://www.w3.org/2000/svg"><path d="M352.768 722.432c-7.68 27.136-14.848 51.712-20.992 76.8-3.584 14.848-4.608 30.208-6.144 45.056-1.024 10.752-6.144 17.408-16.384 19.456-8.704 1.536-17.408 2.56-26.112 5.12-12.288 4.096-16.384-0.512-16.896-12.8-4.608-134.656 27.648-259.072 101.888-371.712 6.144-8.704 12.288-17.92 17.92-26.624 0.512-0.512 0-2.048 0-5.12-5.12 0.512-10.24 0-14.848 1.536-25.6 10.752-51.2 22.016-76.288 33.792-12.288 5.632-17.408 4.096-17.408-9.728-0.512-24.064-1.536-48.128 0.512-72.192 1.024-11.264 6.656-22.528 12.8-32.256 44.032-69.632 107.52-112.64 185.344-135.68 56.832-16.384 114.688-28.16 172.032-44.544 32.256-9.216 63.488-23.04 94.72-34.816 4.096-1.536 7.68-3.584 13.312-5.632 0 20.48 1.536 39.936-1.024 58.368-1.024 6.656-11.264 15.36-18.944 17.92a3832.03 3832.03 0 0 1-153.6 49.152c-25.088 7.68-27.648 9.728-20.992 38.4 66.56-12.288 131.072-33.28 195.072-59.392 0 19.456 2.048 36.864-1.024 54.272-1.024 7.68-10.752 16.896-18.432 19.968-43.008 14.848-86.528 28.16-129.536 41.984-7.68 2.56-15.872 4.608-24.064 6.656-27.136 6.656-27.648 7.68-22.528 38.4 67.072-11.264 130.56-34.816 195.584-59.392 0 17.92 1.536 34.304-0.512 49.664-1.536 15.36-14.336 22.016-27.648 27.136-54.272 20.992-109.056 40.448-162.304 64.512-25.088 11.264-47.104 29.184-68.096 47.616-9.216 8.192-15.36 24.064-16.384 37.376-2.56 27.136-1.024 54.784-0.512 82.432 0 16.384 5.12 20.48 21.504 20.48 24.064 0.512 48.128 0.512 72.192 0.512 18.432 0 24.064-5.632 24.064-23.552 0.512-26.112 0-51.712 0-77.824 0-12.8-6.144-19.968-19.456-19.968h-74.752l-1.536-4.608c13.312-8.192 26.112-16.896 39.936-24.064 36.864-20.48 76.288-29.184 117.76-19.456 59.904 14.336 94.208 64.512 89.088 128.512-5.632 73.216-58.88 134.656-135.168 154.112-96.768 24.576-179.712-2.56-250.368-70.656-2.56-1.536-5.632-4.096-11.776-9.216z" fill="#D7000F" /></svg>