<svg class="svg-icon" style="width: 1.04296875em;height: 1em;vertical-align: middle;fill: currentColor;overflow: hidden;" viewBox="0 0 1068 1024" version="1.1" xmlns="http://www.w3.org/2000/svg"><path d="M519.213 438.406s-151.73-5.299-182.139 154.49C309.738 736.434 396.11 767.466 421.042 755c40.827-20.391 28.405-69.81 28.405-127.065 0-69.721 117.003-85.081 130.938 13.356a564.758 564.758 0 0 1-37.977 298.296c-41.004 97.413 24.22 36.151 49.286 13.89 41.539-36.863 153.956-268.332 87.53-405.147 0.044 0-31.967-97.859-160.011-109.924z" fill="#1FA977" /><path d="M438.361 124.483a95.41 95.41 0 1 0 190.82 0 95.41 95.41 0 1 0-190.82 0z" fill="#C22240" /><path d="M914.343 225.102c50.042-17.185 69.944-37.621 100.396-39.09 56.81-2.805 7.747 43.275 7.747 43.275-89.088 84.77-342.238 141.802-541.429 167.09s-280.487 52.447-347.27 15.627c-84.012-46.436-107.475-96.746-107.43-146.61 0 0-1.024-36.597 46.436-38.378 31.744-1.202 78.714 4.497 142.38 13.312 182.54 25.289 486.044 57.968 699.17-15.226z" fill="#1FA977" /></svg>