<svg class="svg-icon" style="width: 1em;height: 1em;vertical-align: middle;fill: currentColor;overflow: hidden;" viewBox="0 0 1024 1024" version="1.1" xmlns="http://www.w3.org/2000/svg"><path d="M772.111 504.801l1.454 14.32 1.455 14.301 1.454 14.32 1.454 14.3 1.454 14.322 1.454 14.32 1.454 14.32 1.454 14.301 1.454 14.32 1.454 14.321 1.45 14.3 1.453 14.321 1.454 14.32 1.454 14.321 1.454 14.3 1.455 14.321 1.454 14.32 1.454 14.3 1.454 14.322 1.454 14.32 1.454 14.32 1.428 14.07a563.732 563.732 0 0 0-34.467-28.39 484.997 484.997 0 0 0-42.368-28.641 439.23 439.23 0 0 0-55.645-28.62 417.782 417.782 0 0 0-38.61-14.322 395.976 395.976 0 0 0-62.151-14.3 385.034 385.034 0 0 0-110.756 0 400.62 400.62 0 0 0-62.874 14.3 422.605 422.605 0 0 0-38.64 14.321 441.798 441.798 0 0 0-30.439 14.32 464.343 464.343 0 0 0-25.436 14.3 476.657 476.657 0 0 0-22.39 14.322 502.277 502.277 0 0 0-20.075 14.32 522.21 522.21 0 0 0-18.202 14.32 540.698 540.698 0 0 0-16.353 14.07l1.372-14.07 1.393-14.32 1.398-14.32 1.392-14.321 1.388-14.3 1.392-14.32 1.398-14.322 1.388-14.3 1.392-14.32 1.398-14.321 1.393-14.32 1.387-14.3 1.398-14.321 1.393-14.321 1.387-14.3 1.393-14.32 1.398-14.321 1.392-14.321 1.388-14.3 1.397-14.32 1.388-14.301 1.393-14.32H6.4v514.078h1011.2v-514.1H772.111z" fill="#793579" /><path d="M256.338 504.801l1.398-14.32 1.397-14.321 1.388-14.3 1.393-14.32 1.397-14.321 1.388-14.3 1.393-14.321 1.397-14.32 1.393-14.322 1.387-14.3 1.398-14.32 1.393-14.321 1.387-14.3 1.393-14.32 1.398-14.321 1.392-14.321 1.393-14.3 1.393-14.32 1.387-14.301 1.393-14.32 1.085-11.111h456.56l1.132 11.11 1.455 14.321 1.448 14.3 1.46 14.32 1.449 14.301 1.454 14.32 1.454 14.321 1.454 14.32 1.454 14.301 1.454 14.32 1.454 14.321 1.454 14.3 1.454 14.321 1.454 14.32 1.454 14.321 1.455 14.3 1.454 14.321 1.454 14.32 1.505 14.301 1.454 14.32 1.454 14.321h245.489V5.12H6.395v499.681h249.943z" fill="#DE0319" /><path d="M6.4 5.12h1011.2v13H6.4z" fill="#E50012" /><path d="M6.4 18.12h1011.2v14.32H6.4z" fill="#E30114" /><path d="M6.4 32.44h1011.2v14.3H6.4z" fill="#E20215" /><path d="M6.4 46.74h1011.2v14.321H6.4z" fill="#E00317" /><path d="M6.4 61.061h1011.2v14.32H6.4z" fill="#DE0319" /><path d="M6.4 75.382h1011.2v14.3H6.4z" fill="#DC041A" /><path d="M6.4 89.682h1011.2v14.32H6.4z" fill="#DB051C" /><path d="M6.4 104.003h1011.2v14.32H6.4z" fill="#D9061D" /><path d="M6.4 118.318h1011.2v14.32H6.4z" fill="#D7071F" /><path d="M6.4 132.639h1011.2v14.3H6.4z" fill="#D60821" /><path d="M6.4 146.939h1011.2v14.32H6.4z" fill="#D40822" /><path d="M6.4 161.26h1011.2v14.32H6.4z" fill="#D20924" /><path d="M6.4 175.58h1011.2v14.3H6.4z" fill="#D00A26" /><path d="M6.4 189.88h1011.2v14.321H6.4z" fill="#CF0B27" /><path d="M6.4 218.522h277.842l1.09-11.11h456.556l1.132 11.11h274.58V204.2H6.4z" fill="#CD0C29" /><path d="M284.242 218.522H6.4v14.32h276.45z m460.226 14.32H1017.6v-14.32H743.02z" fill="#CB0D2A" /><path d="M745.923 247.142H1017.6v-14.3H744.468z m-463.074-14.3H6.4v14.3h275.062z" fill="#CA0D2C" /><path d="M281.462 247.142H6.4v14.316h273.659z m465.92 14.316H1017.6v-14.316H745.923z" fill="#C80E2E" /><path d="M280.059 261.458H6.4v14.3h272.271z m468.772 14.3H1017.6v-14.3H747.382z" fill="#C60F2F" /><path d="M278.671 275.758H6.4v14.32h270.868z m471.619 14.32h267.31v-14.32H748.83z" fill="#C41031" /><path d="M751.739 304.4H1017.6v-14.321H750.29z m-474.47-14.321H6.4v14.32h269.47z" fill="#C31133" /><path d="M275.87 304.4H6.4v14.32h268.078z m477.328 14.32H1017.6V304.4H751.739z" fill="#C11234" /><path d="M274.478 318.72H6.4v14.3h266.69z m480.174 14.3H1017.6v-14.3H753.198z" fill="#BF1336" /><path d="M756.111 347.34H1017.6v-14.32H754.652z m-483.02-14.32H6.4v14.32h265.288z" fill="#BE1337" /><path d="M271.688 347.34H6.4v14.321h263.89z m485.872 14.321h260.04v-14.32H756.111z" fill="#BC1439" /><path d="M270.29 361.661H6.4v14.3h262.502z m488.73 14.3h258.58v-14.3H757.56z" fill="#BA153B" /><path d="M268.902 375.962H6.4v14.32h261.11z m491.566 14.32H1017.6v-14.32H759.02z" fill="#B8163C" /><path d="M267.51 390.282H6.4v14.316h259.712z m494.418 14.316H1017.6v-14.316H760.468z" fill="#B7173E" /><path d="M763.382 418.918H1017.6v-14.32H761.928z m-497.27-14.32H6.4v14.32h258.31z" fill="#B51840" /><path d="M264.71 418.918H6.4v14.3h256.922z m500.131 14.3H1017.6v-14.3H763.382z" fill="#B31841" /><path d="M766.29 447.54h251.31v-14.321H764.841z m-502.968-14.321H6.4v14.32h255.519z" fill="#B21943" /><path d="M261.919 447.54H6.4v14.32h254.131z m505.83 14.32H1017.6v-14.32H766.29z" fill="#B01A44" /><path d="M769.198 476.16H1017.6v-14.3H767.75z m-508.667-14.3H6.4v14.3h252.739z" fill="#AE1B46" /><path d="M259.139 476.16H6.4v14.32h251.34z m511.513 14.32H1017.6v-14.32H769.198z" fill="#AC1C48" /><path d="M772.111 504.801H1017.6v-14.32H770.652z m-514.37-14.32H6.4v14.32h249.938z" fill="#AB1D49" /><path d="M773.56 519.122h244.04v-14.32H772.111z m-517.222-14.32H6.4v14.32h248.55z" fill="#A91D4B" /><path d="M254.95 519.122H6.4v14.3h247.158z m520.07 14.3h242.58v-14.3H773.56z" fill="#A71E4D" /><path d="M776.468 547.738H1017.6v-14.316H775.02z m-522.91-14.316H6.4v14.316h245.76z" fill="#A61F4E" /><path d="M777.928 562.038H1017.6v-14.3H776.468z m-525.768-14.3H6.4v14.3h244.372z" fill="#A42050" /><path d="M779.382 576.358H1017.6v-14.32H777.928z m-528.61-14.32H6.4v14.32h242.97z" fill="#A22152" /><path d="M249.37 576.358H6.4v14.321h241.572zM780.84 590.68H1017.6v-14.32H779.382z" fill="#A02253" /><path d="M247.972 590.679H6.4v14.32h240.18z m534.318 14.32h235.31v-14.32H780.841z" fill="#9F2355" /><path d="M246.58 605H6.4v14.3h238.792z m537.17 14.3h233.85V605H782.29z" fill="#9D2356" /><path d="M785.198 633.62H1017.6V619.3H783.75zM245.192 619.3H6.4v14.32h237.389z" fill="#9B2458" /><path d="M786.662 647.941H1017.6v-14.32H785.198z m-542.873-14.32H6.4v14.32h235.991z" fill="#9A255A" /><path d="M242.391 647.941H6.4v14.3h234.598z m545.72 14.3H1017.6v-14.3H786.662z" fill="#98265B" /><path d="M789.56 676.562h228.04v-14.32H788.111z m-548.562-14.32H6.4v14.32h233.21z" fill="#96275D" /><path d="M791.02 690.883h226.58v-14.321H789.56z m-551.41-14.321H6.4v14.32h231.808z" fill="#94285F" /><path d="M792.468 705.198H1017.6v-14.315H791.02z m-332.38 0H570.84a385.362 385.362 0 0 0-110.75 0z m-221.88-14.315H6.4v14.315h230.41z" fill="#932860" /><path d="M793.928 719.498H1017.6v-14.3H792.468z m-557.118-14.3H6.4v14.3h229.018z m396.18 14.3a397.128 397.128 0 0 0-62.151-14.3h-110.75a400.681 400.681 0 0 0-62.88 14.3h235.782z" fill="#912962" /><path d="M358.569 733.819h313.032a418.166 418.166 0 0 0-38.61-14.32H397.21a426.793 426.793 0 0 0-38.641 14.32z m-123.151-14.32H6.4v14.32h227.62z m559.964 14.32H1017.6v-14.32H793.928z" fill="#8F2A63" /><path d="M328.13 748.14h373.74a441.743 441.743 0 0 0-30.27-14.321H358.57c-10.24 4.362-20.398 9.113-30.438 14.32z m-94.11-14.321H6.4v14.32h226.232z m562.821 14.32H1017.6v-14.32H795.382z" fill="#8E2B65" /><path d="M302.7 762.44h424.55a467.405 467.405 0 0 0-25.38-14.3H328.13a466.125 466.125 0 0 0-25.43 14.3z m495.59 0h219.31v-14.3H796.841z m-565.658-14.3H6.4v14.3h224.84z" fill="#8C2C67" /><path d="M280.31 776.76h469.32a493.773 493.773 0 0 0-22.38-14.32H302.7a478.162 478.162 0 0 0-22.39 14.32z m-49.07-14.32H6.4v14.32h223.442z m568.51 14.32h217.85v-14.32H798.29z" fill="#8A2D68" /><path d="M260.23 791.081h509.388a522.158 522.158 0 0 0-19.989-14.32H280.31a502.426 502.426 0 0 0-20.08 14.32z m540.968 0H1017.6v-14.32H799.75z m-571.356-14.32H6.4v14.32h222.039z" fill="#882E6A" /><path d="M802.662 805.402H1017.6V791.08H801.198zM260.23 791.08a528.42 528.42 0 0 0-18.201 14.32h545.669a539.587 539.587 0 0 0-18.08-14.32H260.23z m-31.79 0H6.4v14.32h220.652z" fill="#872E6C" /><path d="M804.09 819.471a578.877 578.877 0 0 0-16.388-14.07H242.028a547.942 547.942 0 0 0-16.349 14.07l1.373-14.07H6.4v14.3h1011.2v-14.3H802.662l1.429 14.07z" fill="#852F6D" /><path d="M6.4 819.702h1011.2v14.32H6.4z" fill="#83306F" /><path d="M6.4 834.022h1011.2v14.321H6.4z" fill="#823170" /><path d="M6.4 848.338h1011.2v14.3H6.4z" fill="#803272" /><path d="M6.4 862.638h1011.2v14.32H6.4z" fill="#7E3374" /><path d="M6.4 876.959h1011.2v14.32H6.4z" fill="#7C3375" /><path d="M6.4 891.28h1011.2v14.3H6.4z" fill="#7B3477" /><path d="M6.4 905.58h1011.2v14.32H6.4z" fill="#793579" /><path d="M6.4 919.9h1011.2v14.32H6.4z" fill="#77367A" /><path d="M6.4 934.22h1011.2v14.301H6.4z" fill="#76377C" /><path d="M6.4 948.521h1011.2v14.32H6.4z" fill="#74387D" /><path d="M6.4 962.842h1011.2v14.32H6.4z" fill="#72387F" /><path d="M6.4 977.162h1011.2v14.32H6.4z" fill="#703981" /><path d="M6.4 991.478h1011.2v14.3H6.4z" fill="#6F3A82" /><path d="M6.4 1005.778h1011.2v13.102H6.4z" fill="#6D3B84" /></svg>