<svg class="svg-icon" style="width: 1em;height: 1em;vertical-align: middle;fill: currentColor;overflow: hidden;" viewBox="0 0 1024 1024" version="1.1" xmlns="http://www.w3.org/2000/svg"><path d="M527.1 827c-176 0-319.5-141.5-319.5-315 0-161.1 123.6-294.6 282.2-312.9V65.3C256.8 84.1 72.7 277.5 72.7 512c0 246.8 204.1 448.2 454.4 448.2 136.7 0 259.7-60.2 343.1-155L775 710c-58.6 71.2-148 117-247.9 117z" fill="#0B92BF" /><path d="M847.4 526.9c-12.9-11.3-13.8-20.4-1.1-31 28-27.3 55.9-54.6 83.8-82 17.9-17.8 27.7-44.8 16.4-74.1-67.4-159-225.2-271.9-409.4-275.9v133.2c112.5 3.5 208.5 62.6 262.5 152.6L735 414.4 595.7 275.1c-38.6-38.4-100.9-38.3-139.4 0.1L289.5 442c-38.5 38.5-38.5 101 0 139.5l161.3 161.3c38.3 38.4 100.5 38.5 139.1 0.4l142.4-138.3 74.4 69.5 22.7 23 70.4 70.4c18.6-26.3 34.3-54.5 46.9-84.1 8.1-21.1 4.2-52.4-11.3-68.8-29.6-29.2-58.5-58.9-88-88z m-222.8-6.6l-89.3 89.4c-3 3.1-7.2 4.9-11.6 4.9-4.4 0-8.4-1.8-11.2-4.7l-89.6-89.6c-3.2-3-5-7.2-5-11.6 0-4.4 1.8-8.4 4.7-11.3l89.9-89.8c3-3 7-4.7 11.2-4.7 4.4 0 8.6 1.8 11.6 4.9l89.6 89.6c3 3 4.7 7.1 4.7 11.3 0 4.6-1.9 8.6-5 11.6z" fill="#0B92BF" /></svg>