<svg class="svg-icon" style="width: 1em;height: 1em;vertical-align: middle;fill: currentColor;overflow: hidden;" viewBox="0 0 1024 1024" version="1.1" xmlns="http://www.w3.org/2000/svg"><path d="M568.398894 932.192986l-45.673509-5.077945c1.727981-8.40491 4.201955-15.039838 7.46592-19.860787 3.242965-4.820948 7.893915-8.980904 14.058849-12.543865 4.351953-2.580972 10.409888-4.564951 18.069805-5.951936a139.945497 139.945497 0 0 1 24.916733-2.132977c14.313846 0 25.855722 0.852991 34.516629 2.537972 8.703907 1.706982 15.956829 5.247944 21.759766 10.602887 4.074956 3.73296 7.316921 8.959904 9.663896 15.76483 2.324975 6.826927 3.476963 13.290857 3.476963 19.519791v58.026376c0 6.164934 0.426995 11.029882 1.130988 14.527844 0.767992 3.519962 2.367975 7.978914 4.884947 13.439856h-44.884517a53.332427 53.332427 0 0 1-3.540962-7.722917 60.863346 60.863346 0 0 1-1.621983-8.36191c-6.249933 6.377931-12.521865 10.900883-18.708799 13.609853-8.489909 3.626961-18.324803 5.418942-29.482683 5.418942-14.88984 0-26.217718-3.647961-33.940636-10.900883a35.34962 35.34962 0 0 1-11.562875-26.837711c0-10.004893 2.75197-18.196805 8.34191-24.596736 5.56794-6.463931 15.78583-11.220879 30.74067-14.378846a672.845772 672.845772 0 0 0 34.943624-7.977914c5.289943-1.514984 10.964882-3.541962 16.874819-5.994936 0-6.207933-1.194987-10.516887-3.583961-12.99186-2.453974-2.452974-6.698928-3.73296-12.842862-3.73296-7.829916 0-13.695853 1.364985-17.620811 3.988957-3.007968 2.069978-5.525941 5.951936-7.381921 11.626875m41.450555 26.473716a213.647705 213.647705 0 0 1-20.52278 6.591929c-9.705896 2.709971-15.892829 5.397942-18.431802 8.021914a12.799863 12.799863 0 0 0-4.009957 9.3009 12.799863 12.799863 0 0 0 3.945958 9.706896c2.623972 2.495973 6.50693 3.775959 11.583876 3.775959 5.333943 0 10.23989-1.343986 14.86984-4.053956 4.585951-2.75197 7.828916-6.079935 9.748895-9.961893 1.919979-3.946958 2.83697-9.045903 2.83697-15.295836v-8.085913m91.477017-69.012259h44.564521v21.375771c6.676928-8.746906 13.396856-14.975839 20.223783-18.709799 6.804927-3.774959 15.103838-5.694939 24.895733-5.694939 13.226858 0 23.572747 4.180955 31.082666 12.479866 7.46592 8.297911 11.17788 21.076774 11.17788 38.399587v83.540103H785.271564V948.789808c0-8.255911-1.429985-14.079849-4.329953-17.492812-2.944968-3.455963-6.976925-5.162945-12.224869-5.162945a17.023817 17.023817 0 0 0-14.079848 6.932926c-3.604961 4.607951-5.417942 12.906861-5.417942 24.895732v63.082323h-47.850486V889.654443m176.553103-50.026462h48.873475v93.566994l35.754616-43.540532h58.879368l-44.820519 46.036506 47.380491 85.354083h-53.929421l-25.279728-52.692434-17.984807 18.516801v34.175633h-48.873475V839.627981M170.131172 397.990725c167.102205-84.629091 326.332494-108.88483 476.005887-60.309352-53.97242 65.471297-88.319051 130.921594-103.038893 196.41389 46.356502-12.628864 86.676069-12.628864 124.308665-6.889926-127.209633 99.027936-169.44918 240.658415-204.457804 385.936854 82.176117-188.157979 192.617931-335.036401 353.341204-408.336614-48.533479-26.98671-114.51677-35.605618-197.949873-25.855722 39.935571-58.730369 90.345029-112.425792 178.302084-148.158408-215.784682-159.998281-490.106735-75.583188-626.51127 67.199278M486.629773 0C754.658893 0 973.279545 230.227527 973.279545 512.527494c0 101.972905-28.543693 197.139882-77.610166 277.117023H783.031589c62.33533-73.833207 100.286923-170.942164 100.286922-277.117023 0-230.098528-178.217086-417.787512-396.688738-417.787512S89.962034 282.428966 89.962034 512.527494c0 182.228042 111.763799 337.810371 266.770134 394.683761 66.644284-501.135617-29.098687-451.685148-119.550716-447.227196 279.506997-135.272547 244.392375 252.435288 138.238515 550.010091a368.892037 368.892037 0 0 1-2.474973-4.60795v5.482941C159.443287 956.725723 0 753.655904 0 512.549494 0 230.247527 218.600652 0 486.629773 0" fill="#C71015" /></svg>