<svg class="svg-icon" style="width: 1em;height: 1em;vertical-align: middle;fill: currentColor;overflow: hidden;" viewBox="0 0 1024 1024" version="1.1" xmlns="http://www.w3.org/2000/svg"><path d="M841.728 306.176l-27.648-35.328s-98.816 17.92-96.256-40.448c0 0 7.68-40.448-65.536-22.528 0 0-17.92-17.92-17.92-22.528 0 0 2.56-22.528-70.656-10.24 0 0-116.224 12.8-242.688 156.672 0 0-126.464 105.984-126.464-2.56 0 0-68.096 70.656-30.208 126.464 0 0 40.448 58.368 123.904 10.24 0 0-22.528 194.56 105.984 298.496 0 0 136.704 126.464 290.816 83.456 0 0 129.024-27.648 182.272-156.672 0 0-22.528 22.528-35.328 20.48 0 0 35.328-40.448 37.888-60.928 0 0 0-22.528-20.48 12.8 0 0 2.56-22.528-10.24-12.8 0 0-68.096 78.336-98.816 86.016 0 0-220.16 129.024-318.464-129.024 0 0-40.448-123.904 58.368-215.04 98.816-93.696 199.68-83.456 288.256-17.92 0 0 45.568-50.688 65.536-40.448-2.048-3.072 15.36-13.312 7.68-28.16z" fill="#E60012" /><path d="M538.624 460.288h215.04V624.64h-215.04V460.288z" fill="#E60012" /></svg>