<svg class="svg-icon" style="width: 1em;height: 1em;vertical-align: middle;fill: currentColor;overflow: hidden;" viewBox="0 0 1024 1024" version="1.1" xmlns="http://www.w3.org/2000/svg"><path d="M626.176 585.728l-5.12-62.464-112.64-32.768 52.736-102.912-52.736-47.616-100.352 55.296-37.376-107.52h-65.536l-27.648 115.2-107.52-52.736-45.056 50.176 57.856 100.352-112.64 39.936 5.12 65.024 112.64 34.816-50.176 100.352 47.616 47.616 102.912-59.904 34.816 110.08H345.6l45.056-2.56 32.768-110.08 100.352 50.176 50.176-52.736-59.904-97.792 112.128-39.936z m-97.792 142.848c2.56 2.56 0 5.12-2.56 2.56L370.688 601.088c-2.56-2.56-12.288-2.56-12.288 5.12l2.56 200.192c0 7.68-5.12 7.68-5.12 0L345.6 701.44l-7.68-90.624c-2.56-7.68-5.12-10.24-10.24-7.68L189.952 738.304c-2.56 2.56-7.68 0-2.56-2.56l115.2-147.968c5.12-7.68 2.56-12.288-5.12-12.288L104.96 573.44c-2.56 0-2.56-2.56 0-2.56l195.584-19.968c7.68 0 10.24-7.68 5.12-12.288l-135.68-145.408c-2.56-5.12 0-5.12 2.56-2.56l150.528 130.048c7.68 5.12 14.848 2.56 14.848-5.12l7.68-197.632c0-2.56 2.56-2.56 2.56 0l2.56 32.768 12.288 165.376c0 7.68 7.68 10.24 12.288 5.12l135.168-135.168c2.56-2.56 5.12 0 2.56 2.56l-120.32 150.528c-2.56 2.56-2.56 12.288 5.12 12.288l195.584 5.12c2.56 0 2.56 2.56 0 2.56l-200.192 17.408c-5.12 0-7.68 7.68-5.12 12.288l140.288 139.776z" fill="#F08300" /><path d="M953.856 382.976l-7.68-47.616-87.552-14.848 32.768-80.384-42.496-30.208-72.704 50.176-34.816-77.824-50.176 5.12-10.24 87.552-84.992-34.816-30.208 39.936 50.176 70.144-80.384 37.376 7.68 47.616 87.552 19.968-30.208 77.824 39.936 32.768 72.704-52.736 32.768 70.144v12.288l50.176-7.68 14.848-84.992 80.384 30.208 32.768-42.496-50.176-70.144 79.872-37.376z m-62.464 115.2c2.56 2.56 0 5.12-2.56 2.56l-125.44-87.552c-2.56-2.56-10.24 0-7.68 5.12l14.848 150.528c0 5.12-2.56 5.12-5.12 0l-25.088-130.048-2.56-12.288c-2.56-7.68-5.12-7.68-7.68-5.12l-92.672 110.08c-2.56 2.56-5.12 0-2.56-2.56l77.824-120.32c2.56-5.12 0-10.24-5.12-10.24L563.2 410.624c-2.56 0-2.56-2.56 0-2.56l145.408-30.208c7.68-2.56 7.68-7.68 2.56-10.24l-115.2-95.232c-2.56-2.56 0-5.12 2.56-2.56l120.32 84.992c7.68 5.12 12.288 2.56 10.24-5.12l-10.24-150.528s2.56-2.56 2.56 0l19.968 117.76 5.12 30.208c0 5.12 7.68 7.68 10.24 2.56l92.672-110.08c0-2.56 2.56 0 2.56 2.56l-77.824 120.32c-2.56 2.56 0 10.24 5.12 7.68l147.968-10.24c2.56 0 2.56 2.56 0 2.56l-147.968 27.648c-5.12 0-5.12 7.68-2.56 10.24l114.688 97.792z" fill="#FDD000" /></svg>