<svg class="svg-icon" style="width: 1em;height: 1em;vertical-align: middle;fill: currentColor;overflow: hidden;" viewBox="0 0 1024 1024" version="1.1" xmlns="http://www.w3.org/2000/svg"><path d="M163.328 716.288c-5.632 0-9.728 4.608-9.728 9.728V819.2c0 8.704 10.752 12.8 16.896 6.656l92.672-92.672c6.144-6.144 2.048-16.896-7.168-16.896h-92.672z m314.88-212.48L318.976 344.576c-2.048-2.048-4.608-3.072-7.168-3.072h-148.48c-5.632 0-9.728 4.608-9.728 9.728V670.72c0 5.632 4.608 9.728 9.728 9.728h147.968c2.56 0 5.12-1.024 7.168-3.072L478.72 517.12c3.584-3.072 3.584-9.216-0.512-13.312zM170.496 196.096c-6.144-6.144-16.384-2.048-16.896 6.656v93.696c0 5.632 4.608 9.728 9.728 9.728h93.696c8.704 0 13.312-10.752 7.168-16.896l-93.696-93.184zM809.472 870.4c33.792 0 60.928-27.648 60.928-60.928V576c0-8.704-10.752-13.312-16.896-7.168L568.832 853.504c-6.144 6.144-2.048 16.896 7.168 16.896h233.472zM666.624 315.904L507.392 156.672c-2.048-2.048-4.608-3.072-7.168-3.072h-299.52c-8.192 0.512-11.776 10.752-5.632 16.896l308.736 308.736c4.096 4.096 10.24 4.096 13.824 0L666.624 330.24c3.584-4.096 3.584-10.752 0-14.336zM870.4 214.528c0-33.792-27.648-60.928-60.928-60.928H578.048c-8.704 0-13.312 10.752-7.168 16.896L853.504 453.12c6.144 6.144 16.896 2.048 16.896-7.168V214.528zM691.712 354.816L193.024 853.504c-5.632 5.632-2.56 15.872 5.632 16.896 2.048 0 4.096 0.512 6.144 0.512h292.864c2.56 0 5.12-1.024 7.168-3.072l349.696-349.696c4.096-4.096 4.096-10.24 0-13.824L705.536 355.328c-4.096-4.608-10.24-4.608-13.824-0.512z" fill="#C3182B" /></svg>