<svg class="svg-icon" style="width: 1em;height: 1em;vertical-align: middle;fill: currentColor;overflow: hidden;" viewBox="0 0 1024 1024" version="1.1" xmlns="http://www.w3.org/2000/svg"><path d="M835.584 435.712c19.968 62.976 18.944 141.824-1.024 204.288-36.352 114.688-126.976 198.656-251.392 224.256-68.096 13.824-142.848 3.072-201.216-23.04C266.24 789.504 172.032 675.84 185.344 496.64c25.088 52.224 62.976 94.72 116.224 121.856 53.248 27.136 133.632 34.304 196.608 9.216 53.76-21.504 98.304-61.44 125.44-112.64 25.088-47.104 43.008-129.536 14.848-195.584 8.192 70.144-21.504 127.488-57.344 163.328s-84.992 55.296-135.68 53.76C341.504 535.04 256.512 453.632 256 346.112c-0.512-56.32 20.992-97.28 50.688-130.048 32.768-36.352 83.968-67.584 159.232-61.952 39.936 3.072 70.144 17.92 95.232 36.864 7.68 5.632 15.36 15.872 24.064 19.456 14.336 6.144 32.768 7.168 47.104 12.8 97.28 35.84 169.984 108.032 203.264 212.48" fill="#DC0917" /></svg>