<svg class="svg-icon" style="width: 1em;height: 1em;vertical-align: middle;fill: currentColor;overflow: hidden;" viewBox="0 0 1024 1024" version="1.1" xmlns="http://www.w3.org/2000/svg"><path d="M512 381.952c-55.296-66.048-55.296-162.304 0-228.352 54.784 66.048 54.784 162.304 0 228.352z m-16.896 17.92c-77.824 15.872-155.648-26.112-185.856-99.328 77.824-15.872 155.648 25.6 185.856 99.328z m219.648-99.328c-77.824-15.872-155.648 26.112-185.344 99.328 77.312 15.872 155.136-26.112 185.344-99.328zM525.824 417.792c61.952-12.8 123.904 20.48 147.968 79.36-62.464 12.288-124.416-20.992-147.968-79.36zM350.72 496.64c61.952 12.8 123.904-20.48 147.968-79.36-62.464-12.288-124.416 20.992-147.968 79.36z" fill="#4E9445" /><path d="M512 499.712c-102.4 0-185.344 82.944-185.344 185.344S409.6 870.4 512 870.4c102.4 0 185.344-82.944 185.344-185.344S613.888 499.712 512 499.712z m0 174.592l-83.968-64.512L512 545.28l83.968 64.512L512 674.304z" fill="#E58725" /></svg>