<svg class="svg-icon" style="width: 1em;height: 1em;vertical-align: middle;fill: currentColor;overflow: hidden;" viewBox="0 0 1024 1024" version="1.1" xmlns="http://www.w3.org/2000/svg"><path d="M632.32 389.12c-37.888 0-73.216 5.12-106.496 17.92 48.128 7.68 88.576 50.688 88.576 103.936 0 93.696-111.616 172.032-248.32 172.032-43.008 0-83.456-7.68-116.736-20.48 71.168 86.016 159.744 157.184 261.12 207.872 154.624-73.216 281.088-200.192 359.424-359.424-2.56-2.56-2.56-7.68-5.12-12.8C824.832 434.688 736.256 389.12 632.32 389.12z" fill="#D4AB44" /><path d="M389.12 627.2c37.888 0 71.168-5.12 103.936-15.36-45.568-7.68-83.456-48.128-83.456-98.816v-2.56c0-93.696 111.616-172.032 248.32-172.032 43.008 0 83.456 7.68 116.736 20.48-71.68-86.528-160.256-157.696-261.12-207.872-157.184 73.216-284.16 200.192-359.936 357.376C183.808 579.072 280.064 627.2 389.12 627.2z" fill="#005BAC" /></svg>