<svg class="svg-icon" style="width: 1em;height: 1em;vertical-align: middle;fill: currentColor;overflow: hidden;" viewBox="0 0 1024 1024" version="1.1" xmlns="http://www.w3.org/2000/svg"><path d="M55.467 665.6C76.8 693.333 96 723.2 117.333 750.933 166.4 812.8 232.533 844.8 307.2 855.467c83.2 12.8 151.467-17.067 209.067-72.534 57.6-53.333 113.066-113.066 166.4-172.8 76.8-87.466 174.933-123.733 288-117.333 14.933 0 12.8 8.533 12.8 17.067C985.6 608 960 699.733 904.533 780.8 825.6 898.133 714.667 970.667 573.867 992 341.333 1026.133 128 883.2 55.467 674.133c0-2.133-2.134-4.266-2.134-6.4l2.134-2.133z" fill="#DA251C" /><path d="M964.267 364.8c-21.334-27.733-40.534-57.6-61.867-85.333C853.333 217.6 787.2 185.6 712.533 174.933c-83.2-12.8-151.466 17.067-209.066 72.534-57.6 53.333-113.067 113.066-166.4 172.8-76.8 87.466-174.934 123.733-288 117.333-14.934 0-12.8-8.533-12.8-17.067C34.133 422.4 59.733 330.667 115.2 249.6 192 132.267 302.933 59.733 443.733 38.4c236.8-34.133 450.134 106.667 520.534 317.867 0 2.133 2.133 4.266 2.133 6.4 0 2.133-2.133 2.133-2.133 2.133z" fill="#EB891A" /><path d="M507.733 358.4C550.4 426.667 601.6 477.867 665.6 516.267c-29.867 25.6-59.733 46.933-85.333 72.533s-46.934 55.467-72.534 85.333C467.2 612.267 416 558.933 349.867 518.4c64-42.667 117.333-91.733 157.866-160z" fill="#8F772D" /></svg>