<svg class="svg-icon" style="width: 1em;height: 1em;vertical-align: middle;fill: currentColor;overflow: hidden;" viewBox="0 0 1024 1024" version="1.1" xmlns="http://www.w3.org/2000/svg"><path d="M422.4 482.816c9.728-0.512 17.92-1.024 27.648-1.536-5.632-7.168-10.24-13.312-15.872-20.992 12.288 1.024 23.552 5.632 31.744 2.048 22.528-9.216 43.52-8.704 66.048 0 8.704 3.072 20.48-0.512 31.744-1.024-1.024 8.704-10.24 11.264-12.288 18.944 6.656 5.12 14.848-0.512 22.016 3.584-4.608 8.192-12.8 10.752-20.48 15.36-3.584 2.048-8.192 4.096-7.168 9.216 1.024 6.144 6.144 6.144 10.24 5.12 15.872-2.56 18.944 5.632 19.456 19.456 0.512 19.968 3.072 40.448 5.632 60.416 1.536 10.752-1.536 14.336-12.8 14.336-36.864 0.512-37.376 1.024-37.376-36.352 0-11.264-3.072-15.872-14.848-14.848-12.288 1.024-25.088 0.512-37.888 0-8.192 0-12.288 3.072-11.776 11.264v3.072c-1.024 37.888-1.024 37.376-38.912 36.864-12.288 0-14.848-5.12-13.312-15.872 2.56-19.968 5.12-39.936 7.168-59.904 1.024-12.288 4.096-21.504 19.456-18.432 4.096 0.512 9.728 1.536 11.264-4.096 1.536-5.632-3.584-7.168-7.168-9.216-7.68-4.608-15.872-7.68-22.528-17.408z" fill="#727171" /><path d="M827.392 345.6c-39.424-74.24-95.232-130.56-174.08-162.304-103.424-41.472-204.8-39.424-305.664 9.216-29.696 14.336-48.128 36.352-58.88 66.048-15.872 42.496-1.024 87.04 35.84 110.08 31.744 19.456 89.6 12.288 116.736-15.36 3.584-3.584 6.656-8.192 11.776-8.192 19.968 0.512 38.912-6.656 59.392-7.68 38.912-2.048 73.728 7.68 104.96 29.696 27.136 18.944 48.64 41.984 67.072 71.168 24.064 37.888 29.184 77.312 26.624 118.272C707.072 624.128 665.6 670.208 612.352 704c-43.52 28.16-94.208 37.376-145.92 30.208-31.232-4.608-62.976-9.728-89.6-29.184-4.096-3.072-10.24-3.584-14.336-1.536-8.704 4.096-17.408 2.048-26.112 1.024 13.312 15.872 33.792 22.528 49.152 35.84 1.536 4.608 5.12 6.656 9.728 8.192 15.36 5.12 29.696 12.288 45.568 15.872C451.072 768 461.824 768 471.04 768c-9.216 0-19.968 0.512-30.72-2.048-6.656-0.512-12.8-2.56-18.432-5.632-16.896-8.704-34.304-14.336-53.248-16.384-7.168-8.192-15.36-16.384-27.136-12.288-8.704 3.072-15.872 0-23.04-3.584-6.656-3.072-13.824-8.192-20.48 1.024v2.048c-4.096 2.56-4.096 8.704-8.192 11.776-4.608 0.512-10.24-4.608-12.8 3.584-1.024 0.512-2.048 0.512-3.072 0.512-7.168 4.096-8.192 8.704 0.512 12.288 0.512 0 0.512 1.536-1.024 0-5.12-0.512-7.168-9.216-13.824-5.632-5.12 3.072-4.608 7.68-1.536 12.288 5.12 4.096 10.752 8.704 15.872 13.312 10.752 8.192 18.944 20.48 33.28 23.04 3.584-3.584 10.24-1.024 12.288-6.144 1.536 1.536 3.072 2.56 5.12 3.072 5.12 1.536 14.336 1.024 6.144 10.24-0.512 0.512-1.024 1.536-1.536 2.56-7.168 0-7.68-11.776-15.872-10.24 1.024 16.896 14.336 17.408 26.112 19.968 10.24 9.728 23.552 13.824 36.352 18.944 19.456 9.728 40.448 13.824 61.952 16.384 6.656-13.824 6.656-12.8 26.624-11.264 12.288 1.024 24.064 6.656 36.864 3.584 1.536 0.512 3.584 1.024 5.12 1.024-3.584 0.512-7.68 0.512-11.776 0.512-3.072 1.024-5.632 3.072-7.168 6.144-9.216-1.536-18.944-3.072-28.16-4.608-4.608-1.024-10.24-1.024-10.752 4.096-1.536 7.168 5.632 4.096 9.216 5.12 1.536 0.512 2.56 1.536 4.096 2.56 8.192 1.024 16.896 2.56 25.088 3.072 12.288 0.512 25.088 5.632 36.864-2.56 17.408-0.512 34.304-0.512 51.712-2.048 12.8-1.024 20.992-11.264 33.28-11.264 20.48-0.512 39.424-7.68 57.344-16.896 43.52-22.528 80.896-52.224 114.176-88.576 53.76-58.88 81.92-129.024 89.6-206.336 5.632-67.072-9.216-132.608-42.496-194.048zM313.344 771.584c2.56 1.024 5.632 2.56 9.728 1.024 0 3.584 4.608 4.608 6.144 7.168-4.608-4.096-11.776-5.12-15.872-8.192z m203.776 78.848c4.608-1.024 9.216-2.048 13.824-1.536-4.608 0-9.216 1.024-13.824 1.536z" fill="#B21C27" /><path d="M253.44 744.448c-3.072-1.536-5.632-3.072-8.704-4.608-1.024-4.608 0.512-8.704 2.56-12.8 6.656-4.608 12.8 11.776 19.456 0.512 1.024-4.608 13.312-3.072 7.68-8.192-6.656-6.144-14.848-17.92-27.136-7.68-1.024-0.512-1.536-0.512-2.56-1.024-7.168-7.68-13.312 2.56-20.48 0.512l0.512-0.512c-3.072 2.048-16.384-6.144-9.216 6.144 8.704 14.848 19.968 29.184 35.328 39.424 3.584-2.56 8.192-6.144 2.56-11.776z m13.312-61.952c-6.144-8.192-9.728-6.656-14.848-1.024 9.728 8.192 18.432 17.408 26.112 28.16 7.168 9.728 12.8 10.24 19.456 2.56-15.36-5.12-22.528-18.432-30.72-29.696z m-45.568-141.312c0.512 1.024 1.024 2.048 1.024 3.072 7.168 5.12 0 16.896 9.728 20.992 4.096-17.92-2.048-34.304-3.584-51.712-4.608-6.656-8.704-5.12-9.216 1.536-1.024 8.192-3.584 17.408 2.048 26.112zM198.656 512c-10.24 1.024-8.704 9.728-10.24 15.872 6.144 10.24 3.072 23.04 10.24 38.4V512zM314.88 715.264c4.608-2.56 2.048-6.656 1.024-9.728-3.072-2.048-6.656-3.584-9.728-6.144s-3.584-9.728-9.216-7.168c-6.656 3.072 0.512 8.704 0 12.8 3.584 2.048 7.168 4.096 10.24 7.168 2.048 2.048 3.584 5.632 7.68 3.072z m21.504-10.752c-0.512 0-0.512 0 0 0-0.512 0-0.512 0.512 0 0-0.512 0.512-0.512 0.512 0 0-0.512 0.512-0.512 0.512 0 0-0.512 0.512-0.512 0.512 0 0-0.512 0.512-0.512 0.512 0 0 0 0.512 0 0.512 0 0z" fill="#B21C27" /><path d="M348.16 694.784c5.632 0.512 5.632-1.024 1.024-9.216-1.536-1.024-2.56-1.536-3.584-1.536-5.632-4.608-6.144-15.36-16.384-14.336-6.656-1.024-6.656-12.288-15.36-9.728-5.632 5.632 3.584 14.336-3.584 19.456 4.096 7.68 9.216 14.336 16.384 19.456 2.048 3.584 5.632 5.12 9.728 6.144 4.096-3.072 3.584-10.752 11.776-10.24z m-148.48-19.456c1.024-3.072-1.536-8.704-6.144-7.168-4.096 1.536-2.56 6.144-1.024 9.728 1.024 2.56 2.048 5.12 3.072 7.168 2.56 1.536 3.584 3.584 3.072 6.144 17.92-4.096-1.024-10.24 1.024-15.872z m-14.848-110.592c3.584-11.776-1.024-22.016-2.56-32.768-6.656 5.632-2.56 12.8-2.56 18.944 4.608 3.072-1.024 10.752 5.12 13.824z m66.048-26.624c-1.024 33.28 7.168 64 22.528 93.184 2.048 3.584 3.584 9.216 9.216 6.144 12.288-7.168 12.288 2.048 13.824 9.216 4.608 3.584 9.216 2.56 13.312-1.024-11.264-8.192-6.656-32.256-29.696-28.672-0.512 0-2.56-4.608-2.048-5.632 10.752-12.8-3.072-25.088-0.512-37.888-1.536-10.752-2.56-21.504-5.12-32.256-2.048-7.68 0-18.432-11.264-21.504 0.512-0.512 0.512-1.536 0-2.048-4.608-8.192-6.656-2.56-9.728 1.536-5.12 6.656 1.024 12.8-0.512 18.944z m83.968 189.952c2.048-3.072-1.536-4.608-2.048-7.168-3.072-2.048-6.656-4.096-9.728-6.144-0.512 5.632 0.512 10.752 6.144 13.312 2.048 1.536 4.608 2.048 5.632 0z m-85.504-37.888c-5.632-4.096-9.728 0-14.336 1.536 5.12 8.192 5.12 8.192 14.336-1.536z m-14.336 1.536z" fill="#B21C27" /><path d="M220.16 626.688c2.048 3.072 5.12 5.12 10.24 4.096-2.048 2.56-3.072 5.12-3.072 8.192 0 5.12 2.048 9.728 4.608 13.824 2.048 2.56 4.608 4.608 8.192 5.12h0.512c0 2.56 0.512 4.608 0.512 7.168 4.608-0.512 7.68 9.216 11.776 3.072 3.584-5.12-1.536-9.728-6.144-12.8-8.704-6.656-1.536-19.456-10.24-25.6 1.536-3.072 4.096-3.584 6.656-3.584 2.56 2.048 4.608 7.168 9.216 4.096 4.096-2.56 0-5.12-0.512-8.192-3.072-9.216-5.632-17.92-14.336-23.552 0.512-2.048 1.024-4.096 1.536-5.632-3.072-3.072-6.144-6.144-10.24-6.656 0-0.512 0-1.024-0.512-1.024-4.608-7.68-3.072-18.432-11.776-24.064-4.096-12.288-9.728-24.064-6.656-37.888 1.024-4.608-0.512-10.752-7.68-11.264 2.048 24.064 4.096 47.616 6.144 71.68-7.68-10.752-15.872-7.168-23.04 0.512-7.168 8.192-8.192 2.048-9.728-3.584-3.072-5.12 1.536-11.776-3.072-16.896l-0.512 0.512c-6.144-6.144 2.048-16.896-8.704-24.576 1.024 9.728 2.048 16.896 3.072 24.576-2.56 9.728 5.12 19.456 1.536 29.184h2.56v1.024c-0.512-0.512-1.536-0.512-2.56-0.512-1.536-5.632-3.584-11.264-5.12-16.896-1.024-3.584 0.512-10.752-5.12-10.24-6.656 1.024-3.072 7.168-2.56 12.288 3.072 29.696 19.456 55.296 27.648 83.456 6.656 0.512 13.312-2.56 13.824-8.192 1.024-7.68-10.752-5.12-13.824-13.824 12.288 5.632 11.776-4.608 15.36-9.728 2.56 4.608-2.048 14.336 9.216 11.776 3.072-0.512 1.024-10.752 8.192-4.608 3.072-3.072 4.608-7.168 4.608-11.264z m-11.776-29.696c2.048 4.608 4.096 9.216 5.632 13.824l-1.024-1.024c-6.144-4.608-5.632-8.704-4.608-12.8z" fill="#B21C27" /></svg>