<svg class="svg-icon" style="width: 1em;height: 1em;vertical-align: middle;fill: currentColor;overflow: hidden;" viewBox="0 0 1024 1024" version="1.1" xmlns="http://www.w3.org/2000/svg"><path d="M849.64 932.585H765.86V490.403c-9.31-46.546-18.618-83.782-41.891-116.364-37.236-60.509-97.745-102.4-181.527-111.709-93.091-9.309-158.255 27.927-204.8 69.818l-9.31 9.31V94.766h493.382c23.273 0 46.546-4.655 65.164 4.654 27.927 9.31 46.546 32.582 46.546 69.818v698.182c-4.655 37.236-18.619 60.51-51.2 69.818-9.31-4.654-18.619-4.654-32.582-4.654" fill="#2196D4" /><path d="M442.182 428.218h134.982c9.309 0 18.618 9.31 18.618 18.618v134.982c0 9.31-9.31 18.618-18.618 18.618H442.182c-9.31 0-18.618-9.309-18.618-18.618V446.836c4.654-13.963 9.309-18.618 18.618-18.618" fill="#2196D4" /><path d="M176.873 94.767h83.782v442.181c4.654 41.891 18.618 83.782 37.236 111.71 37.236 60.509 102.4 107.054 186.182 111.709 88.436 9.309 158.254-27.928 204.8-69.819 4.654-4.654 9.309-9.309 9.309-4.654v246.69H204.8c-23.273 0-46.545 4.655-65.164-4.654-27.927-9.309-46.545-32.582-46.545-69.818V159.93c4.654-32.582 18.618-55.854 51.2-60.509 9.309-4.654 18.618-4.654 32.582-4.654" fill="#2196D4" /></svg>