<svg class="svg-icon" style="width: 1em;height: 1em;vertical-align: middle;fill: currentColor;overflow: hidden;" viewBox="0 0 1024 1024" version="1.1" xmlns="http://www.w3.org/2000/svg"><path d="M488.448 15.104v298.957l-183.04 180.121c-71.27-79.41-88.755-175.77-52.429-289.075C287.898 96.102 366.387 32.768 488.448 15.104z" fill="#7C0E0F" /><path d="M488.448 998.784V678.528l-183.04-184.346c-71.27-79.41-88.755-175.77-52.429-289.075C287.898 96.102 366.387 32.768 488.448 15.104 226.458 26.317 17.485 242.176 17.485 506.957c0 264.755 208.973 480.614 470.963 491.827z" fill="#AD2B1A" /><path d="M536.986 998.605c78.003-3.328 166.988-64.947 222.976-133.12 43.264-52.66 49.305-142.567 33.536-217.754-8.372-39.833-32.717-89.19-73.037-148.096h286.285c0 264.755-207.77 487.757-469.76 498.97z" fill="#C4321E" /><path d="M720.46 499.635l-182.374 180.48-1.1 318.49c78.003-3.328 166.988-64.947 222.976-133.12 43.264-52.66 49.305-142.567 33.536-217.754-8.372-39.833-32.717-89.19-73.037-148.096z" fill="#8D1C1A" /><path d="M761.754 454.682a212.3 212.3 0 1 0 0-424.602 212.3 212.3 0 0 0 0 424.602" fill="#F49A16" /><path d="M594.176 171.648c-1.997-3.814 59.853-1.792 71.117-1.792 11.264 0 19.149 10.24 26.419 23.885 7.27 13.645 85.402 149.248 92.262 154.752 6.887 5.504 16.87 5.504 21.018 5.12 0 9.881-8.192 20.25-17.46 29.389-9.292 9.139-29.414 7.987-37.12 5.913-7.705-2.048-19.814-10.931-31.129-26.547-11.29-15.616-97.74-171.7-104.832-177.024-7.117-5.35-18.304-9.882-20.3-13.696z m62.694 35.763a9.984 9.984 0 1 0 0-19.968 9.984 9.984 0 0 0 0 19.968z m116.839 82.023a6999.757 6999.757 0 0 1-52.941-92.007c-9.37-16.998 3.917-27.264 10.931-27.264h43.853c-5.632 5.274-8.448 10.65-8.448 16.077 0 5.427 8.115 20.992 24.32 46.592 4.224 6.605 4.966 13.568 2.253 20.915-2.714 7.322-9.37 19.2-19.968 35.687z m71.68-0.205a6999.757 6999.757 0 0 1-52.941-92.007c-9.344-16.998 3.942-27.264 10.957-27.264h43.853c-5.632 5.3-8.448 10.65-8.448 16.077 0 5.427 8.115 20.992 24.32 46.592 4.198 6.605 4.966 13.568 2.227 20.915-2.714 7.322-9.37 19.226-19.968 35.687z m36.352-62.797c-9.216-14.822-15.616-25.498-19.175-32.051-5.324-9.856 1.588-23.373 11.008-24.218 6.298-0.563 20.122-0.64 41.472-0.205l-33.305 56.474z" fill="#FFFFFF" /></svg>