<svg class="svg-icon" style="width: 1em;height: 1em;vertical-align: middle;fill: currentColor;overflow: hidden;" viewBox="0 0 1024 1024" version="1.1" xmlns="http://www.w3.org/2000/svg"><path d="M608.256 379.904H392.704c-17.408 0-18.432 0.512-19.456 17.408-1.024 20.992-1.024 41.984-1.024 62.976v104.96c0 4.096 0 8.192 0.512 12.288 0.512 10.24 5.12 14.848 15.872 14.848 33.28-0.512 66.56 0 99.328 0h77.312c15.36 0 20.992 5.12 20.992 17.92 0 13.312-6.656 19.456-22.016 19.456H188.928c-10.752 0-16.896-3.584-19.968-14.336-16.384-56.32-19.968-113.664-8.704-170.496 13.824-72.704 47.616-135.68 100.864-187.904 60.928-58.88 132.608-93.184 216.576-100.352 101.376-8.704 192.512 18.944 270.336 86.528 38.912 33.792 68.608 74.24 90.624 121.344 6.144 12.8 4.608 15.36-10.24 15.36h-220.16z" fill="#D7000F" /><path d="M418.304 658.432h212.48c17.92 0 19.456-1.536 19.456-19.456V478.72c0-6.144 0-12.288 1.024-18.944 1.536-16.896-2.56-22.528-19.968-22.528H458.752c-16.384 0-22.528-6.144-21.504-20.992 0.512-8.192 5.12-12.8 12.8-14.336 3.584-0.512 7.168-0.512 11.264-0.512h375.296c16.896 0 17.408 0.512 21.504 16.896 12.8 47.616 15.872 96.256 8.704 144.896-8.192 53.76-27.136 103.936-58.368 148.992-33.792 49.152-76.8 87.552-129.024 115.2-41.984 22.528-87.04 35.328-134.656 39.424-64.512 6.144-126.464-5.12-185.344-32.256-44.544-20.992-83.456-49.664-115.712-87.04-19.456-22.016-35.328-46.08-49.664-71.68-2.56-4.608-6.656-9.216-4.608-14.336 2.56-5.632 9.216-3.584 13.824-3.584 71.68 0.512 143.36 0.512 215.04 0.512z" fill="#D7000F" /></svg>