<svg class="svg-icon" style="width: 1em;height: 1em;vertical-align: middle;fill: currentColor;overflow: hidden;" viewBox="0 0 1024 1024" version="1.1" xmlns="http://www.w3.org/2000/svg"><path d="M780.8 484.864c-39.424 12.8-69.12-9.728-98.304-41.472-42.496-46.08-88.064-88.576-132.608-132.608-25.088-24.576-47.616-24.576-72.192 0-55.808 55.296-110.592 110.08-165.888 165.376-26.112 26.112-25.6 47.616 0.512 73.216 54.784 54.272 110.08 108.544 164.864 163.328 24.064 23.552 47.616 24.064 71.168 0.512 55.808-55.808 111.616-112.128 167.936-167.424 6.144-6.144 16.384-10.24 24.576-10.752 32.768-1.024 66.048-0.512 98.816-0.512 25.088 0 33.28 9.216 29.184 33.28-19.968 108.032-76.288 193.024-171.008 249.344-156.672 94.208-350.208 59.392-465.92-81.408-135.168-164.352-90.624-417.28 93.696-528.896C522.752 87.04 780.288 178.176 854.016 394.24c6.144 18.944 10.752 38.4 14.848 57.856 4.096 20.48-4.608 31.744-25.6 33.28-18.944 0.512-37.376-0.512-62.464-0.512z" fill="#D7000F" /><path d="M534.016 565.76c-4.608-10.752-9.216-18.944-11.264-28.16-1.536-5.632 2.048-12.288 2.048-18.432 0-3.584-3.072-7.168-5.12-10.24-2.56 2.56-6.656 5.12-7.168 7.68-2.048 12.288-3.584 25.088-5.12 38.4-8.192-4.608-13.312-11.776-9.728-24.064 1.024-3.584 2.048-7.68 2.048-11.776 0-3.584-2.56-6.656-3.584-10.24-3.072 2.56-7.68 4.608-8.704 7.68-2.56 6.656-3.584 13.824-5.12 20.992l-4.608 1.536c-6.656-11.776-16.384-23.04-19.968-35.328-5.12-17.92-11.264-33.28-30.208-39.424 28.16-49.152 89.088-58.368 128-20.48 5.12 5.12 10.752 10.24 14.848 16.384 14.336 18.944 32.256 29.184 56.32 29.184 14.336 0 29.184 3.072 36.864 16.896 2.56 4.608 2.56 13.824-0.512 16.896-16.384 17.92-33.792 35.328-51.2 52.224-2.56 2.56-7.168 4.608-10.24 4.608-27.648-2.56-51.2-30.208-50.688-57.856 0-4.608-3.584-9.216-5.632-13.824-3.072 4.096-8.192 7.68-8.704 11.776-1.536 13.312-1.536 26.112-2.56 45.568z" fill="#D7000F" /><path d="M582.656 603.136c-17.92 18.944-35.328 37.888-53.76 56.832-9.728 10.24-19.968 6.656-28.672-1.536-29.696-28.672-59.904-57.856-89.088-87.04-19.456-19.456-38.4-39.936-57.856-59.904 12.288-19.456 36.352-24.576 54.272-8.704 18.432 16.384 36.352 34.816 49.664 55.808 20.48 31.232 48.128 38.4 82.432 35.84 13.824-1.024 27.648 1.024 41.472 2.048 1.024 2.048 1.536 4.096 1.536 6.656z" fill="#D7000F" /></svg>