<svg class="svg-icon" style="width: 1em;height: 1em;vertical-align: middle;fill: currentColor;overflow: hidden;" viewBox="0 0 1024 1024" version="1.1" xmlns="http://www.w3.org/2000/svg"><path d="M949.734 101.248c-144.747-44.703-245.227 18.821-324.398 130.278C553.59 332.54 513.772 446.771 503.178 569.928c-2.703 31.457-11.996 48.542-41.334 60.646-113.976 47.068-227.307 95.734-340.244 145.214-28.119 12.323-39.44 10.035-43.167-23.793-9.088-82.693-4.234-164.675 24.049-241.854C199.788 244.577 386.54 75.346 663.68 14.167c106.547-23.526 207.596-3.41 286.054 87.081z m-23.24 571.494c-97.7 207.212-381.849 368.343-596.26 343.63-91.069-10.497-161.315-55.594-209.853-137.304 128.85-55.321 257.245-110.223 385.403-165.704 19.385-8.401 28.59 0.456 41.406 14.147 81.464 87.025 152.975 97.014 256.84 39.122 43.171-24.054 79.088-57.82 122.465-93.89z" fill="#3E3883" /><path d="M836.362 600.187c-52.219-20.654-104.688-41.185-156.933-62.295-9.585-3.886-9.067-12.426-5.847-21.11 18.16-49.034 35.948-98.181 54.323-147.118 5.34-14.234 15.821-18.048 30.07-11.812 7.65 3.359 15.693 5.806 23.578 8.597 152.125 53.683 157.378 67.363 81.746 209.33-6.063 11.393-11.341 21.848-26.937 24.408z" fill="#EB9342" /></svg>