<svg class="svg-icon" style="width: 1.0234375em;height: 1em;vertical-align: middle;fill: currentColor;overflow: hidden;" viewBox="0 0 1048 1024" version="1.1" xmlns="http://www.w3.org/2000/svg"><path d="M1047.983416 468.132022C1057.735346 790.386691 842.170906 1024 507.10733 1024 206.831503 1024-21.832842 762.003896 2.037985 469.87901 25.179818 181.538096 250.206189 9.202343 483.236503 9.202343c283.974945 0 299.694831 193.4406 231.866322 296.492855-65.207528 99.994276-16.009884 101.887263 15.574888 200.42655 19.939856 62.15055-9.460932 142.787967-85.876379 185.434658-108.292216 60.404563-288.487912 25.325817-326.767635-140.458984h219.203413V273.381432c-101.887263-30.711778-248.605201 4.803965-303.9148 146.42694-53.127616 135.801017 19.212861 341.759527 200.571548 386.589203 203.774525 50.507635 402.455088-53.417613 447.139765-261.26811a508.56332 508.56332 0 0 0-59.676569-353.69444c-3.492975-6.257955-10.770922-23.579829 8.150941-2.182984a181.504687 181.504687 0 0 1 23.433831 28.237795c7.568945 11.497917 10.334925 7.422946 4.657966-3.347976a570.422872 570.422872 0 0 0-52.981616-87.332368c-1.599988-2.036985-6.985949-4.074971-8.587938-5.966956s-1.017993-5.385961-3.346976-8.005943c-18.194868-20.085855-35.806741-40.02671-54.437606-58.949573a401.290096 401.290096 0 0 0-62.878545-50.651633c-1.746987-1.164992-2.473982-2.910979 0-3.202977 11.934914-1.309991 86.167376 48.469649 93.299325 47.305657 20.522851-3.639974-40.899704-54.873603-19.503859-46.140666 10.624923 4.948964 21.249846 10.333925 31.439772 16.301882 8.004942 4.366968 15.864885 22.851835 23.57983 27.945798s14.554895-4.365968 20.813849 0 62.879545 85.585381 70.156492 90.825343c14.554895 11.935914-42.209695-77.579439-19.649857-55.455599 8.005942 7.713944 31.876769 37.26173 39.444714 45.703669a405.511066 405.511066 0 0 1 48.760647 66.081522c2.473982 4.365968 2.328983 11.352918 4.802966 15.864885s8.587938 8.441939 11.644915 14.555895c7.568945 14.554895 14.554895 31.002776 22.269839 47.886654a539.566096 539.566096 0 0 1 45.55767 197.224572z" fill="#C7000B" /></svg>