<svg class="svg-icon" style="width: 1em;height: 1em;vertical-align: middle;fill: currentColor;overflow: hidden;" viewBox="0 0 1024 1024" version="1.1" xmlns="http://www.w3.org/2000/svg"><path d="M514.304 666.55c1.755-1.535 3.51-2.852 5.12-4.46l57.856-58.515c27.721-28.014 55.296-56.028 83.09-84.041 2.414-2.414 2.34-4.023 0-6.29-7.314-7.9-15.14-15.8-22.82-23.626l-41.619-42.276c-26.185-26.259-52.37-52.37-77.897-78.848-2.633-2.707-4.388-2.707-6.875 0-10.46 10.898-20.846 21.943-31.452 32.475l-56.612 57.344c-9.509 9.655-18.944 19.602-28.453 29.257s-17.261 17.116-25.965 25.893c-2.048 1.975-2.707 3.291 0 5.778 10.825 10.679 21.357 21.943 32.036 32.476l49.591 50.395c7.314 7.753 14.629 15.58 22.455 23.26s16.091 16.09 24.137 24.063l17.408 17.116M484.169 1024h-1.682a19.895 19.895 0 0 0-3.584-0.95c-8.046-0.367-16.092-0.586-24.284-0.805a458.752 458.752 0 0 1-69.266-8.046 492.69 492.69 0 0 1-159.012-58.953 409.6 409.6 0 0 1-75.264-55.589 387.657 387.657 0 0 1-46.373-53.102 452.023 452.023 0 0 1-58.514-107.3 508.27 508.27 0 0 1-21.943-74.679 896.834 896.834 0 0 1-8.777-48.128c-2.048-12.434-3.511-25.015-5.047-37.522-0.439-4.17-0.805-8.412-0.805-12.58 1.683 4.168 2.268 8.557 3.584 12.8 7.315 23.551 14.117 47.25 21.943 70.655a360.375 360.375 0 0 0 16.311 38.839c6.51 13.239 13.605 26.185 20.773 39.058s13.531 23.991 21.284 35.328a458.46 458.46 0 0 0 45.934 57.052 415.525 415.525 0 0 0 54.857 49.079 431.982 431.982 0 0 0 131.657 65.024 317.586 317.586 0 0 0 58.514 12.141c15.434 1.61 30.794 3.511 46.3 4.096a406.528 406.528 0 0 0 85.284-5.851 410.624 410.624 0 0 0 64.878-16.238 327.534 327.534 0 0 0 57.198-24.064c15.799-8.923 31.524-17.847 46.446-27.867a380.343 380.343 0 0 0 101.376-102.4q12.726-19.749 23.625-40.448a330.971 330.971 0 0 0 29.257-77.385c4.754-19.31 7.753-39.205 10.606-59.027a265.509 265.509 0 0 0 0-70.217 273.774 273.774 0 0 0-15.726-65.828 234.057 234.057 0 0 0-30.062-55.223c-1.975-2.56-4.169-4.9-6.29-7.315a61.806 61.806 0 0 0 3.072 8.997c4.315 11.703 8.777 23.406 12.58 35.328a227.913 227.913 0 0 1 11.41 52.297c0.952 14.044 2.122 28.087 1.976 42.13a349.623 349.623 0 0 1-3.438 45.422 352.402 352.402 0 0 1-9.582 38.985 302.153 302.153 0 0 1-22.747 61.075c-8.12 16.018-17.335 31.597-26.917 46.811a359.497 359.497 0 0 1-25.234 34.304c-7.314 9.29-16.384 17.627-24.722 26.258a345.088 345.088 0 0 1-60.124 49.445 286.427 286.427 0 0 1-52.59 28.745c-18.212 7.314-36.571 14.629-54.93 20.626a353.06 353.06 0 0 1-95.086 15.36c-18.066 0.44-36.059-0.365-54.125-1.39a332.142 332.142 0 0 1-67.73-12.068 306.322 306.322 0 0 1-62.245-23.113c-18.14-9.362-36.572-18.798-53.614-29.77a330.313 330.313 0 0 1-59.904-49.59 387.657 387.657 0 0 1-45.495-55.881 470.016 470.016 0 0 1-38.985-71.827 448.146 448.146 0 0 1-25.6-75.337 487.424 487.424 0 0 1-9.947-171.008 443.246 443.246 0 0 1 14.628-70.363 403.456 403.456 0 0 1 31.744-78.41 564.297 564.297 0 0 1 33.646-55.222 569.27 569.27 0 0 1 39.863-49.445 341.211 341.211 0 0 1 32.841-32.183c13.02-11.337 26.55-21.942 40.594-32.329a406.455 406.455 0 0 1 80.457-45.787c21.943-9.29 44.471-17.847 67.219-25.308a406.455 406.455 0 0 1 78.92-17.48c25.6-3.073 51.2-5.779 77.093-7.315a340.992 340.992 0 0 1 46.52 0.95 547.035 547.035 0 0 1 90.989 14.995 435.858 435.858 0 0 1 64.366 22.528 361.106 361.106 0 0 1 62.903 33.134c16.75 11.41 32.987 23.552 49.005 36.06a404.187 404.187 0 0 1 30.355 26.696c7.314 6.949 13.897 14.629 20.845 21.943a397.312 397.312 0 0 1 42.789 54.345 490.496 490.496 0 0 1 31.305 55.077 457.947 457.947 0 0 1 38.546 117.029 397.385 397.385 0 0 1 6.364 62.39v20.115c-2.56-7.9-3.95-15.945-5.925-23.845a594.286 594.286 0 0 0-34.743-100.132 531.31 531.31 0 0 0-42.496-75.85 436.517 436.517 0 0 0-102.4-107.373 372.224 372.224 0 0 0-105.033-55.589 380.343 380.343 0 0 0-84.26-20.114c-16.677-1.829-33.427-3.292-50.103-4.17-11.191-0.511-22.528 0-33.72 0.805a295.35 295.35 0 0 0-32.182 2.78c-16.823 2.78-33.573 5.997-50.03 9.947a392.704 392.704 0 0 0-73.728 26.112 356.864 356.864 0 0 0-69.047 41.033 644.242 644.242 0 0 0-49.371 43.228c-8.777 8.411-15.872 18.432-23.845 27.72a324.535 324.535 0 0 0-37.96 56.98 377.27 377.27 0 0 0-32.915 82.065c-3.218 12.142-6.437 24.21-8.63 36.572s-3.658 26.697-4.682 40.155a321.097 321.097 0 0 0 0.585 62.172 269.97 269.97 0 0 0 14.629 66.413 202.24 202.24 0 0 0 23.99 44.91c1.463 2.048 3.219 3.877 4.828 5.925l0.95-1.024c-3.071-11.923-6.436-23.772-9.215-35.694a339.675 339.675 0 0 1-8.558-62.171 317.66 317.66 0 0 1 3.218-70.218c2.926-16.75 5.779-33.572 10.314-49.956a358.4 358.4 0 0 1 60.123-121.198 465.993 465.993 0 0 1 34.816-40.302 378.88 378.88 0 0 1 31.086-29.257 283.794 283.794 0 0 1 28.452-20.845q19.456-12.581 39.79-23.845a308.882 308.882 0 0 1 57.125-24.283c15.506-4.755 31.085-8.924 46.884-12.435a275.602 275.602 0 0 1 35.255-5.412 872.836 872.836 0 0 1 51.858-3.072 210.944 210.944 0 0 1 27.136 1.536c15.507 1.609 31.16 2.925 46.446 5.851s32.33 7.753 48.201 12.434a285.257 285.257 0 0 1 34.012 12.288c13.019 5.632 25.819 11.923 38.326 18.725a222.135 222.135 0 0 1 30.062 18.432 471.26 471.26 0 0 1 40.229 32.841c12.873 11.996 24.722 25.161 36.571 38.254a291.694 291.694 0 0 1 38.546 57.051 471.845 471.845 0 0 1 28.234 64.805 544.475 544.475 0 0 1 25.819 104.521 431.543 431.543 0 0 1 4.023 76.8 460.8 460.8 0 0 1-9.509 82.066 412.233 412.233 0 0 1-22.967 76.215 615.57 615.57 0 0 1-27.867 56.1 433.152 433.152 0 0 1-25.893 39.937q-11.337 15.213-24.064 29.257a395.776 395.776 0 0 1-27.574 28.891 593.642 593.642 0 0 1-40.522 33.792 447.342 447.342 0 0 1-42.203 28.819c-15.945 9.508-32.695 17.773-49.225 26.038a483.913 483.913 0 0 1-73.143 28.453 572.562 572.562 0 0 1-113.079 21.943c-17.115 1.828-34.596 1.463-51.858 2.121a29.257 29.257 0 0 0-4.389 0.878z" fill="#004999" /></svg>