<svg class="svg-icon" style="width: 1em;height: 1em;vertical-align: middle;fill: currentColor;overflow: hidden;" viewBox="0 0 1024 1024" version="1.1" xmlns="http://www.w3.org/2000/svg"><path d="M153.6 512c-3.584-190.976 152.576-357.888 357.376-359.424C708.608 151.04 870.4 314.368 870.4 512.512c0 198.144-161.792 359.424-360.96 358.4C306.688 870.4 149.504 701.44 153.6 512z m357.376 291.328C668.16 804.864 802.816 674.816 801.792 512 800.768 350.72 672.768 221.184 512 220.672c-160.768 0-291.84 130.56-291.84 290.816 0 161.28 130.048 291.84 290.816 291.84z" fill="#D7000F" /><path d="M303.616 547.328c0-35.84 0.512-71.168 0-107.008 0-13.312 4.608-18.944 17.92-18.432 28.16 0.512 56.832 0 84.992 0 9.728 0 17.92 1.536 17.408 13.824-0.512 10.752 3.584 24.064-14.336 25.088-1.024 0-2.048 0.512-3.072 0.512-30.72 7.168-39.936 23.04-31.744 53.76 1.536 5.632 4.608 6.144 9.216 4.608 26.624-8.704 53.76-8.704 80.896-6.144 12.8 1.024 17.92 6.144 17.92 18.944 0 29.696 0.512 29.184-28.16 28.672-19.968-0.512-39.936-1.536-59.904 3.072-14.336 3.584-21.504 10.752-19.968 26.112 1.024 9.728-3.072 22.528 2.048 28.672 6.656 8.192 16.896-3.584 26.112-4.608 22.016-3.584 44.032-3.072 66.048-0.512 9.216 1.024 13.824 6.144 13.824 15.36v68.096c0 8.704-4.608 13.312-13.312 13.312-39.424 0-78.336 0.512-117.76-0.512-24.576-0.512-42.496-17.92-46.592-44.032-3.584-23.04-1.024-46.592-1.536-69.632-0.512-16.384 0-32.768 0-49.152z m409.088 1.536v107.008c0 34.304-19.968 54.272-53.76 54.784-34.304 0.512-68.096-0.512-102.4 0.512-12.8 0-18.944-3.584-18.432-17.408 1.024-15.872 0.512-32.256 0-48.128-0.512-13.312 5.12-16.896 17.408-16.384 23.04 1.024 46.592 2.56 69.12-3.584 22.016-5.632 34.816-33.792 24.576-54.272-3.584-7.168-9.216-3.072-13.312-1.536-25.6 8.192-51.712 8.704-78.336 7.68-14.848-0.512-22.016-7.168-19.456-22.528 0.512-2.048 0-4.096 0-6.144 0-20.992 2.048-23.04 23.552-20.48 23.552 2.56 46.592 0.512 69.12-5.12 16.896-4.096 28.16-37.888 17.92-52.224-3.072-4.608-7.168-2.048-11.264-1.536-39.424 9.216-39.424 8.704-37.376-31.744 0.512-10.24 4.096-15.36 14.848-15.36h83.456c10.752 0 14.336 5.632 13.824 15.36 0.512 36.864 0.512 74.24 0.512 111.104z" fill="#D7000F" /><path d="M629.76 403.968c-21.504 0-43.52 0.512-65.024 0-13.312-0.512-17.408 4.608-16.896 17.408 0.512 13.312 0 26.624 0 40.448 0 10.24-5.12 13.824-14.848 11.776-14.848-3.072-29.184-5.632-44.032-8.704-8.704-1.536-12.288-6.144-12.288-14.848 0-9.728-0.512-19.456 0-29.184 1.024-13.312-5.12-16.896-17.408-16.384-45.568 0.512-90.624 0-136.192 0-18.432 0-21.504-3.584-18.944-22.016 4.096-27.136 19.456-40.96 47.104-41.472 35.84-0.512 71.168-0.512 107.008 0 10.752 0 19.968-0.512 19.456-14.848 0-6.144 4.608-9.216 10.24-9.216h48.128c7.168 0 12.288 3.584 12.288 11.264 0 11.776 7.168 12.8 16.384 12.8 34.304-0.512 68.096-0.512 102.4 0 30.72 0.512 47.616 18.944 46.592 49.152-0.512 10.752-4.608 15.36-14.848 14.336h-1.536c-23.04-0.512-45.568-0.512-67.584-0.512z" fill="#D7000F" /></svg>