<svg class="svg-icon" style="width: 1em;height: 1em;vertical-align: middle;fill: currentColor;overflow: hidden;" viewBox="0 0 1024 1024" version="1.1" xmlns="http://www.w3.org/2000/svg"><path d="M555.785 769.724L711.04 960h244.412l-142.03-152.678-6.604-9.967-1.092-4.404-1.11-4.437v-12.168l1.11-4.42 1.092-4.438 2.202-5.53 4.403-6.604 5.495-9.967 6.622-7.749 142.03-165.956 9.915-12.185 7.714-11.06 5.478-11.059 6.605-11.06 4.437-11.058 3.277-11.077 2.219-11.059V461.04l-2.219-11.076-3.277-9.933-4.437-11.076-6.605-11.06-5.478-8.857-7.714-11.06L672.486 38.4l-48.452 43.162 146.45 178.124 8.806 12.152 6.587 12.185 3.328 6.622 1.076 5.547 1.143 6.639v5.53l-1.143 13.277-3.277 12.186-5.496 12.151-7.73 12.169L561.28 603.75l-5.495 4.42-2.22 5.53-6.621 7.749-5.495 9.95-3.277 9.966-4.42 9.95-2.202 9.984-1.092 11.06-2.22 9.95v11.058l2.22 11.077 1.092 12.168 3.294 9.95 4.403 11.076 4.42 11.043 5.496 11.093 4.403 5.495z" fill="#008332" /><path d="M330.044 303.94l1.11-17.715 3.31-18.807 1.11-8.858 3.293-9.95 6.605-16.572 7.697-15.496 4.403-7.765 4.403-7.732 11.008-13.295 9.916-14.37 14.32-11.042 13.209-9.984 15.41-9.95 15.43-7.73 16.52-5.548 9.898-3.328 8.824-1.109 8.79-2.202 9.932-1.126h8.79l9.915-2.184 16.52 2.184 16.487 3.328 16.538 2.236 15.445 6.622 7.68 3.328 7.697 3.328 15.428 7.73 14.302 8.841 12.135 11.094 9.881 12.151 6.605 5.547 4.437 6.622 10.974 12.168 7.714 15.48 7.714 15.496 1.093 7.749 3.31 7.748 4.404 16.589 3.328 16.605H588.843l-74.906-75.246-96.887 95.163 96.887 95.13 74.906-75.23h106.786l-3.328 18.825-4.403 15.479-3.311 7.731-1.093 7.748-7.714 15.497-7.714 15.497-10.974 12.168-11.042 12.169-9.881 12.168-12.135 11.06-7.697 4.42-6.605 4.437-7.714 4.42-7.714 3.328-15.377 6.622-15.445 5.53-16.538 4.437-16.486 2.219-16.52 1.109-18.706-1.11-18.722-3.327-8.824-1.093-9.898-3.328-16.52-6.621-15.43-7.766-7.68-4.42-7.73-4.437-13.21-11.06-14.319-11.059-9.916-13.278-11.008-14.387-8.806-15.48-7.697-14.37-6.605-17.715-3.294-8.857-1.109-8.84-2.202-9.968-1.109-8.84-1.11-8.84z" fill="#CA001F" /><path d="M468.779 769.724L314.633 960H69.094L212.25 807.322l5.478-9.967 2.219-4.404 1.092-4.437v-12.168l-1.092-4.42-2.219-4.438-1.092-5.53-4.386-6.604-6.622-9.967-7.714-7.749-140.92-165.956-8.823-12.185-7.697-11.06-6.605-11.059-5.513-11.06-4.403-11.058-3.294-11.077-3.31-11.059V461.04l3.31-11.076 3.294-9.933 4.403-11.076 4.403-11.06 7.715-8.857 7.697-11.06L353.169 38.4l48.452 43.162L255.19 259.686l-9.915 12.152-5.496 12.185-3.31 6.622-1.093 5.547-2.219 6.639v5.53l2.219 13.277 2.184 12.186 6.605 12.151 7.714 12.169L464.393 603.75l4.386 4.42 3.328 5.53 5.478 7.749 5.513 9.95 4.42 9.966 4.403 9.95 1.092 9.984 2.219 11.06 1.092 9.95v11.058l-1.092 11.077-2.219 12.168-2.201 9.95-5.513 11.076-4.403 11.043-5.495 11.093-3.294 5.495z" fill="#008332" /></svg>