<svg class="svg-icon" style="width: 1em;height: 1em;vertical-align: middle;fill: currentColor;overflow: hidden;" viewBox="0 0 1024 1024" version="1.1" xmlns="http://www.w3.org/2000/svg"><path d="M441.344 598.528c0.512 0 1.024-0.512 1.536-0.512-0.512 0-1.024-0.512-1.536-0.512v1.024z m146.432-177.152l-1.024-1.024c0.512 0 0.512 0.512 1.024 1.024z" fill="#D7000F" /><path d="M774.656 267.776C632.832 115.2 390.144 115.2 248.832 268.288c-114.688 124.416-128 311.296-29.184 450.56C292.864 821.76 393.216 867.84 486.912 870.4c78.336 0 129.536-11.264 178.176-34.304C883.712 734.208 939.52 445.44 774.656 267.776z m-115.2 305.664c-10.24-5.632-15.872-13.312-15.872-27.136 0.512-26.112-0.512-52.736-1.024-78.848 0-2.048-0.512-4.096 0-6.144 2.56-16.896 15.872-14.336 25.088-12.8 15.36 2.56 36.864-12.8 44.544 12.288 4.096 14.336 1.024 31.232 1.024 46.592 0 9.216-6.144 11.776-13.824 11.776-8.192 0-9.728-5.12-9.728-12.8v-21.504c0.512-9.728-4.096-12.288-12.288-11.776-8.704 0-13.824 2.048-13.312 12.8 0.512 16.896 1.024 34.304 0 51.2-1.024 13.824 4.608 19.968 16.896 19.968 14.848 0 29.184 0.512 44.032 0 13.312-0.512 24.064-7.68 30.208-20.992-0.512-33.28-0.512-67.072-1.024-100.352 0-24.576-7.168-32.768-29.184-33.28-33.792-0.512-68.096 0-101.888 0-15.872 0-23.04 8.704-23.04 25.088 0 43.008-0.512 85.504 0 128.512 0.512 34.304 36.352 67.072 77.824 73.216 31.744 4.608 61.952-1.536 91.136-13.824 5.12 4.608 1.536 8.192 0 11.776-43.52 101.888-159.232 175.104-263.168 166.912-14.848-1.024-22.016-12.288-30.72-21.504-29.696-33.28-34.816-70.144-16.896-107.52 5.632-11.776 13.312-17.92 26.624-17.92 26.112 0 51.712-0.512 77.824-2.048 12.8-0.512 18.432 5.12 18.944 18.432v2.048c3.584 51.2-9.216 62.976-57.856 52.736C516.096 716.8 512 712.192 512 704c0-9.216 6.144-9.728 12.8-9.728h22.016c7.68 0 10.752-4.096 10.24-12.288 0-8.192-1.536-14.336-10.752-13.824h-57.856c-7.168 0-11.264 3.584-12.288 11.264-0.512 2.56-1.024 5.632-1.024 8.704-5.632 64 1.536 72.192 60.416 72.192 20.48 0 41.472-0.512 61.952 0 18.944 0.512 29.184-9.728 29.696-29.184 1.024-34.816 1.024-69.632 0.512-104.96 0-17.92-10.752-24.064-26.624-24.064-44.544 0-89.088-0.512-133.632-0.512l-1.024 1.024-1.536-0.512c-23.552 10.24-38.912 29.696-52.736 51.2-13.312 40.96-10.24 80.896 6.144 119.808-2.048 3.072-4.608 3.584-7.168 2.56-94.208-31.744-169.984-132.608-179.2-238.08-1.024-13.824 1.536-24.576 9.216-35.84 32.256-46.592 77.312-65.024 119.296-48.128 3.072 1.024 5.632 3.584 8.192 5.632 13.312 2.56 18.944 11.264 18.944 25.6 0 26.112 0 52.736 1.536 78.848 0.512 15.36-5.632 20.48-18.432 20.48h-6.144c-49.664 1.024-51.712-1.536-46.592-55.808 1.024-9.728 4.608-14.336 13.312-14.848 11.264-0.512 10.752 7.68 10.752 15.872 0 6.656 0.512 12.8 0 19.456-0.512 8.704 3.584 11.264 11.264 10.752 6.656-0.512 14.336 1.536 14.336-9.728v-59.904c0-9.216-4.608-12.8-12.288-13.824-7.68-1.024-15.872-1.536-23.552-2.56-53.248 5.12-53.248 5.12-53.248 64 0 20.48 1.024 41.472 0 61.952-1.024 21.504 9.728 30.72 27.136 31.744a1828.608 1828.608 0 0 0 105.984 0c13.312 0 20.992-9.216 20.992-23.552 0-45.056 1.024-90.112-0.512-134.656-1.024-30.72-36.864-62.464-73.728-68.096-32.768-4.608-65.024-1.536-95.744 13.824-4.608 2.048-8.704 6.656-15.872 4.608 19.456-57.344 52.736-101.888 98.816-135.68 41.984-33.28 89.6-52.224 141.824-55.808 45.056-3.584 81.408 25.088 93.696 72.704 3.072 12.8 3.584 25.088 0.512 37.888-8.704 35.328-14.848 40.96-49.152 41.984l-66.048 1.536c-8.192 0.512-15.36-2.048-16.384-11.776-1.024-16.896-2.048-34.304-1.024-51.2 0.512-10.24 9.728-10.752 17.408-9.728 16.896 3.072 36.352-9.216 50.688 7.68 4.096 5.12 3.072 15.872-8.192 16.384-8.192 0.512-15.872 0.512-24.064 0-8.704-0.512-11.264 4.096-11.264 12.8s2.56 13.312 11.264 13.312h55.808c9.216 0 13.312-4.608 14.336-13.824 0.512-3.584 1.024-7.168 1.024-10.752 3.584-60.928-2.56-67.584-58.88-67.584-21.504 0-42.496 0.512-64 0-18.944-0.512-29.184 9.728-29.696 29.184-1.024 34.816-0.512 69.632 0 104.96 0 15.872 8.704 23.04 23.04 23.04H558.08c10.752 0 18.944-6.656 28.16-9.728 10.752-13.312 20.992-26.624 31.744-39.424 14.848-43.52 10.24-86.016-9.728-133.12 59.392 25.088 106.496 58.368 138.752 112.64 11.776 13.824 19.968 29.696 24.576 47.616 17.408 34.816 21.504 72.704 21.504 111.616 0 3.584-1.024 7.168-2.56 10.24-22.016 48.128-87.04 69.632-131.072 45.056z" fill="#D7000F" /></svg>