<svg class="svg-icon" style="width: 1em;height: 1em;vertical-align: middle;fill: currentColor;overflow: hidden;" viewBox="0 0 1024 1024" version="1.1" xmlns="http://www.w3.org/2000/svg"><path d="M572.416 638.464c13.312 12.8 26.624 26.112 40.448 38.4 8.192 7.68 4.608 15.36 1.536 23.04-36.864 87.04-101.376 139.776-195.072 152.064-101.376 13.312-201.216-44.032-243.712-136.192-43.008-93.696-21.504-204.288 52.736-273.92 6.656-6.144 13.312-16.896 20.992-14.848 8.192 2.048 4.608 14.848 6.144 22.528 8.704 51.712 30.72 97.28 67.072 135.68 7.68 8.192 8.192 13.312-0.512 19.968-9.216 6.656-7.168 12.8 0.512 20.48 19.456 18.944 38.912 37.888 57.344 57.344 8.704 9.216 15.36 10.24 25.088 0 14.336-15.36 30.208-29.184 45.568-44.032 6.656-4.608 13.824-2.56 20.992-1.536 26.624 4.608 53.76 4.608 80.384-0.512 6.656-0.512 13.824-2.048 20.48 1.536z" fill="#E60012" /><path d="M401.92 542.208c-6.656-5.12-12.8-5.12-18.432 1.536-7.68 8.704-16.896 15.872-24.064 24.576-9.728 11.776-16.384 9.216-25.088-1.024C214.016 427.52 279.552 220.16 458.24 176.128 575.488 146.944 700.928 217.6 737.792 332.8c4.608 15.36 11.776 30.208 8.704 47.104-6.656 1.024-11.264-2.56-15.872-4.096-53.248-20.48-107.52-25.6-162.816-11.264-15.872 4.096-23.552-3.584-32.256-12.8-29.184-29.184-19.968-25.6-45.568-1.024-16.384 15.872-32.256 32.768-48.64 48.128-7.168 7.168-7.68 12.288 0 19.456 8.192 7.68 15.36 16.384 23.552 25.088 1.024 5.12-2.048 9.216-5.12 12.8-19.968 23.552-38.4 48.64-48.64 78.336-2.048 3.584-4.096 7.68-9.216 7.68z" fill="#E60012" /><path d="M401.92 542.208c13.824-37.376 34.816-70.144 62.464-98.816 14.848 10.24 26.112 24.064 38.4 36.864 6.144 6.144 10.752 7.168 17.408 0 11.264-11.776 24.064-23.04 35.84-34.304 16.896 4.096 23.552 19.456 32.768 31.232 15.36 19.968 26.112 42.496 32.256 67.072-18.944 18.944-37.376 38.912-56.832 57.344-10.752 9.728-12.8 16.896-0.512 26.624 3.584 2.56 6.144 7.168 9.216 11.264-40.96 11.776-81.408 11.264-122.368 0.512 4.096-10.24 20.992-15.36 17.92-24.576-3.072-10.24-14.848-17.92-23.04-26.624-14.848-16.384-31.744-29.184-43.52-46.592z" fill="#018C43" /><path d="M616.448 747.008c-1.536 20.48-18.432 31.232-29.184 46.08-7.168 9.728-16.896 18.944-27.648 25.6-12.288 7.68-7.68 14.848 3.072 18.944 6.656 2.56 13.824 5.12 20.992 5.632 44.032 4.608 88.576 7.68 129.536-9.728 63.488-26.624 111.616-70.656 135.68-136.192 15.36-41.984 22.528-85.504 8.704-130.048-3.584-10.752-3.584-22.528-5.632-33.28 20.48 37.376 20.48 77.312 14.848 117.248-20.992 148.992-179.2 241.664-319.488 188.416-4.096-1.536-7.68-3.584-14.336-6.656 35.328-24.064 60.928-53.76 83.456-86.016z" fill="#CA1D2B" /><path d="M566.272 436.224c-3.584 2.56-6.656 4.608-10.24 7.168 1.536-12.8 13.824-17.408 20.48-25.6 4.608-5.12 9.216-9.728 3.584-16.896 1.536-1.536 2.56-1.536 4.608-0.512 6.144 5.632 6.144 10.752 0 16.384-6.144 6.144-12.288 12.8-18.432 19.456z" fill="#E60012" /><path d="M852.48 534.016c-2.56-14.848-8.704-28.672-16.896-40.96C780.8 407.552 702.464 371.2 602.112 378.88c-5.12 0-11.264-1.024-15.872 0.512-5.12 1.536-13.824 0-14.848 7.168-1.024 5.632 3.584 11.264 9.216 14.336 1.024 0 2.048-0.512 2.56-0.512 4.608 6.144 3.584 11.264-2.56 16.896-6.144 5.632-13.312 10.752-16.896 18.944-4.096 0-5.632 4.608-7.68 7.168-0.512 1.024-0.512 1.536 0 2.56 11.776 8.704 19.456 20.48 28.672 31.232 16.896 19.968 22.016 45.568 35.84 67.072 4.608-1.536 8.192-6.656 13.824-6.144 22.016 22.016 43.52 45.056 66.048 66.56 9.728 9.216 8.704 14.848-0.512 22.528-39.424 31.744-67.584 71.68-83.456 120.32-1.536 3.584-2.56 8.192-5.12 11.264-15.872 20.992-30.72 43.008-53.248 58.368-12.288 8.192-10.752 17.92 3.072 24.064 2.56 1.024 5.632 1.536 8.704 2.048 58.88 10.752 115.712 10.24 171.008-20.48 42.496-23.552 74.752-54.272 97.28-95.744 34.816-61.952 37.888-126.976 14.336-193.024zM602.624 378.88c-1.024 1.024-2.048 1.024-3.072 1.536l3.072-1.536z m31.744 159.232z" fill="#E60012" /></svg>