<svg class="svg-icon" style="width: 1em;height: 1em;vertical-align: middle;fill: currentColor;overflow: hidden;" viewBox="0 0 1024 1024" version="1.1" xmlns="http://www.w3.org/2000/svg"><path d="M523.264 460.288c93.696 0 172.032 7.68 243.2 23.04 40.448 10.24 75.776 17.92 103.936 30.208L510.976 153.6 153.6 510.976c30.208-12.8 71.168-23.04 119.296-30.208 75.776-13.312 159.232-20.48 250.368-20.48z" fill="#FDD000" /><path d="M510.976 872.96l357.376-357.376c-50.688-5.12-119.296-5.12-205.312 2.56-93.696 7.68-154.624 15.36-189.952 27.648-30.208 10.24-48.128 25.088-43.008 37.888 0 5.12 2.56 12.8 7.68 17.92l10.24 7.68c12.8 10.24 20.48 12.8 23.04 15.36 12.8 10.24 15.36 23.04 12.8 35.328-5.12 20.48-43.008 40.448-119.296 63.488L510.976 872.96z" fill="#293C90" /></svg>