<svg class="svg-icon" style="width: 1em;height: 1em;vertical-align: middle;fill: currentColor;overflow: hidden;" viewBox="0 0 1024 1024" version="1.1" xmlns="http://www.w3.org/2000/svg"><path d="M239.616 525.312c3.072 5.632 8.192 8.704 12.8 12.288 27.136 20.48 57.856 30.72 92.16 32.256 55.808 2.048 103.936-17.92 146.432-53.248 5.12-4.608 5.12-4.608 9.728 0 38.4 38.4 76.288 76.288 114.688 114.176 16.384 16.384 32.256 32.768 49.152 48.64 2.56 2.56 5.12 5.632 7.68 8.192 2.048 2.048 2.56 3.584 0 5.632-12.8 12.288-26.112 24.064-40.448 34.304-34.816 26.112-72.704 46.08-114.688 58.368-51.712 15.36-103.424 17.92-156.16 4.608-60.928-15.36-108.544-50.688-145.92-100.352-23.04-30.208-39.424-64-49.664-100.352-12.8-44.544-14.848-89.6-8.192-135.68 4.608-31.744 13.824-62.464 26.624-91.648 11.776-26.624 27.136-50.688 44.544-73.728 5.12-7.168 10.752-13.824 17.408-19.456-0.512 3.584-3.072 6.144-5.12 8.704-11.776 15.872-21.504 33.28-29.184 51.2-9.728 22.528-15.872 46.592-17.408 71.168-1.536 23.04 0.512 45.056 7.68 66.56 7.168 22.016 19.456 40.96 35.328 57.344 1.024 1.024 1.536 1.536 2.56 1.024z m544.768-24.064c0.512-3.584-2.048-5.632-4.096-8.192-20.48-17.92-44.544-29.696-71.168-35.328-43.008-8.704-84.48-2.048-123.904 15.872-19.968 9.216-37.376 20.992-53.76 35.328-2.56 2.048-3.584 2.56-6.144 0-23.552-24.064-47.616-47.616-71.68-71.68-19.968-19.968-39.936-39.936-60.416-59.904-13.824-13.824-27.648-28.16-41.984-41.984-2.048-2.048-2.048-2.56 0-4.608 46.592-45.056 99.84-78.336 162.304-95.232 47.104-12.8 94.208-14.848 142.336-4.096 55.296 12.288 100.864 41.472 138.24 83.968 27.136 30.72 47.104 66.048 59.904 104.448 9.728 29.184 14.848 59.392 15.872 90.112 1.536 50.176-7.68 97.792-27.136 143.872-12.8 30.208-29.696 58.368-50.688 83.968-4.608 5.632-9.216 10.752-13.824 16.384-1.024 1.024-1.536 2.048-3.072 2.048 0-1.024 0-1.536 0.512-2.048 9.216-11.264 17.408-24.064 24.576-36.864 12.8-23.552 22.016-48.128 26.624-74.752 6.656-39.424 3.072-77.824-16.896-113.664-6.144-10.752-13.312-19.968-22.016-28.672-1.024 0-2.56-1.536-3.584 1.024z" fill="#014A9A" /><path d="M784.384 501.248c1.024-2.56 2.56-1.536 3.584 0 8.704 8.704 15.872 18.432 22.016 28.672 19.968 35.84 23.552 73.728 16.896 113.664-4.608 26.624-13.824 51.2-26.624 74.752-7.168 12.8-14.848 25.6-24.576 36.864-0.512 0.512-1.024 1.024-0.512 2.048-1.024 0.512-1.024 1.024-1.024 2.048-15.36 17.408-33.28 31.744-52.736 45.056-10.24 7.168-20.48 13.824-31.232 19.968-22.016 12.288-45.056 22.528-69.12 30.208-21.504 6.656-43.008 11.264-65.024 13.824-19.456 2.56-39.424 3.072-59.392 2.048-19.456-1.024-38.912-3.584-57.856-8.192-18.432-4.096-36.864-9.728-54.272-17.408-11.264-4.608-22.528-10.24-33.28-15.872-18.432-10.24-35.328-22.528-51.712-35.84-1.024-1.024-2.048-2.048-1.536-3.072 1.024-1.024 2.048 0 3.072 0.512 18.432 9.216 37.888 16.896 57.856 23.04 34.304 10.24 69.12 14.848 104.448 13.824 17.408-0.512 34.304-2.048 51.2-5.12 32.768-6.144 64.512-15.872 94.208-31.232 23.04-11.776 44.544-25.6 64-41.984 13.312-11.264 25.088-23.552 36.864-36.352s22.016-26.112 31.744-40.448c11.776-17.408 21.504-36.352 29.184-56.32 8.704-24.064 14.848-48.128 16.384-73.728 0.512-11.264-0.512-22.528-2.048-33.792 0-3.072 0-5.12-0.512-7.168z m-544.768 24.064c-0.512 1.024-1.024 0-1.536-0.512-16.384-16.384-28.16-35.328-35.328-57.344-7.168-21.504-9.728-44.032-7.68-66.56 2.048-24.576 7.68-48.64 17.408-71.168 7.68-17.92 17.408-35.328 29.184-51.2 2.048-2.56 4.608-5.12 5.12-8.704 2.048 0 2.048-0.512 1.024-2.048 27.648-29.696 59.392-53.248 94.72-72.192 33.792-17.92 69.12-30.208 106.496-36.352 43.52-7.68 86.528-7.168 130.048 2.048 27.648 5.632 53.76 14.848 78.848 27.136 18.944 9.216 36.864 19.968 53.248 33.28 5.12 4.096 10.752 8.192 15.872 12.8 0.512 0.512 1.536 1.024 1.024 2.56-2.56 1.024-4.096-1.024-5.632-2.048-19.968-10.24-40.96-17.92-62.464-24.064-32.256-9.216-65.536-13.312-99.328-12.288-22.016 0.512-44.032 3.072-65.536 8.192-15.872 3.584-31.232 7.68-46.08 13.312-38.912 14.848-74.24 35.328-105.472 63.488-21.504 19.456-40.448 40.96-57.344 64.512-12.288 17.408-22.528 35.84-30.72 55.808-11.776 29.184-19.456 59.904-18.944 91.648 0 7.68 0.512 15.36 2.048 23.04 1.024 1.024 1.536 3.584 1.024 6.656z" fill="#F29D05" /><path d="M247.296 267.264c1.024 1.536 1.024 2.56-1.024 2.048 0-0.512 0.512-1.536 1.024-2.048z" fill="#014A9A" /><path d="M295.936 787.456l-0.512 0.512c-0.512 0-0.512 0-1.024-0.512s0-0.512 0.512-1.024c0.512 0 1.024 0 1.024 1.024z" fill="#F29D05" /><path d="M774.656 759.296c0-1.024 0-1.536 1.024-2.048 0 1.024-0.512 1.024-1.024 2.048z" fill="#014A9A" /><path d="M729.088 237.056h-0.512c0-0.512 0-0.512 0.512 0 0-0.512 0-0.512 0 0z" fill="#F29D05" /></svg>