<svg class="svg-icon" style="width: 1.0009765625em;height: 1em;vertical-align: middle;fill: currentColor;overflow: hidden;" viewBox="0 0 1025 1024" version="1.1" xmlns="http://www.w3.org/2000/svg"><path d="M494.306 346.003L327.072 513.236H0v-1.28a511.94 511.94 0 0 1 1011.364-112.484H883.38C765.207 33.435 271.897 32.155 140.072 394.495h163.536L464.585 273.62a67.832 67.832 0 0 1 93.002 2.56c49.061 83.048 91.865 152.16 139.646 235.207l-166.38-165.384a23.89 23.89 0 0 0-36.547 0z m35.267 333.329l167.233-167.376h327.072v1.28A511.94 511.94 0 0 1 12.656 625.152h127.985c118.173 366.036 611.483 367.316 743.307 5.12H720.697L559.72 751.002a67.832 67.832 0 0 1-93.002-2.56c-49.06-83.047-91.865-152.159-139.646-235.207l165.954 166.096a24.033 24.033 0 0 0 36.547 0z" fill="#005D24" /></svg>