<svg class="svg-icon" style="width: 1em;height: 1em;vertical-align: middle;fill: currentColor;overflow: hidden;" viewBox="0 0 1024 1024" version="1.1" xmlns="http://www.w3.org/2000/svg"><path d="M278.298 69.576c-3.61 27.94-23.112 35.927-35.298 48.85C94.372 275.968 77.85 513.818 208.717 673.93c66.58 81.454 153.968 123.879 261.33 103.27 75.31-14.458 126.52-86.159 138.101-181.411 8.623-70.928-23.285-127.263-92.928-164.168-7.29-3.86-14.5-7.9-23.966-13.061 111.616-32.799 211.456-9.2 271.124 62.249 70.61 84.572 83.86 234.578 29.932 338.857-76.263 147.446-266.701 223.288-437.458 174.239C166.533 939.802 24.207 766.008 7.51 569.728-11.602 345.042 84.628 164.5 278.298 69.576z" fill="#DB7729" /><path d="M746.189 941.69c164.224-161.1 203.3-360.18 104.637-536.201-54.584-97.367-135.383-156.61-249.185-161.188-91.208-3.676-150.84 46.448-177.551 143.15-26.123 94.54-0.39 159.411 81.669 206.351 6.881 3.943 17.141 4.122 18.253 15.12-133.049 46.458-265.595-15.56-307.595-146.243-38.932-121.083-24.821-235.443 67.021-327.644C388.67 29.384 517.345-9.775 664.07 31.109c190.116 52.992 331.612 223.678 351.519 420.296 22.492 221.988-70.958 402.022-259.579 500.05-10.7 4.198-12.713-0.323-9.82-9.764z" fill="#DB7729" /></svg>