<svg class="svg-icon" style="width: 1em;height: 1em;vertical-align: middle;fill: currentColor;overflow: hidden;" viewBox="0 0 1024 1024" version="1.1" xmlns="http://www.w3.org/2000/svg"><path d="M158.72 445.44c2.048 3.584 1.024 6.144 1.024 9.216-1.536 41.984 6.144 81.92 20.992 120.832 16.384 41.984 40.96 78.336 73.728 109.568 30.72 29.696 66.048 51.712 105.472 66.56 61.952 23.04 124.928 25.088 188.928 9.728 54.784-12.8 103.424-37.376 144.384-76.8 38.912-37.888 65.024-82.944 75.264-136.704 5.632-29.696 7.68-59.904 2.56-90.112-6.144-35.328-22.528-66.56-45.056-94.208-27.136-33.792-61.44-58.368-101.376-74.752-20.992-8.704-43.52-13.312-66.048-15.872-25.6-2.56-51.2-0.512-76.288 4.608-32.768 6.656-62.976 19.968-90.112 39.424L387.584 320h-2.048c-0.512-3.072 1.536-4.608 3.072-6.656 25.6-26.112 55.296-46.592 89.6-61.44 46.08-19.968 94.208-26.624 143.36-23.04 75.776 5.632 139.776 36.352 188.416 95.744 22.528 27.648 36.864 58.88 46.592 93.184 9.728 33.28 14.848 67.072 13.824 101.888-1.024 35.84-8.192 70.656-19.968 104.448-12.288 34.304-29.696 65.536-51.712 94.208-29.184 37.888-64.512 68.608-107.008 91.136-33.28 18.432-68.608 30.72-105.472 37.888-47.104 9.216-94.208 9.728-141.312 1.536-71.168-12.288-134.144-42.496-186.368-92.672-44.032-41.984-74.24-92.16-91.136-150.528-12.8-44.544-14.848-89.6-12.8-135.168 0-6.656 0-15.872 4.096-25.088z" fill="#005BAC" /><path d="M536.576 315.904c59.904 1.024 110.592 22.528 150.016 68.096 24.064 27.648 37.888 59.904 39.936 97.28 3.584 74.24-30.72 127.488-93.184 163.84-44.544 25.6-92.672 31.232-142.336 19.968-55.296-12.288-98.304-43.008-126.464-92.672-35.328-62.464-23.552-144.384 27.136-196.096 30.72-31.744 68.096-50.688 111.104-58.368 11.264-1.536 22.528-2.56 33.792-2.048z m0 93.696c-2.56 0-3.584 2.048-5.12 3.072-28.16 25.088-55.808 50.176-83.968 75.264-4.096 3.584-4.096 6.144 0 9.728 9.728 8.192 18.944 16.896 28.16 25.6 18.432 16.384 36.864 32.768 54.784 49.664 3.584 3.584 6.656 3.584 10.24 0 28.16-25.6 55.808-50.688 83.968-76.288 3.584-3.072 3.072-5.632 0-8.192-3.584-3.072-7.168-6.144-10.752-9.728-25.088-22.528-49.664-45.056-74.752-67.584-0.512-0.512-2.048-1.024-2.56-1.536z" fill="#F6AB00" /><path d="M660.48 684.032c-9.216 5.632-17.92 11.264-27.136 16.384-32.256 17.92-66.048 30.72-102.4 36.352-46.08 7.168-91.648 3.584-136.192-9.728-42.496-12.8-79.872-34.304-113.664-62.976-24.576-21.504-44.544-46.592-60.928-74.752-19.456-33.792-31.232-70.144-35.84-108.544-4.096-36.352 0-71.68 10.24-106.496 10.752-36.352 28.672-69.12 53.248-97.792 23.552-27.648 51.712-50.688 84.992-66.56 6.144-3.072 12.288-7.68 19.968-7.168-79.872 65.024-119.296 147.968-113.152 250.88 3.584 55.808 22.016 107.52 57.856 150.528 99.84 118.272 222.208 138.752 363.008 79.872z" fill="#005BAC" /><path d="M671.232 206.848c-118.784-29.696-221.696-4.608-301.568 88.064-79.36 92.16-88.064 197.632-40.96 311.296-7.68-6.144-11.776-12.8-15.36-19.456-22.016-36.352-36.864-75.776-41.984-118.272-8.192-65.024 3.072-125.952 38.912-181.76 34.304-53.248 82.432-87.552 142.336-106.496 35.84-11.264 72.704-15.36 110.08-10.24 37.376 4.608 73.216 15.36 105.984 33.792 0.512 0 1.024 0.512 2.56 3.072z" fill="#005BAC" /></svg>