<svg class="svg-icon" style="width: 1.5em;height: 1em;vertical-align: middle;fill: currentColor;overflow: hidden;" viewBox="0 0 1536 1024" version="1.1" xmlns="http://www.w3.org/2000/svg"><path d="M0 512a768 512 0 1 0 1536 0A768 512 0 1 0 0 512z" fill="#FFFFFF" /><path d="M796.16 1023.296l325.184-325.184a247.232 247.232 0 0 0 0.704-349.696 247.232 247.232 0 0 0-349.632 0.704L618.368 503.232l-13.824 13.824a24.704 24.704 0 1 1-34.88-34.944l453.568-453.568C1321.92 98.688 1536 288.512 1536 511.616c0 276.48-328.704 501.76-739.84 511.68zM511.104 994.24C213.312 923.84 0 734.336 0 511.616 0 235.52 327.616 10.624 737.728 0l-325.12 325.12a247.232 247.232 0 0 0-0.64 349.632 247.232 247.232 0 0 0 349.632-0.64L915.584 520l13.824-13.824a24.704 24.704 0 1 1 34.88 34.88L511.168 994.24z" fill="#075DB0" /><path d="M919.424 6.912L506.24 420.16a111.232 111.232 0 0 0-0.32 157.376 111.232 111.232 0 0 0 157.376-0.32l75.136-75.136 92.736-92.8a160.704 160.704 0 0 1 227.2-0.384 160.704 160.704 0 0 1-0.384 227.264l-380.928 380.864a1128 1128 0 0 1-63.36-6.4L1023.04 601.28c43.52-43.52 43.712-113.984 0.32-157.376a111.232 111.232 0 0 0-157.312 0.32l-75.136 75.136-92.736 92.8a160.704 160.704 0 0 1-227.264 0.384 160.704 160.704 0 0 1 0.448-227.2L856.576 0c21.248 1.728 42.24 4.032 62.848 6.912z" fill="#075DB0" /></svg>