<svg class="svg-icon" style="width: 1em;height: 1em;vertical-align: middle;fill: currentColor;overflow: hidden;" viewBox="0 0 1024 1024" version="1.1" xmlns="http://www.w3.org/2000/svg"><path d="M640.085 771.413c-35.754-30.208-78.933-47.872-125.312-47.872-47.232 0-91.093 18.347-127.189 49.494a286.421 286.421 0 0 0 124.587 28.373 286.421 286.421 0 0 0 127.914-30.037m89.515-69.12c-51.456-55.382-128.725-90.71-214.827-90.71-87.637 0-166.058 36.566-217.472 93.611a290.172 290.172 0 0 0 50.944 44.928c45.227-46.336 103.339-74.24 166.528-74.24 62.208 0 119.467 27.05 164.395 72.107 18.56-13.227 35.456-28.587 50.432-45.654m-362.368-103.04a208.085 208.085 0 0 0-24.448-26.112c-31.488-26.026-74.752-45.824-119.765-56.106a288.427 288.427 0 0 0 45.696 150.656 329.685 329.685 0 0 1 98.517-68.438m289.45-2.517c6.913-10.283 16.897-20.01 26.753-29.355 31.018-22.698 73.514-41.045 117.888-49.664a288.427 288.427 0 0 1-43.734 146.774 331.008 331.008 0 0 0-100.906-67.755m-20.608-223.019c-35.158-27.434-77.014-43.349-121.899-43.349-48.555 0-88.917 15.36-122.24 44.587l0.768 0.341c30.635 14.379 63.957 36.693 121.77 37.845 57.089-4.906 91.051-25.386 114.433-36.01a261.12 261.12 0 0 0 7.168-3.414m-121.899-90.453c61.141 0 117.547 25.173 162.39 67.413 13.61-8.192 29.951-18.005 52.65-30.464a288.341 288.341 0 0 0-217.045-98.688A288.427 288.427 0 0 0 291.84 323.968c23.765 12.8 40.533 21.675 56.661 29.867 45.355-44.118 103.04-70.571 165.675-70.571m111.915 145.408c-7.126 41.899-11.734 104.96-1.579 129.75 6.4-7.34 13.867-14.593 22.656-22.273 41.813-35.84 93.867-57.386 150.613-70.229a288.427 288.427 0 0 0-40.277-107.648c-104.832 55.936-101.077 57.003-131.413 70.4m-176.171 21.12c7.637 29.867 5.248 88.747-3.285 124.288a362.624 362.624 0 0 1 129.834-1.195c-8.746-32.469-11.605-89.514-4.266-122.453-13.184 3.541-28.886 5.461-56.534 6.613-30.208 0-50.261-2.858-65.706-7.253m-51.414 112.555c10.027-38.443 5.035-102.955-3.242-137.174a191.573 191.573 0 0 0-20.31-7.893c-34.09-11.093-39.893-29.013-112.341-52.139a288.341 288.341 0 0 0-36.608 103.68c57.6 13.44 110.805 36.992 152.96 73.131 7.68 7.253 14.08 13.867 19.541 20.395m113.579-391.254c187.008 0 339.499 152.918 339.499 340.395S699.136 851.883 512.128 851.883 172.587 698.965 172.587 511.488 325.163 171.093 512.17 171.093" fill="#E60012" /></svg>