<svg class="svg-icon" style="width: 1em;height: 1em;vertical-align: middle;fill: currentColor;overflow: hidden;" viewBox="0 0 1024 1024" version="1.1" xmlns="http://www.w3.org/2000/svg"><path d="M233.984 526.336c13.312 0 26.624 1.024 39.424 0 40.96-4.096 69.12 15.872 90.112 48.128 8.704 13.312 17.408 26.112 27.648 38.4 11.776 13.824 19.968 14.848 32.768 2.048 9.216-9.216 17.92-19.456 27.136-28.672 4.608-4.608 9.216-9.728 13.824-14.336 35.84-36.352 58.88-36.352 93.696 0 13.312 13.312 25.088 27.648 38.4 41.472 15.36 15.872 23.552 14.848 36.864-2.048 15.36-19.456 26.112-41.984 44.032-60.416 15.36-15.872 32.768-24.576 55.296-24.064 37.888 0.512 76.288 0 114.176 0.512 16.896 0 19.968 3.584 17.92 19.968-12.8 101.376-56.832 184.832-137.216 249.344-118.784 95.232-290.816 99.84-413.696 13.824-92.16-64.512-142.848-153.6-156.16-264.704-1.536-12.8 2.56-18.944 16.384-18.944 19.968-0.512 39.424-1.024 59.392-0.512 0-0.512 0 0 0 0zM783.36 499.2c-15.36 0-30.72-0.512-45.568 0-45.056 2.56-80.896-16.384-112.128-46.592-31.744-30.208-53.248-67.584-78.848-102.4-3.072-4.608-6.144-9.216-10.24-13.312-16.384-16.384-36.864-16.384-51.2 1.536-15.36 19.456-28.672 40.96-43.52 60.416-22.016 28.672-44.032 57.344-74.24 77.824-20.992 13.824-43.008 22.528-68.608 22.016-40.96-0.512-82.432 0-123.392 0-16.384 0-18.944-3.072-16.896-18.944 13.824-110.592 63.488-202.24 157.184-263.68 117.76-77.312 242.176-83.456 366.592-15.872C791.04 259.584 848.384 355.328 865.792 476.16c2.56 19.456 0.512 22.528-19.456 22.528-21.504 0.512-41.984 0-62.976 0.512z" fill="#D7000F" /></svg>