<svg class="svg-icon" style="width: 1em;height: 1em;vertical-align: middle;fill: currentColor;overflow: hidden;" viewBox="0 0 1024 1024" version="1.1" xmlns="http://www.w3.org/2000/svg"><path d="M487.424 570.88c0-19.968 1.024-39.936-0.512-59.904-0.512-13.824 5.12-18.432 17.92-20.48 66.048-11.776 128-33.792 182.784-73.728 18.944-13.824 35.84-29.184 46.08-51.2 10.752-22.528 4.608-44.032-17.92-55.296-16.896-8.704-34.816-13.824-53.76-14.336-46.592-2.048-92.672 1.536-137.728 12.288-4.096 1.024-8.704 2.048-12.8 2.56-6.144 0.512-14.848 5.632-16.896-5.12-1.536-8.704 6.144-11.264 12.8-13.312 20.992-6.656 41.472-13.824 62.976-18.432 60.416-13.312 120.832-17.408 182.784-8.704 24.064 3.584 46.592 10.752 67.584 22.016 49.664 26.624 65.024 86.528 35.84 139.264-28.672 52.224-72.192 90.624-120.32 123.904-69.12 48.128-143.36 83.968-226.304 100.352-15.872 3.072-22.016-1.536-21.504-17.92-0.512-20.992-1.024-41.472-1.024-61.952z" fill="#0F3381" /><path d="M153.6 605.184c2.56-61.952 27.136-108.032 63.488-148.992 54.784-61.952 122.88-105.984 197.632-139.264 15.36-6.656 30.72-9.216 47.104-6.144 3.072 0.512 6.656 0 7.68 4.096 1.024 3.584-2.048 5.632-4.608 7.168-15.872 9.728-32.256 19.456-47.616 29.696-58.368 38.912-112.64 80.896-139.264 149.504-8.192 21.504-9.216 43.008-6.144 64.512 2.048 17.92 13.824 29.696 29.184 38.912 31.744 19.456 67.584 21.504 102.912 24.064 15.36 1.024 31.232 1.024 47.104 1.536 17.92 0 23.04 11.776 23.552 26.624 0 4.608-4.096 11.264 1.024 13.824 16.384 9.216 12.288 24.064 13.824 38.912 1.536 13.824 15.872 20.48 27.648 27.136 3.072 1.536 8.192 1.024 8.704 5.12 1.024 5.632-4.608 6.656-8.704 8.192-26.112 12.288-55.296 12.8-82.944 12.8-65.024-0.512-130.048-6.656-189.952-36.352-52.736-25.6-86.016-66.048-90.624-121.344z" fill="#6BB031" /><path d="M486.912 404.48c1.024-30.72 1.024-30.72 30.208-38.4 4.096-1.024 8.704-2.048 12.8-3.072 37.888-9.216 43.008-5.632 43.52 32.768 0 14.848-6.144 25.088-20.992 29.184-13.824 3.584-27.648 7.68-41.472 11.264-20.992 5.632-23.04 4.096-23.552-16.896-0.512-4.608-0.512-9.728-0.512-14.848z" fill="#0F3381" /></svg>