<svg class="svg-icon" style="width: 1em;height: 1em;vertical-align: middle;fill: currentColor;overflow: hidden;" viewBox="0 0 1024 1024" version="1.1" xmlns="http://www.w3.org/2000/svg"><path d="M510.464 153.6c14.848-0.512 28.672 0 42.496 2.048 22.528 3.072 45.056 7.168 66.56 14.336 16.896 5.632 33.792 12.288 49.664 19.968 18.944 9.216 36.864 19.968 53.76 32.256 14.848 10.752 28.672 22.528 41.472 35.328 22.016 22.528 41.472 46.592 56.832 73.728 11.776 19.968 20.992 40.96 29.184 62.464 1.536 4.096 1.536 8.192 0.512 12.288-9.728 31.744-23.04 61.952-44.032 88.064-15.36 19.456-33.792 35.328-55.808 47.104-20.48 10.752-42.496 16.896-66.048 19.456-16.384 1.536-33.28 1.536-49.664-0.512-1.024 0-2.56 0-3.072-1.536s1.024-2.048 1.536-2.56l36.864-36.864c4.608-4.608 4.608-10.752-0.512-15.872l-80.384-80.384-68.608-68.608c-7.168-7.168-12.288-7.168-19.456 0-11.776 11.776-23.552 24.064-35.328 35.84-13.312 12.8-26.624 25.6-39.424 38.912-10.752 10.752-20.992 20.992-31.232 31.744-4.608 4.608-8.704 6.656-15.872 4.096-37.376-13.824-76.288-19.456-116.224-17.408-22.528 1.536-44.032 5.632-65.536 12.8-12.8 4.096-25.6 8.704-37.888 14.336-3.584 1.536-5.12 1.024-4.608-3.072 2.56-17.408 5.12-34.816 9.728-52.224 5.12-18.432 11.776-36.864 19.456-54.272 5.632-13.312 12.8-26.112 20.48-38.4 8.704-14.336 17.92-27.648 28.16-40.448a345.514 345.514 0 0 1 42.496-44.032c13.824-11.776 28.16-23.04 43.008-32.256 14.848-9.216 29.696-17.408 45.568-24.576 26.112-11.776 53.248-20.48 81.408-25.6 22.016-4.096 44.032-6.656 64.512-6.144z" fill="#3A74B3" /><path d="M577.536 568.32c-2.56-2.56-5.632-2.56-8.704-3.584a1285.375 1285.375 0 0 0-59.904-15.36c-15.36-3.584-30.72-7.168-46.08-9.728-18.944-3.584-38.4-6.144-57.344-8.192-17.408-2.048-34.304-1.536-51.2-1.536-19.968 0-39.936 3.584-59.392 8.192-17.408 4.096-33.792 10.24-49.664 18.944-22.016 11.776-40.96 26.624-57.344 45.056-4.608 5.12-8.704 9.728-13.312 14.848-2.56 2.56-4.096 2.048-5.12-1.024-2.56-8.704-5.12-16.896-6.656-25.6-6.144-28.16-9.216-56.832-8.192-86.016 0-3.584 1.024-5.632 4.096-7.168 27.136-18.432 57.344-30.72 90.112-34.816 24.064-3.072 47.616-2.56 71.68 0.512 26.112 3.072 51.2 9.728 75.776 17.92 19.968 6.656 39.936 14.336 59.392 22.016 23.552 9.728 47.104 20.48 70.656 29.696 18.432 7.68 36.864 15.872 55.808 22.016 11.264 3.584 22.016 7.168 33.28 10.24 11.776 3.072 24.576 4.096 36.864 5.12 18.432 1.024 36.864-0.512 55.296-3.584 11.264-2.048 22.528-5.12 33.792-8.704 13.824-5.12 27.136-11.264 39.936-18.944 16.384-10.24 30.208-22.528 41.984-37.376 15.36-19.456 27.136-40.96 34.816-65.024 0.512-1.536 0.512-3.584 2.56-3.584s1.536 2.56 1.536 3.584c2.56 11.776 5.12 24.064 6.144 36.352 2.048 19.456 2.048 38.912 1.536 58.368-0.512 20.48-3.584 41.472-8.192 61.44-0.512 2.56-1.536 4.096-3.584 5.12-9.216 6.656-19.968 9.728-31.232 12.8-18.944 5.12-37.888 5.632-57.344 5.12-17.408-0.512-34.304-1.536-51.712-4.608-14.848-2.56-29.696-4.608-44.032-7.68-13.312-2.56-26.624-6.144-39.936-9.728-11.264-2.56-22.016-5.12-33.28-8.192-14.848-4.096-30.72-7.168-46.08-9.728-28.16-4.608-57.344-8.704-86.016-6.656-11.264 0.512-22.016 2.56-33.28 5.632-11.264 3.072-22.016 7.68-31.744 14.336-16.384 11.776-28.16 26.624-34.304 46.08-8.704 25.6-6.656 51.2 0.512 76.288 3.584 13.312 8.192 26.112 14.336 38.912 7.168 15.36 15.872 29.696 25.6 43.52 8.192 11.776 16.896 23.04 27.136 33.28 12.8 12.8 25.6 25.6 40.448 35.328 1.024 1.024 2.56 1.536 3.584 2.56 1.536 1.024 4.096 2.048 3.072 4.096s-3.584 1.024-5.12 1.024c-11.264-1.536-23.04-2.56-34.304-5.12-7.68-1.536-15.872-3.072-23.552-5.632-16.896-4.608-33.792-10.24-49.664-16.896-10.24-4.608-20.48-9.216-30.208-14.336-15.872-8.704-31.232-18.432-45.568-29.696-9.216-7.168-18.432-14.848-26.624-22.528-10.24-9.216-19.968-19.456-29.184-30.208-8.192-9.728-16.384-19.968-23.552-30.72-13.824-20.48-25.6-41.984-34.816-64.512-1.536-3.584-1.024-6.656 1.536-9.728 9.216-11.776 18.944-23.04 30.208-32.768 12.288-10.752 25.088-20.992 38.912-29.184 22.016-13.312 45.568-22.528 70.144-29.184 16.896-4.096 33.792-6.144 50.688-7.168 17.408-1.024 34.304-1.024 51.2 0.512 14.848 1.536 30.208 3.072 45.056 5.12 17.92 2.56 35.84 6.656 53.248 10.24 17.408 3.584 34.816 7.68 51.712 11.264 1.024-1.024 2.048 0 3.584-1.024z" fill="#F9C301" /><path d="M379.392 664.064c-1.024-17.408 3.072-33.792 12.8-48.128 6.656-10.752 15.872-18.432 27.136-24.576 3.072-1.536 5.12 0.512 6.656 2.048l52.224 52.224 24.576 24.576c6.656 6.656 11.776 6.656 18.432 0 12.288-12.288 25.088-24.576 37.376-36.864 10.24-10.24 19.968-20.48 30.208-30.72 2.56-2.56 5.632-5.12 8.192-8.192 2.048-2.048 4.608-1.024 7.168-0.512 10.24 3.072 20.992 6.656 31.232 9.728 15.872 5.12 31.744 9.216 48.128 12.8 14.848 3.584 30.208 6.656 45.056 8.704 24.064 3.584 48.128 4.608 72.704 3.584 15.872-0.512 31.232-3.072 46.08-8.192 1.536-0.512 3.584-2.048 5.12-0.512s0 3.584-0.512 5.12c-7.168 22.528-16.896 44.032-28.672 64.512-9.728 17.92-21.504 34.304-34.304 50.176-13.312 16.384-28.16 31.232-44.544 45.056-17.408 14.848-35.84 27.648-55.296 38.912C674.816 832 660.48 838.656 645.12 844.8a327.549 327.549 0 0 1-53.76 16.896c-24.576 5.632-49.664 8.704-74.752 8.704-3.584 0-6.144-1.024-9.216-2.56-20.48-12.288-37.888-28.16-54.272-45.568-18.432-19.968-33.792-41.984-46.592-66.048-11.776-22.016-20.992-45.056-25.088-69.632-1.536-7.68-2.048-15.36-2.048-22.528z" fill="#3A74B3" /></svg>