<svg class="svg-icon" style="width: 1.0791015625em;height: 1em;vertical-align: middle;fill: currentColor;overflow: hidden;" viewBox="0 0 1105 1024" version="1.1" xmlns="http://www.w3.org/2000/svg"><path d="M601.122 812.6L774.79 1024h272.893l-158.59-169.64-7.34-11.052-1.264-4.894-1.184-4.973v-13.499l1.184-4.894 1.263-4.973 2.448-6.158 4.894-7.341 6.157-11.051 7.341-8.605 158.59-184.402 11.13-13.499 8.525-12.314 6.158-12.315 7.42-12.314 4.894-12.236 3.71-12.314 2.132-12.315V469.61l-2.448-12.315-3.71-11.051-4.894-12.078-7.42-12.315-6.157-9.788-8.526-12.315L731.451 0l-54.073 47.916 163.483 197.9 9.788 13.578 7.42 13.499 3.71 7.42 1.185 6.079 1.263 7.42v6.157l-1.263 14.762-3.71 13.498-6.157 13.499-8.447 13.499-237.37 272.972-6.158 4.894-2.447 6.157-7.42 8.604-6.078 11.052-3.71 11.051-5.21 11.052-2.448 11.051-1.263 12.315-2.447 11.051v12.315l2.447 12.315 1.263 13.498 3.632 11.052 4.973 12.314 4.894 12.315 6.157 12.235 4.895 6.158z" fill="#004D28" /><path d="M349.148 294.996l1.184-19.656 3.71-20.919 1.185-9.71 3.63-11.05 7.421-18.473 8.605-17.208 4.973-8.526 4.894-8.604 12.314-15.078 11.052-15.787 15.788-12.315 14.998-11.367 17.209-11.052 17.525-8.288 18.392-6.158 11.052-3.71 9.867-1.184 9.868-2.526 11.051-1.184h9.789l11.051-2.447 18.472 2.447 18.393 3.71 18.472 2.447 17.208 7.342 8.605 3.71 8.604 3.71 17.209 8.604 15.788 9.789 13.498 12.314 11.052 13.499 7.341 6.157 4.973 7.342 11.92 13.577 8.683 17.209 8.605 17.209 1.184 8.604 3.71 8.604 4.894 18.393 3.71 18.472h-119.04l-83.597-83.439-108.146 105.542L554.39 400.775l83.597-83.597h119.277l-3.71 20.84-4.894 17.209-3.71 8.525-1.184 8.604-8.605 17.288-8.92 17.288-12.235 13.498-12.078 13.736-11.052 13.499-13.498 12.314-8.605 4.894-7.42 4.973-8.604 4.895-8.605 3.71-17.208 7.341-17.21 6.157-18.471 4.895-18.393 2.447-18.472 1.263-20.84-1.263-20.918-3.631-9.868-1.263-11.051-3.71-18.077-7.579-17.21-8.604-8.604-4.894-8.604-4.974-14.762-12.235-15.787-12.315-11.052-14.761-12.315-15.788-10.34-17.367-8.605-15.788-7.42-19.656-3.71-10.104-1.263-9.788-2.448-11.052-1.184-10.025-1.184-9.788z" fill="#D21B21" /><path d="M504.027 812.6L331.94 1024H57.784l159.773-169.64 6.157-11.052 2.447-4.894 1.263-4.973v-13.499l-1.263-4.894-2.447-4.973-1.184-6.158-4.973-7.341-7.342-11.051-8.604-8.605L44.285 592.518l-9.867-13.499-8.605-12.314-7.341-12.315-6.157-12.314L7.42 529.84l-3.71-12.314L0 505.21V469.61l3.71-12.315 3.71-11.051 4.895-12.078 4.894-12.315 8.604-9.788 8.605-12.315L374.96 0l54.074 47.916-163.483 197.9-11.052 13.578-6.157 13.499-3.71 7.42-1.263 6.079-2.447 7.42v6.157l2.447 14.762 2.526 13.498 7.341 13.499 8.605 13.499 237.29 272.972 4.895 4.894 3.71 6.157 6.158 8.604 6.078 11.052 4.973 11.051 4.894 11.052 1.184 11.051 2.526 12.315 1.185 11.051v12.315l-1.185 12.315-2.526 13.498-2.131 11.052-6.078 12.314-5.29 12.473-6.157 12.235-3.63 6.157z" fill="#004D28" /></svg>