<svg class="svg-icon" style="width: 1em;height: 1em;vertical-align: middle;fill: currentColor;overflow: hidden;" viewBox="0 0 1024 1024" version="1.1" xmlns="http://www.w3.org/2000/svg"><path d="M511.701 852.779c-187.605 0-340.224-152.662-340.224-340.267s152.619-340.224 340.224-340.224c187.648 0 340.267 152.619 340.267 340.224S699.349 852.779 511.701 852.779z m0-659.2c-175.786 0-318.89 143.104-318.89 318.933 0 175.872 143.061 318.933 318.89 318.933 175.872 0 318.934-143.061 318.934-318.933 0-175.83-143.062-318.89-318.934-318.89zM658.048 411.69c33.579 19.072 78.507 58.538 94.25 96.725 0 14.08-4.607 37.376-23.722 37.376-20.565-9.045-21.419-2.56-34.859 13.227-13.824 27.904-11.306 47.189-6.485 78.506 1.28 22.016 7.339 45.099 7.339 67.968-11.52 12.8-31.702 29.782-47.616 32.939-4.864-4.821-3.798-8.192-4.864-12.587-0.427-44.928-0.854-89.6-1.024-134.314-3.371-10.07-15.104-37.12-27.734-30.848-1.024 2.133-1.877 4.394-2.688 6.698-0.426 34.219 1.878 74.326-17.834 105.387-32.555 26.197-79.574 30.208-118.187 20.992-43.221-19.968-44.672-29.013-52.907-73.899-0.384-15.53-0.81-31.061-1.024-46.592-2.09-1.877-4.181-3.754-6.272-5.461-22.656 5.675-20.138 47.232-24.149 66.73-11.52 36.737-36.693 72.62-71.125 92.758h-7.339c-12.63-8.363-8.619-57.685-5.248-66.944 22.443-20.139 22.443-20.139 27.05-25.813 23.51-41.942 30.422-73.643-6.911-106.582-25.174-12.586-30.635 19.499-51.627 11.52-12.373-15.914-15.36-18.261-7.339-34.389 31.062-35.712 83.072-91.52 133.675-91.52 2.944 1.45 5.888 2.944 8.79 4.608 8.405 13.653 17.45 25.813 48.298 76.63 4.181 21.375-4.01 42.58 5.461 64.213 26.454 13.226 67.328 10.88 96.726 2.517 18.261-14.72 12.8-30.635 12.16-51.03a222.72 222.72 0 0 1 51.626-95.658c14.72-9.899 16.384-8.832 33.579-3.157z m77.013-74.71c11.136 4.395 11.136 4.395 14.08 6.486v5.034c-16.597 10.283-32.725 17.024-49.749 24.15-29.995 1.45-64.853-14.08-88.533 3.754-20.182 27.947-37.803 58.795-57.942 87.552-17.621 11.734-24.32 12.374-44.501 15.318-52.65-12.203-56.448-52.48-81.408-95.915l-5.675-6.315c-29.184-8.576-69.248 0.214-97.578 5.035-8.406 0-15.958 0.213-22.443-2.09-14.72-19.713-7.381-35.03 5.461-51.414 4.182-1.024 4.182-1.024 71.339-3.157 26.24-3.115 54.144-4.182 81.835-8.363 15.957-7.595 13.226-23.296 18.688-36.523 20.565-14.506 61.696-10.282 74.282 14.891 2.731 15.104 0.427 18.261 16.384 22.656 56.875 1.493 108.288 6.315 165.76 18.901z m-88.106 180.054c18.432-0.427 33.962-1.067 33.962-24.32-24.96-59.819-69.034-14.08-46.976 17.408 4.182 2.304 8.576 4.608 13.014 6.912z m-85.206 121.088c5.462-14.507 6.699-20.992 0.598-33.152-10.07-0.64-16.768 1.877-25.6 3.754-6.272 0-67.542-3.968-73.643 2.134-10.496 27.264 20.992 38.186 42.197 42.581 16.342-1.707 43.648-1.45 56.448-15.36zM383.573 531.712c11.094-3.541 20.566-7.125 26.624-18.261 0-14.891-7.338-26.88-15.701-35.67-14.72-1.024-34.432 12.374-34.432 27.307 5.035 7.552 12.8 22.187 23.467 26.624z m140.587-111.83c18.475-10.709 26.027-31.274 21.419-50.175-10.07-10.07-52.907-4.608-65.494-0.64-5.845 18.048 6.742 45.141 26.24 53.546 9.43-0.64 9.43-0.64 17.835-2.73z" fill="#E50113" /></svg>