<svg class="svg-icon" style="width: 1em;height: 1em;vertical-align: middle;fill: currentColor;overflow: hidden;" viewBox="0 0 1024 1024" version="1.1" xmlns="http://www.w3.org/2000/svg"><path d="M1017.29 255.13L772.35 503.425 520.575 255.13h496.714z" fill="#FBC400" /><path d="M1017.29 737.926L772.35 1010.33 520.575 737.926h496.714z" fill="#F39800" /><path d="M520.575 737.926l-255.13 272.404L6.71 737.926h513.864z" fill="#C30E19" /><path d="M1017.29 255.13L768.87 13.67 520.575 255.13h496.714z" fill="#F39800" /><path d="M1017.29 737.926l-248.42-226.05-248.295 226.05h496.714z" fill="#FCC902" /><path d="M6.71 737.926l255.13-241.46L6.71 255.13v482.796z" fill="#8D202E" /><path d="M768.87 13.67L520.575 255.13 261.84 13.67H768.87z" fill="#ED6D00" /><path d="M261.84 13.67L6.71 255.13h513.865L261.84 13.67z" fill="#DA4206" /><path d="M520.575 737.926l-256.87 272.404h513.864L520.575 737.926z" fill="#ED6D00" /><path d="M261.84 496.466L6.71 737.926h513.865L261.84 496.466z" fill="#DA4206" /><path d="M520.575 255.13L261.84 496.466 6.71 255.13" fill="#C30E19" /></svg>