<svg class="svg-icon" style="width: 1em;height: 1em;vertical-align: middle;fill: currentColor;overflow: hidden;" viewBox="0 0 1024 1024" version="1.1" xmlns="http://www.w3.org/2000/svg"><path d="M292.267 625.067h-51.2c0-25.6 19.2-42.667 42.666-42.667H345.6c8.533 0 38.4 6.4 40.533 42.667V691.2c0 6.4 2.134 14.933 6.4 21.333h-44.8c-4.266-6.4-6.4-12.8-6.4-19.2-14.933 10.667-36.266 21.334-64 19.2-21.333 0-34.133-14.933-36.266-34.133 0-19.2 10.666-29.867 25.6-34.133 19.2-6.4 53.333-10.667 68.266-17.067v-2.133c0-8.534-6.4-12.8-12.8-14.934h-17.066c-8.534 2.134-12.8 8.534-12.8 14.934z m42.666 25.6L300.8 661.333c-8.533 2.134-10.667 10.667-8.533 19.2 2.133 4.267 6.4 8.534 14.933 6.4 23.467-4.266 29.867-23.466 27.733-36.266zM166.4 537.6c25.6 0 42.667 23.467 40.533 42.667 0 12.8-10.666 32-27.733 38.4 17.067 2.133 36.267 17.066 38.4 42.666 2.133 25.6-17.067 46.934-44.8 49.067H42.667V537.6H166.4z m-72.533 36.267v32h42.666c10.667-2.134 14.934-10.667 14.934-17.067 0-8.533-6.4-14.933-14.934-14.933H93.867z m0 66.133v34.133h49.066c10.667 0 17.067-8.533 17.067-17.066C157.867 646.4 149.333 640 140.8 640H93.867zM467.2 712.533H416V582.4h51.2v19.2c8.533-12.8 23.467-19.2 40.533-19.2 25.6 0 46.934 17.067 49.067 42.667v87.466h-51.2V640c0-8.533-6.4-17.067-19.2-19.2a19.12 19.12 0 0 0-19.2 19.2v72.533z m213.333-145.066H736l-53.333 57.6L736 712.533h-53.333L648.533 659.2 627.2 680.533v32H576v-172.8h51.2v83.2l53.333-55.466z"  /><path d="M721.067 362.667c17.066 17.066 38.4 46.933 51.2 83.2 21.333 57.6 25.6 117.333 17.066 179.2-4.266 34.133 8.534 70.4 21.334 87.466 2.133-19.2 14.933-51.2 53.333-61.866 32-8.534 72.533-10.667 117.333 10.666-19.2-25.6-46.933-40.533-74.666-46.933-21.334-4.267-44.8-21.333-55.467-49.067-14.933-46.933-46.933-132.266-130.133-202.666z" fill="#F6AB00" /><path d="M573.867 437.333l4.266 4.267c12.8 14.933 32 21.333 51.2 23.467 12.8 2.133 23.467 2.133 34.134 0 25.6-4.267 68.266 0 106.666 14.933-12.8-96-93.866-168.533-194.133-168.533-34.133 0-66.133 8.533-96 25.6 0 53.333 38.4 81.066 64 89.6 6.4 14.933 17.067 38.4 42.667 51.2-2.134-6.4-10.667-19.2-12.8-40.534z" fill="#EA5504" /></svg>