<svg class="svg-icon" style="width: 1em;height: 1em;vertical-align: middle;fill: currentColor;overflow: hidden;" viewBox="0 0 1024 1024" version="1.1" xmlns="http://www.w3.org/2000/svg"><path d="M369.152 328.192c48.128-7.168 75.776 11.264 83.456 56.32 2.56 2.048 5.12 0.512 7.168-1.024 65.536-48.64 140.8-60.416 220.16-55.296 33.28 2.048 65.536 8.192 95.232 24.576 16.896 9.728 31.232 22.016 40.96 39.424 15.36 27.136 11.264 55.808-9.728 76.288-22.016 20.992-49.152 24.576-76.288 9.728-122.368-68.608-273.408-30.72-348.16 89.088-12.8 20.992-26.624 41.984-29.184 67.584-0.512 4.096-1.024 8.704-8.192 12.288 0.512-53.76 15.872-103.424 27.136-157.184-31.744 14.336-44.032 40.448-57.344 64.512-55.808 100.352-41.984 195.072 25.6 284.672 3.072 3.584 10.752 7.168 5.12 12.288s-8.704-3.072-12.288-6.144c-37.376-31.232-71.168-66.56-95.232-109.056-41.984-73.216-47.616-150.016-20.992-229.376 2.048-6.144 4.096-12.288 6.144-18.944 14.336-29.696 29.184-59.392 49.152-85.504 24.064-33.792 53.76-63.488 97.28-74.24z" fill="#244180" /><path d="M369.152 328.192c-43.52 10.752-73.216 40.448-98.304 75.264-19.456 26.624-34.816 55.808-49.152 85.504-11.264 2.56-9.728-6.144-9.216-11.776 6.656-156.16 94.208-284.16 255.488-315.904 40.448-8.192 83.456-12.8 124.416 6.144 26.112 11.776 51.2 25.6 59.392 54.272 14.336 49.664-30.72 93.696-82.944 84.48-60.416-10.752-120.832-12.8-179.2 10.752-8.192 1.536-16.384 3.072-20.48 11.264zM584.192 870.4c-5.632 0.512-9.728-3.072-13.824-6.656-44.544-44.544-89.088-89.6-134.144-134.144-9.728-9.728-8.704-18.944 0-27.648L576 562.176c5.632-5.632 9.728-4.608 14.848 0.512 48.64 48.64 96.768 97.28 145.408 145.408 6.144 6.144 5.632 10.752 0 16.896-46.592 46.592-93.184 93.184-139.776 140.288-3.072 3.072-7.168 5.12-12.288 5.12z" fill="#F6BE14" /></svg>